<?xml version="1.0" encoding="UTF-8" standalone="no"?>
<!-- Created with Inkscape (http://www.inkscape.org/) -->

<svg
   xmlns:dc="http://purl.org/dc/elements/1.1/"
   xmlns:cc="http://creativecommons.org/ns#"
   xmlns:rdf="http://www.w3.org/1999/02/22-rdf-syntax-ns#"
   xmlns:svg="http://www.w3.org/2000/svg"
   xmlns="http://www.w3.org/2000/svg"
   xmlns:xlink="http://www.w3.org/1999/xlink"
   xmlns:sodipodi="http://sodipodi.sourceforge.net/DTD/sodipodi-0.dtd"
   xmlns:inkscape="http://www.inkscape.org/namespaces/inkscape"
   width="297mm"
   height="210mm"
   viewBox="0 0 297 210"
   version="1.1"
   id="svg8"
   sodipodi:docname="cam12.svg"
   inkscape:version="0.92.2 (5c3e80d, 2017-08-06)">
  <defs
     id="defs2">
    <linearGradient
       inkscape:collect="always"
       id="linearGradient1292">
      <stop
         style="stop-color:#000000;stop-opacity:1;"
         offset="0"
         id="stop1288" />
      <stop
         style="stop-color:#000000;stop-opacity:0;"
         offset="1"
         id="stop1290" />
    </linearGradient>
    <linearGradient
       inkscape:collect="always"
       xlink:href="#linearGradient1292"
       id="linearGradient1294"
       x1="100.19638"
       y1="215.04804"
       x2="298.51037"
       y2="215.04804"
       gradientUnits="userSpaceOnUse" />
  </defs>
  <sodipodi:namedview
     id="base"
     pagecolor="#ffffff"
     bordercolor="#666666"
     borderopacity="1.0"
     inkscape:pageopacity="0.0"
     inkscape:pageshadow="2"
     inkscape:zoom="0.58"
     inkscape:cx="530.57476"
     inkscape:cy="394.51144"
     inkscape:document-units="mm"
     inkscape:current-layer="layer1"
     showgrid="false"
     inkscape:window-width="1366"
     inkscape:window-height="705"
     inkscape:window-x="-8"
     inkscape:window-y="-8"
     inkscape:window-maximized="1" />
  <metadata
     id="metadata5">
    <rdf:RDF>
      <cc:Work
         rdf:about="">
        <dc:format>image/svg+xml</dc:format>
        <dc:type
           rdf:resource="http://purl.org/dc/dcmitype/StillImage" />
        <dc:title></dc:title>
      </cc:Work>
    </rdf:RDF>
  </metadata>
  <g
     inkscape:label="Capa 1"
     inkscape:groupmode="layer"
     id="layer1"
     transform="translate(0,-87)">
    <path
       style="opacity:1;fill:#5fd38d;fill-opacity:1;fill-rule:nonzero;stroke:none;stroke-width:1.46500003;stroke-linecap:butt;stroke-linejoin:miter;stroke-miterlimit:4;stroke-dasharray:none;stroke-dashoffset:0;stroke-opacity:1;paint-order:stroke fill markers"
       d="M -0.5880778,87.68523 V 299.35184 H 298.09736 V 87.68523 Z M 147.60806,112.25078 c 9.57732,0 17.41326,0.0615 17.41324,0.13677 -2e-5,0.0753 -1.05204,0.67902 -2.33774,1.34155 -2.1442,1.10492 -3.35315,1.19693 -14.6096,1.1094 -6.74959,-0.0525 -13.20067,-0.20863 -14.33567,-0.34691 -1.97299,-0.24038 -3.54439,-1.06801 -3.54397,-1.86664 1.1e-4,-0.2058 7.83643,-0.37417 17.41374,-0.37417 z m -21.67419,0.67549 c 0.50759,-0.0101 1.37598,0.39984 2.84826,1.30539 4.80963,2.95827 8.10995,3.78212 16.52296,4.12579 8.93717,0.36508 12.20928,-0.20446 18.05603,-3.14269 3.29534,-1.65603 4.05919,-1.84698 4.62516,-1.15813 1.00082,1.21808 0.39435,1.77795 -3.73489,3.44768 -7.72773,3.12484 -16.01882,3.98928 -26.0882,2.7203 -2.71813,-0.34255 -5.57517,-1.23499 -8.34916,-2.60868 -4.24892,-2.10408 -5.20069,-3.06715 -4.37146,-4.4224 0.10463,-0.17101 0.26058,-0.26266 0.4913,-0.26726 z m -2.62464,2.67367 2.40933,1.74034 c 4.63609,3.34837 8.50315,4.28206 19.04178,4.599 9.03752,0.2718 9.84292,0.20222 15.05214,-1.30591 3.02708,-0.87639 6.65544,-2.24315 8.06278,-3.03683 l 2.55875,-1.44269 2.33204,1.20163 c 1.28274,0.66101 5.84224,2.42606 10.1323,3.92246 8.98761,3.13492 19.31412,7.84266 19.30428,8.80077 -0.004,0.36044 -0.78797,3.27254 -1.74267,6.47088 -2.61758,8.76921 -6.28467,25.87652 -7.70013,35.92155 -0.69314,4.91902 -1.79918,10.95599 -2.45759,13.4155 -1.73654,6.48688 -2.088,20.23074 -0.86433,33.79499 1.34917,14.95535 2.69108,35.55716 2.87523,44.13906 0.12646,5.89378 -0.0157,7.45348 -0.74812,8.19656 -1.23867,1.2565 -9.80386,3.05173 -19.87756,4.16666 -7.6397,0.84554 -37.72396,1.18476 -46.80573,0.52771 -11.97669,-0.86648 -20.95171,-2.55662 -23.1585,-4.3616 -1.16158,-0.95009 -1.24182,-1.52817 -1.12477,-8.11743 0.0693,-3.90192 0.93622,-17.5584 1.92633,-30.34783 2.01609,-26.04213 2.09829,-41.1102 0.25889,-47.40176 -0.52732,-1.80364 -1.74099,-7.16955 -2.69676,-11.92459 -2.229048,-11.08956 -5.69122,-22.63627 -9.83347,-32.79355 -1.805422,-4.42711 -3.319224,-8.58089 -3.363943,-9.23048 -0.114149,-1.65812 9.462764,-6.34177 22.517773,-11.01224 5.61172,-2.00761 11.0352,-4.16124 12.05241,-4.78608 z m 80.76941,15.14431 c 0.94763,0.0441 3.66691,2.39761 5.80545,5.13037 1.61611,2.06516 2.87631,4.77768 4.33048,9.32063 1.12809,3.52423 3.24833,9.22489 4.71181,12.6682 1.46348,3.44331 3.61462,8.5007 4.78029,11.23862 l 2.11932,4.97789 -3.98704,3.99897 c -2.19288,2.1993 -5.71384,4.95352 -7.82412,6.12081 -3.6844,2.03802 -15.79859,7.05309 -17.0371,7.05309 -0.32898,0 -1.32123,-2.24219 -2.20493,-4.98312 l -1.60674,-4.98364 1.29182,-9.10786 c 0.71037,-5.00938 2.09224,-12.76162 3.07082,-17.22686 1.718,-7.83915 5.69568,-23.14031 6.25941,-24.07871 0.0562,-0.0936 0.15516,-0.13469 0.29053,-0.12839 z m -119.307422,3.39737 c 0.04095,0.001 0.08007,0.008 0.117769,0.0209 1.052805,0.35448 6.662,14.50689 9.393517,23.70088 1.315286,4.42711 3.137051,11.75994 4.048252,16.29511 l 1.656548,8.24581 -1.422049,4.22274 c -0.782104,2.32268 -1.4894,4.27568 -1.571984,4.33959 -0.08259,0.0639 -2.275372,-0.73798 -4.872634,-1.78174 -5.942714,-2.3882 -9.17258,-4.06451 -13.281457,-6.89378 -3.955475,-2.72365 -10.267832,-8.25028 -10.498058,-9.19119 -0.09234,-0.37742 1.59026,-4.9662 3.739043,-10.19735 2.148783,-5.23115 4.959662,-12.63133 6.246434,-16.44498 2.368957,-7.02097 5.175047,-12.3585 6.444619,-12.31605 z m -17.358759,41.01262 c 0.187605,0 1.813728,1.3602 3.614008,3.02216 5.868203,5.41733 13.431822,9.9436 21.764469,13.02455 2.9967,1.10802 3.570881,1.53688 3.325552,2.48449 -0.368563,1.42361 -1.554982,1.41261 -7.135152,-0.0639 -8.077171,-2.13726 -17.443378,-7.65341 -21.512846,-12.66978 -1.963889,-2.42086 -2.031029,-2.64713 -1.236835,-4.17819 0.461857,-0.89039 0.9932,-1.6193 1.180804,-1.6193 z m 159.195371,1.25351 c 0.0199,-0.004 0.0339,-0.003 0.041,0.005 0.11327,0.12782 0.37446,0.78823 0.58055,1.46732 0.29841,0.98339 -0.49781,2.08166 -3.91129,5.39554 -5.02443,4.87782 -11.69811,8.61763 -18.52505,10.38129 -5.64206,1.45756 -7.46018,1.51303 -7.20155,0.21904 0.12075,-0.60407 2.79559,-1.9823 7.28146,-3.75109 9.05112,-3.5689 13.06513,-5.90843 17.78054,-10.364 1.95375,-1.84608 3.65587,-3.28542 3.95435,-3.35282 z"
       id="rect1277"
       inkscape:connector-curvature="0" />
    <path
       style="opacity:1;fill:#ff0000;fill-opacity:1;fill-rule:nonzero;stroke:none;stroke-width:1.46499991;stroke-linecap:butt;stroke-linejoin:miter;stroke-miterlimit:4;stroke-dasharray:none;stroke-dashoffset:0;stroke-opacity:1;paint-order:stroke fill markers"
       d="m 378.13446,349.95909 c -1.88051,-1.96358 -17.43234,-19.76775 -28.00162,-32.05705 l -3.43679,-3.99608 5.3194,-5.676 5.31939,-5.676 h 22.73601 22.73601 l 5.59521,5.6122 5.5952,5.61219 -2.3435,2.74388 c -3.90156,4.56814 -31.1586,35.70561 -31.25588,35.70561 -0.0498,0 -1.0684,-1.02094 -2.26343,-2.26875 z m 10.41214,-10.93342 c 0.68399,-0.89675 1.14388,-1.7302 1.02198,-1.8521 -0.1219,-0.1219 -2.46242,-0.0151 -5.20116,0.23737 -2.85951,0.26359 -6.60634,0.29101 -8.8006,0.0644 -2.10158,-0.21702 -3.98616,-0.30289 -4.18794,-0.19083 -0.53632,0.29785 1.11464,2.44878 5.27006,6.86601 l 3.6737,3.90517 3.49017,-3.69979 c 1.9196,-2.03488 4.04981,-4.43349 4.73379,-5.33025 z m 1.92003,-5.65966 c 2.99077,-0.89501 4.69529,-2.70321 3.91776,-4.15606 -0.86647,-1.619 -3.39382,-2.24272 -11.23602,-2.7729 -10.66857,-0.72127 -19.6765,-1.44815 -21.8672,-1.76455 l -1.86718,-0.26967 1.00385,1.37463 c 0.55211,0.75604 2.17543,2.66424 3.60738,4.24043 l 2.60353,2.8658 1.28417,-1.19408 c 2.29204,-2.13127 7.78817,-1.1284 10.5197,1.91952 0.8953,0.99899 1.22516,1.04813 5.25397,0.78268 2.36429,-0.15579 5.4153,-0.61739 6.78004,-1.0258 z m 12.67571,-10.87085 c 1.63536,-1.75061 6.03719,-6.85067 7.00568,-8.11694 0.56584,-0.7398 0.22072,-1.26093 -3.08408,-4.65692 -2.04667,-2.10315 -4.00635,-3.8239 -4.35484,-3.8239 -0.4736,0 -0.63362,0.96498 -0.63362,3.82107 v 3.82106 l -4.89574,-0.0113 -4.89575,-0.0112 -1.0274,-2.33967 c -1.29929,-2.95883 -4.05869,-5.02787 -7.72433,-5.79182 -3.78096,-0.78799 -10.41735,-0.29919 -13.30991,0.98033 -4.24109,1.87603 -5.4934,3.9326 -4.23242,6.95056 1.23637,2.95904 3.42742,3.55669 14.875,4.05744 12.23476,0.53518 14.72744,1.13575 17.83042,4.2959 1.20232,1.22448 2.36849,2.26039 2.59146,2.30202 0.22297,0.0416 1.05796,-0.62285 1.85553,-1.47662 z m -46.91967,-3.85379 c 0,-0.60906 0.32711,-2.20891 0.72692,-3.55522 0.79718,-2.68439 4.31135,-6.95424 7.18533,-8.73046 0.9055,-0.55964 1.52488,-1.2141 1.37639,-1.45436 -0.14849,-0.24026 -1.77237,-0.43683 -3.60863,-0.43683 h -3.33864 l -4.1559,4.35523 c -2.28574,2.39539 -4.21976,4.5214 -4.29782,4.72449 -0.2322,0.60409 4.65405,6.20455 5.41331,6.20455 0.41262,0 0.69904,-0.45373 0.69904,-1.1074 z m 40.65049,-11.07776 c 0.52425,-1.18517 0.82189,-2.36732 0.6614,-2.62699 -0.31932,-0.51668 -5.61955,-0.66038 -6.11416,-0.16577 -0.3652,0.3652 3.37618,4.94762 4.03955,4.94762 0.253,0 0.88895,-0.96969 1.41321,-2.15486 z"
       id="path934"
       inkscape:connector-curvature="0" />
    <path
       style="fill:url(#linearGradient1294);fill-opacity:1;stroke:none;stroke-width:0.26458332px;stroke-linecap:butt;stroke-linejoin:miter;stroke-opacity:1"
       d="m 204.07864,130.74425 v 0 l 94.43173,49.01352 -0.41301,119.59407 c -65.96699,-9.51475 -172.12094,-7.9779 -196.79855,-27.12684 14.85649,9.90547 92.15619,2.49939 89.11588,0.2456 5.31067,2.95563 -0.83151,-36.8634 -1.24726,-55.2951 l -0.41575,-20.78763 c 4.38743,-29.17413 6.01965,-20.5935 4.41438,-15.1018 1.54521,4.74231 3.09042,10.23425 4.63562,14.21987 6.05568,-1.2345 12.55232,-3.74874 18.608,-6.06408 3.12537,-4.43494 12.8747,-7.87257 10.19816,-13.03383 -9.29348,-20.76434 -14.30446,-44.02875 -22.5292,-45.66378 z"
       id="path1286"
       inkscape:connector-curvature="0"
       sodipodi:nodetypes="ccccccccccccc" />
    <path
       style="fill:#000000;stroke-width:1"
       d="m 164.35919,265.54061 c -0.38525,-0.13316 -0.69723,-0.37686 -0.96131,-0.75087 -0.29326,-0.41533 -0.46024,-0.88009 -0.5215,-1.45158 -0.0521,-0.48913 0.0427,-1.13521 0.22867,-1.55691 0.34222,-0.77503 0.92861,-1.24597 1.64709,-1.32281 0.33874,-0.0363 0.81577,0.10613 1.0878,0.32462 0.0687,0.0554 0.13242,0.0915 0.14103,0.0802 0.009,-0.0113 0.016,-0.0949 0.016,-0.18572 v -0.16529 h 0.47159 0.47159 v 2.49644 2.49644 h -0.47159 -0.47159 v -0.15674 c 0,-0.0863 -0.009,-0.15161 -0.0196,-0.14534 -0.0109,0.006 -0.1095,0.0692 -0.21934,0.13991 -0.29985,0.19297 -0.54999,0.26512 -0.91145,0.26288 -0.2082,-10e-4 -0.36131,-0.0217 -0.48707,-0.0652 z m 0.98406,-1.23805 c 0.4593,-0.28759 0.70887,-0.88418 0.62694,-1.49853 -0.0513,-0.38251 -0.24864,-0.76749 -0.50197,-0.9781 -0.307,-0.25519 -0.7365,-0.29076 -1.05325,-0.0873 -0.47305,0.30399 -0.73051,0.9864 -0.60814,1.61206 0.0774,0.39607 0.25319,0.69686 0.53343,0.91286 0.17248,0.13297 0.33462,0.1802 0.58384,0.17008 0.19525,-0.008 0.24949,-0.0248 0.41923,-0.13115 z m 3.41748,1.23805 c -0.24733,-0.0854 -0.40715,-0.17935 -0.61978,-0.36353 -0.37388,-0.32426 -0.68631,-0.88901 -0.81228,-1.46729 -0.0767,-0.35245 -0.0831,-0.97829 -0.0145,-1.31553 0.14609,-0.70737 0.51347,-1.30096 1.01877,-1.64419 0.29867,-0.20285 0.54745,-0.27904 0.92453,-0.28331 0.36882,-0.004 0.61326,0.0705 0.92235,0.28209 0.10414,0.0714 0.19599,0.1218 0.20395,0.11194 0.007,-0.01 0.0145,-0.47701 0.0145,-1.03815 v -1.02023 h 0.47152 0.47152 v 3.35138 3.35139 h -0.47152 -0.47152 v -0.1311 c 0,-0.072 -0.007,-0.14014 -0.0145,-0.15121 -0.007,-0.0111 -0.10921,0.0411 -0.22419,0.11593 -0.30592,0.19907 -0.54529,0.26935 -0.91072,0.26709 -0.20828,-10e-4 -0.3616,-0.0217 -0.48671,-0.0652 z m 0.96351,-1.22374 c 0.20973,-0.12804 0.42813,-0.38651 0.52649,-0.62277 0.15331,-0.36865 0.16633,-0.86918 0.0289,-1.2542 -0.0919,-0.26173 -0.31965,-0.56084 -0.53372,-0.70101 -0.16778,-0.10991 -0.18876,-0.11516 -0.46429,-0.11516 -0.27192,0 -0.29868,0.006 -0.45851,0.10969 -0.22491,0.14528 -0.35291,0.28916 -0.47152,0.52863 -0.39341,0.79465 -0.10703,1.81604 0.59447,2.11744 0.23793,0.10226 0.54674,0.0773 0.77605,-0.0626 z m 4.93717,1.23936 c -0.4397,-0.14489 -0.8823,-0.53267 -1.13231,-0.99149 -0.27119,-0.49834 -0.37968,-0.93758 -0.37968,-1.5389 0,-0.74717 0.16273,-1.25533 0.57639,-1.79623 0.16489,-0.21547 0.30446,-0.36375 0.41294,-0.43811 0.42235,-0.28953 0.89207,-0.39787 1.31709,-0.30365 0.25673,0.057 0.58578,0.21037 0.71161,0.3318 0.0361,0.0379 0.0773,0.0688 0.0853,0.0688 0.007,0 0.0145,-0.46937 0.0145,-1.04303 v -1.04304 h 0.47152 0.47153 v 3.35138 3.35139 h -0.47153 -0.47152 v -0.15674 c 0,-0.0863 -0.007,-0.1515 -0.0217,-0.14509 -0.007,0.006 -0.0911,0.0601 -0.1779,0.11928 -0.31025,0.21129 -0.4614,0.25806 -0.8768,0.27137 -0.27337,0.009 -0.42235,-0.002 -0.53155,-0.0378 z m 0.81338,-1.17444 c 0.42668,-0.17329 0.73721,-0.66228 0.78285,-1.23228 0.0434,-0.55888 -0.22203,-1.14638 -0.64219,-1.41474 -0.16273,-0.10379 -0.19165,-0.11104 -0.44911,-0.11104 -0.25457,0 -0.28783,0.008 -0.45127,0.10892 -0.24227,0.14972 -0.41078,0.36526 -0.53444,0.6836 -0.0984,0.25224 -0.10197,0.27331 -0.10197,0.60644 0,0.31654 0.007,0.36405 0.0831,0.57355 0.24227,0.66834 0.79189,0.99709 1.31259,0.78555 z m 3.63309,1.1909 c -0.18224,-0.0472 -0.5272,-0.23689 -0.69137,-0.37967 -0.24588,-0.21459 -0.5489,-0.66028 -0.67473,-0.99389 -0.15043,-0.39725 -0.19309,-0.60573 -0.20973,-1.02097 -0.0289,-0.79277 0.17718,-1.48495 0.60748,-2.01009 0.31097,-0.3796 0.70077,-0.61685 1.14135,-0.69422 0.38617,-0.0678 0.9081,0.0651 1.20686,0.30763 0.0651,0.0555 0.1309,0.0921 0.13957,0.0811 0.007,-0.0109 0.0145,-0.0942 0.0145,-0.18503 v -0.16529 h 0.47152 0.47152 v 2.49644 2.49644 h -0.47152 -0.47152 v -0.15674 c 0,-0.0863 -0.007,-0.15149 -0.0217,-0.14506 -0.007,0.006 -0.10414,0.0686 -0.20683,0.13819 -0.28567,0.19324 -0.53806,0.26691 -0.89858,0.26246 -0.16633,-0.002 -0.35074,-0.0162 -0.40932,-0.0314 z m 0.89112,-1.25857 c 0.44116,-0.26957 0.70366,-0.90761 0.61906,-1.50596 -0.0962,-0.68144 -0.499,-1.16006 -1.00589,-1.19432 -0.26758,-0.018 -0.45562,0.0481 -0.67185,0.2364 -0.17429,0.15208 -0.28204,0.31239 -0.37967,0.56709 -0.29145,0.75727 0.004,1.66097 0.63713,1.951 0.25094,0.11473 0.5583,0.094 0.80093,-0.0542 z m 3.13779,1.23969 c -0.47659,-0.13623 -0.86899,-0.49595 -1.05029,-0.96269 -0.0651,-0.16747 -0.1432,-0.57842 -0.12367,-0.64668 0.0145,-0.037 0.11354,-0.0466 0.49683,-0.0466 h 0.4831 l 0.0289,0.17494 c 0.0651,0.37183 0.36233,0.61161 0.75046,0.61161 0.24951,0 0.37389,-0.048 0.50624,-0.19557 0.13596,-0.15178 0.1779,-0.32334 0.12294,-0.49657 -0.0651,-0.2007 -0.20177,-0.26895 -0.77744,-0.3869 -0.88829,-0.18186 -1.22118,-0.39846 -1.4155,-0.92117 -0.31748,-0.85416 0.0289,-1.75459 0.80593,-2.10601 0.50406,-0.22731 1.27773,-0.12688 1.69234,0.21964 0.15621,0.13033 0.39053,0.453 0.4614,0.63376 0.0579,0.15354 0.13307,0.46858 0.13307,0.5745 v 0.0792 h -0.47008 c -0.51636,0 -0.4708,0.0197 -0.51202,-0.22019 -0.0579,-0.35164 -0.41873,-0.53259 -0.85221,-0.43062 -0.26252,0.0617 -0.3927,0.20743 -0.3927,0.43963 0,0.27128 0.21769,0.40203 0.91701,0.55035 0.61616,0.13071 0.92121,0.28514 1.16992,0.59218 0.18368,0.22714 0.27553,0.47927 0.29144,0.80401 0.0434,0.89885 -0.36232,1.52177 -1.13541,1.73546 -0.23287,0.0643 -0.90435,0.063 -1.13288,-0.002 z m -11.32382,-2.54507 v -2.49644 h 0.47152 0.47152 v 2.49644 2.49644 h -0.47152 -0.47152 z m 12.82473,-2.84532 c -0.0434,-0.0195 -0.1186,-0.0838 -0.16706,-0.14265 -0.21984,-0.26587 -0.21695,-0.68034 0.005,-0.93532 0.31675,-0.36278 0.80332,-0.0812 0.80332,0.46461 0,0.26408 -0.0875,0.44882 -0.26686,0.56566 -0.14392,0.0937 -0.24589,0.10656 -0.37534,0.0477 z m 0.41512,-0.17466 c 0.11137,-0.11068 0.18803,-0.34814 0.16416,-0.50947 -0.0506,-0.36841 -0.35436,-0.57392 -0.60893,-0.41606 -0.30807,0.19064 -0.31024,0.77982 -0.004,0.9836 0.12656,0.0843 0.33267,0.0578 0.4491,-0.0581 z m -0.10703,-0.0832 c -0.0145,-0.008 -0.0361,-0.0488 -0.0361,-0.0906 0,-0.11656 -0.0579,-0.19995 -0.13234,-0.18646 -0.0506,0.01 -0.0651,0.0337 -0.0724,0.14004 -0.005,0.0838 -0.0217,0.12824 -0.0434,0.12824 -0.0289,0 -0.0361,-0.0671 -0.0361,-0.34197 v -0.34199 h 0.1403 c 0.1027,0 0.15187,0.0168 0.1837,0.0626 0.0506,0.0692 0.0579,0.16746 0.0217,0.24409 -0.0145,0.0314 -0.0145,0.0656 0.002,0.0916 0.0361,0.0597 0.0217,0.31275 -0.0217,0.29457 z m -0.0724,-0.43254 c 0.0434,-0.0405 0.0434,-0.0559 0.0145,-0.1026 -0.0217,-0.0302 -0.0724,-0.055 -0.11064,-0.055 -0.0651,0 -0.0752,0.0147 -0.0752,0.0797 0,0.0439 0.007,0.0901 0.0145,0.10259 0.0289,0.0375 0.10053,0.0259 0.15333,-0.0247 z m -13.06108,-0.0471 v -0.60759 l -0.25239,-0.56368 c -0.13885,-0.31004 -0.33701,-0.75605 -0.44115,-0.99116 -0.10414,-0.23512 -0.40499,-0.91223 -0.66823,-1.5047 -0.26324,-0.59248 -0.55758,-1.2542 -0.65377,-1.47051 -0.0962,-0.2163 -0.27264,-0.61226 -0.39197,-0.8799 -0.11932,-0.26764 -0.21261,-0.50343 -0.20755,-0.52399 0.005,-0.0205 0.17429,-0.16129 0.37534,-0.31275 0.90319,-0.67923 1.44009,-1.0835 2.14209,-1.61305 0.41511,-0.31287 0.76384,-0.56887 0.77563,-0.56887 0.0145,0 0.12583,0.23468 0.25239,0.52152 0.12728,0.28684 0.31314,0.70618 0.41366,0.93189 0.0998,0.22572 0.3146,0.71047 0.47659,1.07724 0.39992,0.90544 1.08696,2.4557 1.49354,3.36848 0.18442,0.4138 0.45055,1.01397 0.59085,1.33371 0.14029,0.31976 0.30953,0.70411 0.37606,0.85412 0.0651,0.15001 0.12004,0.28467 0.12004,0.29924 0,0.0146 -0.77815,0.0265 -1.72915,0.0265 h -1.72917 v 0.61557 0.61555 h -0.47152 -0.47153 z m -6.21851,-1.34059 c -0.17082,-0.3934 -0.30967,-0.7277 -0.30867,-0.74291 8.2e-4,-0.0152 0.27634,-0.2332 0.61183,-0.48444 0.33549,-0.25125 1.02852,-0.77334 1.54003,-1.16022 1.16326,-0.87979 1.15371,-0.87273 1.16442,-0.85768 0.0217,0.0331 1.74376,3.92296 1.74376,3.9434 0,0.0104 -0.99923,0.0185 -2.22042,0.018 l -2.22045,-8.9e-4 -0.31054,-0.71528 z m 11.86064,0.34936 c -0.089,-0.20216 -0.29361,-0.66765 -0.4556,-1.03441 -0.162,-0.36677 -0.47442,-1.07466 -0.69427,-1.5731 -1.17475,-2.66283 -2.66063,-6.02797 -2.76332,-6.25821 -0.58578,-1.31362 -0.55975,-1.2476 -0.51709,-1.29164 0.0145,-0.0182 0.36811,-0.28382 0.77874,-0.5901 0.41077,-0.30628 1.13483,-0.84688 1.60925,-1.20135 0.47441,-0.35445 0.876,-0.64446 0.89249,-0.64446 0.0145,0 0.0579,0.0653 0.0918,0.14534 0.0361,0.0799 0.18153,0.41465 0.32761,0.7438 0.14681,0.32915 0.4303,0.96779 0.62991,1.41922 0.1996,0.4514 0.418,0.94385 0.48453,1.09433 0.30447,0.68679 0.66028,1.48712 0.91079,2.05186 0.15042,0.33855 0.3616,0.81561 0.47008,1.06012 0.50045,1.1314 1.29408,2.91969 1.49519,3.36849 0.12222,0.27274 0.31315,0.70363 0.42524,0.95755 0.11137,0.25392 0.36304,0.82238 0.55903,1.26327 0.19599,0.44088 0.35654,0.81407 0.35654,0.8293 0,0.0152 -0.99917,0.0277 -2.22042,0.0275 l -2.22042,-6e-5 -0.16128,-0.36755 z"
       id="path1307"
       inkscape:connector-curvature="0" />
    <path
       style="opacity:1;fill:#ffffff;fill-opacity:1;fill-rule:nonzero;stroke:none;stroke-width:5.53700781;stroke-linecap:butt;stroke-linejoin:miter;stroke-miterlimit:4;stroke-dasharray:none;stroke-dashoffset:0;stroke-opacity:1;paint-order:stroke fill markers"
       d="m 476.01239,716.75762 c -40.28566,-2.77156 -76.38493,-8.98127 -87.29768,-15.01679 l -6.91467,-3.82428 0.21864,-32.79438 c 0.12025,-18.0369 2.32148,-61.18772 4.89163,-95.89071 5.50945,-74.3905 7.37164,-123.07533 5.98398,-156.44435 -0.87333,-21.00092 -2.32041,-30.03066 -10.9427,-68.28235 -14.96902,-66.40814 -21.82633,-89.52034 -42.43848,-143.03673 -5.94843,-15.44421 -10.39129,-29.1854 -9.87302,-30.53598 2.385,-6.21522 37.23777,-22.74862 85.86896,-40.73437 15.68765,-5.80192 33.67508,-12.92319 39.97207,-15.82505 l 11.44908,-5.2761 8.44047,6.06388 c 18.04478,12.96388 35.39039,16.60064 81.88906,17.16922 29.99076,0.36673 30.40784,0.32018 48.35792,-5.39716 9.95843,-3.1719 22.70695,-8.08952 28.33005,-10.92806 l 10.22382,-5.16096 11.42929,5.24748 c 6.28609,2.88612 19.98617,8.31579 30.4446,12.06594 40.13308,14.39077 74.75638,29.94949 76.44603,34.35264 0.50202,1.30828 -2.25576,13.81564 -6.12842,27.79413 -11.35798,40.99702 -20.74523,85.23021 -28.79124,135.66575 -2.3931,15.00086 -5.83003,34.05941 -7.63765,42.35234 -6.44879,29.58567 -7.68811,47.27294 -6.50629,92.85614 1.03183,39.79671 3.88326,84.25173 8.0396,125.34026 3.18982,31.53365 5.93306,101.1849 4.22042,107.15655 -1.30599,4.5537 -3.06517,6.22719 -8.54288,8.12667 -15.37729,5.33233 -60.86014,10.76688 -120.12591,14.35333 -25.79067,1.56072 -101.59477,1.93842 -121.00668,0.60294 z m 154.71568,-42.76518 c 1.90154,-0.52913 4.44192,-0.34293 5.64528,0.41377 1.20337,0.75669 6.25972,0.8341 11.23633,0.17201 4.97663,-0.66208 10.14985,-0.61238 11.49605,0.11046 1.34622,0.72284 4.75166,0.65347 7.56764,-0.1542 2.97661,-0.85367 6.38244,-0.79273 8.13571,0.14555 1.75327,0.93832 5.1591,0.99926 8.13571,0.14556 2.96287,-0.84975 6.32362,-0.79479 7.9769,0.13034 1.80716,1.01134 4.11737,0.92423 6.2873,-0.23707 2.9694,-1.58918 3.36359,-3.34312 2.93341,-13.05216 -0.27334,-6.16894 -1.22328,-11.01545 -2.11098,-10.77003 -0.88771,0.24544 -1.50596,1.41862 -1.37391,2.60707 0.25806,2.32245 -3.027,2.8396 -14.31321,2.25323 -3.93714,-0.20455 -7.67806,0.46889 -8.31317,1.49651 -2.11676,3.42497 -4.40802,1.92594 -4.4104,-2.8854 -0.002,-4.68192 0.14158,-4.74488 9.50767,-4.16168 5.23051,0.32568 9.51001,0.15523 9.51001,-0.37884 0,-1.1771 -20.78422,-48.33249 -21.72839,-49.29753 -1.26281,-1.29071 -12.82133,7.5996 -12.83314,9.87068 -0.007,1.25097 0.82912,3.84577 1.85692,5.76623 2.3031,4.30338 0.83367,6.15575 -2.61362,3.29475 -2.08182,-1.72775 -3.67871,-1.26671 -8.59148,2.48042 -5.28237,4.02907 -5.8306,5.13855 -4.39932,8.90308 2.22051,5.84037 2.11302,6.18875 -1.55068,5.02593 -1.89993,-0.60301 -5.21406,0.52636 -8.21117,2.79817 -2.764,2.09509 -5.29096,3.99485 -5.61547,4.22167 -0.32449,0.22681 -0.0776,2.02682 0.54866,4.00001 0.94972,2.99225 2.55368,3.58761 9.66552,3.58761 6.42697,0 8.52684,0.63857 8.52684,2.593 0,2.73062 -3.87222,3.35147 -16.72009,2.68083 -6.03346,-0.31495 -7.68167,0.3397 -10.08319,4.00487 -4.35731,6.65008 0.9085,17.81526 7.53792,15.98281 1.56367,-0.43222 4.39882,-1.21877 6.30035,-1.74788 z M 479.90189,475.81454 c 6.45578,0.2081 6.4825,0.18018 6.4825,-6.77573 0,-8.26925 2.33808,-8.97742 6.0352,-1.82796 3.71483,7.1837 11.75029,11.04016 19.67263,9.44151 3.44989,-0.69615 11.91228,-1.18284 18.80534,-1.08153 l 12.53284,0.18423 v -7.71482 c 0,-8.78156 2.23152,-9.91356 5.82896,-2.95688 4.26118,8.24021 9.23357,11.51932 17.16784,11.32161 3.99018,-0.0994 10.56094,-0.25118 14.6017,-0.3372 7.21744,-0.15367 7.34684,-0.2632 7.34684,-6.22069 0,-3.33538 0.50098,-6.0643 1.11329,-6.0643 0.61233,0 3.59841,2.87484 6.63575,6.38853 4.8802,5.64555 6.40932,6.36901 13.1482,6.22071 4.19416,-0.0923 10.93183,-0.23823 14.97259,-0.32425 6.15231,-0.13103 7.34684,-0.7208 7.34684,-3.62769 0,-4.3914 0.26037,-4.36352 7.94346,0.85037 7.01372,4.75964 11.25281,5.28398 19.49375,2.41118 6.51927,-2.27265 8.86479,-6.07169 8.86479,-14.35836 0,-4.62484 -1.05801,-6.81736 -4.32167,-8.95579 -5.45793,-3.57617 -5.52153,-5.89137 -0.16183,-5.89137 3.32528,0 3.97626,-0.70198 3.24481,-3.49903 -2.66815,-10.20304 -18.72829,-13.67007 -27.83339,-6.00864 -6.36951,5.3596 -7.22992,5.37973 -7.22992,0.16924 0,-4.01912 -0.42608,-4.15404 -13.27751,-4.20445 -14.19801,-0.0557 -21.58861,2.4438 -24.76274,8.37472 -3.49108,6.52318 -5.17642,3.42183 -5.17642,-9.52551 v -12.965 h -5.18601 c -4.96801,0 -5.186,0.31631 -5.186,7.52525 v 7.52523 l -8.40363,-0.80747 c -10.10989,-0.97143 -15.905,2.18569 -20.05154,10.92389 -1.55267,3.272 -3.56444,5.9491 -4.47061,5.9491 -1.62263,0 -2.48992,-12.09491 -1.75546,-24.48096 l 0.37535,-6.32998 h -12.23438 -12.2344 v 7.37271 7.37271 l -8.69687,-0.83565 c -8.37282,-0.80452 -8.94998,-0.56962 -15.48877,6.30408 -3.73553,3.92688 -7.21199,7.13976 -7.72545,7.13976 -0.51347,0 -0.93358,-3.03004 -0.93358,-6.73343 v -6.73346 l -13.71227,-0.0899 c -15.57786,-0.10216 -21.12902,2.72393 -25.39221,12.9272 -3.11967,7.46641 -3.0069,11.75844 0.50329,19.15562 3.97945,8.38607 11.82733,13.06189 19.58585,11.66938 3.32769,-0.59725 8.96746,-0.99189 12.53284,-0.87695 z m 186.88899,-49.1981 c 1.60829,-4.19113 -0.69216,-7.779 -4.9877,-7.779 -4.60367,0 -6.22661,2.99106 -3.98636,7.34683 1.90492,3.70378 7.61314,3.97867 8.97406,0.43217 z M 542.45271,397.07582 c -1.51548,-10.10604 0.95905,-9.78698 7.89235,1.01762 3.05053,4.75383 6.27536,8.64333 7.16628,8.64333 0.89092,0 4.03772,-3.8895 6.99285,-8.64333 2.95514,-4.75384 6.03462,-8.64334 6.84328,-8.64334 0.80863,0 1.47026,3.80682 1.47026,8.45958 v 8.45959 l 7.34684,-1.57972 c 9.38719,-2.01844 30.79762,-12.41847 34.90159,-16.9533 l 3.14932,-3.47996 -61.16172,0.0448 -61.1617,0.0446 5.11927,4.15506 c 11.03151,8.95372 36.77952,19.52267 41.20551,16.91392 0.75868,-0.44719 0.86483,-4.24466 0.23587,-8.4388 z m 92.59064,-25.76991 c 2.22946,-2.37316 3.65379,-4.71463 3.16517,-5.20327 -0.48865,-0.48862 -37.25329,-0.68616 -81.69925,-0.43898 l -80.81084,0.44944 3.73978,4.75383 3.73978,4.75384 h 73.90588 73.90587 z m 14.70006,-19.88648 2.68178,-5.186 h -94.25673 c -51.8412,0 -94.25674,0.35236 -94.25674,0.783 0,0.43065 0.90277,2.76435 2.00614,5.186 l 2.00615,4.403 h 89.5688 89.56881 z M 524.41506,336.03817 c 0,-3.79849 -19.94384,-26.51165 -29.75541,-33.88714 -15.23979,-11.45597 -26.83044,-16.97811 -43.28076,-20.62029 -4.72556,-1.04625 -4.75384,-0.99742 -4.75384,8.21157 0,9.67962 4.67361,30.26387 9.3919,41.36529 l 2.75517,6.4825 h 32.82147 c 18.23676,0 32.82147,-0.68962 32.82147,-1.55193 z m 61.76003,-21.35291 c -1.04539,-25.94224 -4.60757,-40.94802 -14.41276,-60.71425 -8.09982,-16.32837 -12.20117,-21.30886 -15.71982,-19.08936 -8.63454,5.44653 -22.57784,38.71787 -26.3806,62.94911 -1.98906,12.67427 -2.38808,36.85587 -0.63706,38.60689 0.63383,0.63385 13.95962,1.15245 29.61284,1.15245 h 28.46039 z m 75.36782,9.50767 c 4.77121,-13.83898 9.07723,-38.90839 7.20373,-41.93976 -2.00805,-3.24908 -20.92055,2.896 -35.91561,11.66975 -16.15947,9.45506 -40.99796,34.74186 -40.99796,41.73795 0,1.35154 9.74529,1.92923 32.54547,1.92923 h 32.54548 z"
       id="path1385"
       inkscape:connector-curvature="0"
       transform="matrix(0.26458333,0,0,0.26458333,0,87)" />
    <path
       style="opacity:1;fill:#ffffff;fill-opacity:1;fill-rule:nonzero;stroke:none;stroke-width:5.53700781;stroke-linecap:butt;stroke-linejoin:miter;stroke-miterlimit:4;stroke-dasharray:none;stroke-dashoffset:0;stroke-opacity:1;paint-order:stroke fill markers"
       d="m 741.59644,388.1536 c -1.34645,-2.61461 -4.33511,-10.97703 -6.64146,-18.58317 l -4.19336,-13.82933 3.92925,-27.59778 c 5.42953,-38.13535 11.42497,-68.43574 21.56092,-108.9669 10.68593,-42.73037 13.54512,-52.72434 15.08401,-52.72434 3.29351,0 14.38383,9.4275 19.73874,16.77923 8.29765,11.39179 11.6515,18.56547 20.84606,44.58844 4.36709,12.35997 15.29438,40.36437 24.28287,62.23201 l 16.34272,39.75934 -6.32471,6.63456 c -11.38742,11.9453 -31.55624,27.11968 -44.99708,33.85438 -14.2221,7.12617 -52.0439,22.6074 -55.23152,22.6074 -1.07159,0 -3.04999,-2.13923 -4.39644,-4.75384 z"
       id="path1387"
       inkscape:connector-curvature="0"
       transform="matrix(0.26458333,0,0,0.26458333,0,87)" />
    <path
       style="opacity:1;fill:#ffffff;fill-opacity:1;fill-rule:nonzero;stroke:none;stroke-width:5.53700781;stroke-linecap:butt;stroke-linejoin:miter;stroke-miterlimit:4;stroke-dasharray:none;stroke-dashoffset:0;stroke-opacity:1;paint-order:stroke fill markers"
       d="m 349.19983,385.91797 c -33.00029,-13.28002 -57.63914,-28.74362 -81.92369,-51.41613 l -9.07522,-8.47279 3.28205,-9.34531 c 1.80513,-5.13992 8.48234,-22.52596 14.83825,-38.63564 6.3559,-16.10968 15.08822,-39.05773 19.40516,-50.99567 10.71374,-29.62754 20.33198,-48.49969 24.718,-48.49969 2.92826,0 24.39845,53.36195 33.38541,82.97601 5.91713,19.49825 15.60064,58.6876 20.11897,81.42179 l 3.64211,18.32546 -5.68295,15.74663 -5.68296,15.74663 z"
       id="path1389"
       inkscape:connector-curvature="0"
       transform="matrix(0.26458333,0,0,0.26458333,0,87)" />
    <path
       style="opacity:1;fill:#ffffff;fill-opacity:1;fill-rule:nonzero;stroke:none;stroke-width:5.53700781;stroke-linecap:butt;stroke-linejoin:miter;stroke-miterlimit:4;stroke-dasharray:none;stroke-dashoffset:0;stroke-opacity:1;paint-order:stroke fill markers"
       d="m 335.99037,402.2673 c -17.73255,-5.17175 -39.71852,-15.41212 -55.23129,-25.72499 -12.62563,-8.3935 -31.20205,-26.82793 -31.20205,-30.96354 0,-3.39755 3.65335,-11.44601 5.19557,-11.44601 0.65081,0 6.94362,5.08153 13.98403,11.29228 22.00707,19.41372 50.32259,36.53847 78.49008,47.46948 13.0523,5.06524 17.13285,8.31021 14.47589,11.51165 -2.73096,3.29061 -8.8378,2.78261 -25.71223,-2.13887 z"
       id="path1391"
       inkscape:connector-curvature="0"
       transform="matrix(0.26458333,0,0,0.26458333,0,87)" />
    <path
       style="opacity:1;fill:#ffffff;fill-opacity:1;fill-rule:nonzero;stroke:none;stroke-width:5.53700781;stroke-linecap:butt;stroke-linejoin:miter;stroke-miterlimit:4;stroke-dasharray:none;stroke-dashoffset:0;stroke-opacity:1;paint-order:stroke fill markers"
       d="m 747.41309,405.28596 c 0,-3.04635 5.99061,-6.23896 33.709,-17.96468 28.67102,-12.12871 44.21698,-21.53393 61.91631,-37.459 11.74245,-10.56532 15.00937,-11.69311 15.00937,-5.18144 0,7.31354 -27.89577,32.41718 -48.40267,43.55798 -20.59466,11.18848 -62.23201,22.59415 -62.23201,17.04714 z"
       id="path1393"
       inkscape:connector-curvature="0"
       transform="matrix(0.26458333,0,0,0.26458333,0,87)" />
    <path
       style="opacity:1;fill:#ffffff;fill-opacity:1;fill-rule:nonzero;stroke:none;stroke-width:5.53700781;stroke-linecap:butt;stroke-linejoin:miter;stroke-miterlimit:4;stroke-dasharray:none;stroke-dashoffset:0;stroke-opacity:1;paint-order:stroke fill markers"
       d="m 520.87234,124.85876 c -18.9135,-2.78464 -46.58862,-16.09233 -46.58862,-22.40233 0,-4.839155 2.4186,-4.348038 17.67454,3.58898 18.52782,9.63923 32.73654,12.3485 66.16581,12.61628 30.8707,0.24729 34.89523,-0.53095 58.49292,-11.31099 11.43884,-5.22555 15.77152,-6.48333 17.24782,-5.00703 3.46318,3.46318 -0.9428,7.34769 -14.45011,12.73987 -20.34864,8.12327 -40.61965,11.5921 -66.47664,11.37569 -12.35996,-0.10345 -26.78954,-0.82366 -32.06572,-1.60047 z"
       id="path1395"
       inkscape:connector-curvature="0"
       transform="matrix(0.26458333,0,0,0.26458333,0,87)" />
    <path
       style="opacity:1;fill:#ffffff;fill-opacity:1;fill-rule:nonzero;stroke:none;stroke-width:5.53700781;stroke-linecap:butt;stroke-linejoin:miter;stroke-miterlimit:4;stroke-dasharray:none;stroke-dashoffset:0;stroke-opacity:1;paint-order:stroke fill markers"
       d="m 570.6569,104.80387 c 1.18846,-0.47955 3.13321,-0.47955 4.32167,0 1.18846,0.47956 0.21608,0.87192 -2.16084,0.87192 -2.37691,0 -3.34929,-0.39236 -2.16083,-0.87192 z"
       id="path1397"
       inkscape:connector-curvature="0"
       transform="matrix(0.26458333,0,0,0.26458333,0,87)" />
    <path
       style="opacity:1;fill:#ffffff;fill-opacity:1;fill-rule:nonzero;stroke:none;stroke-width:5.53700781;stroke-linecap:butt;stroke-linejoin:miter;stroke-miterlimit:4;stroke-dasharray:none;stroke-dashoffset:0;stroke-opacity:1;paint-order:stroke fill markers"
       d="m 457.71068,461.20237 c -4.62625,-7.06055 0.2965,-18.16359 8.05318,-18.16359 4.54005,0 10.24853,6.04444 10.24853,10.85169 0,10.84084 -12.6722,15.90363 -18.30171,7.3119 z"
       id="path1399"
       inkscape:connector-curvature="0"
       transform="matrix(0.26458333,0,0,0.26458333,0,87)" />
    <path
       style="opacity:1;fill:#ffffff;fill-opacity:1;fill-rule:nonzero;stroke:none;stroke-width:5.53700781;stroke-linecap:butt;stroke-linejoin:miter;stroke-miterlimit:4;stroke-dasharray:none;stroke-dashoffset:0;stroke-opacity:1;paint-order:stroke fill markers"
       d="m 500.92735,461.20237 c -4.62625,-7.06055 0.2965,-18.16359 8.05319,-18.16359 4.54004,0 10.24852,6.04444 10.24852,10.85169 0,10.84084 -12.67219,15.90363 -18.30171,7.3119 z"
       id="path1401"
       inkscape:connector-curvature="0"
       transform="matrix(0.26458333,0,0,0.26458333,0,87)" />
    <path
       style="opacity:1;fill:#ffffff;fill-opacity:1;fill-rule:nonzero;stroke:none;stroke-width:5.53700781;stroke-linecap:butt;stroke-linejoin:miter;stroke-miterlimit:4;stroke-dasharray:none;stroke-dashoffset:0;stroke-opacity:1;paint-order:stroke fill markers"
       d="m 560.12065,462.35016 c -5.86807,-6.48415 -1.05694,-19.31138 7.24316,-19.31138 7.08115,0 11.74048,10.14412 7.9903,17.39617 -3.10804,6.01027 -10.66738,6.96067 -15.23346,1.91521 z"
       id="path1403"
       inkscape:connector-curvature="0"
       transform="matrix(0.26458333,0,0,0.26458333,0,87)" />
    <path
       style="opacity:1;fill:#ffffff;fill-opacity:1;fill-rule:nonzero;stroke:none;stroke-width:5.53700781;stroke-linecap:butt;stroke-linejoin:miter;stroke-miterlimit:4;stroke-dasharray:none;stroke-dashoffset:0;stroke-opacity:1;paint-order:stroke fill markers"
       d="m 603.33733,462.35016 c -5.86808,-6.48415 -1.05695,-19.31138 7.24315,-19.31138 6.97047,0 11.24057,9.10722 7.94502,16.94503 -1.85365,4.40853 -3.33679,5.52764 -7.32572,5.52764 -2.75084,0 -6.28895,-1.42258 -7.86245,-3.16129 z"
       id="path1405"
       inkscape:connector-curvature="0"
       transform="matrix(0.26458333,0,0,0.26458333,0,87)" />
    <path
       style="opacity:1;fill:#ffffff;fill-opacity:1;fill-rule:nonzero;stroke:none;stroke-width:5.53700781;stroke-linecap:butt;stroke-linejoin:miter;stroke-miterlimit:4;stroke-dasharray:none;stroke-dashoffset:0;stroke-opacity:1;paint-order:stroke fill markers"
       d="m 473.44432,716.92306 c -37.28955,-2.50164 -73.17041,-8.60906 -85.13684,-14.49146 -7.95026,-3.90815 -7.99598,-4.1053 -7.45254,-32.13527 0.47161,-24.32527 0.94446,-32.44493 6.16597,-105.88085 5.90374,-83.03089 7.54723,-127.99372 5.70371,-156.04288 -1.21037,-18.41583 -1.7436,-21.87833 -6.5842,-42.75381 -2.09441,-9.03228 -5.4076,-24.00686 -7.36265,-33.27684 -9.78582,-46.40001 -19.92879,-80.15326 -38.43624,-127.90612 -4.88569,-12.60603 -9.59835,-25.20886 -10.47257,-28.00628 l -1.5895,-5.08622 4.22662,-3.82661 c 7.94982,-7.19743 37.49919,-20.5942 82.38573,-37.35113 28.64475,-10.69359 37.70914,-14.37721 45.00237,-18.28824 l 6.32953,-3.39424 7.93197,5.51107 c 19.10267,13.27236 30.19922,16.14126 69.28269,17.91234 25.23927,1.14372 40.48993,0.60962 50.1483,-1.75627 14.77358,-3.61891 34.47467,-10.91373 45.31295,-16.77825 4.93673,-2.67123 5.75279,-2.87476 7.34683,-1.83228 3.43817,2.24851 21.86359,9.77208 41.14691,16.80133 35.65284,12.99636 69.84615,27.94957 74.89203,32.75135 l 1.88237,1.7913 -2.43388,8.88387 c -1.33863,4.88613 -4.61349,16.85734 -7.27747,26.6027 -8.9459,32.72586 -18.50636,77.71129 -24.75223,116.46839 -5.23336,32.47422 -6.74506,40.91587 -10.02214,55.96613 -4.70022,21.58607 -6.38534,39.15257 -6.38428,66.55252 0.002,38.65068 2.29009,80.55106 7.74245,141.75184 3.23208,36.27895 4.23995,52.25079 5.12696,81.24734 0.77126,25.2122 0.29684,34.5456 -1.92857,37.942 -1.56377,2.38661 -9.83668,5.3892 -21.33892,7.74479 -12.72799,2.60663 -49.18469,6.42398 -92.89067,9.72651 -21.0129,1.58778 -117.89266,2.40593 -136.56469,1.15327 z m 155.7961,-42.29555 c 1.49565,-0.007 1.94476,-0.50853 1.94476,-2.17035 0,-2.38318 1.49001,-2.92412 2.2927,-0.83236 1.03437,2.69554 5.10967,3.94057 10.25657,3.13346 2.6403,-0.41404 5.78211,-0.56517 6.98178,-0.33584 1.68962,0.323 2.28963,0.003 2.66223,-1.4224 0.57461,-2.19733 1.39471,-2.32334 2.94712,-0.45281 1.8158,2.18791 4.6839,2.90429 9.39417,2.34643 3.86046,-0.45721 4.36043,-0.7504 4.36043,-2.55687 0,-2.48481 1.33807,-2.65662 2.58239,-0.33158 1.48073,2.76674 3.87987,3.54541 9.05109,2.93764 3.19,-0.37492 4.78886,-0.95597 4.78886,-1.74034 0,-1.59343 0.63267,-1.48518 3.22148,0.55117 4.81663,3.78877 10.60785,1.05191 10.60785,-5.01313 0,-1.80646 -0.46674,-3.75121 -1.0372,-4.32167 -0.80671,-0.80671 -0.80671,-1.26769 0,-2.0744 2.55829,-2.55829 -0.73757,-6.7418 -5.31134,-6.7418 -1.79351,0 -3.48516,0.65631 -4.45563,1.72867 -1.97,2.17683 -3.02516,2.2012 -3.02516,0.0699 0,-1.44797 -0.65748,-1.66193 -5.17334,-1.68353 -4.24955,-0.0203 -5.62231,0.35305 -7.68769,2.09095 -1.3829,1.16359 -2.74992,2.11566 -3.03784,2.11566 -0.2879,0 -0.52347,-2.52818 -0.52347,-5.61817 0,-5.28509 -0.11777,-5.61817 -1.98659,-5.61817 -1.74355,0 -2.78511,-1.8241 -8.51345,-14.90975 -4.18669,-9.56395 -7.03347,-15.00903 -7.93987,-15.18664 -1.7758,-0.34797 -11.81176,7.28396 -11.81176,8.98236 0,0.69167 1.94475,5.60182 4.32167,10.91143 2.37691,5.30961 4.32166,9.91785 4.32166,10.24053 0,0.32268 -1.01924,0.39185 -2.265,0.1537 -1.83345,-0.35048 -2.81738,-1.6451 -5.16418,-6.79481 -2.05245,-4.50381 -3.35724,-6.36182 -4.4676,-6.36182 -0.86263,0 -3.78958,1.63055 -6.50432,3.62345 -5.00033,3.67075 -5.77189,5.30013 -4.04116,8.53404 0.78666,1.46987 1.87089,1.67185 8.9747,1.67185 7.35304,0 8.12062,0.15552 8.532,1.72866 0.88901,3.39958 -0.13564,4.85228 -3.17245,4.49776 -2.08294,-0.24317 -3.50549,0.25288 -5.47308,1.9085 -3.28274,2.76225 -3.70557,2.77892 -3.70557,0.14613 0,-1.98217 -0.27638,-2.09227 -5.31294,-2.11636 -4.82539,-0.0231 -5.53923,0.21684 -7.779,2.61452 -1.94588,2.08307 -2.46607,3.45016 -2.46607,6.48096 0,4.19743 1.73535,8.33112 4.10557,9.77966 0.83193,0.50843 2.87393,0.72652 4.53777,0.48464 1.66384,-0.24188 3.9003,-0.44406 4.96991,-0.44929 z m 69.36276,-20.75352 c -0.81997,-0.5299 -0.90936,-0.84272 -0.2432,-0.8511 0.62901,-0.008 0.82925,-0.59706 0.4971,-1.46262 -0.49766,-1.29688 -0.62483,-1.27414 -1.20862,0.21608 -1.00008,2.55287 -0.89733,2.96306 0.73864,2.94874 1.29265,-0.0113 1.32407,-0.13506 0.21608,-0.8511 z m -10.372,-4.74004 c 0,-0.78279 -20.88547,-47.54872 -21.5408,-48.23336 -0.63914,-0.6677 -9.86226,5.63066 -11.91245,8.13487 -0.84331,1.03007 0.47826,4.7068 6.9665,19.38146 4.40398,9.96063 8.26343,18.7909 8.57654,19.62282 0.49011,1.3022 1.77527,1.51259 9.23975,1.51259 4.76876,0 8.67046,-0.18827 8.67046,-0.41838 z M 472.81033,475.3486 c 2.06784,-0.86399 3.30668,-1.0169 3.50159,-0.43217 0.16589,0.49769 2.40844,0.90488 4.98343,0.90488 h 4.68181 v -21.60834 -21.60834 h -4.27872 c -2.85608,0 -4.51396,0.42035 -4.98622,1.26424 -0.6191,1.10627 -1.18657,1.09918 -4.54169,-0.0568 -6.56322,-2.26122 -15.94186,0.02 -20.45309,4.97482 -2.90114,3.18645 -5.55011,9.11431 -6.08281,13.61213 -1.00789,8.51005 4.22451,18.59914 11.69201,22.5445 3.88889,2.05464 11.08509,2.24289 15.48369,0.40504 z m 43.21667,0 c 2.06784,-0.86399 3.30669,-1.0169 3.50159,-0.43217 0.1659,0.49769 2.60292,0.90488 5.4156,0.90488 h 5.11397 v -28.52301 -28.523 h -5.186 -5.186 v 8.30364 c 0,7.58351 -0.13118,8.24639 -1.51258,7.64347 -3.88427,-1.69532 -11.39215,-2.40946 -14.75105,-1.40311 -4.11812,1.23382 -9.74943,6.49198 -12.38725,11.56642 -2.66004,5.1172 -2.69671,14.33225 -0.0771,19.36775 5.60737,10.77858 15.42597,15.12416 25.06879,11.09513 z m 57.86062,0.0208 c 2.18505,-0.91297 3.32711,-1.03012 3.72747,-0.38234 0.33387,0.54023 2.54667,0.82183 5.24922,0.66801 l 4.67203,-0.26588 0.22789,-28.30692 0.2279,-28.30692 h -4.35488 c -3.87936,0 -4.44691,0.24208 -5.19781,2.2171 -0.46362,1.2194 -0.84294,4.95604 -0.84294,8.30364 0,5.46919 -0.15342,6.02033 -1.51258,5.43368 -14.46321,-6.24262 -27.77264,2.65354 -28.60412,19.11929 -0.34689,6.86919 1.16724,11.53523 5.34791,16.48059 4.87936,5.77183 14.05346,7.96725 21.05991,5.03977 z m 43.21667,0 c 2.18506,-0.91297 3.32712,-1.03012 3.72747,-0.38234 0.33387,0.54023 2.54667,0.82183 5.24922,0.66801 l 4.67203,-0.26588 0.23176,-20.54335 0.23176,-20.54336 -2.23278,-0.84889 c -3.50668,-1.33324 -8.17058,-1.07775 -8.17058,0.44759 0,1.59585 0.0658,1.59693 -3.9091,-0.0639 -6.23109,-2.60352 -17.29807,0.41205 -21.43966,5.84195 -7.0104,9.19111 -6.76883,21.95744 0.57998,30.65041 4.87935,5.77182 14.05345,7.96725 21.0599,5.03977 z m 43.10399,-0.3228 c 4.66118,-2.117 6.99522,-5.25674 7.6961,-10.35275 1.16131,-8.44373 -2.7451,-12.88429 -13.4555,-15.29538 -7.85741,-1.76879 -9.43437,-2.55325 -9.43437,-4.69312 0,-1.96446 2.42592,-3.45733 5.61817,-3.45733 3.26178,0 5.33621,1.35193 5.97408,3.8934 0.53158,2.11801 0.7433,2.18627 5.06933,1.63437 2.48303,-0.31678 4.64884,-0.68993 4.81292,-0.82922 1.00125,-0.85001 -1.34343,-6.11819 -3.8294,-8.60416 -6.62446,-6.62446 -20.21684,-5.83639 -25.68623,1.48926 -2.38573,3.19543 -2.86643,9.23765 -1.04097,13.08453 1.94288,4.09431 5.41899,6.11241 13.63804,7.91774 7.48964,1.64512 9.21993,3.20877 7.02245,6.34611 -0.99738,1.42396 -2.19386,1.8623 -5.08317,1.8623 -3.92654,0 -5.95845,-1.26881 -6.92901,-4.32678 -0.46551,-1.46669 -1.31121,-1.72355 -5.67479,-1.72355 -2.82026,0 -5.12559,0.29171 -5.12293,0.64825 0.0344,4.62634 3.77218,9.82325 9.07068,12.61162 3.66623,1.92938 12.89491,1.82022 17.3546,-0.20526 z m -116.477,-10.46158 c 0.15178,-5.94229 0.0154,-15.56881 -0.30311,-21.39225 l -0.57907,-10.58809 h -4.6668 -4.6668 v 21.65147 21.65147 l 4.96991,-0.25922 4.96992,-0.25921 z m -0.39343,-38.58347 c 1.01956,-7.43853 1.15579,-7.2262 -4.63635,-7.2262 h -5.186 v 5.04194 c 0,2.77308 0.2593,5.30125 0.57622,5.61817 0.31692,0.31692 2.40328,0.57622 4.63635,0.57622 h 4.06013 z m 121.92676,1.78756 c 2.96979,-2.9698 0.64453,-9.01376 -3.46782,-9.01376 -4.37503,0 -6.21389,5.38238 -2.95294,8.64333 2.07637,2.07637 4.5709,2.22029 6.42076,0.37043 z M 563.18203,399.54388 c 5.53829,-8.38365 8.5047,-14.04892 7.75088,-14.80273 -0.29655,-0.29655 -6.50308,-0.53919 -13.7923,-0.53919 -10.1606,0 -13.25311,0.25699 -13.25311,1.10134 0,2.84594 12.00312,21.37133 13.84708,21.37133 0.40525,0 2.8566,-3.20884 5.44745,-7.13075 z m -21.0232,-4.13271 c 0,-7.59731 -0.2951,-10.51237 -1.09529,-10.81944 -0.60242,-0.23116 -11.00683,-0.31619 -23.12092,-0.18895 l -22.02563,0.23135 6.4825,4.64902 c 8.12934,5.83009 21.98659,12.56985 30.34425,14.75857 10.16631,2.66236 9.41509,3.35098 9.41509,-8.63055 z m 45.15026,6.8706 c 11.21213,-3.68411 25.27023,-11.40511 29.53246,-16.21983 l 1.64655,-1.85998 h -22.08199 c -17.69309,0 -22.1706,0.23091 -22.52781,1.16179 -0.79302,2.06657 -1.69725,18.51169 -1.07337,19.52116 0.79149,1.28065 4.96268,0.53202 14.50416,-2.60314 z m 46.82192,-30.5804 c 2.18286,-2.12149 3.96883,-4.26072 3.96883,-4.75384 0,-0.61282 -25.57705,-0.89657 -80.81517,-0.89657 -44.44835,0 -80.81518,0.21114 -80.81518,0.46919 0,0.25806 1.8035,2.39728 4.00778,4.75384 l 4.00777,4.28464 h 72.83858 72.83857 z m 14.97685,-19.90203 c 1.55172,-2.37148 2.82132,-4.60794 2.82132,-4.96991 0,-0.80307 -178.56113,-0.73928 -184.28112,0.0659 l -4.0676,0.57253 2.6287,4.54179 2.62869,4.5418 88.72434,-0.22013 88.72436,-0.22013 2.82131,-4.31178 z m -129.06514,-14.8272 c 4.87424,-0.6681 4.87208,-0.67983 -1.84332,-10.0067 -12.21406,-16.96383 -30.12326,-31.571 -48.21241,-39.32319 -6.09015,-2.60996 -18.79985,-6.27296 -21.82442,-6.28991 -1.73366,-0.01 -1.34678,14.40548 0.64953,24.20157 1.79432,8.80488 5.45471,20.76131 8.53177,27.86846 l 1.77752,4.10559 h 28.43308 c 15.6382,0 30.25791,-0.25013 32.48825,-0.55582 z m 66.18128,-14.7861 c -0.0175,-16.88439 -1.39422,-28.95561 -4.73352,-41.50181 -4.43743,-16.67201 -13.39898,-35.85872 -20.43754,-43.75685 l -3.16509,-3.5516 -2.36858,2.16083 c -3.30847,3.01829 -9.49093,12.70907 -12.94867,20.29658 -8.51719,18.68975 -13.17124,38.73478 -13.96373,60.14192 -0.62228,16.80918 -0.18142,20.416 2.5603,20.9466 1.05389,0.20396 13.87637,0.4238 28.49441,0.48854 l 26.57826,0.11771 -0.0158,-15.34192 z m 73.27858,7.13075 c 4.97396,-12.86981 8.04592,-26.36759 8.6062,-37.81459 0.56576,-11.55897 1.23618,-10.79428 -7.78723,-8.88225 -16.64502,3.52701 -36.68873,15.54593 -52.04121,31.20575 -5.96573,6.08516 -15.57582,18.62917 -16.13519,21.06121 -0.49593,2.15616 3.89841,2.45165 34.62491,2.32825 l 29.72607,-0.11937 z"
       id="path1407"
       inkscape:connector-curvature="0"
       transform="matrix(0.26458333,0,0,0.26458333,0,87)" />
    <path
       style="opacity:1;fill:#ffffff;fill-opacity:1;fill-rule:nonzero;stroke:none;stroke-width:1.46499991;stroke-linecap:butt;stroke-linejoin:miter;stroke-miterlimit:4;stroke-dasharray:none;stroke-dashoffset:0;stroke-opacity:1;paint-order:stroke fill markers"
       d="m 126.74963,276.32002 c -7.58203,-0.51415 -12.99345,-1.16205 -17.86192,-2.13856 -3.84326,-0.77088 -6.21632,-1.58258 -7.32074,-2.50405 l -0.77345,-0.64531 -0.0749,-4.22703 c -0.0842,-4.74733 0.25482,-11.19916 1.55883,-29.66973 1.37249,-19.44053 1.66353,-25.40731 1.68435,-34.53192 0.0217,-9.49016 -0.17537,-11.98201 -1.36023,-17.20342 -0.43594,-1.92108 -1.30744,-5.85979 -1.93667,-8.7527 -3.389237,-15.58218 -5.461729,-22.59417 -10.611941,-35.90405 -1.16807,-3.01868 -2.366666,-6.24736 -2.663547,-7.17485 l -0.539785,-1.68633 1.056442,-0.95646 c 2.099106,-1.90045 9.387961,-5.26621 20.319851,-9.38307 9.12418,-3.43609 12.0156,-4.60563 13.68271,-5.53449 l 1.44789,-0.80671 1.29637,0.94041 c 5.42089,3.93243 8.69206,4.80755 19.78324,5.29251 6.37804,0.27889 9.71637,0.1409 12.61472,-0.5214 3.0944,-0.70711 7.66942,-2.32982 10.76479,-3.81818 l 2.76069,-1.32743 1.24135,0.64074 c 1.60136,0.82656 5.70987,2.47205 11.87535,4.75615 8.39807,3.1112 16.44298,6.65975 18.01611,7.94677 l 0.52146,0.42662 -1.82912,6.70136 c -3.22652,11.82106 -5.43434,22.12141 -7.6641,35.75606 -0.686,4.19483 -1.65455,9.58187 -2.15231,11.97121 -1.63025,7.82541 -1.74827,9.14927 -1.73281,19.43766 0.0173,11.53103 0.51437,20.82572 1.93227,36.13275 0.66425,7.17105 1.10994,14.1142 1.36521,21.268 0.2281,6.39238 0.10225,9.36853 -0.43892,10.3797 -0.76847,1.43591 -6.15152,2.56377 -17.50835,3.66835 -13.28743,1.29235 -20.66308,1.62612 -34.85131,1.57714 -6.36482,-0.022 -12.03549,-0.0714 -12.6015,-0.10974 z m 40.07762,-11.4417 c 0.0943,-0.0543 0.17151,-0.29845 0.17151,-0.54258 0,-0.59979 0.27544,-0.55826 0.87565,0.13203 0.47472,0.54599 0.61376,0.57394 2.67529,0.53787 2.0779,-0.0364 2.18055,-0.062 2.30954,-0.57591 0.16317,-0.65011 0.44579,-0.68906 0.75861,-0.10455 0.31353,0.58586 1.28535,0.86102 2.52844,0.71591 0.84883,-0.0991 1.0419,-0.21027 1.10217,-0.63468 0.0838,-0.59 0.4488,-0.68186 0.64788,-0.16306 0.0742,0.19332 0.42903,0.5036 0.78855,0.68952 0.78517,0.40602 2.46375,0.22795 2.88911,-0.3065 0.25411,-0.31929 0.32393,-0.31685 0.70107,0.0245 1.22646,1.10992 3.01875,0.40506 3.01875,-1.1872 0,-0.46883 -0.11913,-0.97155 -0.26474,-1.11715 -0.20051,-0.20052 -0.1916,-0.35285 0.0368,-0.62802 0.25376,-0.30576 0.22872,-0.4612 -0.15809,-0.98162 -0.59347,-0.79847 -1.54141,-0.91534 -2.38222,-0.2937 -0.79084,0.5847 -0.80884,0.58493 -0.95854,0.0125 -0.10808,-0.41331 -0.27141,-0.45451 -1.51415,-0.38195 -1.03882,0.0607 -1.52733,0.20752 -1.92129,0.57762 -0.29055,0.27296 -0.59392,0.49629 -0.67414,0.49629 -0.0802,0 -0.1765,-0.64318 -0.21395,-1.4293 -0.0593,-1.24401 -0.12936,-1.43807 -0.54077,-1.49689 -0.37186,-0.0532 -0.82764,-0.86808 -2.13662,-3.82017 -1.6973,-3.82781 -2.06156,-4.40499 -2.58333,-4.09331 -1.00673,0.60137 -2.69711,2.02156 -2.69711,2.266 0,0.15963 0.51455,1.44503 1.14344,2.85647 0.6289,1.41143 1.14344,2.64347 1.14344,2.73788 0,0.0944 -0.26652,0.12069 -0.59227,0.0584 -0.47065,-0.09 -0.75878,-0.45915 -1.40312,-1.7978 -0.51284,-1.06545 -0.94654,-1.68415 -1.18006,-1.68342 -0.41031,0.001 -2.49556,1.51988 -2.82462,2.05705 -0.13062,0.21322 -0.119,0.581 0.0307,0.97192 0.23925,0.62476 0.25506,0.62889 2.40363,0.62889 1.96194,0 2.17626,0.0425 2.30795,0.45738 0.27253,0.85867 -0.0428,1.28863 -0.87404,1.1916 -0.56633,-0.0661 -0.93601,0.0612 -1.46151,0.50339 -0.85771,0.72172 -0.92941,0.72715 -1.0217,0.0773 -0.062,-0.43632 -0.22953,-0.52306 -1.10217,-0.57056 -1.51939,-0.0827 -2.02248,0.10079 -2.52181,0.91973 -0.78971,1.2952 -0.36951,3.59419 0.73931,4.04489 0.47571,0.19335 2.33434,0.093 2.75443,-0.14879 z m 18.07921,-5.25002 c -0.15016,-0.0611 -0.21763,-0.28451 -0.14994,-0.49649 0.10517,-0.32939 0.0872,-0.33555 -0.12369,-0.0424 -0.35408,0.49223 -0.31103,0.68865 0.14644,0.66801 0.22011,-0.01 0.27735,-0.068 0.12719,-0.12912 z m -2.87757,-1.51082 c -0.41889,-1.067 -5.50901,-12.43847 -5.6257,-12.56795 -0.0801,-0.0889 -0.85089,0.35625 -1.71287,0.9892 -1.39501,1.02437 -1.5535,1.21805 -1.44227,1.76244 0.0687,0.33639 1.0688,2.74699 2.22236,5.35689 l 2.09738,4.74528 h 2.28666 c 1.73673,0 2.25968,-0.0688 2.17444,-0.28586 z m -56.99442,-45.79829 c 0.54994,-0.19625 0.94516,-0.23785 0.99098,-0.10431 0.0419,0.12217 0.63366,0.22213 1.31496,0.22213 h 1.23873 v -5.7172 -5.71721 h -1.01276 c -0.60922,0 -1.1538,0.14104 -1.36673,0.35397 -0.2914,0.2914 -0.44588,0.30443 -0.87392,0.0737 -0.81184,-0.43754 -3.14125,-0.32539 -4.35032,0.20943 -1.92374,0.85097 -3.37044,3.69179 -3.0314,5.95265 0.19583,1.30591 1.00447,2.92872 1.86648,3.74574 1.34657,1.27628 3.345,1.65158 5.22398,0.98106 z m 11.49536,-0.007 c 0.54711,-0.2286 0.87489,-0.26905 0.92646,-0.11434 0.0439,0.13167 0.68869,0.23941 1.43288,0.23941 h 1.35307 v -7.54671 -7.54671 h -1.37213 -1.37213 v 2.197 c 0,2.00442 -0.0351,2.18217 -0.4002,2.02773 -1.05491,-0.44621 -2.88156,-0.61411 -3.77358,-0.34686 -1.25372,0.37562 -3.02487,2.08361 -3.53003,3.40414 -1.07941,2.82167 0.17474,6.29389 2.73022,7.55883 1.16043,0.5744 2.81018,0.62692 4.00544,0.12751 z m 15.25808,0.009 c 0.58474,-0.20822 0.99069,-0.24563 1.13201,-0.10431 0.38033,0.38034 2.34802,0.26929 2.50562,-0.14139 0.0763,-0.19896 0.13881,-3.59498 0.13881,-7.54672 v -7.18495 h -1.12994 c -0.62147,0 -1.19235,0.10096 -1.26862,0.22437 -0.0763,0.1234 -0.20089,1.10605 -0.27693,2.18367 -0.11827,1.67574 -0.19117,1.93731 -0.50373,1.80737 -3.63956,-1.51305 -7.14404,0.68705 -7.50921,4.71426 -0.39069,4.30854 3.13445,7.39289 6.91199,6.04772 z m 11.43008,0.002 c 0.59486,-0.21186 0.95673,-0.24324 1.05074,-0.0911 0.0789,0.12761 0.69967,0.20036 1.37955,0.16167 l 1.23614,-0.0705 v -5.48851 -5.48852 l -1.11461,-0.21514 c -0.95794,-0.1849 -1.15621,-0.15825 -1.41056,0.18959 -0.24983,0.34166 -0.37732,0.36119 -0.81808,0.1253 -0.65857,-0.35245 -2.53128,-0.3534 -3.81533,-0.002 -2.0719,0.56712 -3.48039,2.84112 -3.47041,5.60295 0.006,1.70734 0.54089,2.96357 1.79542,4.2181 1.35743,1.35742 3.24258,1.74341 5.16714,1.05797 z m 11.7378,-0.20272 c 2.06747,-1.07308 2.40651,-4.52759 0.56591,-5.7661 -0.40642,-0.27347 -1.48697,-0.67727 -2.40123,-0.89732 -2.07312,-0.49908 -2.4627,-0.69715 -2.4627,-1.2522 0,-0.54016 0.64938,-0.91475 1.58578,-0.91475 0.6546,0 1.18432,0.36279 1.7302,1.18498 0.30897,0.46535 2.40123,0.29957 2.40123,-0.19027 0,-0.56838 -0.63936,-1.60082 -1.37432,-2.21924 -1.39864,-1.17689 -3.42202,-1.31275 -5.29789,-0.35576 -1.63381,0.83351 -2.23268,3.15037 -1.21556,4.70268 0.54673,0.83443 1.59469,1.3791 3.44576,1.79092 1.98641,0.44193 2.37319,0.78006 1.83387,1.60316 -0.71947,1.09805 -3.33776,0.56077 -3.33776,-0.68492 0,-0.26681 -0.30491,-0.34303 -1.37212,-0.34303 -0.79076,0 -1.37213,0.1 -1.37213,0.23603 0,0.4163 0.69069,1.90534 1.09498,2.36064 0.21532,0.24248 0.80313,0.63636 1.30624,0.87529 1.12969,0.5365 3.71858,0.46727 4.86974,-0.13021 z M 143.78764,210.14 c 0.0904,-1.26339 0.0899,-3.83614 -0.001,-5.7172 l -0.16572,-3.42022 h -1.23189 -1.23189 v 5.7172 5.71721 h 1.23311 1.23312 l 0.16441,-2.29709 z m -0.045,-11.1229 c 0.0738,-0.71467 0.0821,-1.38358 0.0185,-1.48647 -0.0636,-0.10289 -0.67555,-0.18707 -1.35991,-0.18707 h -1.24429 v 1.33402 c 0,0.73371 0.0686,1.40262 0.15246,1.48647 0.0839,0.0838 0.63546,0.15246 1.22579,0.15246 h 1.07334 z m 32.21408,0.69225 c 0.81914,-0.74131 0.26993,-2.36579 -0.79983,-2.36579 -0.6017,0 -1.29752,0.64027 -1.29752,1.19392 0,0.69723 0.4556,1.37127 0.82982,1.22767 0.18969,-0.0728 0.27621,-0.0305 0.19766,0.0966 -0.2319,0.37522 0.62113,0.2537 1.06987,-0.1524 z m -27.59609,-6.52927 c 1.13697,-1.57786 2.84655,-4.58983 2.72072,-4.79342 -0.17634,-0.28532 -6.89435,-0.23932 -7.07218,0.0484 -0.2483,0.40174 3.01008,5.716 3.4961,5.70198 0.0931,-0.003 0.47803,-0.43333 0.85536,-0.95699 z m -4.96428,-1.67069 c 0.0368,-1.25633 0.009,-2.51578 -0.0615,-2.79878 l -0.12838,-0.51455 h -5.82719 c -3.46894,0 -5.82719,0.0867 -5.82719,0.21417 0,0.24584 3.30199,2.47026 4.73398,3.18908 2.1909,1.09979 5.93205,2.35217 6.70043,2.24304 0.27354,-0.0389 0.35657,-0.51145 0.40989,-2.33296 z m 10.06756,2.05663 c 2.99575,-0.70626 7.40386,-2.86455 9.33582,-4.57099 l 0.88301,-0.77993 -5.74638,-0.01 c -4.3333,-0.007 -5.80206,0.0608 -5.97284,0.27634 -0.26003,0.32823 -0.60756,4.86886 -0.39853,5.20707 0.17542,0.28383 0.17261,0.28401 1.89892,-0.12297 z m 14.30441,-8.769 c 0.8938,-0.90745 1.02558,-1.13896 0.71593,-1.25779 -0.67025,-0.2572 -42.19203,-0.17043 -42.19203,0.0882 0,0.12859 0.42474,0.6946 0.94388,1.25779 l 0.94387,1.02399 h 19.24646 19.24645 z m 3.89433,-5.1196 c 0.5279,-0.82083 0.69002,-1.25376 0.51251,-1.36863 -0.32233,-0.20857 -39.15121,-0.22916 -45.02536,-0.0239 -2.35835,0.0824 -4.28791,0.2323 -4.28791,0.33306 0,0.10077 0.28226,0.6505 0.62723,1.22163 l 0.62723,1.03842 h 23.38708 23.38708 z m -33.26053,-4.1856 c 0.67242,-0.67313 -5.16145,-7.23116 -8.63828,-9.71056 -3.32834,-2.37351 -7.95672,-4.41273 -10.47151,-4.61366 l -0.88986,-0.0711 -0.0709,1.60081 c -0.12574,2.84058 1.12414,8.44233 2.70824,12.13789 l 0.44868,1.04673 8.33656,-0.0747 c 5.43275,-0.0487 8.42032,-0.15855 8.57703,-0.31543 z m 16.70294,-3.24676 c -0.002,-3.85815 -0.24138,-6.62003 -0.82749,-9.54774 -0.97346,-4.86255 -3.65378,-10.99471 -5.89753,-13.4926 l -0.82168,-0.91475 -1.03183,1.14134 c -2.29231,2.5356 -5.14619,9.55691 -6.06789,14.92865 -0.51123,2.9795 -0.82774,8.51995 -0.58079,10.16671 0.15834,1.05586 0.16943,1.06729 1.11971,1.15337 0.52789,0.0478 3.91845,0.10493 7.53459,0.1269 l 6.57478,0.04 -0.002,-3.60184 z m 18.86154,2.78319 c 0.7437,-1.77994 1.76346,-4.99365 2.18845,-6.89679 0.5518,-2.47101 0.85434,-6.78418 0.49158,-7.00838 -0.13843,-0.0855 -0.95083,0.006 -1.80534,0.20236 -4.94562,1.13931 -9.77927,4.07081 -14.02643,8.5067 -2.09889,2.19217 -4.10711,4.86523 -4.10711,5.46682 0,0.40052 1.04932,0.45545 9.65901,0.50563 l 7.25778,0.0423 z"
       id="path1409"
       inkscape:connector-curvature="0" />
    <path
       style="fill:#000000;stroke-width:1"
       d="m 166.35398,186.68685 c -0.84095,-0.47062 -1.06946,-1.87067 -0.62096,-3.80455 0.22502,-0.97029 0.54966,-2.02389 0.72142,-2.34134 0.17244,-0.31868 0.2861,-1.37389 0.25381,-2.35618 -0.0616,-1.87274 0.21903,-2.71184 1.46218,-4.37255 1.20068,-1.60398 1.59593,-0.73186 0.52052,1.14854 -0.34046,0.59531 -0.6975,1.42875 -0.79341,1.85208 -0.15698,0.69286 -0.0354,0.61711 1.21752,-0.75881 1.42067,-1.56008 2.71805,-2.56767 3.31015,-2.5708 0.1819,-9.6e-4 0.56885,0.23639 0.85989,0.52743 0.64663,0.64663 0.72696,2.81878 0.14581,3.94261 -0.62419,1.20705 -2.09959,2.31553 -3.5428,2.66176 -1.33349,0.31989 -1.33941,0.32604 -1.87848,1.9515 -0.29742,0.89682 -0.61796,2.19938 -0.71231,2.89458 -0.19227,1.41672 -0.31563,1.57701 -0.94334,1.22573 z m 5.52116,-8.70743 c 0.0621,0 0.3344,-0.49471 0.60511,-1.09934 0.47667,-1.06469 0.46936,-1.81108 -0.0178,-1.81108 -0.27198,0 -2.61698,3.11138 -2.61698,3.47224 0,0.13147 0.43126,0.0588 0.95835,-0.1614 0.5271,-0.22023 1.00917,-0.40042 1.07127,-0.40042 z m -42.83946,3.89235 c -0.22093,-0.17626 -0.47741,-0.64645 -0.56995,-1.04486 -0.11176,-0.48112 -0.50004,-0.89542 -1.15622,-1.23368 -2.3552,-1.21409 -4.30659,-3.51426 -3.79398,-4.47208 0.28155,-0.52609 2.23747,-1.48059 3.876,-1.89152 1.06971,-0.26827 1.07005,-0.26876 1.36954,-2.01718 0.16476,-0.96186 0.37071,-1.81999 0.45768,-1.90696 0.3571,-0.3571 0.9384,0.70078 1.13296,2.0618 l 0.20767,1.45275 1.05609,0.0738 c 3.24429,0.22681 5.42171,1.26161 5.42171,2.57663 0,0.84312 -0.6727,1.45058 -1.60639,1.45058 -0.88644,0 -0.9741,-0.19133 -0.31183,-0.68062 0.69069,-0.51029 0.1789,-0.85484 -1.93494,-1.30263 -2.94954,-0.62483 -2.76142,-0.76813 -2.76142,2.10356 v 2.50155 l 0.95894,0.1799 c 2.4826,0.46573 6.47638,-0.49626 7.76797,-1.87109 0.79967,-0.85121 0.97538,-2.50676 0.42032,-3.96017 -1.05686,-2.76736 -6.11256,-6.11274 -10.99931,-7.2783 -2.41648,-0.57636 -7.40834,-0.76202 -7.40834,-0.27553 0,0.14552 0.11907,0.26458 0.26459,0.26458 0.14552,0 0.26458,0.12697 0.26458,0.28216 0,0.15519 -0.32742,0.24448 -0.7276,0.19844 -0.97126,-0.11176 -0.96226,-0.90955 0.0185,-1.64267 1.12486,-0.84082 5.33727,-0.93027 8.49469,-0.18038 8.23895,1.95675 14.26706,8.14223 12.08388,12.39935 -0.68496,1.33565 -1.46258,2.00848 -3.33382,2.88459 -1.45657,0.68196 -1.84172,0.74289 -4.69559,0.74289 -1.70988,0 -3.10887,0.0851 -3.10886,0.18913 5e-5,0.43261 -0.98754,0.71455 -1.3869,0.39593 z m -0.49154,-5.67829 0.0264,-1.38906 h -1.07346 c -1.28048,0 -3.37064,0.49263 -3.58896,0.84588 -0.25894,0.41897 0.96498,1.49741 2.66227,2.3458 l 1.60328,0.80139 0.17206,-0.60747 c 0.0946,-0.33411 0.18393,-1.23256 0.19844,-1.99654 z m 31.88402,3.76982 c -0.28849,-0.44029 -0.37376,-0.90543 -0.25465,-1.38906 0.0985,-0.39991 0.24657,-1.0843 0.32908,-1.52086 0.0825,-0.43657 0.37294,-1.00675 0.64542,-1.26708 0.64355,-0.61485 0.63001,-1.16809 -0.0337,-1.37876 -0.29104,-0.0924 -0.52917,-0.32364 -0.52917,-0.51392 0,-0.38443 0.75157,-0.57632 3.26642,-0.83398 1.52591,-0.15633 1.75292,-0.11505 2.28315,0.41518 0.78461,0.7846 0.43444,1.08896 -1.4914,1.29629 -1.1736,0.12634 -1.55927,0.27536 -1.62698,0.62862 -0.0726,0.37881 0.10442,0.46302 0.97338,0.46302 1.1887,0 1.57277,0.34837 1.06225,0.96351 -0.2374,0.28605 -0.61098,0.36739 -1.22771,0.2673 -0.66637,-0.10813 -1.01843,-0.0119 -1.41787,0.38754 -0.51945,0.51945 -0.54913,1.21018 -0.0476,1.10877 0.13874,-0.0281 0.85027,-0.13034 1.58119,-0.2273 1.1185,-0.14838 1.35686,-0.10355 1.50522,0.28306 0.31768,0.82787 -1.73172,1.97962 -3.52249,1.97962 -0.8397,0 -1.15112,-0.13794 -1.49446,-0.66195 z m -17.29625,-0.11441 c -0.45752,-0.85488 -0.18181,-6.28308 0.34594,-6.81083 0.10258,-0.10259 0.35644,-0.015 0.56412,0.19461 0.56256,0.56781 0.89133,6.5598 0.37776,6.88495 -0.58443,0.37002 -0.99143,0.28509 -1.28782,-0.26873 z m 10.57795,0.25522 c -0.76119,-0.48129 -0.20677,-5.64072 0.68574,-6.38144 0.49789,-0.41321 1.0908,0.12076 2.41297,2.17314 0.54912,0.8524 1.10095,1.55085 1.22629,1.55213 0.26343,0.003 0.0735,-1.27881 -0.53955,-3.63951 -0.23671,-0.91159 -0.35786,-1.72998 -0.26921,-1.81862 0.70722,-0.70722 2.28191,2.2283 2.47617,4.61605 0.098,1.20499 0.0142,1.67765 -0.41948,2.36574 -0.9369,1.48644 -1.838,1.0271 -3.38923,-1.72769 l -0.78663,-1.39697 -0.1522,1.79384 c -0.22053,2.59931 -0.4165,2.98709 -1.24487,2.46333 z m -6.62264,-0.5008 c -1.06799,-0.57086 -1.5844,-1.6465 -1.08144,-2.25254 0.6777,-0.81657 3.32597,-0.84566 4.41614,-0.0485 0.44092,0.32241 0.43332,0.36199 -0.12701,0.66188 -0.46605,0.24942 -0.87284,0.248 -1.86585,-0.007 -1.36934,-0.35095 -2.57842,-0.15813 -1.85946,0.29654 0.52271,0.33057 2.79946,0.31695 4.02748,-0.0241 1.09725,-0.30472 1.2881,-0.86744 0.4469,-1.31763 -0.40605,-0.21731 -3.41017,-0.66662 -5.21792,-0.78042 -0.0411,-0.003 -0.17583,-0.27259 -0.29947,-0.60002 -0.55822,-1.47831 1.3663,-2.5649 4.55872,-2.57387 3.9607,-0.0111 4.10199,1.12495 0.17676,1.42126 -1.311,0.099 -2.65002,0.28179 -2.97561,0.40627 l -0.59198,0.22632 0.66145,0.13757 c 0.36381,0.0757 1.55388,0.2604 2.64461,0.41052 2.23734,0.30794 2.91757,0.83517 2.90323,2.2502 -0.0159,1.57348 -1.06044,2.28579 -3.35176,2.28579 -0.99851,0 -1.86815,-0.17386 -2.46479,-0.49277 z m -5.66728,-8.79195 c -0.41938,-1.28219 -0.41667,-1.39344 0.0562,-2.30461 0.58085,-1.11927 2.35427,-2.169 3.66432,-2.169 1.00529,0 2.91144,0.91039 3.25664,1.55539 0.39269,0.73375 -0.35406,1.99431 -1.71574,2.89624 -1.02198,0.67694 -1.53892,0.84004 -2.66245,0.84004 -0.76682,0 -1.46781,0.11906 -1.55775,0.26458 -0.3276,0.53006 -0.60964,0.23679 -1.04121,-1.08264 z m 4.85785,-0.96829 c 1.11588,-0.56964 1.58785,-1.24936 1.1627,-1.67451 -0.46477,-0.46477 -1.95632,0.14028 -2.9998,1.21688 l -0.89273,0.92106 0.9118,-4.2e-4 c 0.50149,-2.3e-4 1.3196,-0.20859 1.81803,-0.46302 z M 143.0819,168.719 c 0.9018,-0.9018 0.53347,-1.10036 -0.40527,-0.21846 -0.55121,0.51783 -0.79562,1.01221 -0.50042,1.01221 0.0616,0 0.46912,-0.35719 0.90569,-0.79375 z"
       id="path853"
       inkscape:connector-curvature="0" />
  </g>
</svg>
