<?xml version="1.0" encoding="UTF-8" standalone="no"?>
<!-- Created with Inkscape (http://www.inkscape.org/) -->

<svg
   xmlns:dc="http://purl.org/dc/elements/1.1/"
   xmlns:cc="http://creativecommons.org/ns#"
   xmlns:rdf="http://www.w3.org/1999/02/22-rdf-syntax-ns#"
   xmlns:svg="http://www.w3.org/2000/svg"
   xmlns="http://www.w3.org/2000/svg"
   xmlns:xlink="http://www.w3.org/1999/xlink"
   xmlns:sodipodi="http://sodipodi.sourceforge.net/DTD/sodipodi-0.dtd"
   xmlns:inkscape="http://www.inkscape.org/namespaces/inkscape"
   width="297mm"
   height="210mm"
   viewBox="0 0 297 210"
   version="1.1"
   id="svg8"
   sodipodi:docname="cam11.svg"
   inkscape:version="0.92.2 (5c3e80d, 2017-08-06)">
  <defs
     id="defs2">
    <inkscape:path-effect
       effect="spiro"
       id="path-effect1742"
       is_visible="true" />
    <inkscape:path-effect
       effect="spiro"
       id="path-effect1716"
       is_visible="true" />
    <linearGradient
       inkscape:collect="always"
       id="linearGradient1689">
      <stop
         style="stop-color:#b3b3b3;stop-opacity:1;"
         offset="0"
         id="stop1685" />
      <stop
         style="stop-color:#b3b3b3;stop-opacity:0;"
         offset="1"
         id="stop1687" />
    </linearGradient>
    <linearGradient
       inkscape:collect="always"
       xlink:href="#linearGradient1689"
       id="linearGradient1691"
       x1="101.29881"
       y1="215.04805"
       x2="298.51037"
       y2="215.04805"
       gradientUnits="userSpaceOnUse" />
  </defs>
  <sodipodi:namedview
     id="base"
     pagecolor="#ffffff"
     bordercolor="#666666"
     borderopacity="1.0"
     inkscape:pageopacity="0.0"
     inkscape:pageshadow="2"
     inkscape:zoom="0.47"
     inkscape:cx="857.23787"
     inkscape:cy="300.29608"
     inkscape:document-units="mm"
     inkscape:current-layer="layer1"
     showgrid="false"
     inkscape:window-width="1366"
     inkscape:window-height="705"
     inkscape:window-x="-8"
     inkscape:window-y="-8"
     inkscape:window-maximized="1" />
  <metadata
     id="metadata5">
    <rdf:RDF>
      <cc:Work
         rdf:about="">
        <dc:format>image/svg+xml</dc:format>
        <dc:type
           rdf:resource="http://purl.org/dc/dcmitype/StillImage" />
        <dc:title></dc:title>
      </cc:Work>
    </rdf:RDF>
  </metadata>
  <g
     inkscape:label="Capa 1"
     inkscape:groupmode="layer"
     id="layer1"
     transform="translate(0,-87)">
    <path
       style="opacity:1;fill:#000000;fill-opacity:1;fill-rule:nonzero;stroke:none;stroke-width:1.46500003;stroke-linecap:butt;stroke-linejoin:miter;stroke-miterlimit:4;stroke-dasharray:none;stroke-dashoffset:0;stroke-opacity:1;paint-order:stroke fill markers"
       d="M -0.5880778,87.68523 V 299.35184 H 298.09736 V 87.68523 Z M 147.60806,112.25078 c 9.57732,0 17.41326,0.0615 17.41324,0.13677 -2e-5,0.0753 -1.05204,0.67902 -2.33774,1.34155 -2.1442,1.10492 -3.35315,1.19693 -14.6096,1.1094 -6.74959,-0.0525 -13.20067,-0.20863 -14.33567,-0.34691 -1.97299,-0.24038 -3.54439,-1.06801 -3.54397,-1.86664 1.1e-4,-0.2058 7.83643,-0.37417 17.41374,-0.37417 z m -21.67419,0.67549 c 0.50759,-0.0101 1.37598,0.39984 2.84826,1.30539 4.80963,2.95827 8.10995,3.78212 16.52296,4.12579 8.93717,0.36508 12.20928,-0.20446 18.05603,-3.14269 3.29534,-1.65603 4.05919,-1.84698 4.62516,-1.15813 1.00082,1.21808 0.39435,1.77795 -3.73489,3.44768 -7.72773,3.12484 -16.01882,3.98928 -26.0882,2.7203 -2.71813,-0.34255 -5.57517,-1.23499 -8.34916,-2.60868 -4.24892,-2.10408 -5.20069,-3.06715 -4.37146,-4.4224 0.10463,-0.17101 0.26058,-0.26266 0.4913,-0.26726 z m -2.62464,2.67367 2.40933,1.74034 c 4.63609,3.34837 8.50315,4.28206 19.04178,4.599 9.03752,0.2718 9.84292,0.20222 15.05214,-1.30591 3.02708,-0.87639 6.65544,-2.24315 8.06278,-3.03683 l 2.55875,-1.44269 2.33204,1.20163 c 1.28274,0.66101 5.84224,2.42606 10.1323,3.92246 8.98761,3.13492 19.31412,7.84266 19.30428,8.80077 -0.004,0.36044 -0.78797,3.27254 -1.74267,6.47088 -2.61758,8.76921 -6.28467,25.87652 -7.70013,35.92155 -0.69314,4.91902 -1.79918,10.95599 -2.45759,13.4155 -1.73654,6.48688 -2.088,20.23074 -0.86433,33.79499 1.34917,14.95535 2.69108,35.55716 2.87523,44.13906 0.12646,5.89378 -0.0157,7.45348 -0.74812,8.19656 -1.23867,1.2565 -9.80386,3.05173 -19.87756,4.16666 -7.6397,0.84554 -37.72396,1.18476 -46.80573,0.52771 -11.97669,-0.86648 -20.95171,-2.55662 -23.1585,-4.3616 -1.16158,-0.95009 -1.24182,-1.52817 -1.12477,-8.11743 0.0693,-3.90192 0.93622,-17.5584 1.92633,-30.34783 2.01609,-26.04213 2.09829,-41.1102 0.25889,-47.40176 -0.52732,-1.80364 -1.74099,-7.16955 -2.69676,-11.92459 -2.229048,-11.08956 -5.69122,-22.63627 -9.83347,-32.79355 -1.805422,-4.42711 -3.319224,-8.58089 -3.363943,-9.23048 -0.114149,-1.65812 9.462764,-6.34177 22.517773,-11.01224 5.61172,-2.00761 11.0352,-4.16124 12.05241,-4.78608 z m 80.76941,15.14431 c 0.94763,0.0441 3.66691,2.39761 5.80545,5.13037 1.61611,2.06516 2.87631,4.77768 4.33048,9.32063 1.12809,3.52423 3.24833,9.22489 4.71181,12.6682 1.46348,3.44331 3.61462,8.5007 4.78029,11.23862 l 2.11932,4.97789 -3.98704,3.99897 c -2.19288,2.1993 -5.71384,4.95352 -7.82412,6.12081 -3.6844,2.03802 -15.79859,7.05309 -17.0371,7.05309 -0.32898,0 -1.32123,-2.24219 -2.20493,-4.98312 l -1.60674,-4.98364 1.29182,-9.10786 c 0.71037,-5.00938 2.09224,-12.76162 3.07082,-17.22686 1.718,-7.83915 5.69568,-23.14031 6.25941,-24.07871 0.0562,-0.0936 0.15516,-0.13469 0.29053,-0.12839 z m -119.307422,3.39737 c 0.04095,0.001 0.08007,0.008 0.117769,0.0209 1.052805,0.35448 6.662,14.50689 9.393517,23.70088 1.315286,4.42711 3.137051,11.75994 4.048252,16.29511 l 1.656548,8.24581 -1.422049,4.22274 c -0.782104,2.32268 -1.4894,4.27568 -1.571984,4.33959 -0.08259,0.0639 -2.275372,-0.73798 -4.872634,-1.78174 -5.942714,-2.3882 -9.17258,-4.06451 -13.281457,-6.89378 -3.955475,-2.72365 -10.267832,-8.25028 -10.498058,-9.19119 -0.09234,-0.37742 1.59026,-4.9662 3.739043,-10.19735 2.148783,-5.23115 4.959662,-12.63133 6.246434,-16.44498 2.368957,-7.02097 5.175047,-12.3585 6.444619,-12.31605 z m -17.358759,41.01262 c 0.187605,0 1.813728,1.3602 3.614008,3.02216 5.868203,5.41733 13.431822,9.9436 21.764469,13.02455 2.9967,1.10802 3.570881,1.53688 3.325552,2.48449 -0.368563,1.42361 -1.554982,1.41261 -7.135152,-0.0639 -8.077171,-2.13726 -17.443378,-7.65341 -21.512846,-12.66978 -1.963889,-2.42086 -2.031029,-2.64713 -1.236835,-4.17819 0.461857,-0.89039 0.9932,-1.6193 1.180804,-1.6193 z m 159.195371,1.25351 c 0.0199,-0.004 0.0339,-0.003 0.041,0.005 0.11327,0.12782 0.37446,0.78823 0.58055,1.46732 0.29841,0.98339 -0.49781,2.08166 -3.91129,5.39554 -5.02443,4.87782 -11.69811,8.61763 -18.52505,10.38129 -5.64206,1.45756 -7.46018,1.51303 -7.20155,0.21904 0.12075,-0.60407 2.79559,-1.9823 7.28146,-3.75109 9.05112,-3.5689 13.06513,-5.90843 17.78054,-10.364 1.95375,-1.84608 3.65587,-3.28542 3.95435,-3.35282 z"
       id="rect1277"
       inkscape:connector-curvature="0" />
    <path
       style="opacity:1;fill:#ff0000;fill-opacity:1;fill-rule:nonzero;stroke:none;stroke-width:1.46499991;stroke-linecap:butt;stroke-linejoin:miter;stroke-miterlimit:4;stroke-dasharray:none;stroke-dashoffset:0;stroke-opacity:1;paint-order:stroke fill markers"
       d="m 378.13446,349.95909 c -1.88051,-1.96358 -17.43234,-19.76775 -28.00162,-32.05705 l -3.43679,-3.99608 5.3194,-5.676 5.31939,-5.676 h 22.73601 22.73601 l 5.59521,5.6122 5.5952,5.61219 -2.3435,2.74388 c -3.90156,4.56814 -31.1586,35.70561 -31.25588,35.70561 -0.0498,0 -1.0684,-1.02094 -2.26343,-2.26875 z m 10.41214,-10.93342 c 0.68399,-0.89675 1.14388,-1.7302 1.02198,-1.8521 -0.1219,-0.1219 -2.46242,-0.0151 -5.20116,0.23737 -2.85951,0.26359 -6.60634,0.29101 -8.8006,0.0644 -2.10158,-0.21702 -3.98616,-0.30289 -4.18794,-0.19083 -0.53632,0.29785 1.11464,2.44878 5.27006,6.86601 l 3.6737,3.90517 3.49017,-3.69979 c 1.9196,-2.03488 4.04981,-4.43349 4.73379,-5.33025 z m 1.92003,-5.65966 c 2.99077,-0.89501 4.69529,-2.70321 3.91776,-4.15606 -0.86647,-1.619 -3.39382,-2.24272 -11.23602,-2.7729 -10.66857,-0.72127 -19.6765,-1.44815 -21.8672,-1.76455 l -1.86718,-0.26967 1.00385,1.37463 c 0.55211,0.75604 2.17543,2.66424 3.60738,4.24043 l 2.60353,2.8658 1.28417,-1.19408 c 2.29204,-2.13127 7.78817,-1.1284 10.5197,1.91952 0.8953,0.99899 1.22516,1.04813 5.25397,0.78268 2.36429,-0.15579 5.4153,-0.61739 6.78004,-1.0258 z m 12.67571,-10.87085 c 1.63536,-1.75061 6.03719,-6.85067 7.00568,-8.11694 0.56584,-0.7398 0.22072,-1.26093 -3.08408,-4.65692 -2.04667,-2.10315 -4.00635,-3.8239 -4.35484,-3.8239 -0.4736,0 -0.63362,0.96498 -0.63362,3.82107 v 3.82106 l -4.89574,-0.0113 -4.89575,-0.0112 -1.0274,-2.33967 c -1.29929,-2.95883 -4.05869,-5.02787 -7.72433,-5.79182 -3.78096,-0.78799 -10.41735,-0.29919 -13.30991,0.98033 -4.24109,1.87603 -5.4934,3.9326 -4.23242,6.95056 1.23637,2.95904 3.42742,3.55669 14.875,4.05744 12.23476,0.53518 14.72744,1.13575 17.83042,4.2959 1.20232,1.22448 2.36849,2.26039 2.59146,2.30202 0.22297,0.0416 1.05796,-0.62285 1.85553,-1.47662 z m -46.91967,-3.85379 c 0,-0.60906 0.32711,-2.20891 0.72692,-3.55522 0.79718,-2.68439 4.31135,-6.95424 7.18533,-8.73046 0.9055,-0.55964 1.52488,-1.2141 1.37639,-1.45436 -0.14849,-0.24026 -1.77237,-0.43683 -3.60863,-0.43683 h -3.33864 l -4.1559,4.35523 c -2.28574,2.39539 -4.21976,4.5214 -4.29782,4.72449 -0.2322,0.60409 4.65405,6.20455 5.41331,6.20455 0.41262,0 0.69904,-0.45373 0.69904,-1.1074 z m 40.65049,-11.07776 c 0.52425,-1.18517 0.82189,-2.36732 0.6614,-2.62699 -0.31932,-0.51668 -5.61955,-0.66038 -6.11416,-0.16577 -0.3652,0.3652 3.37618,4.94762 4.03955,4.94762 0.253,0 0.88895,-0.96969 1.41321,-2.15486 z"
       id="path934"
       inkscape:connector-curvature="0" />
    <path
       style="fill:url(#linearGradient1691);fill-opacity:1;stroke:none;stroke-width:0.26458332px;stroke-linecap:butt;stroke-linejoin:miter;stroke-opacity:1"
       d="m 204.07864,130.74425 v 0 l 94.43173,49.01352 -0.41301,119.59407 c -65.96699,-9.51475 -172.12094,-7.9779 -196.79855,-27.12684 14.85649,9.90547 92.15619,2.49939 89.11588,0.2456 5.31067,2.95563 -0.83151,-36.8634 -1.24726,-55.2951 l -0.41575,-20.78763 c 4.38743,-29.17413 6.01965,-20.5935 4.41438,-15.1018 1.54521,4.74231 3.09042,10.23425 4.63562,14.21987 6.05568,-1.2345 12.55232,-3.74874 18.608,-6.06408 3.12537,-4.43494 12.8747,-7.87257 10.19816,-13.03383 -9.29348,-20.76434 -14.30446,-44.02875 -22.5292,-45.66378 z"
       id="path1286"
       inkscape:connector-curvature="0"
       sodipodi:nodetypes="ccccccccccccc" />
    <path
       style="fill:#000000;stroke-width:1"
       d="m 341.02709,262.75552 c -0.38525,-0.13316 -0.69723,-0.37686 -0.96131,-0.75087 -0.29326,-0.41533 -0.46024,-0.88009 -0.5215,-1.45158 -0.0521,-0.48913 0.0427,-1.13521 0.22867,-1.55691 0.34222,-0.77503 0.92861,-1.24597 1.64709,-1.32281 0.33874,-0.0363 0.81577,0.10613 1.0878,0.32462 0.0687,0.0554 0.13242,0.0915 0.14103,0.0802 0.009,-0.0113 0.016,-0.0949 0.016,-0.18572 v -0.16529 h 0.47159 0.47159 v 2.49644 2.49644 h -0.47159 -0.47159 v -0.15674 c 0,-0.0863 -0.009,-0.15161 -0.0196,-0.14534 -0.0109,0.006 -0.1095,0.0692 -0.21934,0.13991 -0.29985,0.19297 -0.54999,0.26512 -0.91145,0.26288 -0.2082,-10e-4 -0.36131,-0.0217 -0.48707,-0.0652 z m 0.98406,-1.23805 c 0.4593,-0.28759 0.70887,-0.88418 0.62694,-1.49853 -0.0513,-0.38251 -0.24864,-0.76749 -0.50197,-0.9781 -0.307,-0.25519 -0.7365,-0.29076 -1.05325,-0.0873 -0.47305,0.30399 -0.73051,0.9864 -0.60814,1.61206 0.0774,0.39607 0.25319,0.69686 0.53343,0.91286 0.17248,0.13297 0.33462,0.1802 0.58384,0.17008 0.19525,-0.008 0.24949,-0.0248 0.41923,-0.13115 z m 3.41748,1.23805 c -0.24733,-0.0854 -0.40715,-0.17935 -0.61978,-0.36353 -0.37388,-0.32426 -0.68631,-0.88901 -0.81228,-1.46729 -0.0767,-0.35245 -0.0831,-0.97829 -0.0145,-1.31553 0.14609,-0.70737 0.51347,-1.30096 1.01877,-1.64419 0.29867,-0.20285 0.54745,-0.27904 0.92453,-0.28331 0.36882,-0.004 0.61326,0.0705 0.92235,0.28209 0.10414,0.0714 0.19599,0.1218 0.20395,0.11194 0.007,-0.01 0.0145,-0.47701 0.0145,-1.03815 v -1.02023 h 0.47152 0.47152 v 3.35138 3.35139 h -0.47152 -0.47152 v -0.1311 c 0,-0.072 -0.007,-0.14014 -0.0145,-0.15121 -0.007,-0.0111 -0.10921,0.0411 -0.22419,0.11593 -0.30592,0.19907 -0.54529,0.26935 -0.91072,0.26709 -0.20828,-0.001 -0.3616,-0.0217 -0.48671,-0.0652 z m 0.96351,-1.22374 c 0.20973,-0.12804 0.42813,-0.38651 0.52649,-0.62277 0.15331,-0.36865 0.16633,-0.86918 0.0289,-1.2542 -0.0919,-0.26173 -0.31965,-0.56084 -0.53372,-0.70101 -0.16778,-0.10991 -0.18876,-0.11516 -0.46429,-0.11516 -0.27192,0 -0.29868,0.006 -0.45851,0.10969 -0.22491,0.14528 -0.35291,0.28916 -0.47152,0.52863 -0.39341,0.79465 -0.10703,1.81604 0.59447,2.11744 0.23793,0.10226 0.54674,0.0773 0.77605,-0.0626 z m 4.93717,1.23936 c -0.4397,-0.14489 -0.8823,-0.53267 -1.13231,-0.99149 -0.27119,-0.49834 -0.37968,-0.93758 -0.37968,-1.5389 0,-0.74717 0.16273,-1.25533 0.57639,-1.79623 0.16489,-0.21547 0.30446,-0.36375 0.41294,-0.43811 0.42235,-0.28953 0.89207,-0.39787 1.31709,-0.30365 0.25673,0.057 0.58578,0.21037 0.71161,0.3318 0.0361,0.0379 0.0773,0.0688 0.0853,0.0688 0.007,0 0.0145,-0.46937 0.0145,-1.04303 v -1.04304 h 0.47152 0.47153 v 3.35138 3.35139 h -0.47153 -0.47152 v -0.15674 c 0,-0.0863 -0.007,-0.1515 -0.0217,-0.14509 -0.007,0.006 -0.0911,0.0601 -0.1779,0.11928 -0.31025,0.21129 -0.4614,0.25806 -0.8768,0.27137 -0.27337,0.009 -0.42235,-0.002 -0.53155,-0.0378 z m 0.81338,-1.17444 c 0.42668,-0.17329 0.73721,-0.66228 0.78285,-1.23228 0.0434,-0.55888 -0.22203,-1.14638 -0.64219,-1.41474 -0.16273,-0.10379 -0.19165,-0.11104 -0.44911,-0.11104 -0.25457,0 -0.28783,0.008 -0.45127,0.10892 -0.24227,0.14972 -0.41078,0.36526 -0.53444,0.6836 -0.0984,0.25224 -0.10197,0.27331 -0.10197,0.60644 0,0.31654 0.007,0.36405 0.0831,0.57355 0.24227,0.66834 0.79189,0.99709 1.31259,0.78555 z m 3.63309,1.1909 c -0.18224,-0.0472 -0.5272,-0.23689 -0.69137,-0.37967 -0.24588,-0.21459 -0.5489,-0.66028 -0.67473,-0.99389 -0.15043,-0.39725 -0.19309,-0.60573 -0.20973,-1.02097 -0.0289,-0.79277 0.17718,-1.48495 0.60748,-2.01009 0.31097,-0.3796 0.70077,-0.61685 1.14135,-0.69422 0.38617,-0.0678 0.9081,0.0651 1.20686,0.30763 0.0651,0.0555 0.1309,0.0921 0.13957,0.0811 0.007,-0.0109 0.0145,-0.0942 0.0145,-0.18503 v -0.16529 h 0.47152 0.47152 v 2.49644 2.49644 h -0.47152 -0.47152 v -0.15674 c 0,-0.0863 -0.007,-0.15149 -0.0217,-0.14506 -0.007,0.006 -0.10414,0.0686 -0.20683,0.13819 -0.28567,0.19324 -0.53806,0.26691 -0.89858,0.26246 -0.16633,-0.002 -0.35074,-0.0162 -0.40932,-0.0314 z m 0.89112,-1.25857 c 0.44116,-0.26957 0.70366,-0.90761 0.61906,-1.50596 -0.0962,-0.68144 -0.499,-1.16006 -1.00589,-1.19432 -0.26758,-0.018 -0.45562,0.0481 -0.67185,0.2364 -0.17429,0.15208 -0.28204,0.31239 -0.37967,0.56709 -0.29145,0.75727 0.004,1.66097 0.63713,1.951 0.25094,0.11473 0.5583,0.094 0.80093,-0.0542 z m 3.13779,1.23969 c -0.47659,-0.13623 -0.86899,-0.49595 -1.05029,-0.96269 -0.0651,-0.16747 -0.1432,-0.57842 -0.12367,-0.64668 0.0145,-0.037 0.11354,-0.0466 0.49683,-0.0466 h 0.4831 l 0.0289,0.17494 c 0.0651,0.37183 0.36233,0.61161 0.75046,0.61161 0.24951,0 0.37389,-0.048 0.50624,-0.19557 0.13596,-0.15178 0.1779,-0.32334 0.12294,-0.49657 -0.0651,-0.2007 -0.20177,-0.26895 -0.77744,-0.3869 -0.88829,-0.18186 -1.22118,-0.39846 -1.4155,-0.92117 -0.31748,-0.85416 0.0289,-1.75459 0.80593,-2.10601 0.50406,-0.22731 1.27773,-0.12688 1.69234,0.21964 0.15621,0.13033 0.39053,0.453 0.4614,0.63376 0.0579,0.15354 0.13307,0.46858 0.13307,0.5745 v 0.0792 h -0.47008 c -0.51636,0 -0.4708,0.0197 -0.51202,-0.22019 -0.0579,-0.35164 -0.41873,-0.53259 -0.85221,-0.43062 -0.26252,0.0617 -0.3927,0.20743 -0.3927,0.43963 0,0.27128 0.21769,0.40203 0.91701,0.55035 0.61616,0.13071 0.92121,0.28514 1.16992,0.59218 0.18368,0.22714 0.27553,0.47927 0.29144,0.80401 0.0434,0.89885 -0.36232,1.52177 -1.13541,1.73546 -0.23287,0.0643 -0.90435,0.063 -1.13288,-0.002 z m -11.32382,-2.54507 v -2.49644 h 0.47152 0.47152 v 2.49644 2.49644 h -0.47152 -0.47152 z m 12.82473,-2.84532 c -0.0434,-0.0195 -0.1186,-0.0838 -0.16706,-0.14265 -0.21984,-0.26587 -0.21695,-0.68034 0.005,-0.93532 0.31675,-0.36278 0.80332,-0.0812 0.80332,0.46461 0,0.26408 -0.0875,0.44882 -0.26686,0.56566 -0.14392,0.0937 -0.24589,0.10656 -0.37534,0.0477 z m 0.41512,-0.17466 c 0.11137,-0.11068 0.18803,-0.34814 0.16416,-0.50947 -0.0506,-0.36841 -0.35436,-0.57392 -0.60893,-0.41606 -0.30807,0.19064 -0.31024,0.77982 -0.004,0.9836 0.12656,0.0843 0.33267,0.0578 0.4491,-0.0581 z m -0.10703,-0.0832 c -0.0145,-0.008 -0.0361,-0.0488 -0.0361,-0.0906 0,-0.11656 -0.0579,-0.19995 -0.13234,-0.18646 -0.0506,0.01 -0.0651,0.0337 -0.0724,0.14004 -0.005,0.0838 -0.0217,0.12824 -0.0434,0.12824 -0.0289,0 -0.0361,-0.0671 -0.0361,-0.34197 v -0.34199 h 0.1403 c 0.1027,0 0.15187,0.0168 0.1837,0.0626 0.0506,0.0692 0.0579,0.16746 0.0217,0.24409 -0.0145,0.0314 -0.0145,0.0656 0.002,0.0916 0.0361,0.0597 0.0217,0.31275 -0.0217,0.29457 z m -0.0724,-0.43254 c 0.0434,-0.0405 0.0434,-0.0559 0.0145,-0.1026 -0.0217,-0.0302 -0.0724,-0.055 -0.11064,-0.055 -0.0651,0 -0.0752,0.0147 -0.0752,0.0797 0,0.0439 0.007,0.0901 0.0145,0.10259 0.0289,0.0375 0.10053,0.0259 0.15333,-0.0247 z m -13.06108,-0.0471 v -0.60759 l -0.25239,-0.56368 c -0.13885,-0.31004 -0.33701,-0.75605 -0.44115,-0.99116 -0.10414,-0.23512 -0.40499,-0.91223 -0.66823,-1.5047 -0.26324,-0.59248 -0.55758,-1.2542 -0.65377,-1.47051 -0.0962,-0.2163 -0.27264,-0.61226 -0.39197,-0.8799 -0.11932,-0.26764 -0.21261,-0.50343 -0.20755,-0.52399 0.005,-0.0205 0.17429,-0.16129 0.37534,-0.31275 0.90319,-0.67923 1.44009,-1.0835 2.14209,-1.61305 0.41511,-0.31287 0.76384,-0.56887 0.77563,-0.56887 0.0145,0 0.12583,0.23468 0.25239,0.52152 0.12728,0.28684 0.31314,0.70618 0.41366,0.93189 0.0998,0.22572 0.3146,0.71047 0.47659,1.07724 0.39992,0.90544 1.08696,2.4557 1.49354,3.36848 0.18442,0.4138 0.45055,1.01397 0.59085,1.33371 0.14029,0.31976 0.30953,0.70411 0.37606,0.85412 0.0651,0.15001 0.12004,0.28467 0.12004,0.29924 0,0.0146 -0.77815,0.0265 -1.72915,0.0265 h -1.72917 v 0.61557 0.61555 h -0.47152 -0.47153 z m -6.21851,-1.34059 c -0.17082,-0.3934 -0.30967,-0.7277 -0.30867,-0.74291 8.2e-4,-0.0152 0.27634,-0.2332 0.61183,-0.48444 0.33549,-0.25125 1.02852,-0.77334 1.54003,-1.16022 1.16326,-0.87979 1.15371,-0.87273 1.16442,-0.85768 0.0217,0.0331 1.74376,3.92296 1.74376,3.9434 0,0.0104 -0.99923,0.0185 -2.22042,0.018 l -2.22045,-8.9e-4 -0.31054,-0.71528 z m 11.86064,0.34936 c -0.089,-0.20216 -0.29361,-0.66765 -0.4556,-1.03441 -0.162,-0.36677 -0.47442,-1.07466 -0.69427,-1.5731 -1.17475,-2.66283 -2.66063,-6.02797 -2.76332,-6.25821 -0.58578,-1.31362 -0.55975,-1.2476 -0.51709,-1.29164 0.0145,-0.0182 0.36811,-0.28382 0.77874,-0.5901 0.41077,-0.30628 1.13483,-0.84688 1.60925,-1.20135 0.47441,-0.35445 0.876,-0.64446 0.89249,-0.64446 0.0145,0 0.0579,0.0653 0.0918,0.14534 0.0361,0.0799 0.18153,0.41465 0.32761,0.7438 0.14681,0.32915 0.4303,0.96779 0.62991,1.41922 0.1996,0.4514 0.418,0.94385 0.48453,1.09433 0.30447,0.68679 0.66028,1.48712 0.91079,2.05186 0.15042,0.33855 0.3616,0.81561 0.47008,1.06012 0.50045,1.1314 1.29408,2.91969 1.49519,3.36849 0.12222,0.27274 0.31315,0.70363 0.42524,0.95755 0.11137,0.25392 0.36304,0.82238 0.55903,1.26327 0.19599,0.44088 0.35654,0.81407 0.35654,0.8293 0,0.0152 -0.99917,0.0277 -2.22042,0.0275 l -2.22042,-6e-5 -0.16128,-0.36755 z"
       id="path1307"
       inkscape:connector-curvature="0" />
    <path
       style="opacity:1;fill:#ffffff;fill-opacity:1;fill-rule:nonzero;stroke:none;stroke-width:5.53700781;stroke-linecap:butt;stroke-linejoin:miter;stroke-miterlimit:4;stroke-dasharray:none;stroke-dashoffset:0;stroke-opacity:1;paint-order:stroke fill markers"
       d="m 741.59644,388.1536 c -1.34645,-2.61461 -4.33511,-10.97703 -6.64146,-18.58317 l -4.19336,-13.82933 3.92925,-27.59778 c 5.42953,-38.13535 11.42497,-68.43574 21.56092,-108.9669 10.68593,-42.73037 13.54512,-52.72434 15.08401,-52.72434 3.29351,0 14.38383,9.4275 19.73874,16.77923 8.29765,11.39179 11.6515,18.56547 20.84606,44.58844 4.36709,12.35997 15.29438,40.36437 24.28287,62.23201 l 16.34272,39.75934 -6.32471,6.63456 c -11.38742,11.9453 -31.55624,27.11968 -44.99708,33.85438 -14.2221,7.12617 -52.0439,22.6074 -55.23152,22.6074 -1.07159,0 -3.04999,-2.13923 -4.39644,-4.75384 z"
       id="path1387"
       inkscape:connector-curvature="0"
       transform="matrix(0.26458333,0,0,0.26458333,0,87)" />
    <path
       style="opacity:1;fill:#ffffff;fill-opacity:1;fill-rule:nonzero;stroke:none;stroke-width:5.53700781;stroke-linecap:butt;stroke-linejoin:miter;stroke-miterlimit:4;stroke-dasharray:none;stroke-dashoffset:0;stroke-opacity:1;paint-order:stroke fill markers"
       d="m 349.19983,385.91797 c -33.00029,-13.28002 -57.63914,-28.74362 -81.92369,-51.41613 l -9.07522,-8.47279 3.28205,-9.34531 c 1.80513,-5.13992 8.48234,-22.52596 14.83825,-38.63564 6.3559,-16.10968 15.08822,-39.05773 19.40516,-50.99567 10.71374,-29.62754 20.33198,-48.49969 24.718,-48.49969 2.92826,0 24.39845,53.36195 33.38541,82.97601 5.91713,19.49825 15.60064,58.6876 20.11897,81.42179 l 3.64211,18.32546 -5.68295,15.74663 -5.68296,15.74663 z"
       id="path1389"
       inkscape:connector-curvature="0"
       transform="matrix(0.26458333,0,0,0.26458333,0,87)" />
    <path
       style="opacity:1;fill:#ffffff;fill-opacity:1;fill-rule:nonzero;stroke:none;stroke-width:5.53700781;stroke-linecap:butt;stroke-linejoin:miter;stroke-miterlimit:4;stroke-dasharray:none;stroke-dashoffset:0;stroke-opacity:1;paint-order:stroke fill markers"
       d="m 335.99037,402.2673 c -17.73255,-5.17175 -39.71852,-15.41212 -55.23129,-25.72499 -12.62563,-8.3935 -31.20205,-26.82793 -31.20205,-30.96354 0,-3.39755 3.65335,-11.44601 5.19557,-11.44601 0.65081,0 6.94362,5.08153 13.98403,11.29228 22.00707,19.41372 50.32259,36.53847 78.49008,47.46948 13.0523,5.06524 17.13285,8.31021 14.47589,11.51165 -2.73096,3.29061 -8.8378,2.78261 -25.71223,-2.13887 z"
       id="path1391"
       inkscape:connector-curvature="0"
       transform="matrix(0.26458333,0,0,0.26458333,0,87)" />
    <path
       style="opacity:1;fill:#ffffff;fill-opacity:1;fill-rule:nonzero;stroke:none;stroke-width:5.53700781;stroke-linecap:butt;stroke-linejoin:miter;stroke-miterlimit:4;stroke-dasharray:none;stroke-dashoffset:0;stroke-opacity:1;paint-order:stroke fill markers"
       d="m 747.41309,405.28596 c 0,-3.04635 5.99061,-6.23896 33.709,-17.96468 28.67102,-12.12871 44.21698,-21.53393 61.91631,-37.459 11.74245,-10.56532 15.00937,-11.69311 15.00937,-5.18144 0,7.31354 -27.89577,32.41718 -48.40267,43.55798 -20.59466,11.18848 -62.23201,22.59415 -62.23201,17.04714 z"
       id="path1393"
       inkscape:connector-curvature="0"
       transform="matrix(0.26458333,0,0,0.26458333,0,87)" />
    <path
       style="opacity:1;fill:#ffffff;fill-opacity:1;fill-rule:nonzero;stroke:none;stroke-width:5.53700781;stroke-linecap:butt;stroke-linejoin:miter;stroke-miterlimit:4;stroke-dasharray:none;stroke-dashoffset:0;stroke-opacity:1;paint-order:stroke fill markers"
       d="m 520.87234,124.85876 c -18.9135,-2.78464 -46.58862,-16.09233 -46.58862,-22.40233 0,-4.839155 2.4186,-4.348038 17.67454,3.58898 18.52782,9.63923 32.73654,12.3485 66.16581,12.61628 30.8707,0.24729 34.89523,-0.53095 58.49292,-11.31099 11.43884,-5.22555 15.77152,-6.48333 17.24782,-5.00703 3.46318,3.46318 -0.9428,7.34769 -14.45011,12.73987 -20.34864,8.12327 -40.61965,11.5921 -66.47664,11.37569 -12.35996,-0.10345 -26.78954,-0.82366 -32.06572,-1.60047 z"
       id="path1395"
       inkscape:connector-curvature="0"
       transform="matrix(0.26458333,0,0,0.26458333,0,87)" />
    <path
       style="opacity:1;fill:#ffffff;fill-opacity:1;fill-rule:nonzero;stroke:none;stroke-width:5.53700781;stroke-linecap:butt;stroke-linejoin:miter;stroke-miterlimit:4;stroke-dasharray:none;stroke-dashoffset:0;stroke-opacity:1;paint-order:stroke fill markers"
       d="m 570.6569,104.80387 c 1.18846,-0.47955 3.13321,-0.47955 4.32167,0 1.18846,0.47956 0.21608,0.87192 -2.16084,0.87192 -2.37691,0 -3.34929,-0.39236 -2.16083,-0.87192 z"
       id="path1397"
       inkscape:connector-curvature="0"
       transform="matrix(0.26458333,0,0,0.26458333,0,87)" />
    <path
       style="opacity:1;fill:#ffffff;fill-opacity:1;fill-rule:nonzero;stroke:none;stroke-width:5.53700781;stroke-linecap:butt;stroke-linejoin:miter;stroke-miterlimit:4;stroke-dasharray:none;stroke-dashoffset:0;stroke-opacity:1;paint-order:stroke fill markers"
       d="m 457.71068,461.20237 c -4.62625,-7.06055 0.2965,-18.16359 8.05318,-18.16359 4.54005,0 10.24853,6.04444 10.24853,10.85169 0,10.84084 -12.6722,15.90363 -18.30171,7.3119 z"
       id="path1399"
       inkscape:connector-curvature="0"
       transform="matrix(0.26458333,0,0,0.26458333,0,87)" />
    <path
       style="opacity:1;fill:#ffffff;fill-opacity:1;fill-rule:nonzero;stroke:none;stroke-width:5.53700781;stroke-linecap:butt;stroke-linejoin:miter;stroke-miterlimit:4;stroke-dasharray:none;stroke-dashoffset:0;stroke-opacity:1;paint-order:stroke fill markers"
       d="m 603.33733,462.35016 c -5.86808,-6.48415 -1.05695,-19.31138 7.24315,-19.31138 6.97047,0 11.24057,9.10722 7.94502,16.94503 -1.85365,4.40853 -3.33679,5.52764 -7.32572,5.52764 -2.75084,0 -6.28895,-1.42258 -7.86245,-3.16129 z"
       id="path1405"
       inkscape:connector-curvature="0"
       transform="matrix(0.26458333,0,0,0.26458333,0,87)" />
    <path
       style="opacity:1;fill:#ffffff;fill-opacity:1;fill-rule:nonzero;stroke:#000000;stroke-width:1.00157475;stroke-linecap:butt;stroke-linejoin:miter;stroke-miterlimit:4;stroke-dasharray:none;stroke-dashoffset:0;stroke-opacity:1;paint-order:stroke fill markers"
       d="m 471.31664,716.40399 c -43.4304,-3.11068 -79.65603,-10.28194 -87.1345,-17.24918 l -3.58739,-3.34216 0.93503,-32.45291 c 0.51427,-17.84909 2.9876,-60.50538 5.49629,-94.79174 8.37447,-114.45439 8.83124,-165.53595 1.73045,-193.51846 -1.66652,-6.56732 -6.1326,-26.30022 -9.92464,-43.85089 -10.40241,-48.14541 -21.48554,-85.26331 -37.043,-124.05873 -3.42789,-8.54808 -7.7975,-20.09142 -9.71025,-25.65188 l -3.47773,-10.10991 4.64563,-3.90903 c 9.33486,-7.85478 37.39246,-20.42482 85.41322,-38.26588 13.65318,-5.07254 29.99985,-11.63101 36.32592,-14.57439 l 11.50196,-5.35158 8.80856,5.95259 c 12.32796,8.33093 14.16249,9.17592 27.26931,12.56019 14.8194,3.82648 64.19532,6.49058 80.94227,4.36728 13.04663,-1.65415 38.21316,-9.67839 51.68813,-16.48053 l 9.1538,-4.62083 5.63303,2.85561 c 3.09816,1.57058 20.5274,8.43685 38.73163,15.25838 37.69108,14.12368 64.56015,25.8067 70.80712,30.78787 l 4.27702,3.41037 -7.21818,25.85477 c -10.0695,36.06782 -19.34319,78.72348 -26.5198,121.98137 -3.36331,20.2729 -8.16291,46.97095 -10.66575,59.32901 -7.83902,38.70608 -8.39888,80.70977 -2.09873,157.4581 7.14575,87.04918 10.50407,159.71663 7.75689,167.84363 -2.897,8.57027 -39.05041,14.94119 -113.81941,20.05712 -19.60407,1.34138 -123.05161,1.71979 -139.91688,0.51181 z"
       id="path1738"
       inkscape:connector-curvature="0"
       transform="matrix(0.26458333,0,0,0.26458333,0,87)" />
    <path
       style="opacity:1;fill:#cccccc;fill-opacity:1;fill-rule:nonzero;stroke:none;stroke-width:1.00157475;stroke-linecap:butt;stroke-linejoin:miter;stroke-miterlimit:4;stroke-dasharray:none;stroke-dashoffset:0;stroke-opacity:1;paint-order:stroke fill markers"
       d="m 531.09218,711.49473 c 0.45171,-2.95007 1.32054,-6.04077 1.93074,-6.86824 0.6102,-0.82746 1.22016,-6.50761 1.35547,-12.62253 0.13531,-6.11494 0.89615,-12.33283 1.69075,-13.81756 0.7946,-1.48473 1.44489,-5.28282 1.44509,-8.44022 1.9e-4,-3.1574 1.36629,-13.86492 3.03578,-23.79451 2.31879,-13.79147 3.02674,-24.80246 2.99864,-46.63895 -0.0341,-26.47396 1.30864,-45.73695 3.82769,-54.91361 0.56786,-2.06867 1.36172,-6.31503 1.76414,-9.43636 0.4637,-3.59668 1.823,-6.25922 3.71149,-7.26992 2.11434,-1.13155 2.73339,-2.57668 2.13134,-4.97544 -0.46668,-1.85937 0.53014,-7.05064 2.21515,-11.53612 2.52638,-6.72521 3.20692,-13.03649 3.8806,-35.98836 0.44932,-15.30811 1.42412,-28.0586 2.16622,-28.33442 0.7421,-0.27583 1.34928,-1.97839 1.34928,-3.78348 0,-1.8051 1.44606,-5.98004 3.21347,-9.27765 1.76742,-3.2976 2.99237,-5.99565 2.72214,-5.99565 -0.27024,0 1.93386,-3.79121 4.898,-8.42491 2.96414,-4.63368 6.94804,-12.75789 8.85312,-18.05379 1.90508,-5.29588 4.68657,-11.84978 6.18111,-14.56421 1.49453,-2.71444 2.71733,-6.45664 2.71733,-8.31602 0,-1.85937 0.99285,-4.79818 2.20635,-6.5307 1.21349,-1.7325 3.1769,-7.46852 4.36314,-12.74673 1.18624,-5.2782 3.23271,-12.46268 4.54771,-15.96551 1.315,-3.50282 2.79656,-10.27299 3.29235,-15.04482 0.49579,-4.77183 2.80274,-14.4307 5.12656,-21.46415 2.32381,-7.03346 4.68219,-16.68095 5.24086,-21.43888 0.55866,-4.75792 1.47479,-8.64981 2.03585,-8.64865 0.56105,10e-4 0.79391,-8.95808 0.51744,-19.90944 -0.49093,-19.44738 -2.63355,-29.74061 -6.19074,-29.74061 -0.86969,0 -2.93529,-1.35403 -4.59022,-3.00896 -1.65493,-1.65493 -4.2801,-3.00897 -5.83371,-3.00897 -1.55361,0 -3.66756,-1.01552 -4.69766,-2.25672 -1.03011,-1.2412 -2.84352,-2.25672 -4.02981,-2.25672 -2.10272,0 -15.75338,-6.37278 -22.81613,-10.65165 -3.25838,-1.97404 -3.45751,-2.82268 -2.61954,-11.16335 1.15782,-11.52423 4.23087,-24.82396 5.73585,-24.82396 0.63931,0 1.16239,-1.42419 1.16239,-3.16486 0,-1.74067 1.79138,-9.0186 3.98086,-16.17318 3.91752,-12.80135 8.17202,-19.77851 12.06047,-19.77851 3.70277,0 31.04618,-9.30727 41.97453,-14.28748 5.99199,-2.73064 11.46885,-4.42514 12.17079,-3.76556 0.70195,0.65958 11.09302,5.01681 23.09126,9.68274 49.48585,19.24426 61.56927,24.1614 74.47189,30.30505 21.15808,10.07454 20.01008,6.7257 12.14651,35.43298 -11.82144,43.15617 -18.18555,73.62851 -33.98872,162.74321 -11.65153,65.70336 -12.43803,93.53454 -5.19536,183.84262 6.00508,74.87678 9.68968,151.20388 7.68481,159.19194 -0.5537,2.20613 -2.84116,4.91154 -5.11688,6.05183 -16.55772,8.29644 -82.93615,15.49575 -151.79123,16.46302 l -37.84847,0.5317 z"
       id="path1746"
       inkscape:connector-curvature="0"
       transform="matrix(0.26458333,0,0,0.26458333,0,87)" />
    <path
       style="fill:#ff0000;stroke-width:0.99999994"
       d="m 136.30666,178.16564 c -0.95638,-1.14103 -1.92927,-1.55298 -3.95766,-1.67576 -1.62987,-0.0987 -2.50814,0.0463 -6.01711,0.99267 -4.44161,1.19799 -6.43966,1.37295 -7.88302,0.69023 -1.64059,-0.776 -2.396,-1.90001 -2.89523,-4.30797 -0.4761,-2.29646 0.47333,-6.29774 2.32823,-9.81202 2.70701,-5.12872 7.65097,-9.61076 11.00352,-9.97544 1.01075,-0.10993 1.17348,-0.046 1.65772,0.65085 0.62572,0.90051 0.55482,2.2136 -0.17988,3.33211 -0.53011,0.80704 -1.41237,1.0403 -1.61983,0.42827 -0.18664,-0.55063 0.46884,-1.68017 1.10835,-1.90994 0.68738,-0.24699 0.5427,-1.31665 -0.19409,-1.43499 -2.3977,-0.38508 -8.28891,6.87067 -10.35622,12.75498 -0.65183,1.8553 -0.76939,2.53924 -0.77817,4.52767 -0.009,1.97062 0.0693,2.46336 0.4917,3.10563 1.46701,2.23065 3.63333,2.38383 9.59019,0.67808 2.13942,-0.61263 4.79048,-1.24955 5.89123,-1.41537 3.59476,-0.54155 6.39179,0.36371 8.86505,2.86913 l 1.15377,1.1688 -1.07349,-0.59294 c -0.76151,-0.42061 -1.63231,-0.62017 -2.99636,-0.68662 -1.78297,-0.0869 -1.9764,-0.0427 -2.65852,0.60706 -0.4046,0.3854 -0.77384,0.69865 -0.82048,0.69607 -0.0468,-0.003 -0.34353,-0.31329 -0.6597,-0.6905 z m 11.81778,-0.39052 c -2.24908,-2.23549 -1.47034,-7.18139 2.07759,-13.19491 1.80342,-3.05673 4.7652,-6.65053 6.71017,-8.14207 1.38827,-1.06462 4.21904,-2.42231 5.0505,-2.42231 0.31902,0 0.83758,0.19102 1.15232,0.42449 0.52252,0.38757 0.68481,0.38434 1.86621,-0.0372 0.86883,-0.31004 1.5889,-0.39908 2.19184,-0.27102 0.83889,0.17816 5.21674,2.58354 5.71755,3.14148 0.14163,0.15777 -0.0678,0.59533 -0.56027,1.1705 l -0.78645,0.91856 -2.18308,-1.59958 c -2.19636,-1.60931 -4.33672,-2.60724 -4.98659,-2.32493 -0.2061,0.0895 -0.39949,0.646 -0.46976,1.35161 -0.40324,4.05005 -4.59648,8.954 -5.6859,6.6496 -0.3971,-0.83996 -0.0893,-2.13861 0.93064,-3.92479 0.84826,-1.48574 2.95216,-3.87835 3.41035,-3.87835 0.11273,0 0.20495,-0.13742 0.20495,-0.30538 0,-0.56448 -1.62354,-0.0284 -2.96376,0.9787 -0.71656,0.53844 -2.21327,2.06203 -3.32604,3.38577 -3.99537,4.75285 -6.83061,10.83466 -6.83061,14.65217 0,0.7941 0.16703,1.23334 0.69731,1.83363 0.78268,0.88604 1.1281,0.95114 2.23263,0.42083 2.0257,-0.97261 4.81928,-5.70078 4.66088,-7.88864 -0.094,-1.29852 -0.68245,-1.53033 -1.55223,-0.6115 -0.62421,0.65942 -1.49949,2.38335 -1.51517,2.98427 -0.006,0.19158 -0.60817,0.80878 -1.34036,1.37157 l -1.33123,1.02324 0.1602,-0.96668 c 0.55143,-3.32747 2.73835,-6.0758 4.83471,-6.0758 1.00015,0 1.26406,0.45477 1.26406,2.17816 0,1.95426 -1.17514,4.72705 -2.91869,6.88667 -2.47135,3.06112 -5.04226,3.93139 -6.71177,2.27196 z m 12.81606,-15.72518 c 0.68533,-0.77979 1.47033,-1.96465 1.74449,-2.63302 0.57948,-1.41288 0.94513,-3.51071 0.6119,-3.51071 -0.50579,0 -2.47882,1.99202 -3.37277,3.40523 -1.19045,1.88196 -1.61519,3.20534 -1.20734,3.76166 0.48334,0.6593 0.92273,0.45713 2.22372,-1.02316 z m -3.90077,16.13641 c -0.5359,-0.73101 -0.18237,-3.39992 0.71569,-5.40288 0.92983,-2.07386 3.42659,-5.26408 4.62264,-5.90658 2.33009,-1.25172 3.3223,0.0674 2.38733,3.1737 -0.21156,0.70288 -0.327,1.34325 -0.25653,1.42303 0.37513,0.42467 1.10408,-0.37677 1.80387,-1.98328 3.13783,-7.20342 9.15598,-14.9344 11.62567,-14.9344 0.52997,0 0.87562,0.15182 0.96833,0.42536 0.21333,0.6293 -0.35971,2.54523 -0.76125,2.54523 -0.28974,0 -0.28101,-0.15045 0.0549,-0.94788 1.04825,-2.4885 -1.07937,-1.19883 -3.58631,2.17384 -2.25941,3.03965 -6.01625,9.82504 -5.81023,10.49412 0.0856,0.27814 4.82983,-4.92867 6.57559,-7.2168 1.27749,-1.67439 1.14813,-0.89891 -0.15902,0.9532 -1.2441,1.7628 -4.98025,5.95731 -6.56559,7.3711 -0.68752,0.61312 -1.05014,1.25649 -1.49096,2.64531 -0.93925,2.95914 -0.69024,4.40759 0.53665,3.12163 0.33369,-0.34975 1.25518,-1.72963 2.04775,-3.0664 0.79258,-1.33677 1.86689,-3.01233 2.38732,-3.72345 1.78328,-2.43668 3.91886,-3.55818 4.71294,-2.47501 0.21122,0.28809 0.35727,0.32458 0.47033,0.1175 0.0911,-0.16695 0.60353,-0.26259 1.15368,-0.21532 l 0.98973,0.085 -2.118,4.20906 c -2.26019,4.49162 -2.61748,5.37787 -2.16825,5.37787 0.54548,0 1.60791,-1.08492 2.50268,-2.55565 0.83956,-1.37996 1.30745,-1.83289 1.30745,-1.26563 0,0.76988 -3.23137,4.93609 -4.34175,5.59781 -1.31255,0.78221 -2.09919,0.40131 -2.09919,-1.01644 0,-0.49335 -0.0809,-0.46554 -0.83932,0.28824 -1.50863,1.49951 -2.71292,1.4963 -3.08969,-0.008 l -0.24566,-0.98102 -1.04453,1.05068 c -1.16045,1.16725 -2.09522,1.35754 -2.73535,0.5568 -0.52704,-0.65924 -0.4981,-2.05234 0.0823,-3.96203 0.60156,-1.97935 0.59901,-2.0254 -0.11195,-2.0254 -0.45752,0 -0.78271,0.34674 -1.45633,1.55281 -2.13616,3.82467 -5.00746,5.9665 -6.06493,4.52408 z m 4.35711,-2.95257 c 0.55543,-0.65811 1.22005,-1.64171 1.47694,-2.18579 0.4583,-0.97062 0.45855,-0.99463 0.0131,-1.27679 -0.24967,-0.15817 -0.69095,-0.57709 -0.98063,-0.93093 l -0.52666,-0.64335 -0.46972,0.75373 c -2.51154,4.03 -2.13019,7.38414 0.48692,4.28313 z m 11.45658,0.0488 c 0.86772,-1.21855 3.98572,-7.09871 3.98572,-7.51653 0,-0.13613 -0.23308,-0.24752 -0.51799,-0.24752 -1.37823,0 -5.62036,7.03358 -5.12447,8.49653 0.24101,0.71095 0.80714,0.46066 1.65674,-0.73248 z m -8.58982,-5.46149 c 0.71559,-2.18176 -0.049,-3.28853 -1.35751,-1.965 -0.86794,0.87793 -0.9949,1.82196 -0.36662,2.72616 0.71475,1.02864 1.20863,0.81062 1.72413,-0.76116 z m -40.92543,2.50678 c -2.02329,-1.69944 1.38235,-9.42825 5.10079,-11.57576 2.23133,-1.28865 3.44739,0.11131 2.57042,2.95915 -0.53129,1.7253 0.27064,1.40236 2.64944,-1.06692 0.85162,-0.88399 1.88766,-1.78952 2.30232,-2.01227 1.54644,-0.83074 2.70953,-0.28969 2.70953,1.26046 0,1.56673 -1.30924,3.17169 -1.97369,2.4195 -0.39673,-0.44911 0.18125,-1.60936 0.90401,-1.81472 0.77125,-0.21913 0.7036,-1.01718 -0.0972,-1.14593 -0.83719,-0.13461 -2.88525,2.44634 -4.07299,5.13274 -1.03328,2.33703 -1.18821,3.44096 -0.57963,4.12991 0.77731,0.87995 2.31661,-0.28111 4.41039,-3.32665 3.19802,-4.65177 3.87047,-5.50669 4.94085,-6.28147 0.85804,-0.62108 1.28732,-0.77229 1.83562,-0.64659 0.3936,0.0902 1.28653,0.15076 1.98425,0.13446 1.48849,-0.0348 1.65596,-0.69792 -1.30407,5.1637 -1.09572,2.16981 -1.99222,4.08382 -1.99222,4.25335 0,0.7371 0.78026,0.17464 2.24907,-1.62131 0.86795,-1.06126 1.64077,-1.85859 1.71739,-1.77186 0.21139,0.23929 -1.88209,3.20223 -3.23675,4.581 -1.78804,1.81989 -3.11525,1.94338 -3.11525,0.28986 v -0.6548 l -0.89457,0.80592 c -1.26028,1.13539 -2.03741,1.30145 -2.68099,0.57291 -0.43241,-0.48952 -0.48877,-0.76434 -0.34892,-1.70144 l 0.16679,-1.1176 -1.3546,1.40152 c -2.0612,2.13257 -4.05067,2.4877 -4.79598,0.85608 -0.5121,-1.12107 -0.4242,-2.62435 0.2492,-4.26193 0.72136,-1.75415 0.73094,-1.92103 0.0995,-1.7341 -0.27202,0.0805 -0.7684,0.64638 -1.10309,1.25747 -2.30265,4.20424 -5.05248,6.5965 -6.33969,5.51532 z m 3.54664,-2.55543 c 0.88357,-0.65539 2.90111,-3.94123 2.51045,-4.08866 -0.17212,-0.0649 -0.68189,-0.48478 -1.13279,-0.93296 -0.45091,-0.44818 -0.85974,-0.76832 -0.90853,-0.71143 -0.0488,0.0569 -0.52675,1.0149 -1.06212,2.12887 -1.52191,3.16664 -1.22773,4.95469 0.59299,3.60418 z m 13.73222,-0.56724 c 0.81253,-1.01814 4.01746,-7.09588 4.01746,-7.61861 0,-0.53887 -0.89574,-0.27196 -1.55493,0.46334 -1.7249,1.92405 -4.16967,6.43613 -4.17016,7.69654 -2.4e-4,0.80331 0.84959,0.53389 1.70763,-0.54127 z m -10.12656,-5.7282 c 0.47511,-1.86371 0.0479,-2.55795 -1.23197,-2.00196 -0.38558,0.1675 -1.08418,1.44286 -1.08418,1.97926 0,0.53413 0.98332,1.39695 1.49614,1.31278 0.37812,-0.062 0.59324,-0.40046 0.82001,-1.29008 z m 17.48376,-0.95826 c 0,-0.0763 0.24154,-0.56095 0.53675,-1.07688 0.4545,-0.79434 0.67378,-0.93857 1.43131,-0.9414 0.49202,-0.002 0.89458,0.0616 0.89458,0.14118 0,0.234 -0.80243,1.59336 -1.06798,1.80923 -0.27572,0.22415 -1.79466,0.28158 -1.79466,0.0679 z m 26.25053,-2.19368 c 0.005,-0.12816 0.30054,-0.61299 0.65602,-1.07738 0.56163,-0.73371 0.83389,-0.85947 2.07764,-0.95957 1.6519,-0.13295 3.52483,-1.02767 5.2013,-2.48471 0.9389,-0.81602 1.09323,-0.88448 0.8544,-0.37904 -0.54271,1.1486 -2.73138,3.31327 -4.15867,4.11311 -1.01974,0.57145 -1.87372,0.82739 -3.03015,0.90816 -0.88563,0.0618 -1.60587,0.007 -1.60054,-0.12057 z"
       id="path1683-2"
       inkscape:connector-curvature="0" />
    <path
       style="fill:#000000;stroke-width:1"
       d="m 162.58569,264.62246 c -0.38525,-0.13316 -0.69723,-0.37686 -0.96131,-0.75087 -0.29326,-0.41533 -0.46024,-0.88009 -0.5215,-1.45158 -0.0521,-0.48913 0.0427,-1.13521 0.22867,-1.55691 0.34222,-0.77503 0.92861,-1.24597 1.64709,-1.32281 0.33874,-0.0363 0.81577,0.10613 1.0878,0.32462 0.0687,0.0554 0.13242,0.0915 0.14103,0.0802 0.009,-0.0113 0.016,-0.0949 0.016,-0.18572 v -0.16529 h 0.47159 0.47159 v 2.49644 2.49644 h -0.47158 -0.47159 v -0.15674 c 0,-0.0863 -0.009,-0.15161 -0.0196,-0.14534 -0.0109,0.006 -0.1095,0.0692 -0.21934,0.13991 -0.29985,0.19297 -0.54999,0.26512 -0.91145,0.26288 -0.2082,-10e-4 -0.36131,-0.0217 -0.48707,-0.0652 z m 0.98406,-1.23805 c 0.4593,-0.28759 0.70887,-0.88418 0.62694,-1.49853 -0.0513,-0.38251 -0.24864,-0.76749 -0.50197,-0.9781 -0.307,-0.25519 -0.7365,-0.29076 -1.05325,-0.0873 -0.47305,0.30399 -0.73051,0.9864 -0.60814,1.61206 0.0774,0.39607 0.25319,0.69686 0.53343,0.91286 0.17248,0.13297 0.33462,0.1802 0.58384,0.17008 0.19525,-0.008 0.24949,-0.0248 0.41923,-0.13115 z m 3.41748,1.23805 c -0.24733,-0.0854 -0.40715,-0.17935 -0.61978,-0.36353 -0.37388,-0.32426 -0.68631,-0.88901 -0.81228,-1.46729 -0.0767,-0.35245 -0.0831,-0.97829 -0.0145,-1.31553 0.14609,-0.70737 0.51347,-1.30096 1.01877,-1.64419 0.29867,-0.20285 0.54745,-0.27904 0.92453,-0.28331 0.36882,-0.004 0.61326,0.0705 0.92235,0.28209 0.10414,0.0714 0.19599,0.1218 0.20395,0.11194 0.007,-0.01 0.0145,-0.47701 0.0145,-1.03815 v -1.02023 h 0.47152 0.47152 v 3.35138 3.35139 h -0.47152 -0.47152 v -0.1311 c 0,-0.072 -0.007,-0.14014 -0.0145,-0.15121 -0.007,-0.0111 -0.10921,0.0411 -0.22419,0.11593 -0.30592,0.19907 -0.54529,0.26935 -0.91072,0.26709 -0.20828,-0.001 -0.3616,-0.0217 -0.48671,-0.0652 z m 0.96351,-1.22374 c 0.20973,-0.12804 0.42813,-0.38651 0.52649,-0.62277 0.15331,-0.36865 0.16633,-0.86918 0.0289,-1.2542 -0.0919,-0.26173 -0.31965,-0.56084 -0.53372,-0.70101 -0.16778,-0.10991 -0.18876,-0.11516 -0.46429,-0.11516 -0.27192,0 -0.29868,0.006 -0.45851,0.10969 -0.22491,0.14528 -0.35291,0.28916 -0.47152,0.52863 -0.39341,0.79465 -0.10703,1.81604 0.59447,2.11744 0.23793,0.10226 0.54674,0.0773 0.77605,-0.0626 z m 4.93717,1.23936 c -0.4397,-0.14489 -0.8823,-0.53267 -1.13231,-0.99149 -0.27119,-0.49834 -0.37968,-0.93758 -0.37968,-1.5389 0,-0.74717 0.16273,-1.25533 0.57639,-1.79623 0.16489,-0.21547 0.30446,-0.36375 0.41294,-0.43811 0.42235,-0.28953 0.89207,-0.39787 1.31709,-0.30365 0.25673,0.057 0.58578,0.21037 0.71161,0.3318 0.0361,0.0379 0.0773,0.0688 0.0853,0.0688 0.007,0 0.0145,-0.46937 0.0145,-1.04303 v -1.04304 h 0.47152 0.47153 v 3.35138 3.35139 h -0.47153 -0.47152 v -0.15674 c 0,-0.0863 -0.007,-0.1515 -0.0217,-0.14509 -0.007,0.006 -0.0911,0.0601 -0.1779,0.11928 -0.31025,0.21129 -0.4614,0.25806 -0.8768,0.27137 -0.27337,0.009 -0.42235,-0.002 -0.53155,-0.0378 z m 0.81338,-1.17444 c 0.42668,-0.17329 0.73721,-0.66228 0.78285,-1.23228 0.0434,-0.55888 -0.22203,-1.14638 -0.64219,-1.41474 -0.16273,-0.10379 -0.19165,-0.11104 -0.44911,-0.11104 -0.25457,0 -0.28783,0.008 -0.45127,0.10892 -0.24227,0.14972 -0.41078,0.36526 -0.53444,0.6836 -0.0984,0.25224 -0.10197,0.27331 -0.10197,0.60644 0,0.31654 0.007,0.36405 0.0831,0.57355 0.24227,0.66834 0.79189,0.99709 1.31259,0.78555 z m 3.63309,1.1909 c -0.18224,-0.0472 -0.5272,-0.23689 -0.69137,-0.37967 -0.24588,-0.21459 -0.5489,-0.66028 -0.67473,-0.99389 -0.15043,-0.39725 -0.19309,-0.60573 -0.20973,-1.02097 -0.0289,-0.79277 0.17718,-1.48495 0.60748,-2.01009 0.31097,-0.3796 0.70077,-0.61685 1.14135,-0.69422 0.38617,-0.0678 0.9081,0.0651 1.20686,0.30763 0.0651,0.0555 0.1309,0.0921 0.13957,0.0811 0.007,-0.0109 0.0145,-0.0942 0.0145,-0.18503 v -0.16529 h 0.47152 0.47152 v 2.49644 2.49644 h -0.47151 -0.47152 v -0.15674 c 0,-0.0863 -0.007,-0.15149 -0.0217,-0.14506 -0.007,0.006 -0.10414,0.0686 -0.20683,0.13819 -0.28567,0.19324 -0.53806,0.26691 -0.89858,0.26246 -0.16633,-0.002 -0.35074,-0.0162 -0.40932,-0.0314 z m 0.89112,-1.25857 c 0.44116,-0.26957 0.70366,-0.90761 0.61906,-1.50596 -0.0962,-0.68144 -0.499,-1.16006 -1.00589,-1.19432 -0.26758,-0.018 -0.45562,0.0481 -0.67185,0.2364 -0.17429,0.15208 -0.28204,0.31239 -0.37967,0.56709 -0.29145,0.75727 0.004,1.66097 0.63713,1.951 0.25094,0.11473 0.5583,0.094 0.80093,-0.0542 z m 3.13779,1.23969 c -0.47659,-0.13623 -0.86899,-0.49595 -1.05029,-0.96269 -0.0651,-0.16747 -0.1432,-0.57842 -0.12367,-0.64668 0.0145,-0.037 0.11354,-0.0466 0.49683,-0.0466 h 0.4831 l 0.0289,0.17494 c 0.0651,0.37183 0.36233,0.61161 0.75046,0.61161 0.24951,0 0.37389,-0.048 0.50624,-0.19557 0.13596,-0.15178 0.1779,-0.32334 0.12294,-0.49657 -0.0651,-0.2007 -0.20177,-0.26895 -0.77744,-0.3869 -0.88829,-0.18186 -1.22118,-0.39846 -1.4155,-0.92117 -0.31748,-0.85416 0.0289,-1.75459 0.80593,-2.10601 0.50406,-0.22731 1.27773,-0.12688 1.69234,0.21964 0.15621,0.13033 0.39053,0.453 0.4614,0.63376 0.0579,0.15354 0.13307,0.46858 0.13307,0.5745 v 0.0792 h -0.47008 c -0.51636,0 -0.4708,0.0197 -0.51202,-0.22019 -0.0579,-0.35164 -0.41873,-0.53259 -0.85221,-0.43062 -0.26252,0.0617 -0.3927,0.20743 -0.3927,0.43963 0,0.27128 0.21769,0.40203 0.91701,0.55035 0.61616,0.13071 0.92121,0.28514 1.16992,0.59218 0.18368,0.22714 0.27553,0.47927 0.29144,0.80401 0.0434,0.89885 -0.36232,1.52177 -1.13541,1.73546 -0.23287,0.0643 -0.90435,0.063 -1.13288,-0.002 z m -11.32382,-2.54507 v -2.49644 h 0.47152 0.47152 v 2.49644 2.49644 h -0.47152 -0.47152 z m 12.82473,-2.84532 c -0.0434,-0.0195 -0.1186,-0.0838 -0.16706,-0.14265 -0.21984,-0.26587 -0.21695,-0.68034 0.005,-0.93532 0.31675,-0.36278 0.80332,-0.0812 0.80332,0.46461 0,0.26408 -0.0875,0.44882 -0.26686,0.56566 -0.14392,0.0937 -0.24589,0.10656 -0.37534,0.0477 z m 0.41512,-0.17466 c 0.11137,-0.11068 0.18803,-0.34814 0.16416,-0.50947 -0.0506,-0.36841 -0.35436,-0.57392 -0.60893,-0.41606 -0.30807,0.19064 -0.31024,0.77982 -0.004,0.9836 0.12656,0.0843 0.33267,0.0578 0.4491,-0.0581 z m -0.10703,-0.0832 c -0.0145,-0.008 -0.0361,-0.0488 -0.0361,-0.0906 0,-0.11656 -0.0579,-0.19995 -0.13234,-0.18646 -0.0506,0.01 -0.0651,0.0337 -0.0724,0.14004 -0.005,0.0838 -0.0217,0.12824 -0.0434,0.12824 -0.0289,0 -0.0361,-0.0671 -0.0361,-0.34197 v -0.34199 h 0.1403 c 0.1027,0 0.15187,0.0168 0.1837,0.0626 0.0506,0.0692 0.0579,0.16746 0.0217,0.24409 -0.0145,0.0314 -0.0145,0.0656 0.002,0.0916 0.0361,0.0597 0.0217,0.31275 -0.0217,0.29457 z m -0.0724,-0.43254 c 0.0434,-0.0405 0.0434,-0.0559 0.0145,-0.1026 -0.0217,-0.0302 -0.0724,-0.055 -0.11064,-0.055 -0.0651,0 -0.0752,0.0147 -0.0752,0.0797 0,0.0439 0.007,0.0901 0.0145,0.10259 0.0289,0.0375 0.10053,0.0259 0.15333,-0.0247 z m -13.06108,-0.0471 v -0.60759 l -0.25239,-0.56368 c -0.13885,-0.31004 -0.33701,-0.75605 -0.44115,-0.99116 -0.10414,-0.23512 -0.40499,-0.91223 -0.66823,-1.5047 -0.26324,-0.59248 -0.55758,-1.2542 -0.65377,-1.47051 -0.0962,-0.2163 -0.27264,-0.61226 -0.39197,-0.8799 -0.11932,-0.26764 -0.21261,-0.50343 -0.20755,-0.52399 0.005,-0.0205 0.17429,-0.16129 0.37534,-0.31275 0.90319,-0.67923 1.44009,-1.0835 2.14209,-1.61305 0.41511,-0.31287 0.76384,-0.56887 0.77563,-0.56887 0.0145,0 0.12583,0.23468 0.25239,0.52152 0.12728,0.28684 0.31314,0.70618 0.41366,0.93189 0.0998,0.22572 0.3146,0.71047 0.47659,1.07724 0.39992,0.90544 1.08696,2.4557 1.49354,3.36848 0.18442,0.4138 0.45055,1.01397 0.59085,1.33371 0.14029,0.31976 0.30953,0.70411 0.37606,0.85412 0.0651,0.15001 0.12004,0.28467 0.12004,0.29924 0,0.0146 -0.77815,0.0265 -1.72915,0.0265 h -1.72917 v 0.61557 0.61555 h -0.47152 -0.47153 z m -6.21851,-1.34059 c -0.17082,-0.3934 -0.30967,-0.7277 -0.30867,-0.74291 8.2e-4,-0.0152 0.27634,-0.2332 0.61183,-0.48444 0.33549,-0.25125 1.02852,-0.77334 1.54003,-1.16022 1.16326,-0.87979 1.15371,-0.87273 1.16442,-0.85768 0.0217,0.0331 1.74376,3.92296 1.74376,3.9434 0,0.0104 -0.99923,0.0185 -2.22042,0.018 l -2.22045,-9e-4 -0.31054,-0.71528 z m 11.86064,0.34936 c -0.089,-0.20216 -0.29361,-0.66765 -0.4556,-1.03441 -0.162,-0.36677 -0.47442,-1.07466 -0.69427,-1.5731 -1.17475,-2.66283 -2.66063,-6.02797 -2.76332,-6.25821 -0.58578,-1.31362 -0.55975,-1.2476 -0.51709,-1.29164 0.0145,-0.0182 0.36811,-0.28382 0.77874,-0.5901 0.41077,-0.30628 1.13483,-0.84688 1.60925,-1.20135 0.47441,-0.35445 0.876,-0.64446 0.89249,-0.64446 0.0145,0 0.0579,0.0653 0.0918,0.14534 0.0361,0.0799 0.18153,0.41465 0.32761,0.7438 0.14681,0.32915 0.4303,0.96779 0.62991,1.41922 0.1996,0.4514 0.418,0.94385 0.48453,1.09433 0.30447,0.68679 0.66028,1.48712 0.91079,2.05186 0.15042,0.33855 0.3616,0.81561 0.47008,1.06012 0.50045,1.1314 1.29408,2.91969 1.49519,3.36849 0.12222,0.27274 0.31315,0.70363 0.42524,0.95755 0.11137,0.25392 0.36304,0.82238 0.55903,1.26327 0.19599,0.44088 0.35654,0.81407 0.35654,0.8293 0,0.0152 -0.99917,0.0277 -2.22042,0.0275 l -2.22042,-6e-5 -0.16128,-0.36755 z"
       id="path1307-5-6"
       inkscape:connector-curvature="0" />
  </g>
</svg>
