<?xml version="1.0" encoding="UTF-8" standalone="no"?>
<!-- Created with Inkscape (http://www.inkscape.org/) -->

<svg
   xmlns:dc="http://purl.org/dc/elements/1.1/"
   xmlns:cc="http://creativecommons.org/ns#"
   xmlns:rdf="http://www.w3.org/1999/02/22-rdf-syntax-ns#"
   xmlns:svg="http://www.w3.org/2000/svg"
   xmlns="http://www.w3.org/2000/svg"
   xmlns:xlink="http://www.w3.org/1999/xlink"
   xmlns:sodipodi="http://sodipodi.sourceforge.net/DTD/sodipodi-0.dtd"
   xmlns:inkscape="http://www.inkscape.org/namespaces/inkscape"
   width="297mm"
   height="210mm"
   viewBox="0 0 297 210"
   version="1.1"
   id="svg8"
   sodipodi:docname="cam16.svg"
   inkscape:version="0.92.2 (5c3e80d, 2017-08-06)">
  <defs
     id="defs2">
    <linearGradient
       inkscape:collect="always"
       id="linearGradient918">
      <stop
         style="stop-color:#000000;stop-opacity:1;"
         offset="0"
         id="stop914" />
      <stop
         style="stop-color:#000000;stop-opacity:0;"
         offset="1"
         id="stop916" />
    </linearGradient>
    <linearGradient
       inkscape:collect="always"
       xlink:href="#linearGradient918"
       id="linearGradient920"
       x1="119.26372"
       y1="215.63403"
       x2="298.01676"
       y2="215.63403"
       gradientUnits="userSpaceOnUse" />
  </defs>
  <sodipodi:namedview
     id="base"
     pagecolor="#ffffff"
     bordercolor="#666666"
     borderopacity="1.0"
     inkscape:pageopacity="0.0"
     inkscape:pageshadow="2"
     inkscape:zoom="0.55048947"
     inkscape:cx="444.32749"
     inkscape:cy="460.49462"
     inkscape:document-units="mm"
     inkscape:current-layer="layer1"
     showgrid="false"
     inkscape:window-width="1366"
     inkscape:window-height="705"
     inkscape:window-x="-8"
     inkscape:window-y="-8"
     inkscape:window-maximized="1"
     inkscape:measure-start="0,0"
     inkscape:measure-end="0,0" />
  <metadata
     id="metadata5">
    <rdf:RDF>
      <cc:Work
         rdf:about="">
        <dc:format>image/svg+xml</dc:format>
        <dc:type
           rdf:resource="http://purl.org/dc/dcmitype/StillImage" />
        <dc:title></dc:title>
      </cc:Work>
    </rdf:RDF>
  </metadata>
  <g
     inkscape:label="Capa 1"
     inkscape:groupmode="layer"
     id="layer1"
     transform="translate(0,-87)">
    <path
       style="opacity:1;fill:#ff0000;fill-opacity:1;fill-rule:nonzero;stroke:none;stroke-width:1.46499991;stroke-linecap:butt;stroke-linejoin:miter;stroke-miterlimit:4;stroke-dasharray:none;stroke-dashoffset:0;stroke-opacity:1;paint-order:stroke fill markers"
       d="m 378.13446,349.95909 c -1.88051,-1.96358 -17.43234,-19.76775 -28.00162,-32.05705 l -3.43679,-3.99608 5.3194,-5.676 5.31939,-5.676 h 22.73601 22.73601 l 5.59521,5.6122 5.5952,5.61219 -2.3435,2.74388 c -3.90156,4.56814 -31.1586,35.70561 -31.25588,35.70561 -0.0498,0 -1.0684,-1.02094 -2.26343,-2.26875 z m 10.41214,-10.93342 c 0.68399,-0.89675 1.14388,-1.7302 1.02198,-1.8521 -0.1219,-0.1219 -2.46242,-0.0151 -5.20116,0.23737 -2.85951,0.26359 -6.60634,0.29101 -8.8006,0.0644 -2.10158,-0.21702 -3.98616,-0.30289 -4.18794,-0.19083 -0.53632,0.29785 1.11464,2.44878 5.27006,6.86601 l 3.6737,3.90517 3.49017,-3.69979 c 1.9196,-2.03488 4.04981,-4.43349 4.73379,-5.33025 z m 1.92003,-5.65966 c 2.99077,-0.89501 4.69529,-2.70321 3.91776,-4.15606 -0.86647,-1.619 -3.39382,-2.24272 -11.23602,-2.7729 -10.66857,-0.72127 -19.6765,-1.44815 -21.8672,-1.76455 l -1.86718,-0.26967 1.00385,1.37463 c 0.55211,0.75604 2.17543,2.66424 3.60738,4.24043 l 2.60353,2.8658 1.28417,-1.19408 c 2.29204,-2.13127 7.78817,-1.1284 10.5197,1.91952 0.8953,0.99899 1.22516,1.04813 5.25397,0.78268 2.36429,-0.15579 5.4153,-0.61739 6.78004,-1.0258 z m 12.67571,-10.87085 c 1.63536,-1.75061 6.03719,-6.85067 7.00568,-8.11694 0.56584,-0.7398 0.22072,-1.26093 -3.08408,-4.65692 -2.04667,-2.10315 -4.00635,-3.8239 -4.35484,-3.8239 -0.4736,0 -0.63362,0.96498 -0.63362,3.82107 v 3.82106 l -4.89574,-0.0113 -4.89575,-0.0112 -1.0274,-2.33967 c -1.29929,-2.95883 -4.05869,-5.02787 -7.72433,-5.79182 -3.78096,-0.78799 -10.41735,-0.29919 -13.30991,0.98033 -4.24109,1.87603 -5.4934,3.9326 -4.23242,6.95056 1.23637,2.95904 3.42742,3.55669 14.875,4.05744 12.23476,0.53518 14.72744,1.13575 17.83042,4.2959 1.20232,1.22448 2.36849,2.26039 2.59146,2.30202 0.22297,0.0416 1.05796,-0.62285 1.85553,-1.47662 z m -46.91967,-3.85379 c 0,-0.60906 0.32711,-2.20891 0.72692,-3.55522 0.79718,-2.68439 4.31135,-6.95424 7.18533,-8.73046 0.9055,-0.55964 1.52488,-1.2141 1.37639,-1.45436 -0.14849,-0.24026 -1.77237,-0.43683 -3.60863,-0.43683 h -3.33864 l -4.1559,4.35523 c -2.28574,2.39539 -4.21976,4.5214 -4.29782,4.72449 -0.2322,0.60409 4.65405,6.20455 5.41331,6.20455 0.41262,0 0.69904,-0.45373 0.69904,-1.1074 z m 40.65049,-11.07776 c 0.52425,-1.18517 0.82189,-2.36732 0.6614,-2.62699 -0.31932,-0.51668 -5.61955,-0.66038 -6.11416,-0.16577 -0.3652,0.3652 3.37618,4.94762 4.03955,4.94762 0.253,0 0.88895,-0.96969 1.41321,-2.15486 z"
       id="path934"
       inkscape:connector-curvature="0" />
    <rect
       style="opacity:1;fill:#8d5fd3;fill-opacity:1;fill-rule:nonzero;stroke:none;stroke-width:1.46499991;stroke-linecap:butt;stroke-linejoin:miter;stroke-miterlimit:4;stroke-dasharray:none;stroke-dashoffset:0;stroke-opacity:1;paint-order:stroke fill markers"
       id="rect881"
       width="297.88434"
       height="211.21048"
       x="0"
       y="87.158051" />
    <path
       style="fill:url(#linearGradient920);fill-opacity:1;stroke:none;stroke-width:0.26458332px;stroke-linecap:butt;stroke-linejoin:miter;stroke-opacity:1"
       d="m 179.60009,133.86353 -15.02344,48.44711 -2.91799,79.59669 c -14.34806,0.29244 -28.66475,0.45939 -42.34059,-1.93708 l 83.31693,37.54405 95.24934,0.85423 -0.10348,-109.88626 c -40.90887,-18.5093 -75.05223,-39.96561 -118.18077,-54.61874 z"
       id="path912"
       inkscape:connector-curvature="0"
       sodipodi:nodetypes="cccccccc" />
    <path
       style="opacity:1;fill:#ffffff;fill-opacity:1;fill-rule:nonzero;stroke:none;stroke-width:5.53700781;stroke-linecap:butt;stroke-linejoin:miter;stroke-miterlimit:4;stroke-dasharray:none;stroke-dashoffset:0;stroke-opacity:1;paint-order:stroke fill markers"
       d="m 492.02788,658.74936 c -24.72538,-1.24802 -37.44691,-3.82821 -45.77308,-9.28372 -5.95427,-3.90138 2.48632,-6.71059 5.13894,-75.70978 1.26359,-32.86822 -0.46869,-61.77963 0.0921,-72.13082 1.06553,-19.66729 3.15125,-33.6115 1.57238,-104.84949 -0.62704,-28.29194 -8.92698,-60.17241 -10.33799,-71.55172 -4.03671,-32.55473 -11.72324,-59.25243 -26.77788,-93.00794 -4.62871,-10.3785 -7.82976,-19.44597 -7.11344,-20.14992 1.57962,-1.55233 90.87831,-37.00795 97.0583,-38.53653 3.80215,-0.94044 4.78516,-0.22141 7.4896,5.47835 4.30378,9.07044 19.01185,33.06583 24.07561,39.27798 l 4.18239,5.13091 13.18688,-10.10034 c 7.25278,-5.55518 13.6243,-9.6629 14.15894,-9.12826 0.53464,0.53464 1.40364,103.43899 1.93112,228.67632 l 0.95906,227.70425 -27.42147,-0.2787 c -15.08181,-0.1533 -38.67147,-0.84655 -52.42147,-1.54059 z"
       id="path884"
       inkscape:connector-curvature="0"
       transform="matrix(0.26458333,0,0,0.26458333,0,87)"
       sodipodi:nodetypes="ssssssscssccssscss" />
    <path
       style="opacity:1;fill:#ffffff;fill-opacity:1;fill-rule:nonzero;stroke:none;stroke-width:1.46499991;stroke-linecap:butt;stroke-linejoin:miter;stroke-miterlimit:4;stroke-dasharray:none;stroke-dashoffset:0;stroke-opacity:1;paint-order:stroke fill markers"
       d="m 102.29199,181.07637 c -4.390709,-0.45165 -8.034434,-0.83741 -8.097156,-0.85723 -0.323295,-0.10221 0.01746,-2.85855 1.273397,-10.30007 1.909524,-11.3142 3.528118,-18.37476 4.696579,-20.48724 1.1749,-2.1241 4.0908,-4.59383 5.00814,-4.24181 1.20766,0.46342 6.75284,14.83836 8.31434,21.55352 0.35232,1.51513 0.78111,5.38337 0.95286,8.59608 0.34822,6.51378 0.27897,6.69191 -2.56841,6.60607 -0.87815,-0.0265 -5.18903,-0.41767 -9.57975,-0.86932 z"
       id="path886"
       inkscape:connector-curvature="0" />
    <path
       style="opacity:1;fill:#ffffff;fill-opacity:1;fill-rule:nonzero;stroke:none;stroke-width:5.53700781;stroke-linecap:butt;stroke-linejoin:miter;stroke-miterlimit:4;stroke-dasharray:none;stroke-dashoffset:0;stroke-opacity:1;paint-order:stroke fill markers"
       d="m 610.9934,432.3696 c 0,-125.78362 0.44456,-228.6975 0.98792,-228.6975 0.54336,0 6.44165,4.26724 13.10731,9.48276 6.66565,5.21552 12.787,9.48276 13.603,9.48276 3.22683,0 29.21031,-42.14177 29.6594,-48.10364 0.15,-1.99128 2.47522,-1.67668 2.79138,-1.67668 1.62722,0 97.83756,38.34127 99.14945,39.54756 0.8818,0.81082 -1.26402,7.90479 -5.02131,16.60019 -17.22521,39.86385 -25.75168,69.02078 -28.42709,97.20868 -0.93836,9.88659 -5.41573,34.91214 -7.80486,55.90665 -11.82235,103.88906 -3.7487,100.29916 0.0167,196.55172 2.94253,75.21799 11.73572,66.26997 3.48986,70.96787 -12.26096,6.98541 -26.41894,8.90029 -75.43104,10.20212 l -46.12074,1.22501 z"
       id="path888"
       inkscape:connector-curvature="0"
       transform="matrix(0.26458333,0,0,0.26458333,0,87)"
       sodipodi:nodetypes="sssscssscsssscs" />
    <path
       style="opacity:1;fill:#ffffff;fill-opacity:1;fill-rule:nonzero;stroke:none;stroke-width:5.53700781;stroke-linecap:butt;stroke-linejoin:miter;stroke-miterlimit:4;stroke-dasharray:none;stroke-dashoffset:0;stroke-opacity:1;paint-order:stroke fill markers"
       d="m 568.32098,160.34091 c -11.61638,-9.5743 -21.12069,-18.09499 -21.12069,-18.93487 0,-0.84671 19.58767,-1.52704 43.96552,-1.52704 24.18103,0 43.96552,0.28701 43.96552,0.63781 0,0.81808 -42.83331,36.29863 -44.46427,36.83154 -0.67397,0.22021 -10.7297,-7.43313 -22.34608,-17.00744 z"
       id="path890"
       inkscape:connector-curvature="0"
       transform="matrix(0.26458333,0,0,0.26458333,0,87)" />
    <path
       style="opacity:1;fill:#ffffff;fill-opacity:1;fill-rule:nonzero;stroke:none;stroke-width:5.53700781;stroke-linecap:butt;stroke-linejoin:miter;stroke-miterlimit:4;stroke-dasharray:none;stroke-dashoffset:0;stroke-opacity:1;paint-order:stroke fill markers"
       d="m 625.39032,204.30361 c -19.55426,-15.82194 -26.46589,-21.87457 -26.46589,-23.17661 0,-1.92794 44.93659,-37.93971 46.27702,-37.08598 0.62523,0.39821 4.57571,7.23119 8.77886,15.18439 l 7.64209,14.46037 -11.09037,18.73966 c -6.09969,10.30681 -11.98243,19.03213 -13.07275,19.38959 -1.09031,0.35746 -6.52135,-3.02268 -12.06896,-7.51142 z"
       id="path892"
       inkscape:connector-curvature="0"
       transform="matrix(0.26458333,0,0,0.26458333,0,87)" />
    <path
       style="opacity:1;fill:#ffffff;fill-opacity:1;fill-rule:nonzero;stroke:none;stroke-width:5.53700781;stroke-linecap:butt;stroke-linejoin:miter;stroke-miterlimit:4;stroke-dasharray:none;stroke-dashoffset:0;stroke-opacity:1;paint-order:stroke fill markers"
       d="m 531.01733,195.12309 c -6.27178,-10.44458 -11.40324,-19.79382 -11.40324,-20.77608 0,-2.59376 13.40247,-28.85067 15.33656,-30.046 1.56057,-0.96449 46.7324,34.69308 46.7324,36.88945 0,0.83531 -28.59719,24.95181 -37.30365,31.45881 -1.32132,0.98752 -5.67006,-4.71644 -13.36207,-17.52618 z"
       id="path894"
       inkscape:connector-curvature="0"
       transform="matrix(0.26458333,0,0,0.26458333,0,87)" />
    <path
       style="opacity:1;fill:#ffffff;fill-opacity:1;fill-rule:nonzero;stroke:none;stroke-width:5.53700781;stroke-linecap:butt;stroke-linejoin:miter;stroke-miterlimit:4;stroke-dasharray:none;stroke-dashoffset:0;stroke-opacity:1;paint-order:stroke fill markers"
       d="m 581.092,647.59072 c -0.6232,-7.37241 -1.13309,-31.21519 -1.13309,-52.98391 0,-30.9841 0.46804,-39.38814 2.15518,-38.69836 1.18534,0.48462 3.38506,1.37743 4.88826,1.98402 3.94139,1.5905 10.70154,-4.35013 9.2512,-8.12966 -1.4363,-3.74293 -8.9723,-5.82683 -11.59328,-3.20584 -1.06851,1.0685 -2.56343,1.94272 -3.32205,1.94272 -0.75862,0 -1.37931,-10.08621 -1.37931,-22.41379 0,-12.32759 0.62069,-22.4138 1.37931,-22.4138 0.75862,0 2.22086,0.84155 3.24943,1.87011 2.62603,2.62605 9.31073,1.29603 11.56567,-2.30114 3.88591,-6.19897 -6.05657,-13.02604 -11.90344,-8.17357 -4.90036,4.06693 -6.0151,-0.10871 -6.0151,-22.53164 0,-12.27162 0.45952,-22.31203 1.02115,-22.31203 0.56164,0 2.97214,1.53464 5.35668,3.41032 6.30732,4.96133 14.05655,0.48552 11.74871,-6.78584 -1.50121,-4.7299 -7.17191,-6.04133 -12.11582,-2.80195 -2.2909,1.50105 -4.58049,2.72919 -5.08799,2.72919 -0.50751,0 -0.92273,-10.86207 -0.92273,-24.13793 0,-13.27586 0.68086,-24.13793 1.51302,-24.13793 0.83217,0 2.51145,1.20302 3.73173,2.67338 2.76373,3.33008 10.18302,2.60155 12.58481,-1.23576 3.9394,-6.2939 -7.78517,-11.61834 -12.65715,-5.74797 -1.1805,1.42242 -2.82722,2.58621 -3.65939,2.58621 -0.83216,0 -1.51302,-10.86207 -1.51302,-24.13793 0,-13.27586 0.41522,-24.13793 0.92273,-24.13793 0.5075,0 2.79709,1.22813 5.08799,2.72919 4.98172,3.26414 10.61758,1.91857 12.14698,-2.90012 2.23015,-7.02658 -8.13548,-11.70722 -12.98529,-5.86355 -1.1805,1.42241 -2.82722,2.5862 -3.65939,2.5862 -0.83216,0 -1.51302,-10.86207 -1.51302,-24.13793 0,-13.27586 0.68086,-24.13793 1.51302,-24.13793 0.83217,0 2.47889,1.16379 3.65939,2.58621 2.77739,3.34656 9.31444,3.319 12.11134,-0.0511 1.67359,-2.01656 1.73198,-3.63974 0.24808,-6.89656 -2.22498,-4.88329 -8.9407,-5.79239 -12.35942,-1.67308 -1.1805,1.42241 -2.82722,2.58621 -3.65939,2.58621 -0.83216,0 -1.51302,-10.86207 -1.51302,-24.13794 0,-13.27586 0.68086,-24.13793 1.51302,-24.13793 0.83217,0 2.51145,1.20302 3.73173,2.67338 2.84355,3.42626 10.22613,2.56008 12.68479,-1.48829 1.54206,-2.5391 1.13464,-3.75174 -2.17228,-6.46552 -5.10964,-4.19316 -6.45231,-4.17884 -10.12283,0.10802 -1.62388,1.89655 -3.55594,3.44828 -4.29347,3.44828 -0.73753,0 -1.34096,-10.42835 -1.34096,-23.17411 0,-22.85205 1.2381,-28.00158 5.66747,-23.57222 2.71412,2.71413 8.20769,2.37891 11.61984,-0.70904 1.59701,-1.44527 4.15046,-2.14933 5.67433,-1.56457 2.53289,0.97196 2.68188,20.91438 1.73604,232.36916 -0.56905,127.21828 -1.23404,231.54753 -1.47775,231.84283 -0.24371,0.29527 -4.67007,0.97314 -9.83636,1.50634 l -9.39326,0.96947 z"
       id="path896"
       inkscape:connector-curvature="0"
       transform="matrix(0.26458333,0,0,0.26458333,0,87)" />
    <path
       style="opacity:1;fill:#ffffff;fill-opacity:1;fill-rule:nonzero;stroke:none;stroke-width:5.53700781;stroke-linecap:butt;stroke-linejoin:miter;stroke-miterlimit:4;stroke-dasharray:none;stroke-dashoffset:0;stroke-opacity:1;paint-order:stroke fill markers"
       d="m 746.4661,359.9221 c -1.59332,-7.97816 -1.11436,-38.90978 0.79092,-51.07758 2.31146,-14.76185 12.23419,-46.36375 21.05171,-67.04545 8.15342,-19.12403 11.19334,-24.33386 14.19875,-24.33386 4.21359,0 17.60464,16.45866 20.41104,25.0868 5.05317,15.53567 22.7654,114.23332 20.8487,116.17494 -0.53189,0.5388 -17.91949,2.14343 -38.63912,3.56584 l -37.67206,2.58621 z"
       id="path898"
       inkscape:connector-curvature="0"
       transform="matrix(0.26458333,0,0,0.26458333,0,87)" />
    <path
       style="fill:#000000;stroke-width:0.99999994"
       d="m 172.89978,253.85187 c -0.30615,-0.0916 -0.55407,-0.25919 -0.76393,-0.51641 -0.23305,-0.28564 -0.36574,-0.60528 -0.41442,-0.99831 -0.0414,-0.3364 0.0339,-0.78073 0.18172,-1.07076 0.27195,-0.53302 0.73794,-0.8569 1.3089,-0.90975 0.26919,-0.025 0.64827,0.073 0.86444,0.22326 0.0546,0.0381 0.10524,0.0629 0.11208,0.0551 0.007,-0.008 0.0127,-0.0653 0.0127,-0.12772 v -0.11368 h 0.37476 0.37476 v 1.71691 1.7169 h -0.37476 -0.37476 v -0.10779 c 0,-0.0593 -0.007,-0.10427 -0.0156,-0.1 -0.009,0.004 -0.087,0.0476 -0.17431,0.0962 -0.23828,0.13272 -0.43706,0.18234 -0.7243,0.1808 -0.16546,-6.9e-4 -0.28713,-0.0149 -0.38707,-0.0448 z m 0.78201,-0.85146 c 0.36499,-0.19779 0.56332,-0.60809 0.49821,-1.03061 -0.0408,-0.26307 -0.19759,-0.52783 -0.3989,-0.67268 -0.24397,-0.1755 -0.58528,-0.19997 -0.83699,-0.06 -0.37592,0.20907 -0.58052,0.67839 -0.48328,1.10868 0.0615,0.2724 0.20121,0.47926 0.42391,0.62782 0.13706,0.0915 0.26591,0.12393 0.46396,0.11697 0.15516,-0.006 0.19826,-0.0171 0.33315,-0.0902 z m 2.71578,0.85146 c -0.19654,-0.0587 -0.32355,-0.12335 -0.49252,-0.25002 -0.29711,-0.22301 -0.54539,-0.61141 -0.6455,-1.00912 -0.061,-0.24239 -0.066,-0.67281 -0.0115,-0.90474 0.11609,-0.48649 0.40804,-0.89473 0.80959,-1.13078 0.23735,-0.13951 0.43505,-0.19191 0.7347,-0.19485 0.29309,-0.003 0.48734,0.0485 0.73297,0.19401 0.0828,0.0491 0.15575,0.0838 0.16207,0.077 0.006,-0.007 0.0115,-0.32806 0.0115,-0.71397 v -0.70166 h 0.3747 0.37471 v 2.30489 2.30489 h -0.37471 -0.3747 v -0.0902 c 0,-0.0495 -0.006,-0.0964 -0.0115,-0.104 -0.006,-0.008 -0.0868,0.0283 -0.17815,0.0797 -0.24311,0.13691 -0.43333,0.18525 -0.72373,0.18369 -0.16552,-6.9e-4 -0.28735,-0.0149 -0.38678,-0.0448 z m 0.76568,-0.84162 c 0.16667,-0.0881 0.34023,-0.26582 0.41839,-0.42831 0.12183,-0.25353 0.13218,-0.59777 0.023,-0.86256 -0.073,-0.18001 -0.25402,-0.38572 -0.42414,-0.48212 -0.13333,-0.0756 -0.15,-0.0792 -0.36896,-0.0792 -0.21608,0 -0.23735,0.004 -0.36436,0.0754 -0.17873,0.0999 -0.28045,0.19887 -0.37471,0.36356 -0.31263,0.54652 -0.085,1.24897 0.47241,1.45625 0.18908,0.0703 0.43448,0.0532 0.61671,-0.0431 z m 3.92345,0.85236 c -0.34942,-0.0996 -0.70114,-0.36634 -0.89982,-0.68189 -0.21551,-0.34273 -0.30172,-0.64482 -0.30172,-1.05837 0,-0.51386 0.12932,-0.86334 0.45804,-1.23534 0.13104,-0.14819 0.24195,-0.25017 0.32816,-0.30131 0.33563,-0.19912 0.7089,-0.27363 1.04665,-0.20883 0.20402,0.0392 0.46551,0.14468 0.5655,0.22819 0.0287,0.0261 0.0614,0.0473 0.0678,0.0473 0.006,0 0.0115,-0.32281 0.0115,-0.71734 v -0.71734 h 0.37471 0.37471 v 2.30489 2.30489 h -0.37471 -0.37471 v -0.1078 c 0,-0.0594 -0.006,-0.10419 -0.0172,-0.0998 -0.006,0.004 -0.0724,0.0413 -0.14138,0.082 -0.24654,0.14531 -0.36666,0.17748 -0.69677,0.18663 -0.21724,0.006 -0.33563,-10e-4 -0.42241,-0.026 z m 0.64637,-0.80771 c 0.33908,-0.11918 0.58585,-0.45548 0.62212,-0.8475 0.0345,-0.38436 -0.17645,-0.78841 -0.51034,-0.97297 -0.12932,-0.0714 -0.1523,-0.0764 -0.35689,-0.0764 -0.2023,0 -0.22874,0.005 -0.35862,0.0749 -0.19252,0.10297 -0.32643,0.2512 -0.4247,0.47014 -0.0782,0.17348 -0.081,0.18797 -0.081,0.41707 0,0.2177 0.006,0.25038 0.066,0.39446 0.19253,0.45965 0.6293,0.68574 1.04308,0.54026 z m 2.88713,0.81903 c -0.14482,-0.0325 -0.41895,-0.16292 -0.54941,-0.26112 -0.1954,-0.14758 -0.4362,-0.4541 -0.5362,-0.68354 -0.11954,-0.2732 -0.15344,-0.41658 -0.16666,-0.70216 -0.023,-0.54522 0.1408,-1.02126 0.48275,-1.38243 0.24712,-0.26106 0.55688,-0.42423 0.907,-0.47744 0.30688,-0.0466 0.72164,0.0448 0.95906,0.21157 0.0517,0.0382 0.10402,0.0633 0.11091,0.0558 0.006,-0.007 0.0115,-0.0648 0.0115,-0.12726 v -0.11367 h 0.3747 0.37471 v 1.7169 1.71691 h -0.37471 -0.3747 v -0.1078 c 0,-0.0593 -0.006,-0.10418 -0.0172,-0.0998 -0.006,0.004 -0.0828,0.0472 -0.16436,0.095 -0.22701,0.1329 -0.42758,0.18356 -0.71408,0.1805 -0.13218,-0.001 -0.27872,-0.0111 -0.32528,-0.0216 z m 0.70815,-0.86557 c 0.35058,-0.1854 0.55918,-0.62421 0.49195,-1.03572 -0.0764,-0.46865 -0.39654,-0.79782 -0.79935,-0.82138 -0.21264,-0.0124 -0.36207,0.0331 -0.53391,0.16258 -0.1385,0.10459 -0.22413,0.21485 -0.30171,0.39001 -0.23161,0.52081 0.003,1.14232 0.50631,1.34179 0.19942,0.0789 0.44367,0.0647 0.63648,-0.0373 z m 2.49353,0.85258 c -0.37874,-0.0937 -0.69057,-0.34108 -0.83464,-0.66208 -0.0517,-0.11518 -0.1138,-0.3978 -0.0983,-0.44475 0.0115,-0.0255 0.0902,-0.032 0.39482,-0.032 h 0.38391 l 0.023,0.12032 c 0.0517,0.25572 0.28794,0.42063 0.59637,0.42063 0.19828,0 0.29713,-0.033 0.4023,-0.13451 0.10804,-0.10438 0.14137,-0.22237 0.0977,-0.34151 -0.0517,-0.13803 -0.16034,-0.18497 -0.61781,-0.26609 -0.70591,-0.12507 -0.97045,-0.27403 -1.12487,-0.63352 -0.25229,-0.58744 0.023,-1.20671 0.64045,-1.44839 0.40057,-0.15634 1.01539,-0.0873 1.34487,0.15105 0.12413,0.0896 0.31034,0.31155 0.36666,0.43586 0.046,0.1056 0.10575,0.32227 0.10575,0.39511 v 0.0545 h -0.37356 c -0.41034,0 -0.37414,0.0136 -0.40689,-0.15143 -0.046,-0.24184 -0.33276,-0.36629 -0.67723,-0.29616 -0.20862,0.0424 -0.31207,0.14266 -0.31207,0.30235 0,0.18657 0.17299,0.2765 0.72872,0.3785 0.48965,0.0899 0.73206,0.19611 0.92971,0.40727 0.14596,0.15621 0.21896,0.32961 0.2316,0.55295 0.0345,0.61818 -0.28793,1.04659 -0.90228,1.19355 -0.18506,0.0442 -0.71867,0.0433 -0.90028,-0.001 z m -8.99876,-1.75035 v -1.71691 h 0.3747 0.37471 v 1.71691 1.71691 h -0.37471 -0.3747 z m 10.19149,-1.95685 c -0.0345,-0.0134 -0.0942,-0.0576 -0.13276,-0.0981 -0.1747,-0.18285 -0.1724,-0.4679 0.004,-0.64326 0.25171,-0.2495 0.63838,-0.0559 0.63838,0.31953 0,0.18162 -0.0695,0.30867 -0.21207,0.38903 -0.11437,0.0644 -0.1954,0.0733 -0.29827,0.0328 z m 0.32989,-0.12012 c 0.0885,-0.0761 0.14942,-0.23943 0.13045,-0.35038 -0.0402,-0.25337 -0.2816,-0.39471 -0.4839,-0.28614 -0.24482,0.13111 -0.24654,0.53631 -0.003,0.67646 0.10058,0.058 0.26437,0.0397 0.35689,-0.04 z m -0.0851,-0.0572 c -0.0115,-0.006 -0.0287,-0.0336 -0.0287,-0.0623 0,-0.0802 -0.046,-0.13751 -0.10517,-0.12823 -0.0402,0.007 -0.0517,0.0232 -0.0575,0.0963 -0.004,0.0576 -0.0172,0.0882 -0.0345,0.0882 -0.023,0 -0.0287,-0.0461 -0.0287,-0.23518 v -0.2352 h 0.11149 c 0.0816,0 0.12069,0.0115 0.14598,0.043 0.0402,0.0476 0.046,0.11517 0.0173,0.16787 -0.0115,0.0216 -0.0115,0.0451 0.002,0.063 0.0287,0.0411 0.0172,0.21509 -0.0172,0.20259 z m -0.0575,-0.29747 c 0.0345,-0.0279 0.0345,-0.0385 0.0115,-0.0706 -0.0172,-0.0208 -0.0575,-0.0378 -0.0879,-0.0378 -0.0517,0 -0.0598,0.0101 -0.0598,0.0548 0,0.0302 0.006,0.062 0.0115,0.0706 0.023,0.0258 0.0799,0.0178 0.12185,-0.017 z m -10.37932,-0.0324 v -0.41786 l -0.20057,-0.38767 c -0.11034,-0.21323 -0.26781,-0.51997 -0.35057,-0.68166 -0.0828,-0.1617 -0.32183,-0.62738 -0.53102,-1.03485 -0.20919,-0.40747 -0.4431,-0.86256 -0.51954,-1.01133 -0.0764,-0.14876 -0.21666,-0.42108 -0.31149,-0.60514 -0.0948,-0.18407 -0.16895,-0.34623 -0.16493,-0.36037 0.004,-0.0141 0.1385,-0.11093 0.29827,-0.21509 0.71774,-0.46714 1.1444,-0.74517 1.70227,-1.10937 0.32987,-0.21517 0.607,-0.39123 0.61637,-0.39123 0.0115,0 0.1,0.1614 0.20057,0.35867 0.10114,0.19727 0.24884,0.48567 0.32872,0.6409 0.0793,0.15524 0.25001,0.48862 0.37874,0.74086 0.31781,0.62271 0.86378,1.68889 1.18688,2.31665 0.14655,0.28459 0.35804,0.69735 0.46953,0.91725 0.11149,0.21991 0.24598,0.48424 0.29885,0.58741 0.0517,0.10317 0.0954,0.19578 0.0954,0.2058 0,0.01 -0.61838,0.0182 -1.37411,0.0182 h -1.37413 v 0.42335 0.42334 h -0.37471 -0.37471 z m -4.9417,-0.92198 c -0.13574,-0.27055 -0.24608,-0.50047 -0.24529,-0.51093 6.5e-4,-0.0104 0.2196,-0.16038 0.48621,-0.33317 0.2666,-0.17279 0.81734,-0.53186 1.22382,-0.79793 0.92442,-0.60507 0.91683,-0.60021 0.92534,-0.58986 0.0172,0.0228 1.38572,2.69798 1.38572,2.71204 0,0.007 -0.79406,0.0127 -1.76451,0.0124 l -1.76454,-6.1e-4 -0.24678,-0.49193 z m 9.42536,0.24027 c -0.0707,-0.13903 -0.23332,-0.45917 -0.36205,-0.7114 -0.12874,-0.25225 -0.37701,-0.73909 -0.55172,-1.08189 -0.93355,-1.83134 -2.11434,-4.14569 -2.19594,-4.30404 -0.46551,-0.90343 -0.44482,-0.85802 -0.41092,-0.88831 0.0115,-0.0125 0.29253,-0.1952 0.61884,-0.40584 0.32643,-0.21064 0.90183,-0.58243 1.27883,-0.82622 0.37701,-0.24377 0.69614,-0.44322 0.70924,-0.44322 0.0115,0 0.046,0.0449 0.073,0.1 0.0287,0.0549 0.14425,0.28517 0.26034,0.51154 0.11667,0.22637 0.34195,0.66559 0.50057,0.97606 0.15862,0.31044 0.33218,0.64912 0.38505,0.75261 0.24195,0.47234 0.52471,1.02276 0.72378,1.41115 0.11954,0.23284 0.28735,0.56093 0.37356,0.72909 0.3977,0.77811 1.02837,2.008 1.18819,2.31666 0.0971,0.18757 0.24885,0.48391 0.33793,0.65854 0.0885,0.17464 0.2885,0.56559 0.44425,0.86881 0.15575,0.30321 0.28333,0.55987 0.28333,0.57034 0,0.0105 -0.79402,0.0191 -1.76451,0.0189 l -1.76452,-5e-5 -0.12816,-0.25278 z"
       id="path1307"
       inkscape:connector-curvature="0" />
    <path
       style="fill:#000000;stroke-width:0.99999994"
       d="m 132.78317,180.46621 c -3.37302,-0.54611 -6.06025,-2.47613 -7.54128,-5.41629 -0.53422,-1.06054 -0.80608,-2.12998 -0.87613,-3.44638 l -0.0613,-1.15011 0.25471,0.0785 c 0.67425,0.20769 2.74117,1.06296 3.07498,1.27241 0.47465,0.29783 0.90386,0.78421 1.6033,1.81692 0.9792,1.44575 2.1688,2.39315 3.43314,2.73414 0.88542,0.23878 2.26871,0.16779 3.23194,-0.166 1.19379,-0.41355 2.99522,-1.77682 2.84912,-2.15612 -0.0533,-0.13837 -0.38422,-0.16799 -2.15322,-0.19225 l -2.09026,-0.0288 -0.47645,-1.07881 -0.47645,-1.07879 0.57918,-1.09142 0.57918,-1.09144 4.37176,-0.0276 4.37176,-0.0276 0.0688,0.27323 c 0.14018,0.55649 -0.0339,3.13852 -0.26266,3.89806 -0.97392,3.23228 -3.4078,5.63122 -6.67753,6.58164 -0.70972,0.20628 -1.23981,0.28065 -2.20889,0.30986 -0.70128,0.0211 -1.41852,0.0159 -1.59384,-0.0139 z m -6.37536,-9.8994 c -1.05194,-0.40429 -1.94304,-0.7684 -1.98024,-0.80914 -0.0372,-0.0408 -0.0372,-0.15109 0,-0.24524 0.0579,-0.14672 0.34093,-0.0666 1.97997,0.56082 1.0518,0.4026 1.94291,0.76546 1.98024,0.80635 0.0373,0.041 0.0375,0.15268 2.2e-4,0.24831 -0.0584,0.15029 -0.32792,0.074 -1.98024,-0.5611 z m 0.0798,-1.06796 c -1.06653,-0.40909 -1.93843,-0.77306 -1.93754,-0.80885 8.2e-4,-0.0358 0.0425,-0.12942 0.0925,-0.2079 0.13266,-0.20857 3.93987,1.22695 3.94209,1.48638 8e-4,0.0984 -0.0344,0.20042 -0.0782,0.2266 -0.0438,0.0262 -0.95233,-0.28713 -2.01887,-0.69623 z m 0.31878,-0.96333 c -1.06654,-0.40813 -1.93843,-0.76933 -1.93755,-0.80269 8.1e-4,-0.0334 0.0451,-0.12923 0.0983,-0.2129 0.0802,-0.12605 0.42157,-0.0287 1.99068,0.56826 1.04168,0.39627 1.93002,0.75316 1.97407,0.7931 0.0441,0.0399 0.0202,0.14552 -0.0531,0.23445 -0.11714,0.14234 -0.36734,0.0722 -2.07239,-0.58022 z m 11.33244,-0.72318 c -0.63983,-0.65557 -0.97478,-0.90427 -1.61452,-1.19874 -1.64748,-0.75838 -3.07796,-0.74187 -5.07048,0.0584 -1.58215,0.63554 -1.88451,0.62361 -3.90364,-0.15407 -0.89123,-0.34328 -1.62041,-0.6622 -1.62041,-0.70874 0,-0.0465 0.23295,-0.36349 0.51767,-0.70434 1.30899,-1.56712 2.99062,-2.65645 4.92977,-3.19342 2.46362,-0.68217 4.67984,-0.48468 6.93138,0.61771 1.72652,0.84531 3.29723,2.33403 4.1315,3.91579 l 0.38395,0.72795 -0.45138,0.18092 c -0.40011,0.16043 -2.45217,0.93252 -3.16088,1.18935 -0.24033,0.0871 -0.3426,0.0179 -1.07296,-0.73092 z m -10.13706,0.0827 c -0.64285,-0.2496 -1.51548,-0.58466 -1.93917,-0.7446 -0.79057,-0.29843 -0.8303,-0.33178 -0.67872,-0.56993 0.0688,-0.10815 0.53285,0.0286 2.09693,0.61856 1.1047,0.41657 2.02732,0.77565 2.05025,0.79795 0.053,0.0515 -0.20469,0.36517 -0.29378,0.35753 -0.0367,-0.004 -0.59266,-0.20992 -1.23551,-0.45951 z"
       id="path948"
       inkscape:connector-curvature="0" />
  </g>
</svg>
