<?xml version="1.0" encoding="UTF-8" standalone="no"?>
<!-- Created with Inkscape (http://www.inkscape.org/) -->

<svg
   xmlns:dc="http://purl.org/dc/elements/1.1/"
   xmlns:cc="http://creativecommons.org/ns#"
   xmlns:rdf="http://www.w3.org/1999/02/22-rdf-syntax-ns#"
   xmlns:svg="http://www.w3.org/2000/svg"
   xmlns="http://www.w3.org/2000/svg"
   xmlns:xlink="http://www.w3.org/1999/xlink"
   xmlns:sodipodi="http://sodipodi.sourceforge.net/DTD/sodipodi-0.dtd"
   xmlns:inkscape="http://www.inkscape.org/namespaces/inkscape"
   width="297mm"
   height="210mm"
   viewBox="0 0 297 210"
   version="1.1"
   id="svg8"
   sodipodi:docname="cam10.svg"
   inkscape:version="0.92.2 (5c3e80d, 2017-08-06)">
  <defs
     id="defs2">
    <linearGradient
       inkscape:collect="always"
       id="linearGradient1292">
      <stop
         style="stop-color:#000000;stop-opacity:1;"
         offset="0"
         id="stop1288" />
      <stop
         style="stop-color:#000000;stop-opacity:0;"
         offset="1"
         id="stop1290" />
    </linearGradient>
    <linearGradient
       inkscape:collect="always"
       xlink:href="#linearGradient1292"
       id="linearGradient1294"
       x1="100.19638"
       y1="215.04804"
       x2="298.51037"
       y2="215.04804"
       gradientUnits="userSpaceOnUse" />
  </defs>
  <sodipodi:namedview
     id="base"
     pagecolor="#ffffff"
     bordercolor="#666666"
     borderopacity="1.0"
     inkscape:pageopacity="0.0"
     inkscape:pageshadow="2"
     inkscape:zoom="0.76"
     inkscape:cx="659.00363"
     inkscape:cy="345.81764"
     inkscape:document-units="mm"
     inkscape:current-layer="layer1"
     showgrid="false"
     inkscape:window-width="1366"
     inkscape:window-height="705"
     inkscape:window-x="-8"
     inkscape:window-y="-8"
     inkscape:window-maximized="1" />
  <metadata
     id="metadata5">
    <rdf:RDF>
      <cc:Work
         rdf:about="">
        <dc:format>image/svg+xml</dc:format>
        <dc:type
           rdf:resource="http://purl.org/dc/dcmitype/StillImage" />
        <dc:title></dc:title>
      </cc:Work>
    </rdf:RDF>
  </metadata>
  <g
     inkscape:label="Capa 1"
     inkscape:groupmode="layer"
     id="layer1"
     transform="translate(0,-87)">
    <path
       style="opacity:1;fill:#5fd38d;fill-opacity:1;fill-rule:nonzero;stroke:none;stroke-width:1.46500003;stroke-linecap:butt;stroke-linejoin:miter;stroke-miterlimit:4;stroke-dasharray:none;stroke-dashoffset:0;stroke-opacity:1;paint-order:stroke fill markers"
       d="M -0.5880778,87.68523 V 299.35184 H 298.09736 V 87.68523 Z M 147.60806,112.25078 c 9.57732,0 17.41326,0.0615 17.41324,0.13677 -2e-5,0.0753 -1.05204,0.67902 -2.33774,1.34155 -2.1442,1.10492 -3.35315,1.19693 -14.6096,1.1094 -6.74959,-0.0525 -13.20067,-0.20863 -14.33567,-0.34691 -1.97299,-0.24038 -3.54439,-1.06801 -3.54397,-1.86664 1.1e-4,-0.2058 7.83643,-0.37417 17.41374,-0.37417 z m -21.67419,0.67549 c 0.50759,-0.0101 1.37598,0.39984 2.84826,1.30539 4.80963,2.95827 8.10995,3.78212 16.52296,4.12579 8.93717,0.36508 12.20928,-0.20446 18.05603,-3.14269 3.29534,-1.65603 4.05919,-1.84698 4.62516,-1.15813 1.00082,1.21808 0.39435,1.77795 -3.73489,3.44768 -7.72773,3.12484 -16.01882,3.98928 -26.0882,2.7203 -2.71813,-0.34255 -5.57517,-1.23499 -8.34916,-2.60868 -4.24892,-2.10408 -5.20069,-3.06715 -4.37146,-4.4224 0.10463,-0.17101 0.26058,-0.26266 0.4913,-0.26726 z m -2.62464,2.67367 2.40933,1.74034 c 4.63609,3.34837 8.50315,4.28206 19.04178,4.599 9.03752,0.2718 9.84292,0.20222 15.05214,-1.30591 3.02708,-0.87639 6.65544,-2.24315 8.06278,-3.03683 l 2.55875,-1.44269 2.33204,1.20163 c 1.28274,0.66101 5.84224,2.42606 10.1323,3.92246 8.98761,3.13492 19.31412,7.84266 19.30428,8.80077 -0.004,0.36044 -0.78797,3.27254 -1.74267,6.47088 -2.61758,8.76921 -6.28467,25.87652 -7.70013,35.92155 -0.69314,4.91902 -1.79918,10.95599 -2.45759,13.4155 -1.73654,6.48688 -2.088,20.23074 -0.86433,33.79499 1.34917,14.95535 2.69108,35.55716 2.87523,44.13906 0.12646,5.89378 -0.0157,7.45348 -0.74812,8.19656 -1.23867,1.2565 -9.80386,3.05173 -19.87756,4.16666 -7.6397,0.84554 -37.72396,1.18476 -46.80573,0.52771 -11.97669,-0.86648 -20.95171,-2.55662 -23.1585,-4.3616 -1.16158,-0.95009 -1.24182,-1.52817 -1.12477,-8.11743 0.0693,-3.90192 0.93622,-17.5584 1.92633,-30.34783 2.01609,-26.04213 2.09829,-41.1102 0.25889,-47.40176 -0.52732,-1.80364 -1.74099,-7.16955 -2.69676,-11.92459 -2.229048,-11.08956 -5.69122,-22.63627 -9.83347,-32.79355 -1.805422,-4.42711 -3.319224,-8.58089 -3.363943,-9.23048 -0.114149,-1.65812 9.462764,-6.34177 22.517773,-11.01224 5.61172,-2.00761 11.0352,-4.16124 12.05241,-4.78608 z m 80.76941,15.14431 c 0.94763,0.0441 3.66691,2.39761 5.80545,5.13037 1.61611,2.06516 2.87631,4.77768 4.33048,9.32063 1.12809,3.52423 3.24833,9.22489 4.71181,12.6682 1.46348,3.44331 3.61462,8.5007 4.78029,11.23862 l 2.11932,4.97789 -3.98704,3.99897 c -2.19288,2.1993 -5.71384,4.95352 -7.82412,6.12081 -3.6844,2.03802 -15.79859,7.05309 -17.0371,7.05309 -0.32898,0 -1.32123,-2.24219 -2.20493,-4.98312 l -1.60674,-4.98364 1.29182,-9.10786 c 0.71037,-5.00938 2.09224,-12.76162 3.07082,-17.22686 1.718,-7.83915 5.69568,-23.14031 6.25941,-24.07871 0.0562,-0.0936 0.15516,-0.13469 0.29053,-0.12839 z m -119.307422,3.39737 c 0.04095,0.001 0.08007,0.008 0.117769,0.0209 1.052805,0.35448 6.662,14.50689 9.393517,23.70088 1.315286,4.42711 3.137051,11.75994 4.048252,16.29511 l 1.656548,8.24581 -1.422049,4.22274 c -0.782104,2.32268 -1.4894,4.27568 -1.571984,4.33959 -0.08259,0.0639 -2.275372,-0.73798 -4.872634,-1.78174 -5.942714,-2.3882 -9.17258,-4.06451 -13.281457,-6.89378 -3.955475,-2.72365 -10.267832,-8.25028 -10.498058,-9.19119 -0.09234,-0.37742 1.59026,-4.9662 3.739043,-10.19735 2.148783,-5.23115 4.959662,-12.63133 6.246434,-16.44498 2.368957,-7.02097 5.175047,-12.3585 6.444619,-12.31605 z m -17.358759,41.01262 c 0.187605,0 1.813728,1.3602 3.614008,3.02216 5.868203,5.41733 13.431822,9.9436 21.764469,13.02455 2.9967,1.10802 3.570881,1.53688 3.325552,2.48449 -0.368563,1.42361 -1.554982,1.41261 -7.135152,-0.0639 -8.077171,-2.13726 -17.443378,-7.65341 -21.512846,-12.66978 -1.963889,-2.42086 -2.031029,-2.64713 -1.236835,-4.17819 0.461857,-0.89039 0.9932,-1.6193 1.180804,-1.6193 z m 159.195371,1.25351 c 0.0199,-0.004 0.0339,-0.003 0.041,0.005 0.11327,0.12782 0.37446,0.78823 0.58055,1.46732 0.29841,0.98339 -0.49781,2.08166 -3.91129,5.39554 -5.02443,4.87782 -11.69811,8.61763 -18.52505,10.38129 -5.64206,1.45756 -7.46018,1.51303 -7.20155,0.21904 0.12075,-0.60407 2.79559,-1.9823 7.28146,-3.75109 9.05112,-3.5689 13.06513,-5.90843 17.78054,-10.364 1.95375,-1.84608 3.65587,-3.28542 3.95435,-3.35282 z"
       id="rect1277"
       inkscape:connector-curvature="0" />
    <path
       style="opacity:1;fill:#ff0000;fill-opacity:1;fill-rule:nonzero;stroke:none;stroke-width:1.46499991;stroke-linecap:butt;stroke-linejoin:miter;stroke-miterlimit:4;stroke-dasharray:none;stroke-dashoffset:0;stroke-opacity:1;paint-order:stroke fill markers"
       d="m 378.13446,349.95909 c -1.88051,-1.96358 -17.43234,-19.76775 -28.00162,-32.05705 l -3.43679,-3.99608 5.3194,-5.676 5.31939,-5.676 h 22.73601 22.73601 l 5.59521,5.6122 5.5952,5.61219 -2.3435,2.74388 c -3.90156,4.56814 -31.1586,35.70561 -31.25588,35.70561 -0.0498,0 -1.0684,-1.02094 -2.26343,-2.26875 z m 10.41214,-10.93342 c 0.68399,-0.89675 1.14388,-1.7302 1.02198,-1.8521 -0.1219,-0.1219 -2.46242,-0.0151 -5.20116,0.23737 -2.85951,0.26359 -6.60634,0.29101 -8.8006,0.0644 -2.10158,-0.21702 -3.98616,-0.30289 -4.18794,-0.19083 -0.53632,0.29785 1.11464,2.44878 5.27006,6.86601 l 3.6737,3.90517 3.49017,-3.69979 c 1.9196,-2.03488 4.04981,-4.43349 4.73379,-5.33025 z m 1.92003,-5.65966 c 2.99077,-0.89501 4.69529,-2.70321 3.91776,-4.15606 -0.86647,-1.619 -3.39382,-2.24272 -11.23602,-2.7729 -10.66857,-0.72127 -19.6765,-1.44815 -21.8672,-1.76455 l -1.86718,-0.26967 1.00385,1.37463 c 0.55211,0.75604 2.17543,2.66424 3.60738,4.24043 l 2.60353,2.8658 1.28417,-1.19408 c 2.29204,-2.13127 7.78817,-1.1284 10.5197,1.91952 0.8953,0.99899 1.22516,1.04813 5.25397,0.78268 2.36429,-0.15579 5.4153,-0.61739 6.78004,-1.0258 z m 12.67571,-10.87085 c 1.63536,-1.75061 6.03719,-6.85067 7.00568,-8.11694 0.56584,-0.7398 0.22072,-1.26093 -3.08408,-4.65692 -2.04667,-2.10315 -4.00635,-3.8239 -4.35484,-3.8239 -0.4736,0 -0.63362,0.96498 -0.63362,3.82107 v 3.82106 l -4.89574,-0.0113 -4.89575,-0.0112 -1.0274,-2.33967 c -1.29929,-2.95883 -4.05869,-5.02787 -7.72433,-5.79182 -3.78096,-0.78799 -10.41735,-0.29919 -13.30991,0.98033 -4.24109,1.87603 -5.4934,3.9326 -4.23242,6.95056 1.23637,2.95904 3.42742,3.55669 14.875,4.05744 12.23476,0.53518 14.72744,1.13575 17.83042,4.2959 1.20232,1.22448 2.36849,2.26039 2.59146,2.30202 0.22297,0.0416 1.05796,-0.62285 1.85553,-1.47662 z m -46.91967,-3.85379 c 0,-0.60906 0.32711,-2.20891 0.72692,-3.55522 0.79718,-2.68439 4.31135,-6.95424 7.18533,-8.73046 0.9055,-0.55964 1.52488,-1.2141 1.37639,-1.45436 -0.14849,-0.24026 -1.77237,-0.43683 -3.60863,-0.43683 h -3.33864 l -4.1559,4.35523 c -2.28574,2.39539 -4.21976,4.5214 -4.29782,4.72449 -0.2322,0.60409 4.65405,6.20455 5.41331,6.20455 0.41262,0 0.69904,-0.45373 0.69904,-1.1074 z m 40.65049,-11.07776 c 0.52425,-1.18517 0.82189,-2.36732 0.6614,-2.62699 -0.31932,-0.51668 -5.61955,-0.66038 -6.11416,-0.16577 -0.3652,0.3652 3.37618,4.94762 4.03955,4.94762 0.253,0 0.88895,-0.96969 1.41321,-2.15486 z"
       id="path934"
       inkscape:connector-curvature="0" />
    <path
       style="fill:url(#linearGradient1294);fill-opacity:1;stroke:none;stroke-width:0.26458332px;stroke-linecap:butt;stroke-linejoin:miter;stroke-opacity:1"
       d="m 204.07864,130.74425 v 0 l 94.43173,49.01352 -0.41301,119.59407 c -65.96699,-9.51475 -172.12094,-7.9779 -196.79855,-27.12684 14.85649,9.90547 92.15619,2.49939 89.11588,0.2456 5.31067,2.95563 -0.83151,-36.8634 -1.24726,-55.2951 l -0.41575,-20.78763 c 4.38743,-29.17413 6.01965,-20.5935 4.41438,-15.1018 1.54521,4.74231 3.09042,10.23425 4.63562,14.21987 6.05568,-1.2345 12.55232,-3.74874 18.608,-6.06408 3.12537,-4.43494 12.8747,-7.87257 10.19816,-13.03383 -9.29348,-20.76434 -14.30446,-44.02875 -22.5292,-45.66378 z"
       id="path1286"
       inkscape:connector-curvature="0"
       sodipodi:nodetypes="ccccccccccccc" />
    <path
       style="fill:#000000;stroke-width:1"
       d="m 312.31698,262.75552 c -0.38525,-0.13316 -0.69723,-0.37686 -0.96131,-0.75087 -0.29326,-0.41533 -0.46024,-0.88009 -0.5215,-1.45158 -0.0521,-0.48913 0.0427,-1.13521 0.22867,-1.55691 0.34222,-0.77503 0.92861,-1.24597 1.64709,-1.32281 0.33874,-0.0363 0.81577,0.10613 1.0878,0.32462 0.0687,0.0554 0.13242,0.0915 0.14103,0.0802 0.009,-0.0113 0.016,-0.0949 0.016,-0.18572 v -0.16529 h 0.47159 0.47159 v 2.49644 2.49644 h -0.47159 -0.47159 v -0.15674 c 0,-0.0863 -0.009,-0.15161 -0.0196,-0.14534 -0.0109,0.006 -0.1095,0.0692 -0.21934,0.13991 -0.29985,0.19297 -0.54999,0.26512 -0.91145,0.26288 -0.2082,-10e-4 -0.36131,-0.0217 -0.48707,-0.0652 z m 0.98406,-1.23805 c 0.4593,-0.28759 0.70887,-0.88418 0.62694,-1.49853 -0.0513,-0.38251 -0.24864,-0.76749 -0.50197,-0.9781 -0.307,-0.25519 -0.7365,-0.29076 -1.05325,-0.0873 -0.47305,0.30399 -0.73051,0.9864 -0.60814,1.61206 0.0774,0.39607 0.25319,0.69686 0.53343,0.91286 0.17248,0.13297 0.33462,0.1802 0.58384,0.17008 0.19525,-0.008 0.24949,-0.0248 0.41923,-0.13115 z m 3.41748,1.23805 c -0.24733,-0.0854 -0.40715,-0.17935 -0.61978,-0.36353 -0.37388,-0.32426 -0.68631,-0.88901 -0.81228,-1.46729 -0.0767,-0.35245 -0.0831,-0.97829 -0.0145,-1.31553 0.14609,-0.70737 0.51347,-1.30096 1.01877,-1.64419 0.29867,-0.20285 0.54745,-0.27904 0.92453,-0.28331 0.36882,-0.004 0.61326,0.0705 0.92235,0.28209 0.10414,0.0714 0.19599,0.1218 0.20395,0.11194 0.007,-0.01 0.0145,-0.47701 0.0145,-1.03815 v -1.02023 h 0.47152 0.47152 v 3.35138 3.35139 h -0.47152 -0.47152 v -0.1311 c 0,-0.072 -0.007,-0.14014 -0.0145,-0.15121 -0.007,-0.0111 -0.10921,0.0411 -0.22419,0.11593 -0.30592,0.19907 -0.54529,0.26935 -0.91072,0.26709 -0.20828,-0.001 -0.3616,-0.0217 -0.48671,-0.0652 z m 0.96351,-1.22374 c 0.20973,-0.12804 0.42813,-0.38651 0.52649,-0.62277 0.15331,-0.36865 0.16633,-0.86918 0.0289,-1.2542 -0.0919,-0.26173 -0.31965,-0.56084 -0.53372,-0.70101 -0.16778,-0.10991 -0.18876,-0.11516 -0.46429,-0.11516 -0.27192,0 -0.29868,0.006 -0.45851,0.10969 -0.22491,0.14528 -0.35291,0.28916 -0.47152,0.52863 -0.39341,0.79465 -0.10703,1.81604 0.59447,2.11744 0.23793,0.10226 0.54674,0.0773 0.77605,-0.0626 z m 4.93717,1.23936 c -0.4397,-0.14489 -0.8823,-0.53267 -1.13231,-0.99149 -0.27119,-0.49834 -0.37968,-0.93758 -0.37968,-1.5389 0,-0.74717 0.16273,-1.25533 0.57639,-1.79623 0.16489,-0.21547 0.30446,-0.36375 0.41294,-0.43811 0.42235,-0.28953 0.89207,-0.39787 1.31709,-0.30365 0.25673,0.057 0.58578,0.21037 0.71161,0.3318 0.0361,0.0379 0.0773,0.0688 0.0853,0.0688 0.007,0 0.0145,-0.46937 0.0145,-1.04303 v -1.04304 h 0.47152 0.47153 v 3.35138 3.35139 h -0.47153 -0.47152 v -0.15674 c 0,-0.0863 -0.007,-0.1515 -0.0217,-0.14509 -0.007,0.006 -0.0911,0.0601 -0.1779,0.11928 -0.31025,0.21129 -0.4614,0.25806 -0.8768,0.27137 -0.27337,0.009 -0.42235,-0.002 -0.53155,-0.0378 z m 0.81338,-1.17444 c 0.42668,-0.17329 0.73721,-0.66228 0.78285,-1.23228 0.0434,-0.55888 -0.22203,-1.14638 -0.64219,-1.41474 -0.16273,-0.10379 -0.19165,-0.11104 -0.44911,-0.11104 -0.25457,0 -0.28783,0.008 -0.45127,0.10892 -0.24227,0.14972 -0.41078,0.36526 -0.53444,0.6836 -0.0984,0.25224 -0.10197,0.27331 -0.10197,0.60644 0,0.31654 0.007,0.36405 0.0831,0.57355 0.24227,0.66834 0.79189,0.99709 1.31259,0.78555 z m 3.63309,1.1909 c -0.18224,-0.0472 -0.5272,-0.23689 -0.69137,-0.37967 -0.24588,-0.21459 -0.5489,-0.66028 -0.67473,-0.99389 -0.15043,-0.39725 -0.19309,-0.60573 -0.20973,-1.02097 -0.0289,-0.79277 0.17718,-1.48495 0.60748,-2.01009 0.31097,-0.3796 0.70077,-0.61685 1.14135,-0.69422 0.38617,-0.0678 0.9081,0.0651 1.20686,0.30763 0.0651,0.0555 0.1309,0.0921 0.13957,0.0811 0.007,-0.0109 0.0145,-0.0942 0.0145,-0.18503 v -0.16529 h 0.47152 0.47152 v 2.49644 2.49644 h -0.47152 -0.47152 v -0.15674 c 0,-0.0863 -0.007,-0.15149 -0.0217,-0.14506 -0.007,0.006 -0.10414,0.0686 -0.20683,0.13819 -0.28567,0.19324 -0.53806,0.26691 -0.89858,0.26246 -0.16633,-0.002 -0.35074,-0.0162 -0.40932,-0.0314 z m 0.89112,-1.25857 c 0.44116,-0.26957 0.70366,-0.90761 0.61906,-1.50596 -0.0962,-0.68144 -0.499,-1.16006 -1.00589,-1.19432 -0.26758,-0.018 -0.45562,0.0481 -0.67185,0.2364 -0.17429,0.15208 -0.28204,0.31239 -0.37967,0.56709 -0.29145,0.75727 0.004,1.66097 0.63713,1.951 0.25094,0.11473 0.5583,0.094 0.80093,-0.0542 z m 3.13779,1.23969 c -0.47659,-0.13623 -0.86899,-0.49595 -1.05029,-0.96269 -0.0651,-0.16747 -0.1432,-0.57842 -0.12367,-0.64668 0.0145,-0.037 0.11354,-0.0466 0.49683,-0.0466 h 0.4831 l 0.0289,0.17494 c 0.0651,0.37183 0.36233,0.61161 0.75046,0.61161 0.24951,0 0.37389,-0.048 0.50624,-0.19557 0.13596,-0.15178 0.1779,-0.32334 0.12294,-0.49657 -0.0651,-0.2007 -0.20177,-0.26895 -0.77744,-0.3869 -0.88829,-0.18186 -1.22118,-0.39846 -1.4155,-0.92117 -0.31748,-0.85416 0.0289,-1.75459 0.80593,-2.10601 0.50406,-0.22731 1.27773,-0.12688 1.69234,0.21964 0.15621,0.13033 0.39053,0.453 0.4614,0.63376 0.0579,0.15354 0.13307,0.46858 0.13307,0.5745 v 0.0792 h -0.47008 c -0.51636,0 -0.4708,0.0197 -0.51202,-0.22019 -0.0579,-0.35164 -0.41873,-0.53259 -0.85221,-0.43062 -0.26252,0.0617 -0.3927,0.20743 -0.3927,0.43963 0,0.27128 0.21769,0.40203 0.91701,0.55035 0.61616,0.13071 0.92121,0.28514 1.16992,0.59218 0.18368,0.22714 0.27553,0.47927 0.29144,0.80401 0.0434,0.89885 -0.36232,1.52177 -1.13541,1.73546 -0.23287,0.0643 -0.90435,0.063 -1.13288,-0.002 z m -11.32382,-2.54507 v -2.49644 h 0.47152 0.47152 v 2.49644 2.49644 h -0.47152 -0.47152 z m 12.82473,-2.84532 c -0.0434,-0.0195 -0.1186,-0.0838 -0.16706,-0.14265 -0.21984,-0.26587 -0.21695,-0.68034 0.005,-0.93532 0.31675,-0.36278 0.80332,-0.0812 0.80332,0.46461 0,0.26408 -0.0875,0.44882 -0.26686,0.56566 -0.14392,0.0937 -0.24589,0.10656 -0.37534,0.0477 z m 0.41512,-0.17466 c 0.11137,-0.11068 0.18803,-0.34814 0.16416,-0.50947 -0.0506,-0.36841 -0.35436,-0.57392 -0.60893,-0.41606 -0.30807,0.19064 -0.31024,0.77982 -0.004,0.9836 0.12656,0.0843 0.33267,0.0578 0.4491,-0.0581 z m -0.10703,-0.0832 c -0.0145,-0.008 -0.0361,-0.0488 -0.0361,-0.0906 0,-0.11656 -0.0579,-0.19995 -0.13234,-0.18646 -0.0506,0.01 -0.0651,0.0337 -0.0724,0.14004 -0.005,0.0838 -0.0217,0.12824 -0.0434,0.12824 -0.0289,0 -0.0361,-0.0671 -0.0361,-0.34197 v -0.34199 h 0.1403 c 0.1027,0 0.15187,0.0168 0.1837,0.0626 0.0506,0.0692 0.0579,0.16746 0.0217,0.24409 -0.0145,0.0314 -0.0145,0.0656 0.002,0.0916 0.0361,0.0597 0.0217,0.31275 -0.0217,0.29457 z m -0.0724,-0.43254 c 0.0434,-0.0405 0.0434,-0.0559 0.0145,-0.1026 -0.0217,-0.0302 -0.0724,-0.055 -0.11064,-0.055 -0.0651,0 -0.0752,0.0147 -0.0752,0.0797 0,0.0439 0.007,0.0901 0.0145,0.10259 0.0289,0.0375 0.10053,0.0259 0.15333,-0.0247 z m -13.06108,-0.0471 v -0.60759 l -0.25239,-0.56368 c -0.13885,-0.31004 -0.33701,-0.75605 -0.44115,-0.99116 -0.10414,-0.23512 -0.40499,-0.91223 -0.66823,-1.5047 -0.26324,-0.59248 -0.55758,-1.2542 -0.65377,-1.47051 -0.0962,-0.2163 -0.27264,-0.61226 -0.39197,-0.8799 -0.11932,-0.26764 -0.21261,-0.50343 -0.20755,-0.52399 0.005,-0.0205 0.17429,-0.16129 0.37534,-0.31275 0.90319,-0.67923 1.44009,-1.0835 2.14209,-1.61305 0.41511,-0.31287 0.76384,-0.56887 0.77563,-0.56887 0.0145,0 0.12583,0.23468 0.25239,0.52152 0.12728,0.28684 0.31314,0.70618 0.41366,0.93189 0.0998,0.22572 0.3146,0.71047 0.47659,1.07724 0.39992,0.90544 1.08696,2.4557 1.49354,3.36848 0.18442,0.4138 0.45055,1.01397 0.59085,1.33371 0.14029,0.31976 0.30953,0.70411 0.37606,0.85412 0.0651,0.15001 0.12004,0.28467 0.12004,0.29924 0,0.0146 -0.77815,0.0265 -1.72915,0.0265 h -1.72917 v 0.61557 0.61555 h -0.47152 -0.47153 z m -6.21851,-1.34059 c -0.17082,-0.3934 -0.30967,-0.7277 -0.30867,-0.74291 8.2e-4,-0.0152 0.27634,-0.2332 0.61183,-0.48444 0.33549,-0.25125 1.02852,-0.77334 1.54003,-1.16022 1.16326,-0.87979 1.15371,-0.87273 1.16442,-0.85768 0.0217,0.0331 1.74376,3.92296 1.74376,3.9434 0,0.0104 -0.99923,0.0185 -2.22042,0.018 l -2.22045,-8.9e-4 -0.31054,-0.71528 z m 11.86064,0.34936 c -0.089,-0.20216 -0.29361,-0.66765 -0.4556,-1.03441 -0.162,-0.36677 -0.47442,-1.07466 -0.69427,-1.5731 -1.17475,-2.66283 -2.66063,-6.02797 -2.76332,-6.25821 -0.58578,-1.31362 -0.55975,-1.2476 -0.51709,-1.29164 0.0145,-0.0182 0.36811,-0.28382 0.77874,-0.5901 0.41077,-0.30628 1.13483,-0.84688 1.60925,-1.20135 0.47441,-0.35445 0.876,-0.64446 0.89249,-0.64446 0.0145,0 0.0579,0.0653 0.0918,0.14534 0.0361,0.0799 0.18153,0.41465 0.32761,0.7438 0.14681,0.32915 0.4303,0.96779 0.62991,1.41922 0.1996,0.4514 0.418,0.94385 0.48453,1.09433 0.30447,0.68679 0.66028,1.48712 0.91079,2.05186 0.15042,0.33855 0.3616,0.81561 0.47008,1.06012 0.50045,1.1314 1.29408,2.91969 1.49519,3.36849 0.12222,0.27274 0.31315,0.70363 0.42524,0.95755 0.11137,0.25392 0.36304,0.82238 0.55903,1.26327 0.19599,0.44088 0.35654,0.81407 0.35654,0.8293 0,0.0152 -0.99917,0.0277 -2.22042,0.0275 l -2.22042,-6e-5 -0.16128,-0.36755 z"
       id="path1307"
       inkscape:connector-curvature="0" />
    <path
       style="opacity:1;fill:#ffffff;fill-opacity:1;fill-rule:nonzero;stroke:none;stroke-width:5.53700781;stroke-linecap:butt;stroke-linejoin:miter;stroke-miterlimit:4;stroke-dasharray:none;stroke-dashoffset:0;stroke-opacity:1;paint-order:stroke fill markers"
       d="m 476.01239,716.75762 c -40.28566,-2.77156 -76.38493,-8.98127 -87.29768,-15.01679 l -6.91467,-3.82428 0.21864,-32.79438 c 0.12025,-18.0369 2.32148,-61.18772 4.89163,-95.89071 5.50945,-74.3905 7.37164,-123.07533 5.98398,-156.44435 -0.87333,-21.00092 -2.32041,-30.03066 -10.9427,-68.28235 -14.96902,-66.40814 -21.82633,-89.52034 -42.43848,-143.03673 -5.94843,-15.44421 -10.39129,-29.1854 -9.87302,-30.53598 2.385,-6.21522 37.23777,-22.74862 85.86896,-40.73437 15.68765,-5.80192 33.67508,-12.92319 39.97207,-15.82505 l 11.44908,-5.2761 8.44047,6.06388 c 18.04478,12.96388 35.39039,16.60064 81.88906,17.16922 29.99076,0.36673 30.40784,0.32018 48.35792,-5.39716 9.95843,-3.1719 22.70695,-8.08952 28.33005,-10.92806 l 10.22382,-5.16096 11.42929,5.24748 c 6.28609,2.88612 19.98617,8.31579 30.4446,12.06594 40.13308,14.39077 74.75638,29.94949 76.44603,34.35264 0.50202,1.30828 -2.25576,13.81564 -6.12842,27.79413 -11.35798,40.99702 -20.74523,85.23021 -28.79124,135.66575 -2.3931,15.00086 -5.83003,34.05941 -7.63765,42.35234 -6.44879,29.58567 -7.68811,47.27294 -6.50629,92.85614 1.03183,39.79671 3.88326,84.25173 8.0396,125.34026 3.18982,31.53365 5.93306,101.1849 4.22042,107.15655 -1.30599,4.5537 -3.06517,6.22719 -8.54288,8.12667 -15.37729,5.33233 -60.86014,10.76688 -120.12591,14.35333 -25.79067,1.56072 -101.59477,1.93842 -121.00668,0.60294 z m 154.71568,-42.76518 c 1.90154,-0.52913 4.44192,-0.34293 5.64528,0.41377 1.20337,0.75669 6.25972,0.8341 11.23633,0.17201 4.97663,-0.66208 10.14985,-0.61238 11.49605,0.11046 1.34622,0.72284 4.75166,0.65347 7.56764,-0.1542 2.97661,-0.85367 6.38244,-0.79273 8.13571,0.14555 1.75327,0.93832 5.1591,0.99926 8.13571,0.14556 2.96287,-0.84975 6.32362,-0.79479 7.9769,0.13034 1.80716,1.01134 4.11737,0.92423 6.2873,-0.23707 2.9694,-1.58918 3.36359,-3.34312 2.93341,-13.05216 -0.27334,-6.16894 -1.22328,-11.01545 -2.11098,-10.77003 -0.88771,0.24544 -1.50596,1.41862 -1.37391,2.60707 0.25806,2.32245 -3.027,2.8396 -14.31321,2.25323 -3.93714,-0.20455 -7.67806,0.46889 -8.31317,1.49651 -2.11676,3.42497 -4.40802,1.92594 -4.4104,-2.8854 -0.002,-4.68192 0.14158,-4.74488 9.50767,-4.16168 5.23051,0.32568 9.51001,0.15523 9.51001,-0.37884 0,-1.1771 -20.78422,-48.33249 -21.72839,-49.29753 -1.26281,-1.29071 -12.82133,7.5996 -12.83314,9.87068 -0.007,1.25097 0.82912,3.84577 1.85692,5.76623 2.3031,4.30338 0.83367,6.15575 -2.61362,3.29475 -2.08182,-1.72775 -3.67871,-1.26671 -8.59148,2.48042 -5.28237,4.02907 -5.8306,5.13855 -4.39932,8.90308 2.22051,5.84037 2.11302,6.18875 -1.55068,5.02593 -1.89993,-0.60301 -5.21406,0.52636 -8.21117,2.79817 -2.764,2.09509 -5.29096,3.99485 -5.61547,4.22167 -0.32449,0.22681 -0.0776,2.02682 0.54866,4.00001 0.94972,2.99225 2.55368,3.58761 9.66552,3.58761 6.42697,0 8.52684,0.63857 8.52684,2.593 0,2.73062 -3.87222,3.35147 -16.72009,2.68083 -6.03346,-0.31495 -7.68167,0.3397 -10.08319,4.00487 -4.35731,6.65008 0.9085,17.81526 7.53792,15.98281 1.56367,-0.43222 4.39882,-1.21877 6.30035,-1.74788 z M 479.90189,475.81454 c 6.45578,0.2081 6.4825,0.18018 6.4825,-6.77573 0,-8.26925 2.33808,-8.97742 6.0352,-1.82796 3.71483,7.1837 11.75029,11.04016 19.67263,9.44151 3.44989,-0.69615 11.91228,-1.18284 18.80534,-1.08153 l 12.53284,0.18423 v -7.71482 c 0,-8.78156 2.23152,-9.91356 5.82896,-2.95688 4.26118,8.24021 9.23357,11.51932 17.16784,11.32161 3.99018,-0.0994 10.56094,-0.25118 14.6017,-0.3372 7.21744,-0.15367 7.34684,-0.2632 7.34684,-6.22069 0,-3.33538 0.50098,-6.0643 1.11329,-6.0643 0.61233,0 3.59841,2.87484 6.63575,6.38853 4.8802,5.64555 6.40932,6.36901 13.1482,6.22071 4.19416,-0.0923 10.93183,-0.23823 14.97259,-0.32425 6.15231,-0.13103 7.34684,-0.7208 7.34684,-3.62769 0,-4.3914 0.26037,-4.36352 7.94346,0.85037 7.01372,4.75964 11.25281,5.28398 19.49375,2.41118 6.51927,-2.27265 8.86479,-6.07169 8.86479,-14.35836 0,-4.62484 -1.05801,-6.81736 -4.32167,-8.95579 -5.45793,-3.57617 -5.52153,-5.89137 -0.16183,-5.89137 3.32528,0 3.97626,-0.70198 3.24481,-3.49903 -2.66815,-10.20304 -18.72829,-13.67007 -27.83339,-6.00864 -6.36951,5.3596 -7.22992,5.37973 -7.22992,0.16924 0,-4.01912 -0.42608,-4.15404 -13.27751,-4.20445 -14.19801,-0.0557 -21.58861,2.4438 -24.76274,8.37472 -3.49108,6.52318 -5.17642,3.42183 -5.17642,-9.52551 v -12.965 h -5.18601 c -4.96801,0 -5.186,0.31631 -5.186,7.52525 v 7.52523 l -8.40363,-0.80747 c -10.10989,-0.97143 -15.905,2.18569 -20.05154,10.92389 -1.55267,3.272 -3.56444,5.9491 -4.47061,5.9491 -1.62263,0 -2.48992,-12.09491 -1.75546,-24.48096 l 0.37535,-6.32998 h -12.23438 -12.2344 v 7.37271 7.37271 l -8.69687,-0.83565 c -8.37282,-0.80452 -8.94998,-0.56962 -15.48877,6.30408 -3.73553,3.92688 -7.21199,7.13976 -7.72545,7.13976 -0.51347,0 -0.93358,-3.03004 -0.93358,-6.73343 v -6.73346 l -13.71227,-0.0899 c -15.57786,-0.10216 -21.12902,2.72393 -25.39221,12.9272 -3.11967,7.46641 -3.0069,11.75844 0.50329,19.15562 3.97945,8.38607 11.82733,13.06189 19.58585,11.66938 3.32769,-0.59725 8.96746,-0.99189 12.53284,-0.87695 z m 186.88899,-49.1981 c 1.60829,-4.19113 -0.69216,-7.779 -4.9877,-7.779 -4.60367,0 -6.22661,2.99106 -3.98636,7.34683 1.90492,3.70378 7.61314,3.97867 8.97406,0.43217 z M 542.45271,397.07582 c -1.51548,-10.10604 0.95905,-9.78698 7.89235,1.01762 3.05053,4.75383 6.27536,8.64333 7.16628,8.64333 0.89092,0 4.03772,-3.8895 6.99285,-8.64333 2.95514,-4.75384 6.03462,-8.64334 6.84328,-8.64334 0.80863,0 1.47026,3.80682 1.47026,8.45958 v 8.45959 l 7.34684,-1.57972 c 9.38719,-2.01844 30.79762,-12.41847 34.90159,-16.9533 l 3.14932,-3.47996 -61.16172,0.0448 -61.1617,0.0446 5.11927,4.15506 c 11.03151,8.95372 36.77952,19.52267 41.20551,16.91392 0.75868,-0.44719 0.86483,-4.24466 0.23587,-8.4388 z m 92.59064,-25.76991 c 2.22946,-2.37316 3.65379,-4.71463 3.16517,-5.20327 -0.48865,-0.48862 -37.25329,-0.68616 -81.69925,-0.43898 l -80.81084,0.44944 3.73978,4.75383 3.73978,4.75384 h 73.90588 73.90587 z m 14.70006,-19.88648 2.68178,-5.186 h -94.25673 c -51.8412,0 -94.25674,0.35236 -94.25674,0.783 0,0.43065 0.90277,2.76435 2.00614,5.186 l 2.00615,4.403 h 89.5688 89.56881 z M 524.41506,336.03817 c 0,-3.79849 -19.94384,-26.51165 -29.75541,-33.88714 -15.23979,-11.45597 -26.83044,-16.97811 -43.28076,-20.62029 -4.72556,-1.04625 -4.75384,-0.99742 -4.75384,8.21157 0,9.67962 4.67361,30.26387 9.3919,41.36529 l 2.75517,6.4825 h 32.82147 c 18.23676,0 32.82147,-0.68962 32.82147,-1.55193 z m 61.76003,-21.35291 c -1.04539,-25.94224 -4.60757,-40.94802 -14.41276,-60.71425 -8.09982,-16.32837 -12.20117,-21.30886 -15.71982,-19.08936 -8.63454,5.44653 -22.57784,38.71787 -26.3806,62.94911 -1.98906,12.67427 -2.38808,36.85587 -0.63706,38.60689 0.63383,0.63385 13.95962,1.15245 29.61284,1.15245 h 28.46039 z m 75.36782,9.50767 c 4.77121,-13.83898 9.07723,-38.90839 7.20373,-41.93976 -2.00805,-3.24908 -20.92055,2.896 -35.91561,11.66975 -16.15947,9.45506 -40.99796,34.74186 -40.99796,41.73795 0,1.35154 9.74529,1.92923 32.54547,1.92923 h 32.54548 z"
       id="path1385"
       inkscape:connector-curvature="0"
       transform="matrix(0.26458333,0,0,0.26458333,0,87)" />
    <path
       style="opacity:1;fill:#ffffff;fill-opacity:1;fill-rule:nonzero;stroke:none;stroke-width:5.53700781;stroke-linecap:butt;stroke-linejoin:miter;stroke-miterlimit:4;stroke-dasharray:none;stroke-dashoffset:0;stroke-opacity:1;paint-order:stroke fill markers"
       d="m 741.59644,388.1536 c -1.34645,-2.61461 -4.33511,-10.97703 -6.64146,-18.58317 l -4.19336,-13.82933 3.92925,-27.59778 c 5.42953,-38.13535 11.42497,-68.43574 21.56092,-108.9669 10.68593,-42.73037 13.54512,-52.72434 15.08401,-52.72434 3.29351,0 14.38383,9.4275 19.73874,16.77923 8.29765,11.39179 11.6515,18.56547 20.84606,44.58844 4.36709,12.35997 15.29438,40.36437 24.28287,62.23201 l 16.34272,39.75934 -6.32471,6.63456 c -11.38742,11.9453 -31.55624,27.11968 -44.99708,33.85438 -14.2221,7.12617 -52.0439,22.6074 -55.23152,22.6074 -1.07159,0 -3.04999,-2.13923 -4.39644,-4.75384 z"
       id="path1387"
       inkscape:connector-curvature="0"
       transform="matrix(0.26458333,0,0,0.26458333,0,87)" />
    <path
       style="opacity:1;fill:#ffffff;fill-opacity:1;fill-rule:nonzero;stroke:none;stroke-width:5.53700781;stroke-linecap:butt;stroke-linejoin:miter;stroke-miterlimit:4;stroke-dasharray:none;stroke-dashoffset:0;stroke-opacity:1;paint-order:stroke fill markers"
       d="m 349.19983,385.91797 c -33.00029,-13.28002 -57.63914,-28.74362 -81.92369,-51.41613 l -9.07522,-8.47279 3.28205,-9.34531 c 1.80513,-5.13992 8.48234,-22.52596 14.83825,-38.63564 6.3559,-16.10968 15.08822,-39.05773 19.40516,-50.99567 10.71374,-29.62754 20.33198,-48.49969 24.718,-48.49969 2.92826,0 24.39845,53.36195 33.38541,82.97601 5.91713,19.49825 15.60064,58.6876 20.11897,81.42179 l 3.64211,18.32546 -5.68295,15.74663 -5.68296,15.74663 z"
       id="path1389"
       inkscape:connector-curvature="0"
       transform="matrix(0.26458333,0,0,0.26458333,0,87)" />
    <path
       style="opacity:1;fill:#ffffff;fill-opacity:1;fill-rule:nonzero;stroke:none;stroke-width:5.53700781;stroke-linecap:butt;stroke-linejoin:miter;stroke-miterlimit:4;stroke-dasharray:none;stroke-dashoffset:0;stroke-opacity:1;paint-order:stroke fill markers"
       d="m 335.99037,402.2673 c -17.73255,-5.17175 -39.71852,-15.41212 -55.23129,-25.72499 -12.62563,-8.3935 -31.20205,-26.82793 -31.20205,-30.96354 0,-3.39755 3.65335,-11.44601 5.19557,-11.44601 0.65081,0 6.94362,5.08153 13.98403,11.29228 22.00707,19.41372 50.32259,36.53847 78.49008,47.46948 13.0523,5.06524 17.13285,8.31021 14.47589,11.51165 -2.73096,3.29061 -8.8378,2.78261 -25.71223,-2.13887 z"
       id="path1391"
       inkscape:connector-curvature="0"
       transform="matrix(0.26458333,0,0,0.26458333,0,87)" />
    <path
       style="opacity:1;fill:#ffffff;fill-opacity:1;fill-rule:nonzero;stroke:none;stroke-width:5.53700781;stroke-linecap:butt;stroke-linejoin:miter;stroke-miterlimit:4;stroke-dasharray:none;stroke-dashoffset:0;stroke-opacity:1;paint-order:stroke fill markers"
       d="m 747.41309,405.28596 c 0,-3.04635 5.99061,-6.23896 33.709,-17.96468 28.67102,-12.12871 44.21698,-21.53393 61.91631,-37.459 11.74245,-10.56532 15.00937,-11.69311 15.00937,-5.18144 0,7.31354 -27.89577,32.41718 -48.40267,43.55798 -20.59466,11.18848 -62.23201,22.59415 -62.23201,17.04714 z"
       id="path1393"
       inkscape:connector-curvature="0"
       transform="matrix(0.26458333,0,0,0.26458333,0,87)" />
    <path
       style="opacity:1;fill:#ffffff;fill-opacity:1;fill-rule:nonzero;stroke:none;stroke-width:5.53700781;stroke-linecap:butt;stroke-linejoin:miter;stroke-miterlimit:4;stroke-dasharray:none;stroke-dashoffset:0;stroke-opacity:1;paint-order:stroke fill markers"
       d="m 520.87234,124.85876 c -18.9135,-2.78464 -46.58862,-16.09233 -46.58862,-22.40233 0,-4.839155 2.4186,-4.348038 17.67454,3.58898 18.52782,9.63923 32.73654,12.3485 66.16581,12.61628 30.8707,0.24729 34.89523,-0.53095 58.49292,-11.31099 11.43884,-5.22555 15.77152,-6.48333 17.24782,-5.00703 3.46318,3.46318 -0.9428,7.34769 -14.45011,12.73987 -20.34864,8.12327 -40.61965,11.5921 -66.47664,11.37569 -12.35996,-0.10345 -26.78954,-0.82366 -32.06572,-1.60047 z"
       id="path1395"
       inkscape:connector-curvature="0"
       transform="matrix(0.26458333,0,0,0.26458333,0,87)" />
    <path
       style="opacity:1;fill:#ffffff;fill-opacity:1;fill-rule:nonzero;stroke:none;stroke-width:5.53700781;stroke-linecap:butt;stroke-linejoin:miter;stroke-miterlimit:4;stroke-dasharray:none;stroke-dashoffset:0;stroke-opacity:1;paint-order:stroke fill markers"
       d="m 570.6569,104.80387 c 1.18846,-0.47955 3.13321,-0.47955 4.32167,0 1.18846,0.47956 0.21608,0.87192 -2.16084,0.87192 -2.37691,0 -3.34929,-0.39236 -2.16083,-0.87192 z"
       id="path1397"
       inkscape:connector-curvature="0"
       transform="matrix(0.26458333,0,0,0.26458333,0,87)" />
    <path
       style="opacity:1;fill:#ffffff;fill-opacity:1;fill-rule:nonzero;stroke:none;stroke-width:5.53700781;stroke-linecap:butt;stroke-linejoin:miter;stroke-miterlimit:4;stroke-dasharray:none;stroke-dashoffset:0;stroke-opacity:1;paint-order:stroke fill markers"
       d="m 457.71068,461.20237 c -4.62625,-7.06055 0.2965,-18.16359 8.05318,-18.16359 4.54005,0 10.24853,6.04444 10.24853,10.85169 0,10.84084 -12.6722,15.90363 -18.30171,7.3119 z"
       id="path1399"
       inkscape:connector-curvature="0"
       transform="matrix(0.26458333,0,0,0.26458333,0,87)" />
    <path
       style="opacity:1;fill:#ffffff;fill-opacity:1;fill-rule:nonzero;stroke:none;stroke-width:5.53700781;stroke-linecap:butt;stroke-linejoin:miter;stroke-miterlimit:4;stroke-dasharray:none;stroke-dashoffset:0;stroke-opacity:1;paint-order:stroke fill markers"
       d="m 560.12065,462.35016 c -5.86807,-6.48415 -1.05694,-19.31138 7.24316,-19.31138 7.08115,0 11.74048,10.14412 7.9903,17.39617 -3.10804,6.01027 -10.66738,6.96067 -15.23346,1.91521 z"
       id="path1403"
       inkscape:connector-curvature="0"
       transform="matrix(0.26458333,0,0,0.26458333,0,87)" />
    <path
       style="opacity:1;fill:#ffffff;fill-opacity:1;fill-rule:nonzero;stroke:none;stroke-width:5.53700781;stroke-linecap:butt;stroke-linejoin:miter;stroke-miterlimit:4;stroke-dasharray:none;stroke-dashoffset:0;stroke-opacity:1;paint-order:stroke fill markers"
       d="m 603.33733,462.35016 c -5.86808,-6.48415 -1.05695,-19.31138 7.24315,-19.31138 6.97047,0 11.24057,9.10722 7.94502,16.94503 -1.85365,4.40853 -3.33679,5.52764 -7.32572,5.52764 -2.75084,0 -6.28895,-1.42258 -7.86245,-3.16129 z"
       id="path1405"
       inkscape:connector-curvature="0"
       transform="matrix(0.26458333,0,0,0.26458333,0,87)" />
    <path
       style="fill:#000000;stroke-width:1"
       d="m 141.23539,193.52913 c -2.8325,-0.2169 -5.11128,-0.6645 -7.99759,-1.57092 -4.45178,-1.39803 -8.54129,-3.23774 -11.20977,-5.04284 -3.57151,-2.41595 -6.70699,-5.93287 -7.98899,-8.96088 -0.8745,-2.06553 -1.21638,-5.36949 -0.78524,-7.5887 0.8347,-4.29645 3.18994,-7.27631 8.77423,-11.10126 3.75532,-2.57219 9.04327,-4.58975 14.3293,-5.46719 7.13419,-1.18421 14.45199,-1.10226 20.65554,0.23131 5.58088,1.19973 10.67893,3.27533 14.52885,5.91524 3.48063,2.38668 6.69327,6.61344 7.7429,10.18705 0.43329,1.47521 0.40094,4.55049 -0.0641,6.09193 -0.73206,2.4266 -2.15506,5.14292 -3.66229,6.99081 -1.21894,1.49444 -4.93368,4.17884 -7.95164,5.74613 -1.69879,0.88221 -5.20267,2.38381 -6.40167,2.74345 -1.38795,0.41632 -5.15038,1.17345 -7.64175,1.5378 -2.68623,0.39284 -9.02514,0.54097 -12.32781,0.28807 z m 8.99392,-3.16307 c 0.7965,-0.0743 1.96266,-0.18131 2.59147,-0.23782 1.81116,-0.16279 6.63254,-1.20595 8.53661,-1.847 3.0996,-1.04354 6.5254,-2.74557 8.53111,-4.23847 2.62925,-1.95702 4.18312,-3.68583 5.32442,-5.92384 0.52365,-1.02686 0.68816,-1.53423 1.02024,-3.14669 0.14451,-0.70169 0.0831,-3.06104 -0.10105,-3.88414 -0.22721,-1.01539 -1.03037,-2.8524 -1.67978,-3.84204 -1.03268,-1.57371 -3.29382,-3.76393 -5.1681,-5.00598 -2.78793,-1.84751 -7.45124,-3.8163 -10.82319,-4.56939 -2.50692,-0.55989 -3.87191,-0.83469 -4.34453,-0.87464 -0.25152,-0.0212 -1.54875,-0.15462 -2.88272,-0.29636 -5.30787,-0.564 -11.36063,-0.21693 -16.62951,0.95356 -2.15656,0.47908 -6.2112,1.85132 -7.90315,2.67472 -5.66754,2.75814 -9.43232,6.83485 -10.19041,11.03472 -0.20568,1.13951 -0.0543,4.01468 0.2585,4.90968 0.97727,2.79623 2.75663,5.16461 5.57429,7.41954 4.15374,3.32417 10.98889,5.793 18.35834,6.63095 3.35222,0.38116 7.03897,0.47527 9.52746,0.2432 z m -4.96466,-4.63979 c -1.37665,-2.82002 -2.97063,-5.02415 -4.25303,-5.88103 -0.64534,-0.4312 -0.90237,-0.5079 -1.7022,-0.5079 -0.81995,0 -1.01802,0.0627 -1.52788,0.48332 -0.32219,0.26582 -0.76005,0.85203 -0.97303,1.30269 -0.21297,0.45065 -0.42787,0.86169 -0.47754,0.91341 -0.0497,0.0517 -0.44778,-0.26851 -0.88469,-0.71164 -1.57627,-1.5987 -3.30471,-2.54512 -4.64203,-2.54178 -0.34139,6e-4 -0.98003,0.17573 -1.41918,0.38863 -0.64848,0.31438 -0.86193,0.52311 -1.13632,1.11121 -0.31002,0.66442 -0.32284,0.79872 -0.15554,1.62923 0.11568,0.57428 0.48924,1.43334 1.02199,2.35023 0.46182,0.79482 0.83968,1.48889 0.83968,1.54237 0,0.0535 -0.45111,-0.0371 -1.00246,-0.20124 -1.54358,-0.45965 -4.75914,-2.15374 -5.69009,-2.99778 -0.20148,-0.18267 -0.41412,-0.33212 -0.47254,-0.33212 -0.25984,0 -2.46753,-2.47118 -3.0788,-3.44626 -1.21177,-1.93294 -1.69202,-3.57296 -1.71001,-5.83951 -0.0155,-1.94802 0.23195,-2.79014 1.38349,-4.70906 2.02144,-3.36851 6.7582,-6.48136 13.3498,-8.77305 1.10961,-0.38578 2.58557,-0.74643 2.67474,-0.65357 0.0468,0.0487 -0.33217,0.48168 -0.8421,0.96218 -1.20652,1.1369 -1.56325,1.90386 -1.56325,3.36096 0,0.96426 0.0747,1.27461 0.54039,2.2438 0.58726,1.2223 1.24863,1.88119 2.4384,2.42919 1.40138,0.64549 4.64802,0.29384 5.17963,-0.56101 0.36687,-0.58992 0.84759,-3.46834 1.3079,-7.83127 0.14441,-1.36866 0.21359,-1.62699 0.43577,-1.62699 0.38275,0 0.7221,0.45301 1.51406,2.02115 l 0.70278,1.39157 1.23642,0.0467 1.23642,0.0467 0.42715,-0.91976 c 0.81981,-1.76524 1.71919,-2.85022 2.05752,-2.48211 0.0676,0.0736 0.16778,1.02662 0.22259,2.1179 0.0548,1.09127 0.12388,2.16271 0.15349,2.38096 0.0296,0.21826 0.0972,0.78969 0.15019,1.26985 0.15237,1.38067 0.69279,3.77314 0.89075,3.94345 0.65491,0.56345 3.50764,0.87172 4.77594,0.51611 2.22404,-0.62358 3.93238,-3.49183 3.42988,-5.75864 -0.21832,-0.98485 -0.59576,-1.58186 -1.60361,-2.53652 -0.42987,-0.40718 -0.74437,-0.77928 -0.69888,-0.82686 0.30394,-0.31798 5.76695,1.77601 8.49934,3.25783 3.90811,2.11942 6.2635,4.16792 7.66621,6.66736 0.96767,1.72427 1.05974,2.04945 1.16295,4.10735 0.0857,1.70917 -0.21693,3.08787 -1.06169,4.83635 -1.25088,2.58907 -3.36167,4.6834 -6.36474,6.31509 -1.86169,1.01153 -4.79144,2.1614 -4.98733,1.95742 -0.0475,-0.0495 0.27259,-0.63082 0.71143,-1.29182 0.85344,-1.28551 1.37955,-2.60036 1.37955,-3.44779 0,-1.26804 -1.43754,-2.40089 -2.99907,-2.3634 -0.97718,0.0234 -2.6869,0.80253 -3.55582,1.62028 -0.77794,0.73214 -1.77294,1.57533 -1.85895,1.57533 -0.041,0 -0.15671,-0.28573 -0.25719,-0.63495 -0.37525,-1.30415 -1.64254,-2.22145 -3.0668,-2.21984 -1.11888,0.001 -2.80708,1.46548 -4.2482,3.68455 -0.66431,1.0229 -1.95032,3.35445 -2.07397,3.76011 -0.0554,0.18194 -0.16021,0.33079 -0.2328,0.33079 -0.0726,0 -0.4545,-0.66072 -0.84872,-1.46826 z m 18.37699,2.92716 c -0.002,-0.23163 -0.0229,-0.23579 -0.15243,-0.0303 -0.13344,0.21164 -0.16679,0.21164 -0.30022,0 -0.12998,-0.20618 -0.15041,-0.20263 -0.15244,0.0265 -0.002,0.26734 0.28255,0.46355 0.4931,0.33958 0.0629,-0.037 0.11328,-0.1881 0.11199,-0.33572 z"
       id="path1593"
       inkscape:connector-curvature="0" />
    <path
       style="opacity:1;fill:#ffdd55;fill-opacity:1;fill-rule:nonzero;stroke:#000000;stroke-width:1.00157475;stroke-linecap:butt;stroke-linejoin:miter;stroke-miterlimit:4;stroke-dasharray:none;stroke-dashoffset:0;stroke-opacity:1;paint-order:stroke fill markers"
       d="m 542.2826,390.54398 c -33.16848,-2.35012 -62.83791,-12.18536 -80.65515,-26.73669 -7.62719,-6.22912 -13.82054,-13.66624 -17.36078,-20.84726 -3.20777,-6.50662 -3.54385,-7.97355 -3.80562,-16.61076 -0.20703,-6.83128 -0.14006,-7.87061 0.70829,-10.99138 2.51035,-9.23465 8.86466,-18.42678 18.02153,-26.06987 11.42699,-9.53793 23.0898,-15.27856 42.57448,-20.95585 16.36618,-4.76866 40.22924,-7.28217 59.16497,-6.23189 29.03393,1.61038 48.74856,6.46884 69.71434,17.18037 11.0445,5.64268 20.61418,13.5304 27.45357,22.62836 2.27121,3.02123 4.83551,8.13007 6.44392,12.83823 1.33449,3.90634 1.38831,4.33056 1.41726,11.17258 0.0259,6.13629 -0.10549,7.60806 -0.95801,10.72714 -3.92402,14.35659 -16.5989,27.72853 -35.6432,37.6034 -13.25949,6.87532 -26.16738,10.99106 -45.04974,14.36429 -10.35178,1.8493 -30.25781,2.76314 -42.02586,1.92933 z m 12.4948,-16.13278 c 6.62106,-12.75736 13.13649,-21.05596 18.8,-23.94527 4.44068,-2.26547 10.98447,0.0644 13.7421,4.89289 0.70218,1.22945 1.39416,2.77028 1.53775,3.42405 0.1436,0.65377 0.51409,1.18868 0.82333,1.18868 0.30923,0 2.45034,-1.65396 4.75802,-3.67545 4.72844,-4.14206 6.86412,-5.5117 10.85086,-6.9588 5.14726,-1.86836 10.0398,-1.04005 13.33799,2.25814 4.02586,4.02585 3.30114,8.76256 -2.86786,18.74421 -1.4145,2.28871 -2.57182,4.28658 -2.57182,4.4397 0,1.98523 18.6397,-6.18934 26.0865,-11.44041 9.58294,-6.75736 16.3864,-15.74071 19.85159,-26.21222 1.1265,-3.4042 1.21227,-4.15245 1.21049,-10.56035 -0.002,-7.78017 -0.27537,-9.14561 -2.84615,-14.22413 -2.49103,-4.92098 -4.73841,-8.07115 -8.71267,-12.21261 -8.4083,-8.76204 -21.03303,-16.35096 -39.08443,-23.49427 -8.20444,-3.24667 -12.85131,-4.72003 -14.25789,-4.52069 -0.89867,0.12736 -0.6604,0.50198 2.40611,3.78299 4.66411,4.99037 5.64817,7.17779 5.64817,12.55495 0,3.9805 -0.0643,4.25704 -1.80432,7.75862 -2.05708,4.13966 -5.00698,7.37826 -8.45043,9.27745 -2.05807,1.13511 -2.67645,1.25073 -7.41766,1.38691 -5.45886,0.15679 -10.6384,-0.60154 -12.5173,-1.83263 -1.86569,-1.22246 -4.0827,-13.23087 -4.93905,-26.75245 -0.59576,-9.40676 -0.78392,-10.56034 -1.72248,-10.56034 -1.65085,0 -5.41754,5.1795 -7.76835,10.68208 l -0.97274,2.27692 -4.56913,-0.12174 -4.56914,-0.12175 -2.6033,-4.86385 c -3.20599,-5.98987 -4.70234,-7.94917 -5.93322,-7.76887 -1.18468,0.17353 -1.30796,0.7437 -2.66812,12.33916 -1.92529,16.41317 -3.27537,22.6365 -5.24721,24.18755 -1.76518,1.38849 -6.92257,2.30206 -11.94606,2.1161 -3.94019,-0.14585 -4.73228,-0.31671 -7.27783,-1.56988 -3.55984,-1.7525 -6.2572,-4.66463 -8.4217,-9.09223 -1.54328,-3.15687 -1.60263,-3.4476 -1.5931,-7.80487 0.0127,-5.81001 0.71345,-7.41379 5.35895,-12.26456 1.90705,-1.99131 3.46736,-3.83244 3.46736,-4.09139 0,-0.28991 -0.45546,-0.36995 -1.18534,-0.20829 -9.91388,2.19569 -24.42685,7.99168 -34.80604,13.90034 -9.60427,5.46753 -18.01284,12.3849 -22.63695,18.62248 -3.2098,4.32979 -6.27365,10.60382 -6.90589,14.14163 -0.76966,4.30676 -0.321,13.61783 0.85504,17.74461 1.46646,5.14586 4.40244,10.59538 8.37741,15.5494 6.67946,8.32465 12.92426,13.02476 24.66104,18.56099 4.15323,1.95907 10.44163,4.04274 10.87945,3.60492 0.11215,-0.11215 -0.41821,-1.32177 -1.17857,-2.68806 -3.31955,-5.96481 -5.29487,-10.47119 -5.74704,-13.11095 -0.45994,-2.68513 -0.43316,-2.86036 0.78204,-5.11636 1.44121,-2.67557 3.22191,-4.03221 6.57032,-5.00562 3.11082,-0.90434 5.90919,-0.51144 9.86205,1.38466 3.02944,1.45316 8.3118,5.34096 10.47248,7.70771 0.59268,0.64919 1.59825,1.55345 2.23461,2.00947 l 1.15701,0.8291 1.59383,-3.03305 c 1.73224,-3.29646 4.32449,-6.25982 6.04964,-6.91572 1.98679,-0.75538 6.204,-0.49111 8.33314,0.52219 4.4233,2.10513 11.0081,10.38932 16.2149,20.3996 3.71222,7.13691 4.55643,8.52594 4.93797,8.12479 0.19155,-0.20139 1.25429,-2.11186 2.36164,-4.24548 z"
       id="path1603"
       inkscape:connector-curvature="0"
       transform="matrix(0.26458333,0,0,0.26458333,0,87)" />
    <path
       style="opacity:1;fill:#000000;fill-opacity:1;fill-rule:nonzero;stroke:#000000;stroke-width:0.26499999;stroke-linecap:butt;stroke-linejoin:miter;stroke-miterlimit:4;stroke-dasharray:none;stroke-dashoffset:0;stroke-opacity:1;paint-order:stroke fill markers"
       id="path1605"
       d="m 162.26557,189.38243 c 0.24548,-0.13179 0.46067,-0.30479 0.71427,-0.42281 0.26643,-0.13606 0.51098,-0.30544 0.75256,-0.48026 0.13978,-0.13879 0.33366,-0.23447 0.45917,-0.38652 -0.0819,0.14145 -0.0305,0.01 -0.0172,0.17957 0.003,0.0345 -0.0693,-7e-5 -0.10394,-7.9e-4 -0.089,-0.002 -0.16572,0.0168 -0.25417,0.0317 -0.38128,0.0869 -0.7512,0.21301 -1.11845,0.34558 -0.27786,0.11402 -0.54421,0.23753 -0.79431,0.40403 -0.25856,0.15423 -0.50713,0.30942 -0.71414,0.52951 -0.0295,0.0331 -0.0603,0.065 -0.0884,0.0992 -0.0437,0.0533 -0.0952,0.12513 -0.12482,0.18846 -0.0137,0.0293 -0.0415,0.0781 -0.0146,0.096 0.005,0.004 0.008,-0.01 0.0127,-0.0143 0.002,-0.005 0.002,-0.0141 0.007,-0.0159 0.0202,-0.006 0.0431,0.004 0.0635,-0.002 0.0878,-0.0236 0.17187,-0.0494 0.25595,-0.0843 0.24247,-0.11484 0.46354,-0.25576 0.6742,-0.42072 0.30544,-0.22028 0.61056,-0.44163 0.92224,-0.65302 0.23853,-0.127 0.45016,-0.29363 0.66091,-0.4606 0.13917,-0.11172 0.0697,-0.0549 0.20821,-0.17035 0.18587,-0.15486 0.40487,0.108 0.219,0.26286 v 0 c -0.14389,0.11982 -0.0723,0.0613 -0.21482,0.17572 -0.21742,0.17206 -0.43573,0.34438 -0.68142,0.47563 -0.30545,0.20665 -0.60375,0.42416 -0.90332,0.63923 -0.23636,0.18473 -0.48597,0.34207 -0.75848,0.46913 -0.26869,0.10393 -0.56249,0.18736 -0.76601,-0.0771 -0.014,-0.0457 -0.0368,-0.0896 -0.0419,-0.13712 -0.0254,-0.23759 0.18308,-0.4427 0.32113,-0.6063 0.22605,-0.23767 0.49105,-0.41395 0.77326,-0.57929 0.27319,-0.18131 0.56407,-0.31744 0.86754,-0.4409 0.3873,-0.13981 0.77772,-0.27254 1.18045,-0.36159 0.20723,-0.0318 0.66544,-0.11616 0.72645,0.1971 0.0105,0.0541 -0.0288,0.1064 -0.0432,0.1596 -0.15317,0.16251 -0.34614,0.28588 -0.51245,0.43429 -0.25968,0.18777 -0.52327,0.36898 -0.8102,0.51393 -0.24326,0.11003 -0.44413,0.284 -0.68112,0.40531 -0.20745,0.12447 -0.38347,-0.16891 -0.17602,-0.29338 z"
       inkscape:connector-curvature="0" />
    <path
       style="opacity:1;fill:#000000;fill-opacity:1;fill-rule:nonzero;stroke:#000000;stroke-width:0.26499999;stroke-linecap:butt;stroke-linejoin:miter;stroke-miterlimit:4;stroke-dasharray:none;stroke-dashoffset:0;stroke-opacity:1;paint-order:stroke fill markers"
       id="path1607"
       d="m 163.96139,188.15481 c -0.31328,0.0871 -0.63361,0.14467 -0.94408,0.24186 -0.26395,0.0851 -0.52159,0.18943 -0.76774,0.31742 -0.0337,0.0208 -0.0674,0.0416 -0.10108,0.0623 -0.2064,0.12619 -0.38487,-0.1657 -0.17847,-0.2919 v 0 c 0.0408,-0.0248 0.0815,-0.0495 0.12232,-0.0743 0.26449,-0.13627 0.54014,-0.24971 0.82355,-0.34031 0.32219,-0.0993 0.65319,-0.16237 0.9784,-0.25061 0.23723,-0.0474 0.30433,0.28805 0.0671,0.3355 z"
       inkscape:connector-curvature="0" />
    <path
       style="opacity:1;fill:#000000;fill-opacity:1;fill-rule:nonzero;stroke:#000000;stroke-width:1.00157475;stroke-linecap:butt;stroke-linejoin:miter;stroke-miterlimit:4;stroke-dasharray:none;stroke-dashoffset:0;stroke-opacity:1;paint-order:stroke fill markers"
       d="M 488.08257,717.6392 C 435.98533,715.027 391.86716,707.18209 383.7771,699.09203 l -3.3215,-3.3215 0.799,-31.77265 c 0.70331,-27.96711 3.10069,-66.50061 9.01691,-144.93052 0.96497,-12.79245 1.70211,-45.18178 1.72188,-75.6579 l 0.0346,-53.28947 -8.92646,-39.47368 c -15.93075,-70.44724 -22.59491,-93.40223 -41.11309,-141.6157 -14.58971,-37.98543 -14.3421,-36.97155 -10.0182,-41.01994 8.02993,-7.51829 32.86169,-18.92931 79.5123,-36.53854 17.52478,-6.61509 36.83006,-14.33273 42.90063,-17.15031 6.07057,-2.81759 11.51918,-5.12288 12.10801,-5.12288 0.58884,0 4.85618,2.6463 9.48299,5.88067 16.97729,11.86796 28.07231,14.57012 68.26794,16.62644 20.474,1.04741 31.49488,1.06014 39.03721,0.0451 13.12903,-1.7669 37.10742,-9.37307 50.52844,-16.02811 l 10.19884,-5.05727 9.75208,4.44417 c 5.36363,2.44429 19.72153,8.08647 31.90642,12.53818 40.61937,14.84014 75.99851,30.66797 77.54214,34.69058 0.36786,0.95862 -2.55681,13.52635 -6.49926,27.92829 -12.02376,43.92334 -19.86584,80.90621 -29.12518,137.353 -2.55228,15.55921 -6.48484,36.875 -8.73903,47.36842 -3.88762,18.09726 -4.13217,20.96901 -4.75278,55.81212 -0.6971,39.13853 0.82354,77.33845 5.00645,125.76683 5.2677,60.98768 6.63709,83.00076 6.88665,110.70316 0.29419,32.66061 0.49134,32.03409 -11.23781,35.71494 -13.70664,4.30145 -48.21836,8.53227 -99.03209,12.14042 -26.3972,1.8744 -108.23395,3.48593 -127.63158,2.51332 z M 591.90364,399.95241 c 16.51397,-3.18687 25.21245,-6.09204 39.19539,-13.09072 21.72196,-10.87219 34.07508,-21.98269 41.5996,-37.41503 8.49942,-17.43183 8.70072,-29.30668 0.76927,-45.38154 -12.18321,-24.692 -41.66875,-43.2066 -81.84913,-51.39485 -35.73045,-7.2814 -79.10912,-3.66289 -109.93645,9.17056 -21.91383,9.12275 -43.74923,27.13641 -50.51958,41.67738 -3.1214,6.70398 -3.56657,9.29181 -3.58521,20.84125 -0.0199,12.33906 0.2641,13.76644 4.41744,22.20188 5.2404,10.64325 20.59531,26.66269 32.0915,33.48035 17.62433,10.45188 45.35535,20.18981 64.12768,22.51888 14.67659,1.82091 47.75877,0.46616 63.68949,-2.60816 z"
       id="path1625"
       inkscape:connector-curvature="0"
       transform="matrix(0.26458333,0,0,0.26458333,0,87)" />
    <path
       style="opacity:1;fill:#000000;fill-opacity:1;fill-rule:nonzero;stroke:#000000;stroke-width:1.00157475;stroke-linecap:butt;stroke-linejoin:miter;stroke-miterlimit:4;stroke-dasharray:none;stroke-dashoffset:0;stroke-opacity:1;paint-order:stroke fill markers"
       d="m 741.59986,388.59286 c -1.41911,-2.78169 -4.46844,-11.13546 -6.7763,-18.56396 l -4.1961,-13.50637 2.12329,-16.7539 c 5.33026,-42.05852 14.83627,-89.6064 27.81403,-139.12232 6.88986,-26.28788 9.59155,-34.86843 10.97875,-34.86843 2.07724,0 11.53904,7.70037 16.78552,13.66069 7.67574,8.72009 14.89339,23.31924 23.87427,48.2905 4.27292,11.88079 14.95231,39.26217 23.73199,60.84751 8.77968,21.58533 15.96305,40.01005 15.96305,40.94383 0,2.32101 -18.42389,19.74263 -30.45364,28.79695 -10.46188,7.87425 -30.27739,17.8146 -55.07267,27.62695 -22.07276,8.73494 -21.68812,8.69381 -24.77219,2.64855 z"
       id="path1627"
       inkscape:connector-curvature="0"
       transform="matrix(0.26458333,0,0,0.26458333,0,87)" />
    <path
       style="opacity:1;fill:#000000;fill-opacity:1;fill-rule:nonzero;stroke:#000000;stroke-width:1.00157475;stroke-linecap:butt;stroke-linejoin:miter;stroke-miterlimit:4;stroke-dasharray:none;stroke-dashoffset:0;stroke-opacity:1;paint-order:stroke fill markers"
       d="m 349.15408,386.32679 c -34.91966,-14.24913 -59.37948,-29.82675 -83.88995,-53.4266 -5.9692,-5.74742 -6.90062,-7.27924 -6.17766,-10.15974 0.46822,-1.86554 6.20637,-17.07359 12.75144,-33.79565 6.54508,-16.72207 16.64023,-43.12554 22.43368,-58.67439 13.55022,-36.36696 20.97378,-51.33463 25.46059,-51.33463 2.52108,0 8.45128,12.09514 18.35245,37.43136 15.05021,38.51214 23.69882,68.18629 34.08509,116.94893 l 5.83752,27.40662 -5.51258,15.34313 c -3.39606,9.45224 -6.26117,15.45859 -7.46233,15.64385 -1.07237,0.16539 -8.21758,-2.2569 -15.87825,-5.38288 z"
       id="path1629"
       inkscape:connector-curvature="0"
       transform="matrix(0.26458333,0,0,0.26458333,0,87)" />
    <path
       style="opacity:1;fill:#000000;fill-opacity:1;fill-rule:nonzero;stroke:#000000;stroke-width:1.00157475;stroke-linecap:butt;stroke-linejoin:miter;stroke-miterlimit:4;stroke-dasharray:none;stroke-dashoffset:0;stroke-opacity:1;paint-order:stroke fill markers"
       d="m 338.1563,403.14728 c -23.03473,-6.31684 -45.00558,-16.94349 -64.13424,-31.01984 -10.60956,-7.80734 -23.10517,-21.00676 -24.2663,-25.63309 -0.97418,-3.88143 2.52703,-12.32033 5.08184,-12.2487 0.91631,0.0257 7.73269,5.28103 15.14751,11.67853 22.94899,19.8004 45.30276,33.35405 76.48763,46.37638 8.30323,3.4673 15.54393,7.02769 16.09045,7.91196 0.54651,0.88428 0.42203,2.67587 -0.27662,3.98131 -1.76606,3.29992 -9.50448,2.9643 -24.13027,-1.04655 z"
       id="path1631"
       inkscape:connector-curvature="0"
       transform="matrix(0.26458333,0,0,0.26458333,0,87)" />
    <path
       style="opacity:1;fill:#000000;fill-opacity:1;fill-rule:nonzero;stroke:#000000;stroke-width:1.00157475;stroke-linecap:butt;stroke-linejoin:miter;stroke-miterlimit:4;stroke-dasharray:none;stroke-dashoffset:0;stroke-opacity:1;paint-order:stroke fill markers"
       d="m 530.47103,126.15054 c -15.96701,-1.53855 -25.88741,-4.28906 -39.96851,-11.08158 -12.1055,-5.83953 -18.02844,-10.99092 -16.67933,-14.50663 1.15555,-3.011328 4.07924,-2.271762 15.44171,3.90608 19.64209,10.67951 36.6237,13.94105 72.58584,13.94105 24.95485,0 33.52163,-1.74619 54.23246,-11.05439 15.16953,-6.81774 18.13472,-7.30439 19.44037,-3.1906 1.14135,3.59603 -0.69851,4.99585 -13.65639,10.39023 -26.34575,10.96776 -57.23825,14.88724 -91.39615,11.59584 z"
       id="path1633"
       inkscape:connector-curvature="0"
       transform="matrix(0.26458333,0,0,0.26458333,0,87)" />
    <path
       style="opacity:1;fill:#000000;fill-opacity:1;fill-rule:nonzero;stroke:#000000;stroke-width:1.00157475;stroke-linecap:butt;stroke-linejoin:miter;stroke-miterlimit:4;stroke-dasharray:none;stroke-dashoffset:0;stroke-opacity:1;paint-order:stroke fill markers"
       d="m 518.34573,104.06635 c -17.51425,-0.81706 -24.3421,-2.35454 -24.3421,-5.481319 0,-0.720935 0.74013,-1.594457 1.64473,-1.941159 0.90461,-0.346702 29.76974,-0.476145 64.14474,-0.287651 l 62.5,0.342716 -7.89474,3.916583 -7.89473,3.91659 -34.86843,0.1968 c -19.17763,0.10824 -43.15789,-0.18991 -53.28947,-0.66256 z"
       id="path1635"
       inkscape:connector-curvature="0"
       transform="matrix(0.26458333,0,0,0.26458333,0,87)" />
    <path
       style="opacity:1;fill:#000000;fill-opacity:1;fill-rule:nonzero;stroke:#000000;stroke-width:1.00157475;stroke-linecap:butt;stroke-linejoin:miter;stroke-miterlimit:4;stroke-dasharray:none;stroke-dashoffset:0;stroke-opacity:1;paint-order:stroke fill markers"
       d="m 746.6352,405.34707 c 0,-2.617 7.45599,-6.80108 26.03755,-14.61151 36.77206,-15.45648 51.02767,-23.89183 71.45219,-42.27981 5.49436,-4.94651 10.664,-8.99366 11.48809,-8.99366 0.82409,0 1.86529,1.46197 2.31376,3.24883 1.51857,6.05049 -7.06198,16.07752 -27.42744,32.05102 -17.17228,13.46897 -33.88324,21.48236 -59.52204,28.54256 -11.89192,3.2747 -24.34211,4.31941 -24.34211,2.04257 z"
       id="path1637"
       inkscape:connector-curvature="0"
       transform="matrix(0.26458333,0,0,0.26458333,0,87)" />
    <path
       style="fill:#f9f9f9;stroke-width:1"
       d="m 164.29917,265.36258 c -0.38525,-0.13316 -0.69723,-0.37686 -0.96131,-0.75087 -0.29326,-0.41533 -0.46024,-0.88009 -0.5215,-1.45158 -0.0521,-0.48913 0.0427,-1.13521 0.22867,-1.55691 0.34222,-0.77503 0.92861,-1.24597 1.64709,-1.32281 0.33874,-0.0363 0.81577,0.10613 1.0878,0.32462 0.0687,0.0554 0.13242,0.0915 0.14103,0.0802 0.009,-0.0113 0.016,-0.0949 0.016,-0.18572 v -0.16529 h 0.47159 0.47159 v 2.49644 2.49644 h -0.47159 -0.47159 v -0.15674 c 0,-0.0863 -0.009,-0.15161 -0.0196,-0.14534 -0.0109,0.006 -0.1095,0.0692 -0.21934,0.13991 -0.29985,0.19297 -0.54999,0.26512 -0.91145,0.26288 -0.2082,-0.001 -0.36131,-0.0217 -0.48707,-0.0652 z m 0.98406,-1.23805 c 0.4593,-0.28759 0.70887,-0.88418 0.62694,-1.49853 -0.0513,-0.38251 -0.24864,-0.76749 -0.50197,-0.9781 -0.307,-0.25519 -0.7365,-0.29076 -1.05325,-0.0873 -0.47305,0.30399 -0.73051,0.9864 -0.60814,1.61206 0.0774,0.39607 0.25319,0.69686 0.53343,0.91286 0.17248,0.13297 0.33462,0.1802 0.58384,0.17008 0.19525,-0.008 0.24949,-0.0248 0.41923,-0.13115 z m 3.41748,1.23805 c -0.24733,-0.0854 -0.40715,-0.17935 -0.61978,-0.36353 -0.37388,-0.32426 -0.68631,-0.88901 -0.81228,-1.46729 -0.0767,-0.35245 -0.0831,-0.97829 -0.0145,-1.31553 0.14609,-0.70737 0.51347,-1.30096 1.01877,-1.64419 0.29867,-0.20285 0.54745,-0.27904 0.92453,-0.28331 0.36882,-0.004 0.61326,0.0705 0.92235,0.28209 0.10414,0.0714 0.19599,0.1218 0.20395,0.11194 0.007,-0.01 0.0145,-0.47701 0.0145,-1.03815 v -1.02023 h 0.47152 0.47152 v 3.35138 3.35139 h -0.47152 -0.47152 v -0.1311 c 0,-0.072 -0.007,-0.14014 -0.0145,-0.15121 -0.007,-0.0111 -0.10921,0.0411 -0.22419,0.11593 -0.30592,0.19907 -0.54529,0.26935 -0.91072,0.26709 -0.20828,-0.001 -0.3616,-0.0217 -0.48671,-0.0652 z m 0.96351,-1.22374 c 0.20973,-0.12804 0.42813,-0.38651 0.52649,-0.62277 0.15331,-0.36865 0.16633,-0.86918 0.0289,-1.2542 -0.0919,-0.26173 -0.31965,-0.56084 -0.53372,-0.70101 -0.16778,-0.10991 -0.18876,-0.11516 -0.46429,-0.11516 -0.27192,0 -0.29868,0.006 -0.45851,0.10969 -0.22491,0.14528 -0.35291,0.28916 -0.47152,0.52863 -0.39341,0.79465 -0.10703,1.81604 0.59447,2.11744 0.23793,0.10226 0.54674,0.0773 0.77605,-0.0626 z m 4.93717,1.23936 c -0.4397,-0.14489 -0.8823,-0.53267 -1.13231,-0.99149 -0.27119,-0.49834 -0.37968,-0.93758 -0.37968,-1.5389 0,-0.74717 0.16273,-1.25533 0.57639,-1.79623 0.16489,-0.21547 0.30446,-0.36375 0.41294,-0.43811 0.42235,-0.28953 0.89207,-0.39787 1.31709,-0.30365 0.25673,0.057 0.58578,0.21037 0.71161,0.3318 0.0361,0.0379 0.0773,0.0688 0.0853,0.0688 0.007,0 0.0145,-0.46937 0.0145,-1.04303 v -1.04304 h 0.47152 0.47153 v 3.35138 3.35139 h -0.47153 -0.47152 v -0.15674 c 0,-0.0863 -0.007,-0.1515 -0.0217,-0.14509 -0.007,0.006 -0.0911,0.0601 -0.1779,0.11928 -0.31025,0.21129 -0.4614,0.25806 -0.8768,0.27137 -0.27337,0.009 -0.42235,-0.002 -0.53155,-0.0378 z m 0.81338,-1.17444 c 0.42668,-0.17329 0.73721,-0.66228 0.78285,-1.23228 0.0434,-0.55888 -0.22203,-1.14638 -0.64219,-1.41474 -0.16273,-0.10379 -0.19165,-0.11104 -0.44911,-0.11104 -0.25457,0 -0.28783,0.008 -0.45127,0.10892 -0.24227,0.14972 -0.41078,0.36526 -0.53444,0.6836 -0.0984,0.25224 -0.10197,0.27331 -0.10197,0.60644 0,0.31654 0.007,0.36405 0.0831,0.57355 0.24227,0.66834 0.79189,0.99709 1.31259,0.78555 z m 3.63309,1.1909 c -0.18224,-0.0472 -0.5272,-0.23689 -0.69137,-0.37967 -0.24588,-0.21459 -0.5489,-0.66028 -0.67473,-0.99389 -0.15043,-0.39725 -0.19309,-0.60573 -0.20973,-1.02097 -0.0289,-0.79277 0.17718,-1.48495 0.60748,-2.01009 0.31097,-0.3796 0.70077,-0.61685 1.14135,-0.69422 0.38617,-0.0678 0.9081,0.0651 1.20686,0.30763 0.0651,0.0555 0.1309,0.0921 0.13957,0.0811 0.007,-0.0109 0.0145,-0.0942 0.0145,-0.18503 v -0.16529 h 0.47152 0.47152 v 2.49644 2.49644 h -0.47152 -0.47152 v -0.15674 c 0,-0.0863 -0.007,-0.15149 -0.0217,-0.14506 -0.007,0.006 -0.10414,0.0686 -0.20683,0.13819 -0.28567,0.19324 -0.53806,0.26691 -0.89858,0.26246 -0.16633,-0.002 -0.35074,-0.0162 -0.40932,-0.0314 z m 0.89112,-1.25857 c 0.44116,-0.26957 0.70366,-0.90761 0.61906,-1.50596 -0.0962,-0.68144 -0.499,-1.16006 -1.00589,-1.19432 -0.26758,-0.018 -0.45562,0.0481 -0.67185,0.2364 -0.17429,0.15208 -0.28204,0.31239 -0.37967,0.56709 -0.29145,0.75727 0.004,1.66097 0.63713,1.951 0.25094,0.11473 0.5583,0.094 0.80093,-0.0542 z m 3.13779,1.23969 c -0.47659,-0.13623 -0.86899,-0.49595 -1.05029,-0.96269 -0.0651,-0.16747 -0.1432,-0.57842 -0.12367,-0.64668 0.0145,-0.037 0.11354,-0.0466 0.49683,-0.0466 h 0.4831 l 0.0289,0.17494 c 0.0651,0.37183 0.36233,0.61161 0.75046,0.61161 0.24951,0 0.37389,-0.048 0.50624,-0.19557 0.13596,-0.15178 0.1779,-0.32334 0.12294,-0.49657 -0.0651,-0.2007 -0.20177,-0.26895 -0.77744,-0.3869 -0.88829,-0.18186 -1.22118,-0.39846 -1.4155,-0.92117 -0.31748,-0.85416 0.0289,-1.75459 0.80593,-2.10601 0.50406,-0.22731 1.27773,-0.12688 1.69234,0.21964 0.15621,0.13033 0.39053,0.453 0.4614,0.63376 0.0579,0.15354 0.13307,0.46858 0.13307,0.5745 v 0.0792 H 184.721 c -0.51636,0 -0.4708,0.0197 -0.51202,-0.22019 -0.0579,-0.35164 -0.41873,-0.53259 -0.85221,-0.43062 -0.26252,0.0617 -0.3927,0.20743 -0.3927,0.43963 0,0.27128 0.21769,0.40203 0.91701,0.55035 0.61616,0.13071 0.92121,0.28514 1.16992,0.59218 0.18368,0.22714 0.27553,0.47927 0.29144,0.80401 0.0434,0.89885 -0.36232,1.52177 -1.13541,1.73546 -0.23287,0.0643 -0.90435,0.063 -1.13288,-0.002 z m -11.32382,-2.54507 v -2.49644 h 0.47152 0.47152 v 2.49644 2.49644 h -0.47152 -0.47152 z m 12.82473,-2.84532 c -0.0434,-0.0195 -0.1186,-0.0838 -0.16706,-0.14265 -0.21984,-0.26587 -0.21695,-0.68034 0.005,-0.93532 0.31675,-0.36278 0.80332,-0.0812 0.80332,0.46461 0,0.26408 -0.0875,0.44882 -0.26686,0.56566 -0.14392,0.0937 -0.24589,0.10656 -0.37534,0.0477 z m 0.41512,-0.17466 c 0.11137,-0.11068 0.18803,-0.34814 0.16416,-0.50947 -0.0506,-0.36841 -0.35436,-0.57392 -0.60893,-0.41606 -0.30807,0.19064 -0.31024,0.77982 -0.004,0.9836 0.12656,0.0843 0.33267,0.0578 0.4491,-0.0581 z m -0.10703,-0.0832 c -0.0145,-0.008 -0.0361,-0.0488 -0.0361,-0.0906 0,-0.11656 -0.0579,-0.19995 -0.13234,-0.18646 -0.0506,0.01 -0.0651,0.0337 -0.0724,0.14004 -0.005,0.0838 -0.0217,0.12824 -0.0434,0.12824 -0.0289,0 -0.0361,-0.0671 -0.0361,-0.34197 v -0.34199 h 0.1403 c 0.1027,0 0.15187,0.0168 0.1837,0.0626 0.0506,0.0692 0.0579,0.16746 0.0217,0.24409 -0.0145,0.0314 -0.0145,0.0656 0.002,0.0916 0.0361,0.0597 0.0217,0.31275 -0.0217,0.29457 z m -0.0724,-0.43254 c 0.0434,-0.0405 0.0434,-0.0559 0.0145,-0.1026 -0.0217,-0.0302 -0.0724,-0.055 -0.11064,-0.055 -0.0651,0 -0.0752,0.0147 -0.0752,0.0797 0,0.0439 0.007,0.0901 0.0145,0.10259 0.0289,0.0375 0.10053,0.0259 0.15333,-0.0247 z m -13.06108,-0.0471 v -0.60759 l -0.25239,-0.56368 c -0.13885,-0.31004 -0.33701,-0.75605 -0.44115,-0.99116 -0.10414,-0.23512 -0.40499,-0.91223 -0.66823,-1.5047 -0.26324,-0.59248 -0.55758,-1.2542 -0.65377,-1.47051 -0.0962,-0.2163 -0.27264,-0.61226 -0.39197,-0.8799 -0.11932,-0.26764 -0.21261,-0.50343 -0.20755,-0.52399 0.005,-0.0205 0.17429,-0.16129 0.37534,-0.31275 0.90319,-0.67923 1.44009,-1.0835 2.14209,-1.61305 0.41511,-0.31287 0.76384,-0.56887 0.77563,-0.56887 0.0145,0 0.12583,0.23468 0.25239,0.52152 0.12728,0.28684 0.31314,0.70618 0.41366,0.93189 0.0998,0.22572 0.3146,0.71047 0.47659,1.07724 0.39992,0.90544 1.08696,2.4557 1.49354,3.36848 0.18442,0.4138 0.45055,1.01397 0.59085,1.33371 0.14029,0.31976 0.30953,0.70411 0.37606,0.85412 0.0651,0.15001 0.12004,0.28467 0.12004,0.29924 0,0.0146 -0.77815,0.0265 -1.72915,0.0265 h -1.72917 v 0.61557 0.61555 h -0.47152 -0.47153 z m -6.21851,-1.34059 c -0.17082,-0.3934 -0.30967,-0.7277 -0.30867,-0.74291 8.2e-4,-0.0152 0.27634,-0.2332 0.61183,-0.48444 0.33549,-0.25125 1.02852,-0.77334 1.54003,-1.16022 1.16326,-0.87979 1.15371,-0.87273 1.16442,-0.85768 0.0217,0.0331 1.74376,3.92296 1.74376,3.9434 0,0.0104 -0.99923,0.0185 -2.22042,0.018 l -2.22045,-9e-4 -0.31054,-0.71528 z m 11.86064,0.34936 c -0.089,-0.20216 -0.29361,-0.66765 -0.4556,-1.03441 -0.162,-0.36677 -0.47442,-1.07466 -0.69427,-1.5731 -1.17475,-2.66283 -2.66063,-6.02797 -2.76332,-6.25821 -0.58578,-1.31362 -0.55975,-1.2476 -0.51709,-1.29164 0.0145,-0.0182 0.36811,-0.28382 0.77874,-0.5901 0.41077,-0.30628 1.13483,-0.84688 1.60925,-1.20135 0.47441,-0.35445 0.876,-0.64446 0.89249,-0.64446 0.0145,0 0.0579,0.0653 0.0918,0.14534 0.0361,0.0799 0.18153,0.41465 0.32761,0.7438 0.14681,0.32915 0.4303,0.96779 0.62991,1.41922 0.1996,0.4514 0.418,0.94385 0.48453,1.09433 0.30447,0.68679 0.66028,1.48712 0.91079,2.05186 0.15042,0.33855 0.3616,0.81561 0.47008,1.06012 0.50045,1.1314 1.29408,2.91969 1.49519,3.36849 0.12222,0.27274 0.31315,0.70363 0.42524,0.95755 0.11137,0.25392 0.36304,0.82238 0.55903,1.26327 0.19599,0.44088 0.35654,0.81407 0.35654,0.8293 0,0.0152 -0.99917,0.0277 -2.22042,0.0275 l -2.22042,-6e-5 -0.16128,-0.36755 z"
       id="path1307-8"
       inkscape:connector-curvature="0" />
  </g>
</svg>
