<?xml version="1.0" encoding="UTF-8" standalone="no"?>
<!-- Created with Inkscape (http://www.inkscape.org/) -->

<svg
   xmlns:dc="http://purl.org/dc/elements/1.1/"
   xmlns:cc="http://creativecommons.org/ns#"
   xmlns:rdf="http://www.w3.org/1999/02/22-rdf-syntax-ns#"
   xmlns:svg="http://www.w3.org/2000/svg"
   xmlns="http://www.w3.org/2000/svg"
   xmlns:xlink="http://www.w3.org/1999/xlink"
   xmlns:sodipodi="http://sodipodi.sourceforge.net/DTD/sodipodi-0.dtd"
   xmlns:inkscape="http://www.inkscape.org/namespaces/inkscape"
   width="297mm"
   height="210mm"
   viewBox="0 0 297 210"
   version="1.1"
   id="svg8"
   sodipodi:docname="cam4.svg"
   inkscape:version="0.92.2 (5c3e80d, 2017-08-06)">
  <defs
     id="defs2">
    <linearGradient
       inkscape:collect="always"
       id="linearGradient1292">
      <stop
         style="stop-color:#000000;stop-opacity:1;"
         offset="0"
         id="stop1288" />
      <stop
         style="stop-color:#000000;stop-opacity:0;"
         offset="1"
         id="stop1290" />
    </linearGradient>
    <linearGradient
       inkscape:collect="always"
       xlink:href="#linearGradient1292"
       id="linearGradient1294"
       x1="100.19638"
       y1="215.04804"
       x2="298.51037"
       y2="215.04804"
       gradientUnits="userSpaceOnUse" />
  </defs>
  <sodipodi:namedview
     id="base"
     pagecolor="#ffffff"
     bordercolor="#666666"
     borderopacity="1.0"
     inkscape:pageopacity="0.0"
     inkscape:pageshadow="2"
     inkscape:zoom="1.1569609"
     inkscape:cx="545.9619"
     inkscape:cy="381.49442"
     inkscape:document-units="mm"
     inkscape:current-layer="layer1"
     showgrid="false"
     inkscape:window-width="1366"
     inkscape:window-height="705"
     inkscape:window-x="-8"
     inkscape:window-y="-8"
     inkscape:window-maximized="1" />
  <metadata
     id="metadata5">
    <rdf:RDF>
      <cc:Work
         rdf:about="">
        <dc:format>image/svg+xml</dc:format>
        <dc:type
           rdf:resource="http://purl.org/dc/dcmitype/StillImage" />
        <dc:title></dc:title>
      </cc:Work>
    </rdf:RDF>
  </metadata>
  <g
     inkscape:label="Capa 1"
     inkscape:groupmode="layer"
     id="layer1"
     transform="translate(0,-87)">
    <path
       style="opacity:1;fill:#ff0066;fill-opacity:1;fill-rule:nonzero;stroke:none;stroke-width:1.46500003;stroke-linecap:butt;stroke-linejoin:miter;stroke-miterlimit:4;stroke-dasharray:none;stroke-dashoffset:0;stroke-opacity:1;paint-order:stroke fill markers"
       d="M -0.5880778,87.68523 V 299.35184 H 298.09736 V 87.68523 Z M 147.60806,112.25078 c 9.57732,0 17.41326,0.0615 17.41324,0.13677 -2e-5,0.0753 -1.05204,0.67902 -2.33774,1.34155 -2.1442,1.10492 -3.35315,1.19693 -14.6096,1.1094 -6.74959,-0.0525 -13.20067,-0.20863 -14.33567,-0.34691 -1.97299,-0.24038 -3.54439,-1.06801 -3.54397,-1.86664 1.1e-4,-0.2058 7.83643,-0.37417 17.41374,-0.37417 z m -21.67419,0.67549 c 0.50759,-0.0101 1.37598,0.39984 2.84826,1.30539 4.80963,2.95827 8.10995,3.78212 16.52296,4.12579 8.93717,0.36508 12.20928,-0.20446 18.05603,-3.14269 3.29534,-1.65603 4.05919,-1.84698 4.62516,-1.15813 1.00082,1.21808 0.39435,1.77795 -3.73489,3.44768 -7.72773,3.12484 -16.01882,3.98928 -26.0882,2.7203 -2.71813,-0.34255 -5.57517,-1.23499 -8.34916,-2.60868 -4.24892,-2.10408 -5.20069,-3.06715 -4.37146,-4.4224 0.10463,-0.17101 0.26058,-0.26266 0.4913,-0.26726 z m -2.62464,2.67367 2.40933,1.74034 c 4.63609,3.34837 8.50315,4.28206 19.04178,4.599 9.03752,0.2718 9.84292,0.20222 15.05214,-1.30591 3.02708,-0.87639 6.65544,-2.24315 8.06278,-3.03683 l 2.55875,-1.44269 2.33204,1.20163 c 1.28274,0.66101 5.84224,2.42606 10.1323,3.92246 8.98761,3.13492 19.31412,7.84266 19.30428,8.80077 -0.004,0.36044 -0.78797,3.27254 -1.74267,6.47088 -2.61758,8.76921 -6.28467,25.87652 -7.70013,35.92155 -0.69314,4.91902 -1.79918,10.95599 -2.45759,13.4155 -1.73654,6.48688 -2.088,20.23074 -0.86433,33.79499 1.34917,14.95535 2.69108,35.55716 2.87523,44.13906 0.12646,5.89378 -0.0157,7.45348 -0.74812,8.19656 -1.23867,1.2565 -9.80386,3.05173 -19.87756,4.16666 -7.6397,0.84554 -37.72396,1.18476 -46.80573,0.52771 -11.97669,-0.86648 -20.95171,-2.55662 -23.1585,-4.3616 -1.16158,-0.95009 -1.24182,-1.52817 -1.12477,-8.11743 0.0693,-3.90192 0.93622,-17.5584 1.92633,-30.34783 2.01609,-26.04213 2.09829,-41.1102 0.25889,-47.40176 -0.52732,-1.80364 -1.74099,-7.16955 -2.69676,-11.92459 -2.229048,-11.08956 -5.69122,-22.63627 -9.83347,-32.79355 -1.805422,-4.42711 -3.319224,-8.58089 -3.363943,-9.23048 -0.114149,-1.65812 9.462764,-6.34177 22.517773,-11.01224 5.61172,-2.00761 11.0352,-4.16124 12.05241,-4.78608 z m 80.76941,15.14431 c 0.94763,0.0441 3.66691,2.39761 5.80545,5.13037 1.61611,2.06516 2.87631,4.77768 4.33048,9.32063 1.12809,3.52423 3.24833,9.22489 4.71181,12.6682 1.46348,3.44331 3.61462,8.5007 4.78029,11.23862 l 2.11932,4.97789 -3.98704,3.99897 c -2.19288,2.1993 -5.71384,4.95352 -7.82412,6.12081 -3.6844,2.03802 -15.79859,7.05309 -17.0371,7.05309 -0.32898,0 -1.32123,-2.24219 -2.20493,-4.98312 l -1.60674,-4.98364 1.29182,-9.10786 c 0.71037,-5.00938 2.09224,-12.76162 3.07082,-17.22686 1.718,-7.83915 5.69568,-23.14031 6.25941,-24.07871 0.0562,-0.0936 0.15516,-0.13469 0.29053,-0.12839 z m -119.307422,3.39737 c 0.04095,0.001 0.08007,0.008 0.117769,0.0209 1.052805,0.35448 6.662,14.50689 9.393517,23.70088 1.315286,4.42711 3.137051,11.75994 4.048252,16.29511 l 1.656548,8.24581 -1.422049,4.22274 c -0.782104,2.32268 -1.4894,4.27568 -1.571984,4.33959 -0.08259,0.0639 -2.275372,-0.73798 -4.872634,-1.78174 -5.942714,-2.3882 -9.17258,-4.06451 -13.281457,-6.89378 -3.955475,-2.72365 -10.267832,-8.25028 -10.498058,-9.19119 -0.09234,-0.37742 1.59026,-4.9662 3.739043,-10.19735 2.148783,-5.23115 4.959662,-12.63133 6.246434,-16.44498 2.368957,-7.02097 5.175047,-12.3585 6.444619,-12.31605 z m -17.358759,41.01262 c 0.187605,0 1.813728,1.3602 3.614008,3.02216 5.868203,5.41733 13.431822,9.9436 21.764469,13.02455 2.9967,1.10802 3.570881,1.53688 3.325552,2.48449 -0.368563,1.42361 -1.554982,1.41261 -7.135152,-0.0639 -8.077171,-2.13726 -17.443378,-7.65341 -21.512846,-12.66978 -1.963889,-2.42086 -2.031029,-2.64713 -1.236835,-4.17819 0.461857,-0.89039 0.9932,-1.6193 1.180804,-1.6193 z m 159.195371,1.25351 c 0.0199,-0.004 0.0339,-0.003 0.041,0.005 0.11327,0.12782 0.37446,0.78823 0.58055,1.46732 0.29841,0.98339 -0.49781,2.08166 -3.91129,5.39554 -5.02443,4.87782 -11.69811,8.61763 -18.52505,10.38129 -5.64206,1.45756 -7.46018,1.51303 -7.20155,0.21904 0.12075,-0.60407 2.79559,-1.9823 7.28146,-3.75109 9.05112,-3.5689 13.06513,-5.90843 17.78054,-10.364 1.95375,-1.84608 3.65587,-3.28542 3.95435,-3.35282 z"
       id="rect1277"
       inkscape:connector-curvature="0" />
    <path
       style="opacity:1;fill:#ff0000;fill-opacity:1;fill-rule:nonzero;stroke:none;stroke-width:1.46499991;stroke-linecap:butt;stroke-linejoin:miter;stroke-miterlimit:4;stroke-dasharray:none;stroke-dashoffset:0;stroke-opacity:1;paint-order:stroke fill markers"
       d="m 378.13446,349.95909 c -1.88051,-1.96358 -17.43234,-19.76775 -28.00162,-32.05705 l -3.43679,-3.99608 5.3194,-5.676 5.31939,-5.676 h 22.73601 22.73601 l 5.59521,5.6122 5.5952,5.61219 -2.3435,2.74388 c -3.90156,4.56814 -31.1586,35.70561 -31.25588,35.70561 -0.0498,0 -1.0684,-1.02094 -2.26343,-2.26875 z m 10.41214,-10.93342 c 0.68399,-0.89675 1.14388,-1.7302 1.02198,-1.8521 -0.1219,-0.1219 -2.46242,-0.0151 -5.20116,0.23737 -2.85951,0.26359 -6.60634,0.29101 -8.8006,0.0644 -2.10158,-0.21702 -3.98616,-0.30289 -4.18794,-0.19083 -0.53632,0.29785 1.11464,2.44878 5.27006,6.86601 l 3.6737,3.90517 3.49017,-3.69979 c 1.9196,-2.03488 4.04981,-4.43349 4.73379,-5.33025 z m 1.92003,-5.65966 c 2.99077,-0.89501 4.69529,-2.70321 3.91776,-4.15606 -0.86647,-1.619 -3.39382,-2.24272 -11.23602,-2.7729 -10.66857,-0.72127 -19.6765,-1.44815 -21.8672,-1.76455 l -1.86718,-0.26967 1.00385,1.37463 c 0.55211,0.75604 2.17543,2.66424 3.60738,4.24043 l 2.60353,2.8658 1.28417,-1.19408 c 2.29204,-2.13127 7.78817,-1.1284 10.5197,1.91952 0.8953,0.99899 1.22516,1.04813 5.25397,0.78268 2.36429,-0.15579 5.4153,-0.61739 6.78004,-1.0258 z m 12.67571,-10.87085 c 1.63536,-1.75061 6.03719,-6.85067 7.00568,-8.11694 0.56584,-0.7398 0.22072,-1.26093 -3.08408,-4.65692 -2.04667,-2.10315 -4.00635,-3.8239 -4.35484,-3.8239 -0.4736,0 -0.63362,0.96498 -0.63362,3.82107 v 3.82106 l -4.89574,-0.0113 -4.89575,-0.0112 -1.0274,-2.33967 c -1.29929,-2.95883 -4.05869,-5.02787 -7.72433,-5.79182 -3.78096,-0.78799 -10.41735,-0.29919 -13.30991,0.98033 -4.24109,1.87603 -5.4934,3.9326 -4.23242,6.95056 1.23637,2.95904 3.42742,3.55669 14.875,4.05744 12.23476,0.53518 14.72744,1.13575 17.83042,4.2959 1.20232,1.22448 2.36849,2.26039 2.59146,2.30202 0.22297,0.0416 1.05796,-0.62285 1.85553,-1.47662 z m -46.91967,-3.85379 c 0,-0.60906 0.32711,-2.20891 0.72692,-3.55522 0.79718,-2.68439 4.31135,-6.95424 7.18533,-8.73046 0.9055,-0.55964 1.52488,-1.2141 1.37639,-1.45436 -0.14849,-0.24026 -1.77237,-0.43683 -3.60863,-0.43683 h -3.33864 l -4.1559,4.35523 c -2.28574,2.39539 -4.21976,4.5214 -4.29782,4.72449 -0.2322,0.60409 4.65405,6.20455 5.41331,6.20455 0.41262,0 0.69904,-0.45373 0.69904,-1.1074 z m 40.65049,-11.07776 c 0.52425,-1.18517 0.82189,-2.36732 0.6614,-2.62699 -0.31932,-0.51668 -5.61955,-0.66038 -6.11416,-0.16577 -0.3652,0.3652 3.37618,4.94762 4.03955,4.94762 0.253,0 0.88895,-0.96969 1.41321,-2.15486 z"
       id="path934"
       inkscape:connector-curvature="0" />
    <path
       style="fill:url(#linearGradient1294);fill-opacity:1;stroke:none;stroke-width:0.26458332px;stroke-linecap:butt;stroke-linejoin:miter;stroke-opacity:1"
       d="m 204.07864,130.74425 v 0 l 94.43173,49.01352 -0.41301,119.59407 c -65.96699,-9.51475 -172.12094,-7.9779 -196.79855,-27.12684 14.85649,9.90547 92.15619,2.49939 89.11588,0.2456 5.31067,2.95563 -0.83151,-36.8634 -1.24726,-55.2951 l -0.41575,-20.78763 c 4.38743,-29.17413 6.01965,-20.5935 4.41438,-15.1018 1.54521,4.74231 3.09042,10.23425 4.63562,14.21987 6.05568,-1.2345 12.55232,-3.74874 18.608,-6.06408 3.12537,-4.43494 12.8747,-7.87257 10.19816,-13.03383 -9.29348,-20.76434 -14.30446,-44.02875 -22.5292,-45.66378 z"
       id="path1286"
       inkscape:connector-curvature="0"
       sodipodi:nodetypes="ccccccccccccc" />
    <path
       style="fill:#000000;stroke-width:1"
       d="m 164.35919,265.54061 c -0.38525,-0.13316 -0.69723,-0.37686 -0.96131,-0.75087 -0.29326,-0.41533 -0.46024,-0.88009 -0.5215,-1.45158 -0.0521,-0.48913 0.0427,-1.13521 0.22867,-1.55691 0.34222,-0.77503 0.92861,-1.24597 1.64709,-1.32281 0.33874,-0.0363 0.81577,0.10613 1.0878,0.32462 0.0687,0.0554 0.13242,0.0915 0.14103,0.0802 0.009,-0.0113 0.016,-0.0949 0.016,-0.18572 v -0.16529 h 0.47159 0.47159 v 2.49644 2.49644 h -0.47159 -0.47159 v -0.15674 c 0,-0.0863 -0.009,-0.15161 -0.0196,-0.14534 -0.0109,0.006 -0.1095,0.0692 -0.21934,0.13991 -0.29985,0.19297 -0.54999,0.26512 -0.91145,0.26288 -0.2082,-10e-4 -0.36131,-0.0217 -0.48707,-0.0652 z m 0.98406,-1.23805 c 0.4593,-0.28759 0.70887,-0.88418 0.62694,-1.49853 -0.0513,-0.38251 -0.24864,-0.76749 -0.50197,-0.9781 -0.307,-0.25519 -0.7365,-0.29076 -1.05325,-0.0873 -0.47305,0.30399 -0.73051,0.9864 -0.60814,1.61206 0.0774,0.39607 0.25319,0.69686 0.53343,0.91286 0.17248,0.13297 0.33462,0.1802 0.58384,0.17008 0.19525,-0.008 0.24949,-0.0248 0.41923,-0.13115 z m 3.41748,1.23805 c -0.24733,-0.0854 -0.40715,-0.17935 -0.61978,-0.36353 -0.37388,-0.32426 -0.68631,-0.88901 -0.81228,-1.46729 -0.0767,-0.35245 -0.0831,-0.97829 -0.0145,-1.31553 0.14609,-0.70737 0.51347,-1.30096 1.01877,-1.64419 0.29867,-0.20285 0.54745,-0.27904 0.92453,-0.28331 0.36882,-0.004 0.61326,0.0705 0.92235,0.28209 0.10414,0.0714 0.19599,0.1218 0.20395,0.11194 0.007,-0.01 0.0145,-0.47701 0.0145,-1.03815 v -1.02023 h 0.47152 0.47152 v 3.35138 3.35139 h -0.47152 -0.47152 v -0.1311 c 0,-0.072 -0.007,-0.14014 -0.0145,-0.15121 -0.007,-0.0111 -0.10921,0.0411 -0.22419,0.11593 -0.30592,0.19907 -0.54529,0.26935 -0.91072,0.26709 -0.20828,-10e-4 -0.3616,-0.0217 -0.48671,-0.0652 z m 0.96351,-1.22374 c 0.20973,-0.12804 0.42813,-0.38651 0.52649,-0.62277 0.15331,-0.36865 0.16633,-0.86918 0.0289,-1.2542 -0.0919,-0.26173 -0.31965,-0.56084 -0.53372,-0.70101 -0.16778,-0.10991 -0.18876,-0.11516 -0.46429,-0.11516 -0.27192,0 -0.29868,0.006 -0.45851,0.10969 -0.22491,0.14528 -0.35291,0.28916 -0.47152,0.52863 -0.39341,0.79465 -0.10703,1.81604 0.59447,2.11744 0.23793,0.10226 0.54674,0.0773 0.77605,-0.0626 z m 4.93717,1.23936 c -0.4397,-0.14489 -0.8823,-0.53267 -1.13231,-0.99149 -0.27119,-0.49834 -0.37968,-0.93758 -0.37968,-1.5389 0,-0.74717 0.16273,-1.25533 0.57639,-1.79623 0.16489,-0.21547 0.30446,-0.36375 0.41294,-0.43811 0.42235,-0.28953 0.89207,-0.39787 1.31709,-0.30365 0.25673,0.057 0.58578,0.21037 0.71161,0.3318 0.0361,0.0379 0.0773,0.0688 0.0853,0.0688 0.007,0 0.0145,-0.46937 0.0145,-1.04303 v -1.04304 h 0.47152 0.47153 v 3.35138 3.35139 h -0.47153 -0.47152 v -0.15674 c 0,-0.0863 -0.007,-0.1515 -0.0217,-0.14509 -0.007,0.006 -0.0911,0.0601 -0.1779,0.11928 -0.31025,0.21129 -0.4614,0.25806 -0.8768,0.27137 -0.27337,0.009 -0.42235,-0.002 -0.53155,-0.0378 z m 0.81338,-1.17444 c 0.42668,-0.17329 0.73721,-0.66228 0.78285,-1.23228 0.0434,-0.55888 -0.22203,-1.14638 -0.64219,-1.41474 -0.16273,-0.10379 -0.19165,-0.11104 -0.44911,-0.11104 -0.25457,0 -0.28783,0.008 -0.45127,0.10892 -0.24227,0.14972 -0.41078,0.36526 -0.53444,0.6836 -0.0984,0.25224 -0.10197,0.27331 -0.10197,0.60644 0,0.31654 0.007,0.36405 0.0831,0.57355 0.24227,0.66834 0.79189,0.99709 1.31259,0.78555 z m 3.63309,1.1909 c -0.18224,-0.0472 -0.5272,-0.23689 -0.69137,-0.37967 -0.24588,-0.21459 -0.5489,-0.66028 -0.67473,-0.99389 -0.15043,-0.39725 -0.19309,-0.60573 -0.20973,-1.02097 -0.0289,-0.79277 0.17718,-1.48495 0.60748,-2.01009 0.31097,-0.3796 0.70077,-0.61685 1.14135,-0.69422 0.38617,-0.0678 0.9081,0.0651 1.20686,0.30763 0.0651,0.0555 0.1309,0.0921 0.13957,0.0811 0.007,-0.0109 0.0145,-0.0942 0.0145,-0.18503 v -0.16529 h 0.47152 0.47152 v 2.49644 2.49644 h -0.47152 -0.47152 v -0.15674 c 0,-0.0863 -0.007,-0.15149 -0.0217,-0.14506 -0.007,0.006 -0.10414,0.0686 -0.20683,0.13819 -0.28567,0.19324 -0.53806,0.26691 -0.89858,0.26246 -0.16633,-0.002 -0.35074,-0.0162 -0.40932,-0.0314 z m 0.89112,-1.25857 c 0.44116,-0.26957 0.70366,-0.90761 0.61906,-1.50596 -0.0962,-0.68144 -0.499,-1.16006 -1.00589,-1.19432 -0.26758,-0.018 -0.45562,0.0481 -0.67185,0.2364 -0.17429,0.15208 -0.28204,0.31239 -0.37967,0.56709 -0.29145,0.75727 0.004,1.66097 0.63713,1.951 0.25094,0.11473 0.5583,0.094 0.80093,-0.0542 z m 3.13779,1.23969 c -0.47659,-0.13623 -0.86899,-0.49595 -1.05029,-0.96269 -0.0651,-0.16747 -0.1432,-0.57842 -0.12367,-0.64668 0.0145,-0.037 0.11354,-0.0466 0.49683,-0.0466 h 0.4831 l 0.0289,0.17494 c 0.0651,0.37183 0.36233,0.61161 0.75046,0.61161 0.24951,0 0.37389,-0.048 0.50624,-0.19557 0.13596,-0.15178 0.1779,-0.32334 0.12294,-0.49657 -0.0651,-0.2007 -0.20177,-0.26895 -0.77744,-0.3869 -0.88829,-0.18186 -1.22118,-0.39846 -1.4155,-0.92117 -0.31748,-0.85416 0.0289,-1.75459 0.80593,-2.10601 0.50406,-0.22731 1.27773,-0.12688 1.69234,0.21964 0.15621,0.13033 0.39053,0.453 0.4614,0.63376 0.0579,0.15354 0.13307,0.46858 0.13307,0.5745 v 0.0792 h -0.47008 c -0.51636,0 -0.4708,0.0197 -0.51202,-0.22019 -0.0579,-0.35164 -0.41873,-0.53259 -0.85221,-0.43062 -0.26252,0.0617 -0.3927,0.20743 -0.3927,0.43963 0,0.27128 0.21769,0.40203 0.91701,0.55035 0.61616,0.13071 0.92121,0.28514 1.16992,0.59218 0.18368,0.22714 0.27553,0.47927 0.29144,0.80401 0.0434,0.89885 -0.36232,1.52177 -1.13541,1.73546 -0.23287,0.0643 -0.90435,0.063 -1.13288,-0.002 z m -11.32382,-2.54507 v -2.49644 h 0.47152 0.47152 v 2.49644 2.49644 h -0.47152 -0.47152 z m 12.82473,-2.84532 c -0.0434,-0.0195 -0.1186,-0.0838 -0.16706,-0.14265 -0.21984,-0.26587 -0.21695,-0.68034 0.005,-0.93532 0.31675,-0.36278 0.80332,-0.0812 0.80332,0.46461 0,0.26408 -0.0875,0.44882 -0.26686,0.56566 -0.14392,0.0937 -0.24589,0.10656 -0.37534,0.0477 z m 0.41512,-0.17466 c 0.11137,-0.11068 0.18803,-0.34814 0.16416,-0.50947 -0.0506,-0.36841 -0.35436,-0.57392 -0.60893,-0.41606 -0.30807,0.19064 -0.31024,0.77982 -0.004,0.9836 0.12656,0.0843 0.33267,0.0578 0.4491,-0.0581 z m -0.10703,-0.0832 c -0.0145,-0.008 -0.0361,-0.0488 -0.0361,-0.0906 0,-0.11656 -0.0579,-0.19995 -0.13234,-0.18646 -0.0506,0.01 -0.0651,0.0337 -0.0724,0.14004 -0.005,0.0838 -0.0217,0.12824 -0.0434,0.12824 -0.0289,0 -0.0361,-0.0671 -0.0361,-0.34197 v -0.34199 h 0.1403 c 0.1027,0 0.15187,0.0168 0.1837,0.0626 0.0506,0.0692 0.0579,0.16746 0.0217,0.24409 -0.0145,0.0314 -0.0145,0.0656 0.002,0.0916 0.0361,0.0597 0.0217,0.31275 -0.0217,0.29457 z m -0.0724,-0.43254 c 0.0434,-0.0405 0.0434,-0.0559 0.0145,-0.1026 -0.0217,-0.0302 -0.0724,-0.055 -0.11064,-0.055 -0.0651,0 -0.0752,0.0147 -0.0752,0.0797 0,0.0439 0.007,0.0901 0.0145,0.10259 0.0289,0.0375 0.10053,0.0259 0.15333,-0.0247 z m -13.06108,-0.0471 v -0.60759 l -0.25239,-0.56368 c -0.13885,-0.31004 -0.33701,-0.75605 -0.44115,-0.99116 -0.10414,-0.23512 -0.40499,-0.91223 -0.66823,-1.5047 -0.26324,-0.59248 -0.55758,-1.2542 -0.65377,-1.47051 -0.0962,-0.2163 -0.27264,-0.61226 -0.39197,-0.8799 -0.11932,-0.26764 -0.21261,-0.50343 -0.20755,-0.52399 0.005,-0.0205 0.17429,-0.16129 0.37534,-0.31275 0.90319,-0.67923 1.44009,-1.0835 2.14209,-1.61305 0.41511,-0.31287 0.76384,-0.56887 0.77563,-0.56887 0.0145,0 0.12583,0.23468 0.25239,0.52152 0.12728,0.28684 0.31314,0.70618 0.41366,0.93189 0.0998,0.22572 0.3146,0.71047 0.47659,1.07724 0.39992,0.90544 1.08696,2.4557 1.49354,3.36848 0.18442,0.4138 0.45055,1.01397 0.59085,1.33371 0.14029,0.31976 0.30953,0.70411 0.37606,0.85412 0.0651,0.15001 0.12004,0.28467 0.12004,0.29924 0,0.0146 -0.77815,0.0265 -1.72915,0.0265 h -1.72917 v 0.61557 0.61555 h -0.47152 -0.47153 z m -6.21851,-1.34059 c -0.17082,-0.3934 -0.30967,-0.7277 -0.30867,-0.74291 8.2e-4,-0.0152 0.27634,-0.2332 0.61183,-0.48444 0.33549,-0.25125 1.02852,-0.77334 1.54003,-1.16022 1.16326,-0.87979 1.15371,-0.87273 1.16442,-0.85768 0.0217,0.0331 1.74376,3.92296 1.74376,3.9434 0,0.0104 -0.99923,0.0185 -2.22042,0.018 l -2.22045,-8.9e-4 -0.31054,-0.71528 z m 11.86064,0.34936 c -0.089,-0.20216 -0.29361,-0.66765 -0.4556,-1.03441 -0.162,-0.36677 -0.47442,-1.07466 -0.69427,-1.5731 -1.17475,-2.66283 -2.66063,-6.02797 -2.76332,-6.25821 -0.58578,-1.31362 -0.55975,-1.2476 -0.51709,-1.29164 0.0145,-0.0182 0.36811,-0.28382 0.77874,-0.5901 0.41077,-0.30628 1.13483,-0.84688 1.60925,-1.20135 0.47441,-0.35445 0.876,-0.64446 0.89249,-0.64446 0.0145,0 0.0579,0.0653 0.0918,0.14534 0.0361,0.0799 0.18153,0.41465 0.32761,0.7438 0.14681,0.32915 0.4303,0.96779 0.62991,1.41922 0.1996,0.4514 0.418,0.94385 0.48453,1.09433 0.30447,0.68679 0.66028,1.48712 0.91079,2.05186 0.15042,0.33855 0.3616,0.81561 0.47008,1.06012 0.50045,1.1314 1.29408,2.91969 1.49519,3.36849 0.12222,0.27274 0.31315,0.70363 0.42524,0.95755 0.11137,0.25392 0.36304,0.82238 0.55903,1.26327 0.19599,0.44088 0.35654,0.81407 0.35654,0.8293 0,0.0152 -0.99917,0.0277 -2.22042,0.0275 l -2.22042,-6e-5 -0.16128,-0.36755 z"
       id="path1307"
       inkscape:connector-curvature="0" />
    <path
       style="fill:#000000;stroke-width:1"
       d="m 122.12251,213.0394 c -2.36543,-0.53463 -4.18259,-3.02467 -4.18259,-5.73136 0,-2.70349 1.76372,-5.13041 4.13943,-5.69591 1.15781,-0.27562 2.85695,0.0192 3.77048,0.6543 l 0.27547,0.1914 0.0266,-0.41736 0.0266,-0.41733 1.18667,-0.027 1.18662,-0.027 v 5.63906 5.63907 h -1.20822 -1.20821 v -0.33237 -0.33237 l -0.50464,0.28397 c -1.02417,0.5763 -2.45778,0.81043 -3.5083,0.57299 z m 2.30445,-2.83888 c 0.58737,-0.30281 1.10434,-0.86666 1.42386,-1.55297 0.20628,-0.44301 0.23921,-0.62687 0.2402,-1.33951 0.001,-0.72444 -0.03,-0.89591 -0.2545,-1.39447 -0.66626,-1.48066 -2.208,-2.19962 -3.5846,-1.67159 -0.65813,0.25246 -1.45304,1.1476 -1.71198,1.92786 -0.56981,1.71727 0.26416,3.63455 1.83249,4.21308 0.5399,0.19915 1.4755,0.11608 2.05453,-0.1824 z m 8.88884,2.74169 c -0.94386,-0.27844 -1.61341,-0.71966 -2.35133,-1.54943 -2.0298,-2.28251 -2.08682,-5.71821 -0.1334,-8.0436 0.63584,-0.75696 1.23988,-1.19691 2.13646,-1.55606 0.53908,-0.21593 0.78027,-0.25409 1.62545,-0.25723 1.0934,-0.004 1.64498,0.13416 2.51977,0.63142 l 0.50073,0.28464 v -2.33368 -2.33366 h 1.25137 1.25137 v 7.53129 7.53128 h -1.25137 -1.25137 v -0.34152 -0.34152 l -0.52697,0.29955 c -1.16172,0.66034 -2.55495,0.83716 -3.77065,0.47852 z m 2.61648,-2.74181 c 0.53358,-0.30688 1.20033,-1.09331 1.44566,-1.70511 0.13407,-0.33394 0.18465,-0.65759 0.18697,-1.19189 0.003,-0.63503 -0.0346,-0.81949 -0.27712,-1.37433 -0.82523,-1.88756 -2.77,-2.43822 -4.30455,-1.21881 -1.06698,0.8479 -1.4772,2.50786 -0.94426,3.82114 0.36081,0.88909 0.94164,1.48474 1.78401,1.82967 0.57071,0.23367 1.55378,0.15879 2.10926,-0.16067 z m 13.02967,2.839 c -1.00949,-0.22817 -2.07249,-0.91195 -2.78782,-1.79324 -0.54575,-0.67243 -0.81637,-1.19835 -1.10684,-2.15101 -0.47672,-1.56361 -0.24686,-3.55619 0.57287,-4.96274 0.64114,-1.10025 1.53581,-1.8772 2.69799,-2.34288 0.52896,-0.21195 0.77471,-0.25053 1.61626,-0.25364 1.08366,-0.004 1.67343,0.14138 2.45586,0.60544 0.23954,0.14196 0.46431,0.27294 0.4999,0.29107 0.0356,0.0181 0.0649,-1.02022 0.0649,-2.30743 v -2.34036 h 1.20822 1.20818 v 7.53129 7.53128 h -1.20818 -1.20822 v -0.29153 c 0,-0.35525 -0.0595,-0.35934 -0.61526,-0.0422 -0.93657,0.53441 -2.3751,0.75711 -3.39771,0.52598 z m 2.21942,-2.79338 c 0.60533,-0.30222 1.2124,-0.99178 1.493,-1.69589 0.72238,-1.8125 -0.23422,-3.89653 -2.02315,-4.40767 -0.44476,-0.12708 -0.64457,-0.13809 -1.00934,-0.0555 -0.96505,0.21824 -1.82064,0.96669 -2.21861,1.9408 -0.28645,0.70103 -0.26449,1.93586 0.0462,2.60272 0.41993,0.90096 0.91798,1.39178 1.78086,1.755 0.44132,0.18577 1.42124,0.11503 1.93082,-0.13937 z m 9.01973,2.74715 c -1.8303,-0.52309 -3.28085,-2.10988 -3.82467,-4.18395 -0.20295,-0.77431 -0.20295,-2.22749 3.2e-4,-3.00743 0.42037,-1.61324 1.3795,-2.92997 2.64657,-3.63331 1.5815,-0.87786 3.27588,-0.89821 4.7607,-0.0572 l 0.58254,0.32996 v -0.43603 -0.43604 l 1.22978,0.027 1.22977,0.027 0.0233,5.61203 0.0233,5.61202 h -1.25207 -1.25207 v -0.34177 -0.34175 l -0.45113,0.25742 c -0.85299,0.48673 -1.36025,0.63507 -2.31046,0.67565 -0.61549,0.0263 -1.06579,-0.007 -1.40387,-0.1035 z m 2.1126,-2.61075 c 0.92925,-0.31492 1.66661,-1.22674 1.92891,-2.38535 0.1188,-0.52508 0.12469,-0.71542 0.038,-1.21233 -0.45799,-2.62127 -2.98734,-3.61055 -4.67812,-1.82968 -0.58758,0.6189 -0.86232,1.25476 -0.91166,2.11004 -0.0476,0.82692 0.0662,1.33952 0.43414,1.95618 0.7129,1.1944 2.02635,1.75505 3.18871,1.36114 z m 8.91377,2.68851 c -1.8212,-0.27199 -3.23392,-1.64727 -3.38497,-3.29527 l -0.0479,-0.52406 h 1.30657 1.30659 v 0.24777 c 0,0.30891 0.17998,0.70674 0.44604,0.98661 0.33615,0.3534 0.82595,0.5285 1.50046,0.53636 0.79973,0.009 1.37699,-0.2793 1.63227,-0.81615 0.33572,-0.70603 -0.1054,-1.24239 -1.18546,-1.44112 -2.57795,-0.47439 -3.25988,-0.71432 -3.89856,-1.37161 -1.48927,-1.53266 -1.05467,-4.28086 0.84318,-5.33173 1.39617,-0.77307 3.41393,-0.74546 4.83736,0.0662 0.84657,0.48272 1.6,1.62323 1.74448,2.64072 l 0.0569,0.40147 h -1.25137 -1.25136 l -0.0565,-0.39899 c -0.11543,-0.8137 -0.93241,-1.26007 -2.02651,-1.10737 -0.7147,0.0997 -1.02069,0.27454 -1.19306,0.68152 -0.32836,0.77555 0.23721,1.1795 2.17543,1.55388 1.90505,0.36794 2.51878,0.62215 3.19405,1.32303 0.67307,0.69863 0.93856,1.73519 0.73242,2.85975 -0.1404,0.76508 -0.36087,1.23334 -0.82987,1.76146 -0.73416,0.8267 -2.08321,1.30809 -3.58921,1.28074 -0.44106,-0.008 -0.91841,-0.032 -1.0608,-0.0532 z m -29.90314,-5.86006 v -5.63633 h 1.20822 1.20822 v 5.63633 5.63631 h -1.20822 -1.20822 z m 0,-8.01718 v -1.40908 h 1.20822 1.20822 v 1.40908 1.40908 h -1.20822 -1.20822 z m 33.25168,1.20693 c -0.65331,-0.36413 -0.89315,-1.32341 -0.49987,-1.99928 0.25185,-0.43302 0.63941,-0.63174 1.14889,-0.58928 0.38919,0.0324 0.50657,0.0915 0.76909,0.38717 0.2625,0.29565 0.31507,0.42782 0.34385,0.86603 0.0432,0.65808 -0.17466,1.08349 -0.68938,1.34667 -0.46617,0.2383 -0.62783,0.23659 -1.07258,-0.0113 z m 1.19761,-0.29746 c 0.12709,-0.10117 0.27647,-0.33908 0.33202,-0.52873 0.30541,-1.04199 -0.61262,-1.94862 -1.46848,-1.45025 -0.36456,0.2123 -0.51874,0.51824 -0.51874,1.02943 0,1.01466 0.91415,1.53913 1.65506,0.94955 z m -1.05099,-0.95807 v -0.77742 h 0.26449 c 0.40563,0 0.59843,0.15865 0.59843,0.49237 0,0.16699 -0.0543,0.31461 -0.12743,0.34617 -0.11217,0.0485 -0.11217,0.0879 0,0.33225 0.14972,0.32597 0.15636,0.38405 0.0432,0.38405 -0.0462,0 -0.14438,-0.13118 -0.21791,-0.29153 -0.0736,-0.16034 -0.1913,-0.29153 -0.26117,-0.29153 -0.0838,0 -0.12709,0.0994 -0.12709,0.29153 0,0.16035 -0.039,0.29153 -0.0861,0.29153 -0.0503,0 -0.0862,-0.32392 -0.0862,-0.77742 z m 0.64726,-0.29153 c 0,-0.19279 -0.0489,-0.2493 -0.23721,-0.27369 -0.21426,-0.0278 -0.23721,-0.001 -0.23721,0.27369 0,0.2748 0.0233,0.30145 0.23721,0.2737 0.18831,-0.0244 0.23721,-0.0808 0.23721,-0.2737 z m -28.52458,-5.00043 c -0.86425,-1.1328 -1.51821,-2.17416 -2.33688,-3.72116 -0.37475,-0.70812 -0.68136,-1.30941 -0.68136,-1.3362 0,-0.0268 1.65466,-0.0487 3.67701,-0.0487 3.46636,0 3.67369,0.01 3.61926,0.17006 -0.0333,0.0935 -0.34869,0.71939 -0.70428,1.39079 -0.7294,1.37715 -1.75444,2.97099 -2.45675,3.82006 l -0.47197,0.5706 z m -4.14015,0.36366 c -0.81537,-0.10339 -2.57879,-0.5694 -3.66431,-0.96833 -2.28681,-0.84039 -4.37351,-1.98697 -6.54072,-3.59397 -0.6052,-0.44874 -1.10035,-0.83649 -1.10035,-0.86166 0,-0.0252 2.6557,-0.0458 5.90154,-0.0458 h 5.90152 l 0.0569,0.26724 c 0.03,0.14698 0.0798,1.39328 0.10816,2.76956 l 0.0513,2.50234 -0.20593,-0.0155 c -0.11316,-0.009 -0.34171,-0.0328 -0.50786,-0.0539 z m 8.85368,-0.0134 c -0.0709,-0.12925 0.0971,-3.72952 0.21559,-4.61404 0.0559,-0.41865 0.14505,-0.77981 0.19828,-0.80259 0.0529,-0.0228 2.69829,-0.0301 5.87846,-0.0162 l 5.78213,0.0252 -0.69041,0.54719 c -2.22636,1.7645 -5.06204,3.31056 -7.55241,4.11771 -1.53868,0.4987 -3.73196,0.92394 -3.83138,0.74282 z m -23.49158,-8.09535 c -0.34276,-0.28856 -1.93179,-2.05307 -1.93179,-2.14517 0,-0.0411 9.61169,-0.0747 21.35936,-0.0747 15.31635,0 21.35939,0.0299 21.35939,0.10561 0,0.19626 -1.05125,1.33997 -1.68529,1.83354 l -0.6299,0.49032 h -19.1114 -19.11138 z m -4.50631,-5.79117 c -0.32871,-0.52111 -0.66147,-1.08961 -0.73968,-1.26331 l -0.14239,-0.31583 h 24.86496 24.86497 l -0.23755,0.46159 c -0.35302,0.68589 -0.72508,1.28325 -1.05691,1.69682 l -0.29543,0.36822 h -23.33034 -23.33035 z m -2.34627,-4.76172 c -1.38145,-3.27337 -2.30355,-6.50505 -2.73016,-9.56847 -0.14073,-1.01163 -0.21492,-4.27166 -0.10013,-4.40215 0.0835,-0.0947 1.39929,0.11157 2.57296,0.40327 4.79384,1.19145 10.09877,4.54938 13.91783,8.80973 1.25925,1.40478 3.33196,4.25395 3.73827,5.13872 l 0.12609,0.27485 h -8.62413 -8.62411 z m 18.8709,0.5121 c -0.14871,-0.43598 -0.24785,-2.9229 -0.19996,-5.00657 0.0559,-2.42464 0.23755,-4.31329 0.61779,-6.41374 1.05511,-5.83019 3.41445,-11.59334 6.11987,-14.94892 0.90159,-1.11826 0.85189,-1.09859 1.36102,-0.53846 1.36372,1.50029 3.1081,4.52626 4.22236,7.32443 1.78747,4.48874 2.79055,9.19955 2.97962,13.99362 0.0503,1.27498 -0.0705,4.6201 -0.19596,5.41766 l -0.0495,0.31583 h -7.403 c -6.45722,0 -7.40929,-0.0183 -7.45203,-0.14385 z m 16.37515,-0.01 c 0.13574,-0.39868 1.21823,-2.0359 2.16787,-3.2792 2.69744,-3.53153 5.7371,-6.18567 9.54649,-8.33571 2.71452,-1.53211 5.7016,-2.59586 8.03625,-2.86186 l 0.58252,-0.0664 -4.4e-4,1.54187 c -0.001,3.63474 -0.9363,7.69056 -2.80568,12.16576 l -0.41304,0.98887 h -8.58311 c -7.783,0 -8.57827,-0.0143 -8.53086,-0.15337 z"
       id="path1383"
       inkscape:connector-curvature="0" />
    <path
       style="opacity:1;fill:#ffffff;fill-opacity:1;fill-rule:nonzero;stroke:none;stroke-width:5.53700781;stroke-linecap:butt;stroke-linejoin:miter;stroke-miterlimit:4;stroke-dasharray:none;stroke-dashoffset:0;stroke-opacity:1;paint-order:stroke fill markers"
       d="m 476.01239,716.75762 c -40.28566,-2.77156 -76.38493,-8.98127 -87.29768,-15.01679 l -6.91467,-3.82428 0.21864,-32.79438 c 0.12025,-18.0369 2.32148,-61.18772 4.89163,-95.89071 5.50945,-74.3905 7.37164,-123.07533 5.98398,-156.44435 -0.87333,-21.00092 -2.32041,-30.03066 -10.9427,-68.28235 -14.96902,-66.40814 -21.82633,-89.52034 -42.43848,-143.03673 -5.94843,-15.44421 -10.39129,-29.1854 -9.87302,-30.53598 2.385,-6.21522 37.23777,-22.74862 85.86896,-40.73437 15.68765,-5.80192 33.67508,-12.92319 39.97207,-15.82505 l 11.44908,-5.2761 8.44047,6.06388 c 18.04478,12.96388 35.39039,16.60064 81.88906,17.16922 29.99076,0.36673 30.40784,0.32018 48.35792,-5.39716 9.95843,-3.1719 22.70695,-8.08952 28.33005,-10.92806 l 10.22382,-5.16096 11.42929,5.24748 c 6.28609,2.88612 19.98617,8.31579 30.4446,12.06594 40.13308,14.39077 74.75638,29.94949 76.44603,34.35264 0.50202,1.30828 -2.25576,13.81564 -6.12842,27.79413 -11.35798,40.99702 -20.74523,85.23021 -28.79124,135.66575 -2.3931,15.00086 -5.83003,34.05941 -7.63765,42.35234 -6.44879,29.58567 -7.68811,47.27294 -6.50629,92.85614 1.03183,39.79671 3.88326,84.25173 8.0396,125.34026 3.18982,31.53365 5.93306,101.1849 4.22042,107.15655 -1.30599,4.5537 -3.06517,6.22719 -8.54288,8.12667 -15.37729,5.33233 -60.86014,10.76688 -120.12591,14.35333 -25.79067,1.56072 -101.59477,1.93842 -121.00668,0.60294 z m 154.71568,-42.76518 c 1.90154,-0.52913 4.44192,-0.34293 5.64528,0.41377 1.20337,0.75669 6.25972,0.8341 11.23633,0.17201 4.97663,-0.66208 10.14985,-0.61238 11.49605,0.11046 1.34622,0.72284 4.75166,0.65347 7.56764,-0.1542 2.97661,-0.85367 6.38244,-0.79273 8.13571,0.14555 1.75327,0.93832 5.1591,0.99926 8.13571,0.14556 2.96287,-0.84975 6.32362,-0.79479 7.9769,0.13034 1.80716,1.01134 4.11737,0.92423 6.2873,-0.23707 2.9694,-1.58918 3.36359,-3.34312 2.93341,-13.05216 -0.27334,-6.16894 -1.22328,-11.01545 -2.11098,-10.77003 -0.88771,0.24544 -1.50596,1.41862 -1.37391,2.60707 0.25806,2.32245 -3.027,2.8396 -14.31321,2.25323 -3.93714,-0.20455 -7.67806,0.46889 -8.31317,1.49651 -2.11676,3.42497 -4.40802,1.92594 -4.4104,-2.8854 -0.002,-4.68192 0.14158,-4.74488 9.50767,-4.16168 5.23051,0.32568 9.51001,0.15523 9.51001,-0.37884 0,-1.1771 -20.78422,-48.33249 -21.72839,-49.29753 -1.26281,-1.29071 -12.82133,7.5996 -12.83314,9.87068 -0.007,1.25097 0.82912,3.84577 1.85692,5.76623 2.3031,4.30338 0.83367,6.15575 -2.61362,3.29475 -2.08182,-1.72775 -3.67871,-1.26671 -8.59148,2.48042 -5.28237,4.02907 -5.8306,5.13855 -4.39932,8.90308 2.22051,5.84037 2.11302,6.18875 -1.55068,5.02593 -1.89993,-0.60301 -5.21406,0.52636 -8.21117,2.79817 -2.764,2.09509 -5.29096,3.99485 -5.61547,4.22167 -0.32449,0.22681 -0.0776,2.02682 0.54866,4.00001 0.94972,2.99225 2.55368,3.58761 9.66552,3.58761 6.42697,0 8.52684,0.63857 8.52684,2.593 0,2.73062 -3.87222,3.35147 -16.72009,2.68083 -6.03346,-0.31495 -7.68167,0.3397 -10.08319,4.00487 -4.35731,6.65008 0.9085,17.81526 7.53792,15.98281 1.56367,-0.43222 4.39882,-1.21877 6.30035,-1.74788 z M 479.90189,475.81454 c 6.45578,0.2081 6.4825,0.18018 6.4825,-6.77573 0,-8.26925 2.33808,-8.97742 6.0352,-1.82796 3.71483,7.1837 11.75029,11.04016 19.67263,9.44151 3.44989,-0.69615 11.91228,-1.18284 18.80534,-1.08153 l 12.53284,0.18423 v -7.71482 c 0,-8.78156 2.23152,-9.91356 5.82896,-2.95688 4.26118,8.24021 9.23357,11.51932 17.16784,11.32161 3.99018,-0.0994 10.56094,-0.25118 14.6017,-0.3372 7.21744,-0.15367 7.34684,-0.2632 7.34684,-6.22069 0,-3.33538 0.50098,-6.0643 1.11329,-6.0643 0.61233,0 3.59841,2.87484 6.63575,6.38853 4.8802,5.64555 6.40932,6.36901 13.1482,6.22071 4.19416,-0.0923 10.93183,-0.23823 14.97259,-0.32425 6.15231,-0.13103 7.34684,-0.7208 7.34684,-3.62769 0,-4.3914 0.26037,-4.36352 7.94346,0.85037 7.01372,4.75964 11.25281,5.28398 19.49375,2.41118 6.51927,-2.27265 8.86479,-6.07169 8.86479,-14.35836 0,-4.62484 -1.05801,-6.81736 -4.32167,-8.95579 -5.45793,-3.57617 -5.52153,-5.89137 -0.16183,-5.89137 3.32528,0 3.97626,-0.70198 3.24481,-3.49903 -2.66815,-10.20304 -18.72829,-13.67007 -27.83339,-6.00864 -6.36951,5.3596 -7.22992,5.37973 -7.22992,0.16924 0,-4.01912 -0.42608,-4.15404 -13.27751,-4.20445 -14.19801,-0.0557 -21.58861,2.4438 -24.76274,8.37472 -3.49108,6.52318 -5.17642,3.42183 -5.17642,-9.52551 v -12.965 h -5.18601 c -4.96801,0 -5.186,0.31631 -5.186,7.52525 v 7.52523 l -8.40363,-0.80747 c -10.10989,-0.97143 -15.905,2.18569 -20.05154,10.92389 -1.55267,3.272 -3.56444,5.9491 -4.47061,5.9491 -1.62263,0 -2.48992,-12.09491 -1.75546,-24.48096 l 0.37535,-6.32998 h -12.23438 -12.2344 v 7.37271 7.37271 l -8.69687,-0.83565 c -8.37282,-0.80452 -8.94998,-0.56962 -15.48877,6.30408 -3.73553,3.92688 -7.21199,7.13976 -7.72545,7.13976 -0.51347,0 -0.93358,-3.03004 -0.93358,-6.73343 v -6.73346 l -13.71227,-0.0899 c -15.57786,-0.10216 -21.12902,2.72393 -25.39221,12.9272 -3.11967,7.46641 -3.0069,11.75844 0.50329,19.15562 3.97945,8.38607 11.82733,13.06189 19.58585,11.66938 3.32769,-0.59725 8.96746,-0.99189 12.53284,-0.87695 z m 186.88899,-49.1981 c 1.60829,-4.19113 -0.69216,-7.779 -4.9877,-7.779 -4.60367,0 -6.22661,2.99106 -3.98636,7.34683 1.90492,3.70378 7.61314,3.97867 8.97406,0.43217 z M 542.45271,397.07582 c -1.51548,-10.10604 0.95905,-9.78698 7.89235,1.01762 3.05053,4.75383 6.27536,8.64333 7.16628,8.64333 0.89092,0 4.03772,-3.8895 6.99285,-8.64333 2.95514,-4.75384 6.03462,-8.64334 6.84328,-8.64334 0.80863,0 1.47026,3.80682 1.47026,8.45958 v 8.45959 l 7.34684,-1.57972 c 9.38719,-2.01844 30.79762,-12.41847 34.90159,-16.9533 l 3.14932,-3.47996 -61.16172,0.0448 -61.1617,0.0446 5.11927,4.15506 c 11.03151,8.95372 36.77952,19.52267 41.20551,16.91392 0.75868,-0.44719 0.86483,-4.24466 0.23587,-8.4388 z m 92.59064,-25.76991 c 2.22946,-2.37316 3.65379,-4.71463 3.16517,-5.20327 -0.48865,-0.48862 -37.25329,-0.68616 -81.69925,-0.43898 l -80.81084,0.44944 3.73978,4.75383 3.73978,4.75384 h 73.90588 73.90587 z m 14.70006,-19.88648 2.68178,-5.186 h -94.25673 c -51.8412,0 -94.25674,0.35236 -94.25674,0.783 0,0.43065 0.90277,2.76435 2.00614,5.186 l 2.00615,4.403 h 89.5688 89.56881 z M 524.41506,336.03817 c 0,-3.79849 -19.94384,-26.51165 -29.75541,-33.88714 -15.23979,-11.45597 -26.83044,-16.97811 -43.28076,-20.62029 -4.72556,-1.04625 -4.75384,-0.99742 -4.75384,8.21157 0,9.67962 4.67361,30.26387 9.3919,41.36529 l 2.75517,6.4825 h 32.82147 c 18.23676,0 32.82147,-0.68962 32.82147,-1.55193 z m 61.76003,-21.35291 c -1.04539,-25.94224 -4.60757,-40.94802 -14.41276,-60.71425 -8.09982,-16.32837 -12.20117,-21.30886 -15.71982,-19.08936 -8.63454,5.44653 -22.57784,38.71787 -26.3806,62.94911 -1.98906,12.67427 -2.38808,36.85587 -0.63706,38.60689 0.63383,0.63385 13.95962,1.15245 29.61284,1.15245 h 28.46039 z m 75.36782,9.50767 c 4.77121,-13.83898 9.07723,-38.90839 7.20373,-41.93976 -2.00805,-3.24908 -20.92055,2.896 -35.91561,11.66975 -16.15947,9.45506 -40.99796,34.74186 -40.99796,41.73795 0,1.35154 9.74529,1.92923 32.54547,1.92923 h 32.54548 z"
       id="path1385"
       inkscape:connector-curvature="0"
       transform="matrix(0.26458333,0,0,0.26458333,0,87)" />
    <path
       style="opacity:1;fill:#ffffff;fill-opacity:1;fill-rule:nonzero;stroke:none;stroke-width:5.53700781;stroke-linecap:butt;stroke-linejoin:miter;stroke-miterlimit:4;stroke-dasharray:none;stroke-dashoffset:0;stroke-opacity:1;paint-order:stroke fill markers"
       d="m 741.59644,388.1536 c -1.34645,-2.61461 -4.33511,-10.97703 -6.64146,-18.58317 l -4.19336,-13.82933 3.92925,-27.59778 c 5.42953,-38.13535 11.42497,-68.43574 21.56092,-108.9669 10.68593,-42.73037 13.54512,-52.72434 15.08401,-52.72434 3.29351,0 14.38383,9.4275 19.73874,16.77923 8.29765,11.39179 11.6515,18.56547 20.84606,44.58844 4.36709,12.35997 15.29438,40.36437 24.28287,62.23201 l 16.34272,39.75934 -6.32471,6.63456 c -11.38742,11.9453 -31.55624,27.11968 -44.99708,33.85438 -14.2221,7.12617 -52.0439,22.6074 -55.23152,22.6074 -1.07159,0 -3.04999,-2.13923 -4.39644,-4.75384 z"
       id="path1387"
       inkscape:connector-curvature="0"
       transform="matrix(0.26458333,0,0,0.26458333,0,87)" />
    <path
       style="opacity:1;fill:#ffffff;fill-opacity:1;fill-rule:nonzero;stroke:none;stroke-width:5.53700781;stroke-linecap:butt;stroke-linejoin:miter;stroke-miterlimit:4;stroke-dasharray:none;stroke-dashoffset:0;stroke-opacity:1;paint-order:stroke fill markers"
       d="m 349.19983,385.91797 c -33.00029,-13.28002 -57.63914,-28.74362 -81.92369,-51.41613 l -9.07522,-8.47279 3.28205,-9.34531 c 1.80513,-5.13992 8.48234,-22.52596 14.83825,-38.63564 6.3559,-16.10968 15.08822,-39.05773 19.40516,-50.99567 10.71374,-29.62754 20.33198,-48.49969 24.718,-48.49969 2.92826,0 24.39845,53.36195 33.38541,82.97601 5.91713,19.49825 15.60064,58.6876 20.11897,81.42179 l 3.64211,18.32546 -5.68295,15.74663 -5.68296,15.74663 z"
       id="path1389"
       inkscape:connector-curvature="0"
       transform="matrix(0.26458333,0,0,0.26458333,0,87)" />
    <path
       style="opacity:1;fill:#ffffff;fill-opacity:1;fill-rule:nonzero;stroke:none;stroke-width:5.53700781;stroke-linecap:butt;stroke-linejoin:miter;stroke-miterlimit:4;stroke-dasharray:none;stroke-dashoffset:0;stroke-opacity:1;paint-order:stroke fill markers"
       d="m 335.99037,402.2673 c -17.73255,-5.17175 -39.71852,-15.41212 -55.23129,-25.72499 -12.62563,-8.3935 -31.20205,-26.82793 -31.20205,-30.96354 0,-3.39755 3.65335,-11.44601 5.19557,-11.44601 0.65081,0 6.94362,5.08153 13.98403,11.29228 22.00707,19.41372 50.32259,36.53847 78.49008,47.46948 13.0523,5.06524 17.13285,8.31021 14.47589,11.51165 -2.73096,3.29061 -8.8378,2.78261 -25.71223,-2.13887 z"
       id="path1391"
       inkscape:connector-curvature="0"
       transform="matrix(0.26458333,0,0,0.26458333,0,87)" />
    <path
       style="opacity:1;fill:#ffffff;fill-opacity:1;fill-rule:nonzero;stroke:none;stroke-width:5.53700781;stroke-linecap:butt;stroke-linejoin:miter;stroke-miterlimit:4;stroke-dasharray:none;stroke-dashoffset:0;stroke-opacity:1;paint-order:stroke fill markers"
       d="m 747.41309,405.28596 c 0,-3.04635 5.99061,-6.23896 33.709,-17.96468 28.67102,-12.12871 44.21698,-21.53393 61.91631,-37.459 11.74245,-10.56532 15.00937,-11.69311 15.00937,-5.18144 0,7.31354 -27.89577,32.41718 -48.40267,43.55798 -20.59466,11.18848 -62.23201,22.59415 -62.23201,17.04714 z"
       id="path1393"
       inkscape:connector-curvature="0"
       transform="matrix(0.26458333,0,0,0.26458333,0,87)" />
    <path
       style="opacity:1;fill:#ffffff;fill-opacity:1;fill-rule:nonzero;stroke:none;stroke-width:5.53700781;stroke-linecap:butt;stroke-linejoin:miter;stroke-miterlimit:4;stroke-dasharray:none;stroke-dashoffset:0;stroke-opacity:1;paint-order:stroke fill markers"
       d="m 520.87234,124.85876 c -18.9135,-2.78464 -46.58862,-16.09233 -46.58862,-22.40233 0,-4.839155 2.4186,-4.348038 17.67454,3.58898 18.52782,9.63923 32.73654,12.3485 66.16581,12.61628 30.8707,0.24729 34.89523,-0.53095 58.49292,-11.31099 11.43884,-5.22555 15.77152,-6.48333 17.24782,-5.00703 3.46318,3.46318 -0.9428,7.34769 -14.45011,12.73987 -20.34864,8.12327 -40.61965,11.5921 -66.47664,11.37569 -12.35996,-0.10345 -26.78954,-0.82366 -32.06572,-1.60047 z"
       id="path1395"
       inkscape:connector-curvature="0"
       transform="matrix(0.26458333,0,0,0.26458333,0,87)" />
    <path
       style="opacity:1;fill:#ffffff;fill-opacity:1;fill-rule:nonzero;stroke:none;stroke-width:5.53700781;stroke-linecap:butt;stroke-linejoin:miter;stroke-miterlimit:4;stroke-dasharray:none;stroke-dashoffset:0;stroke-opacity:1;paint-order:stroke fill markers"
       d="m 570.6569,104.80387 c 1.18846,-0.47955 3.13321,-0.47955 4.32167,0 1.18846,0.47956 0.21608,0.87192 -2.16084,0.87192 -2.37691,0 -3.34929,-0.39236 -2.16083,-0.87192 z"
       id="path1397"
       inkscape:connector-curvature="0"
       transform="matrix(0.26458333,0,0,0.26458333,0,87)" />
    <path
       style="opacity:1;fill:#ffffff;fill-opacity:1;fill-rule:nonzero;stroke:none;stroke-width:5.53700781;stroke-linecap:butt;stroke-linejoin:miter;stroke-miterlimit:4;stroke-dasharray:none;stroke-dashoffset:0;stroke-opacity:1;paint-order:stroke fill markers"
       d="m 457.71068,461.20237 c -4.62625,-7.06055 0.2965,-18.16359 8.05318,-18.16359 4.54005,0 10.24853,6.04444 10.24853,10.85169 0,10.84084 -12.6722,15.90363 -18.30171,7.3119 z"
       id="path1399"
       inkscape:connector-curvature="0"
       transform="matrix(0.26458333,0,0,0.26458333,0,87)" />
    <path
       style="opacity:1;fill:#ffffff;fill-opacity:1;fill-rule:nonzero;stroke:none;stroke-width:5.53700781;stroke-linecap:butt;stroke-linejoin:miter;stroke-miterlimit:4;stroke-dasharray:none;stroke-dashoffset:0;stroke-opacity:1;paint-order:stroke fill markers"
       d="m 500.92735,461.20237 c -4.62625,-7.06055 0.2965,-18.16359 8.05319,-18.16359 4.54004,0 10.24852,6.04444 10.24852,10.85169 0,10.84084 -12.67219,15.90363 -18.30171,7.3119 z"
       id="path1401"
       inkscape:connector-curvature="0"
       transform="matrix(0.26458333,0,0,0.26458333,0,87)" />
    <path
       style="opacity:1;fill:#ffffff;fill-opacity:1;fill-rule:nonzero;stroke:none;stroke-width:5.53700781;stroke-linecap:butt;stroke-linejoin:miter;stroke-miterlimit:4;stroke-dasharray:none;stroke-dashoffset:0;stroke-opacity:1;paint-order:stroke fill markers"
       d="m 560.12065,462.35016 c -5.86807,-6.48415 -1.05694,-19.31138 7.24316,-19.31138 7.08115,0 11.74048,10.14412 7.9903,17.39617 -3.10804,6.01027 -10.66738,6.96067 -15.23346,1.91521 z"
       id="path1403"
       inkscape:connector-curvature="0"
       transform="matrix(0.26458333,0,0,0.26458333,0,87)" />
    <path
       style="opacity:1;fill:#ffffff;fill-opacity:1;fill-rule:nonzero;stroke:none;stroke-width:5.53700781;stroke-linecap:butt;stroke-linejoin:miter;stroke-miterlimit:4;stroke-dasharray:none;stroke-dashoffset:0;stroke-opacity:1;paint-order:stroke fill markers"
       d="m 603.33733,462.35016 c -5.86808,-6.48415 -1.05695,-19.31138 7.24315,-19.31138 6.97047,0 11.24057,9.10722 7.94502,16.94503 -1.85365,4.40853 -3.33679,5.52764 -7.32572,5.52764 -2.75084,0 -6.28895,-1.42258 -7.86245,-3.16129 z"
       id="path1405"
       inkscape:connector-curvature="0"
       transform="matrix(0.26458333,0,0,0.26458333,0,87)" />
    <path
       style="opacity:1;fill:#ffffff;fill-opacity:1;fill-rule:nonzero;stroke:none;stroke-width:5.53700781;stroke-linecap:butt;stroke-linejoin:miter;stroke-miterlimit:4;stroke-dasharray:none;stroke-dashoffset:0;stroke-opacity:1;paint-order:stroke fill markers"
       d="m 473.44432,716.92306 c -37.28955,-2.50164 -73.17041,-8.60906 -85.13684,-14.49146 -7.95026,-3.90815 -7.99598,-4.1053 -7.45254,-32.13527 0.47161,-24.32527 0.94446,-32.44493 6.16597,-105.88085 5.90374,-83.03089 7.54723,-127.99372 5.70371,-156.04288 -1.21037,-18.41583 -1.7436,-21.87833 -6.5842,-42.75381 -2.09441,-9.03228 -5.4076,-24.00686 -7.36265,-33.27684 -9.78582,-46.40001 -19.92879,-80.15326 -38.43624,-127.90612 -4.88569,-12.60603 -9.59835,-25.20886 -10.47257,-28.00628 l -1.5895,-5.08622 4.22662,-3.82661 c 7.94982,-7.19743 37.49919,-20.5942 82.38573,-37.35113 28.64475,-10.69359 37.70914,-14.37721 45.00237,-18.28824 l 6.32953,-3.39424 7.93197,5.51107 c 19.10267,13.27236 30.19922,16.14126 69.28269,17.91234 25.23927,1.14372 40.48993,0.60962 50.1483,-1.75627 14.77358,-3.61891 34.47467,-10.91373 45.31295,-16.77825 4.93673,-2.67123 5.75279,-2.87476 7.34683,-1.83228 3.43817,2.24851 21.86359,9.77208 41.14691,16.80133 35.65284,12.99636 69.84615,27.94957 74.89203,32.75135 l 1.88237,1.7913 -2.43388,8.88387 c -1.33863,4.88613 -4.61349,16.85734 -7.27747,26.6027 -8.9459,32.72586 -18.50636,77.71129 -24.75223,116.46839 -5.23336,32.47422 -6.74506,40.91587 -10.02214,55.96613 -4.70022,21.58607 -6.38534,39.15257 -6.38428,66.55252 0.002,38.65068 2.29009,80.55106 7.74245,141.75184 3.23208,36.27895 4.23995,52.25079 5.12696,81.24734 0.77126,25.2122 0.29684,34.5456 -1.92857,37.942 -1.56377,2.38661 -9.83668,5.3892 -21.33892,7.74479 -12.72799,2.60663 -49.18469,6.42398 -92.89067,9.72651 -21.0129,1.58778 -117.89266,2.40593 -136.56469,1.15327 z m 155.7961,-42.29555 c 1.49565,-0.007 1.94476,-0.50853 1.94476,-2.17035 0,-2.38318 1.49001,-2.92412 2.2927,-0.83236 1.03437,2.69554 5.10967,3.94057 10.25657,3.13346 2.6403,-0.41404 5.78211,-0.56517 6.98178,-0.33584 1.68962,0.323 2.28963,0.003 2.66223,-1.4224 0.57461,-2.19733 1.39471,-2.32334 2.94712,-0.45281 1.8158,2.18791 4.6839,2.90429 9.39417,2.34643 3.86046,-0.45721 4.36043,-0.7504 4.36043,-2.55687 0,-2.48481 1.33807,-2.65662 2.58239,-0.33158 1.48073,2.76674 3.87987,3.54541 9.05109,2.93764 3.19,-0.37492 4.78886,-0.95597 4.78886,-1.74034 0,-1.59343 0.63267,-1.48518 3.22148,0.55117 4.81663,3.78877 10.60785,1.05191 10.60785,-5.01313 0,-1.80646 -0.46674,-3.75121 -1.0372,-4.32167 -0.80671,-0.80671 -0.80671,-1.26769 0,-2.0744 2.55829,-2.55829 -0.73757,-6.7418 -5.31134,-6.7418 -1.79351,0 -3.48516,0.65631 -4.45563,1.72867 -1.97,2.17683 -3.02516,2.2012 -3.02516,0.0699 0,-1.44797 -0.65748,-1.66193 -5.17334,-1.68353 -4.24955,-0.0203 -5.62231,0.35305 -7.68769,2.09095 -1.3829,1.16359 -2.74992,2.11566 -3.03784,2.11566 -0.2879,0 -0.52347,-2.52818 -0.52347,-5.61817 0,-5.28509 -0.11777,-5.61817 -1.98659,-5.61817 -1.74355,0 -2.78511,-1.8241 -8.51345,-14.90975 -4.18669,-9.56395 -7.03347,-15.00903 -7.93987,-15.18664 -1.7758,-0.34797 -11.81176,7.28396 -11.81176,8.98236 0,0.69167 1.94475,5.60182 4.32167,10.91143 2.37691,5.30961 4.32166,9.91785 4.32166,10.24053 0,0.32268 -1.01924,0.39185 -2.265,0.1537 -1.83345,-0.35048 -2.81738,-1.6451 -5.16418,-6.79481 -2.05245,-4.50381 -3.35724,-6.36182 -4.4676,-6.36182 -0.86263,0 -3.78958,1.63055 -6.50432,3.62345 -5.00033,3.67075 -5.77189,5.30013 -4.04116,8.53404 0.78666,1.46987 1.87089,1.67185 8.9747,1.67185 7.35304,0 8.12062,0.15552 8.532,1.72866 0.88901,3.39958 -0.13564,4.85228 -3.17245,4.49776 -2.08294,-0.24317 -3.50549,0.25288 -5.47308,1.9085 -3.28274,2.76225 -3.70557,2.77892 -3.70557,0.14613 0,-1.98217 -0.27638,-2.09227 -5.31294,-2.11636 -4.82539,-0.0231 -5.53923,0.21684 -7.779,2.61452 -1.94588,2.08307 -2.46607,3.45016 -2.46607,6.48096 0,4.19743 1.73535,8.33112 4.10557,9.77966 0.83193,0.50843 2.87393,0.72652 4.53777,0.48464 1.66384,-0.24188 3.9003,-0.44406 4.96991,-0.44929 z m 69.36276,-20.75352 c -0.81997,-0.5299 -0.90936,-0.84272 -0.2432,-0.8511 0.62901,-0.008 0.82925,-0.59706 0.4971,-1.46262 -0.49766,-1.29688 -0.62483,-1.27414 -1.20862,0.21608 -1.00008,2.55287 -0.89733,2.96306 0.73864,2.94874 1.29265,-0.0113 1.32407,-0.13506 0.21608,-0.8511 z m -10.372,-4.74004 c 0,-0.78279 -20.88547,-47.54872 -21.5408,-48.23336 -0.63914,-0.6677 -9.86226,5.63066 -11.91245,8.13487 -0.84331,1.03007 0.47826,4.7068 6.9665,19.38146 4.40398,9.96063 8.26343,18.7909 8.57654,19.62282 0.49011,1.3022 1.77527,1.51259 9.23975,1.51259 4.76876,0 8.67046,-0.18827 8.67046,-0.41838 z M 472.81033,475.3486 c 2.06784,-0.86399 3.30668,-1.0169 3.50159,-0.43217 0.16589,0.49769 2.40844,0.90488 4.98343,0.90488 h 4.68181 v -21.60834 -21.60834 h -4.27872 c -2.85608,0 -4.51396,0.42035 -4.98622,1.26424 -0.6191,1.10627 -1.18657,1.09918 -4.54169,-0.0568 -6.56322,-2.26122 -15.94186,0.02 -20.45309,4.97482 -2.90114,3.18645 -5.55011,9.11431 -6.08281,13.61213 -1.00789,8.51005 4.22451,18.59914 11.69201,22.5445 3.88889,2.05464 11.08509,2.24289 15.48369,0.40504 z m 43.21667,0 c 2.06784,-0.86399 3.30669,-1.0169 3.50159,-0.43217 0.1659,0.49769 2.60292,0.90488 5.4156,0.90488 h 5.11397 v -28.52301 -28.523 h -5.186 -5.186 v 8.30364 c 0,7.58351 -0.13118,8.24639 -1.51258,7.64347 -3.88427,-1.69532 -11.39215,-2.40946 -14.75105,-1.40311 -4.11812,1.23382 -9.74943,6.49198 -12.38725,11.56642 -2.66004,5.1172 -2.69671,14.33225 -0.0771,19.36775 5.60737,10.77858 15.42597,15.12416 25.06879,11.09513 z m 57.86062,0.0208 c 2.18505,-0.91297 3.32711,-1.03012 3.72747,-0.38234 0.33387,0.54023 2.54667,0.82183 5.24922,0.66801 l 4.67203,-0.26588 0.22789,-28.30692 0.2279,-28.30692 h -4.35488 c -3.87936,0 -4.44691,0.24208 -5.19781,2.2171 -0.46362,1.2194 -0.84294,4.95604 -0.84294,8.30364 0,5.46919 -0.15342,6.02033 -1.51258,5.43368 -14.46321,-6.24262 -27.77264,2.65354 -28.60412,19.11929 -0.34689,6.86919 1.16724,11.53523 5.34791,16.48059 4.87936,5.77183 14.05346,7.96725 21.05991,5.03977 z m 43.21667,0 c 2.18506,-0.91297 3.32712,-1.03012 3.72747,-0.38234 0.33387,0.54023 2.54667,0.82183 5.24922,0.66801 l 4.67203,-0.26588 0.23176,-20.54335 0.23176,-20.54336 -2.23278,-0.84889 c -3.50668,-1.33324 -8.17058,-1.07775 -8.17058,0.44759 0,1.59585 0.0658,1.59693 -3.9091,-0.0639 -6.23109,-2.60352 -17.29807,0.41205 -21.43966,5.84195 -7.0104,9.19111 -6.76883,21.95744 0.57998,30.65041 4.87935,5.77182 14.05345,7.96725 21.0599,5.03977 z m 43.10399,-0.3228 c 4.66118,-2.117 6.99522,-5.25674 7.6961,-10.35275 1.16131,-8.44373 -2.7451,-12.88429 -13.4555,-15.29538 -7.85741,-1.76879 -9.43437,-2.55325 -9.43437,-4.69312 0,-1.96446 2.42592,-3.45733 5.61817,-3.45733 3.26178,0 5.33621,1.35193 5.97408,3.8934 0.53158,2.11801 0.7433,2.18627 5.06933,1.63437 2.48303,-0.31678 4.64884,-0.68993 4.81292,-0.82922 1.00125,-0.85001 -1.34343,-6.11819 -3.8294,-8.60416 -6.62446,-6.62446 -20.21684,-5.83639 -25.68623,1.48926 -2.38573,3.19543 -2.86643,9.23765 -1.04097,13.08453 1.94288,4.09431 5.41899,6.11241 13.63804,7.91774 7.48964,1.64512 9.21993,3.20877 7.02245,6.34611 -0.99738,1.42396 -2.19386,1.8623 -5.08317,1.8623 -3.92654,0 -5.95845,-1.26881 -6.92901,-4.32678 -0.46551,-1.46669 -1.31121,-1.72355 -5.67479,-1.72355 -2.82026,0 -5.12559,0.29171 -5.12293,0.64825 0.0344,4.62634 3.77218,9.82325 9.07068,12.61162 3.66623,1.92938 12.89491,1.82022 17.3546,-0.20526 z m -116.477,-10.46158 c 0.15178,-5.94229 0.0154,-15.56881 -0.30311,-21.39225 l -0.57907,-10.58809 h -4.6668 -4.6668 v 21.65147 21.65147 l 4.96991,-0.25922 4.96992,-0.25921 z m -0.39343,-38.58347 c 1.01956,-7.43853 1.15579,-7.2262 -4.63635,-7.2262 h -5.186 v 5.04194 c 0,2.77308 0.2593,5.30125 0.57622,5.61817 0.31692,0.31692 2.40328,0.57622 4.63635,0.57622 h 4.06013 z m 121.92676,1.78756 c 2.96979,-2.9698 0.64453,-9.01376 -3.46782,-9.01376 -4.37503,0 -6.21389,5.38238 -2.95294,8.64333 2.07637,2.07637 4.5709,2.22029 6.42076,0.37043 z M 563.18203,399.54388 c 5.53829,-8.38365 8.5047,-14.04892 7.75088,-14.80273 -0.29655,-0.29655 -6.50308,-0.53919 -13.7923,-0.53919 -10.1606,0 -13.25311,0.25699 -13.25311,1.10134 0,2.84594 12.00312,21.37133 13.84708,21.37133 0.40525,0 2.8566,-3.20884 5.44745,-7.13075 z m -21.0232,-4.13271 c 0,-7.59731 -0.2951,-10.51237 -1.09529,-10.81944 -0.60242,-0.23116 -11.00683,-0.31619 -23.12092,-0.18895 l -22.02563,0.23135 6.4825,4.64902 c 8.12934,5.83009 21.98659,12.56985 30.34425,14.75857 10.16631,2.66236 9.41509,3.35098 9.41509,-8.63055 z m 45.15026,6.8706 c 11.21213,-3.68411 25.27023,-11.40511 29.53246,-16.21983 l 1.64655,-1.85998 h -22.08199 c -17.69309,0 -22.1706,0.23091 -22.52781,1.16179 -0.79302,2.06657 -1.69725,18.51169 -1.07337,19.52116 0.79149,1.28065 4.96268,0.53202 14.50416,-2.60314 z m 46.82192,-30.5804 c 2.18286,-2.12149 3.96883,-4.26072 3.96883,-4.75384 0,-0.61282 -25.57705,-0.89657 -80.81517,-0.89657 -44.44835,0 -80.81518,0.21114 -80.81518,0.46919 0,0.25806 1.8035,2.39728 4.00778,4.75384 l 4.00777,4.28464 h 72.83858 72.83857 z m 14.97685,-19.90203 c 1.55172,-2.37148 2.82132,-4.60794 2.82132,-4.96991 0,-0.80307 -178.56113,-0.73928 -184.28112,0.0659 l -4.0676,0.57253 2.6287,4.54179 2.62869,4.5418 88.72434,-0.22013 88.72436,-0.22013 2.82131,-4.31178 z m -129.06514,-14.8272 c 4.87424,-0.6681 4.87208,-0.67983 -1.84332,-10.0067 -12.21406,-16.96383 -30.12326,-31.571 -48.21241,-39.32319 -6.09015,-2.60996 -18.79985,-6.27296 -21.82442,-6.28991 -1.73366,-0.01 -1.34678,14.40548 0.64953,24.20157 1.79432,8.80488 5.45471,20.76131 8.53177,27.86846 l 1.77752,4.10559 h 28.43308 c 15.6382,0 30.25791,-0.25013 32.48825,-0.55582 z m 66.18128,-14.7861 c -0.0175,-16.88439 -1.39422,-28.95561 -4.73352,-41.50181 -4.43743,-16.67201 -13.39898,-35.85872 -20.43754,-43.75685 l -3.16509,-3.5516 -2.36858,2.16083 c -3.30847,3.01829 -9.49093,12.70907 -12.94867,20.29658 -8.51719,18.68975 -13.17124,38.73478 -13.96373,60.14192 -0.62228,16.80918 -0.18142,20.416 2.5603,20.9466 1.05389,0.20396 13.87637,0.4238 28.49441,0.48854 l 26.57826,0.11771 -0.0158,-15.34192 z m 73.27858,7.13075 c 4.97396,-12.86981 8.04592,-26.36759 8.6062,-37.81459 0.56576,-11.55897 1.23618,-10.79428 -7.78723,-8.88225 -16.64502,3.52701 -36.68873,15.54593 -52.04121,31.20575 -5.96573,6.08516 -15.57582,18.62917 -16.13519,21.06121 -0.49593,2.15616 3.89841,2.45165 34.62491,2.32825 l 29.72607,-0.11937 z"
       id="path1407"
       inkscape:connector-curvature="0"
       transform="matrix(0.26458333,0,0,0.26458333,0,87)" />
    <path
       style="opacity:1;fill:#ffffff;fill-opacity:1;fill-rule:nonzero;stroke:none;stroke-width:5.53700781;stroke-linecap:butt;stroke-linejoin:miter;stroke-miterlimit:4;stroke-dasharray:none;stroke-dashoffset:0;stroke-opacity:1;paint-order:stroke fill markers"
       d="m 479.06249,717.2689 c -28.65649,-1.94324 -49.1091,-4.39198 -67.50964,-8.08275 -14.5257,-2.91357 -23.49473,-5.9814 -27.66895,-9.46411 l -2.92326,-2.43898 -0.2832,-15.97617 c -0.31806,-17.94267 0.9631,-42.32753 5.89165,-112.13757 5.18736,-73.47601 6.28736,-96.02761 6.36605,-130.51435 0.0819,-35.8683 -0.66281,-45.28633 -5.14103,-65.0208 -1.64764,-7.26076 -4.9415,-22.14723 -7.31969,-33.08105 -12.80973,-58.89331 -20.64277,-85.39531 -40.10814,-135.70035 -4.41475,-11.4092 -8.94488,-23.6121 -10.06695,-27.11755 l -2.04013,-6.37355 3.99285,-3.61496 c 7.93363,-7.18278 35.48206,-19.90378 76.79943,-35.46357 34.48509,-12.9868 45.41329,-17.40712 51.71419,-20.91775 l 5.47234,-3.04899 4.89966,3.55431 c 20.48842,14.86271 32.85189,18.17025 74.7713,20.0032 24.106,1.05405 36.72329,0.53254 47.6777,-1.97066 11.69537,-2.67253 28.98676,-8.80563 40.6858,-14.43091 l 10.43412,-5.01707 4.69172,2.42169 c 6.05236,3.12402 21.58062,9.34318 44.88321,17.976 31.74072,11.75888 62.14668,25.17072 68.09237,30.03505 l 1.97088,1.61242 -6.91319,25.32798 c -12.19472,44.67802 -20.53924,83.60846 -28.96669,135.14102 -2.59277,15.85447 -6.25341,36.21494 -8.13472,45.2455 -6.16158,29.57637 -6.60763,34.57994 -6.54921,73.4652 0.0654,43.58184 1.94408,78.71137 7.30306,136.56469 2.51058,27.1032 4.19507,53.34503 5.15986,80.38301 0.8621,24.16018 0.38645,35.40863 -1.65889,39.23037 -2.90448,5.42707 -23.24984,9.68983 -66.17331,13.86462 -50.2202,4.88448 -78.09669,6.14598 -131.72149,5.96084 -24.056,-0.0831 -45.48847,-0.26969 -47.6277,-0.41476 z m 151.47444,-43.24421 c 0.35653,-0.20517 0.64825,-1.128 0.64825,-2.05071 0,-2.26693 1.04104,-2.10996 3.30953,0.49903 1.79424,2.06357 2.31972,2.16922 10.11135,2.03289 7.85348,-0.1374 8.24142,-0.23414 8.72896,-2.17668 0.6167,-2.4571 1.68486,-2.6043 2.86717,-0.39513 1.18503,2.21424 4.85803,3.25422 9.55632,2.70577 3.20818,-0.37449 3.93789,-0.79469 4.1657,-2.39878 0.3167,-2.22992 1.69623,-2.57711 2.44867,-0.61628 0.28038,0.73066 1.62154,1.90338 2.98035,2.60604 2.96757,1.53459 9.31179,0.86155 10.91946,-1.15842 0.96044,-1.20676 1.22432,-1.19755 2.64971,0.0924 4.63543,4.195 11.40945,1.53096 11.40945,-4.48703 0,-1.77196 -0.45026,-3.672 -1.00057,-4.22231 -0.75786,-0.75786 -0.72416,-1.33361 0.13896,-2.37361 0.95908,-1.15562 0.86446,-1.74313 -0.5975,-3.71005 -2.24306,-3.01784 -5.8258,-3.45956 -9.00368,-1.11006 -2.989,2.20987 -3.05704,2.21076 -3.62282,0.0473 -0.40849,-1.56208 -1.02582,-1.71781 -5.72279,-1.44357 -3.92624,0.22923 -5.77258,0.78431 -7.26155,2.18313 -1.09815,1.03166 -2.24472,1.87574 -2.54793,1.87574 -0.30322,0 -0.6671,-2.43093 -0.80863,-5.40208 -0.22396,-4.70176 -0.48893,-5.43521 -2.04386,-5.65755 -1.40544,-0.20097 -3.12807,-3.28092 -8.07542,-14.43843 -6.41497,-14.4673 -7.79172,-16.64876 -9.76377,-15.47076 -3.80494,2.27287 -10.19378,7.64052 -10.19378,8.56441 0,0.6033 1.94475,5.46153 4.32167,10.79608 2.37691,5.33454 4.32166,9.9911 4.32166,10.34789 0,0.3568 -1.00733,0.45616 -2.23852,0.22081 -1.77884,-0.34005 -2.86784,-1.73537 -5.30313,-6.79482 -1.9383,-4.02692 -3.57747,-6.36528 -4.46007,-6.36253 -1.55077,0.005 -9.43205,5.74442 -10.67573,7.77465 -0.49368,0.80589 -0.44976,2.19594 0.11606,3.67342 0.90428,2.36128 0.96404,2.37691 9.08459,2.37691 7.41521,0 8.22526,0.16053 8.72297,1.72867 1.03004,3.24538 -0.16193,4.87043 -3.30346,4.50368 -2.14044,-0.24989 -3.53769,0.23137 -5.5238,1.90258 -3.24177,2.72777 -3.51274,2.74828 -3.86154,0.29232 -0.23421,-1.64908 -0.86752,-1.97693 -4.1657,-2.15644 -5.74257,-0.31255 -7.64402,0.38092 -9.53125,3.47614 -2.98474,4.89523 -1.39656,13.58435 2.79426,15.28775 1.79794,0.7308 8.8227,0.35135 10.41041,-0.56233 z m 68.33089,-19.84261 c -0.56753,-0.23088 -0.82255,-1.0753 -0.56671,-1.87651 0.3975,-1.24492 0.32952,-1.26822 -0.46749,-0.16024 -1.33826,1.86039 -1.17552,2.60276 0.55348,2.52476 0.83192,-0.0375 1.04825,-0.25713 0.48072,-0.48801 z m -10.87585,-5.71017 c -1.58321,-4.03275 -20.82147,-47.01155 -21.26248,-47.50094 -0.30275,-0.33597 -3.21599,1.34646 -6.47386,3.73874 -5.27249,3.87163 -5.8715,4.60362 -5.45108,6.66119 0.25978,1.27137 4.03953,10.3823 8.39944,20.24651 l 7.92712,17.93492 h 8.64251 c 6.56401,0 8.5405,-0.25984 8.21835,-1.08042 z M 472.57999,475.37599 c 2.07849,-0.74172 3.57224,-0.89894 3.74544,-0.39423 0.15847,0.46175 2.39493,0.83955 4.96992,0.83955 h 4.68181 v -21.60834 -21.60834 h -3.82776 c -2.30257,0 -4.36083,0.53307 -5.1656,1.33784 -1.10134,1.10134 -1.68521,1.15061 -3.30299,0.27872 -3.06837,-1.65369 -11.87246,-1.22985 -16.44214,0.79155 -7.27083,3.21623 -12.73869,13.95322 -11.45729,22.49817 0.74016,4.93573 3.79643,11.0692 7.05442,14.15713 5.08941,4.82375 12.64252,6.24222 19.74419,3.70795 z m 43.44701,-0.0274 c 2.06784,-0.86399 3.30669,-1.01689 3.50159,-0.43216 0.1659,0.49768 2.60292,0.90487 5.4156,0.90487 h 5.11397 v -28.52301 -28.523 h -5.186 -5.186 v 8.30364 c 0,7.57575 -0.1326,8.24756 -1.51258,7.66384 -3.98704,-1.68646 -10.89093,-2.32104 -14.26235,-1.31093 -4.73844,1.41966 -11.43256,7.87506 -13.34182,12.86601 -4.07967,10.66461 0.66041,23.78793 10.31893,28.56881 4.38586,2.17096 10.62116,2.36946 15.13866,0.48193 z m 57.66835,0.0341 c 2.21005,-0.78698 3.74433,-0.92835 4.27845,-0.39423 1.43747,1.43748 8.87442,1.01778 9.47006,-0.53442 0.28856,-0.75196 0.52464,-13.58731 0.52464,-28.52301 V 418.7753 h -4.27065 c -2.34886,0 -4.50651,0.3816 -4.79476,0.84801 -0.28826,0.46641 -0.75927,4.18036 -1.04669,8.25324 -0.44697,6.3335 -0.7225,7.32212 -1.90383,6.83102 -13.75583,-5.71862 -27.00111,2.59673 -28.38129,17.81768 -1.4766,16.28422 11.84674,27.94161 26.12407,22.85752 z m 43.2003,0.006 c 2.24829,-0.80073 3.61598,-0.91934 3.97131,-0.3444 0.29809,0.48233 2.6444,0.7573 5.21402,0.61106 l 4.67203,-0.2663 v -20.744 -20.74401 l -4.2127,-0.81312 c -3.62056,-0.69883 -4.36993,-0.59811 -5.33125,0.71657 -0.94424,1.29131 -1.42607,1.36512 -3.09194,0.47357 -2.48907,-1.33211 -9.56705,-1.33569 -14.42013,-0.007 -7.83084,2.14347 -13.15426,10.73809 -13.11651,21.17652 0.0233,6.45292 2.04429,11.20088 6.78582,15.9424 5.13043,5.13044 12.25542,6.58927 19.52935,3.99863 z m 44.36333,-0.76618 c 7.81407,-4.05572 9.09547,-17.11214 2.13887,-21.79314 -1.53606,-1.03359 -5.62004,-2.55974 -9.07551,-3.39143 -7.83542,-1.88629 -9.30783,-2.6349 -9.30783,-4.73273 0,-2.04156 2.45434,-3.45733 5.99351,-3.45733 2.47407,0 4.47614,1.37119 6.53932,4.47868 1.16775,1.75881 9.07551,1.13221 9.07551,-0.71913 0,-2.14822 -2.41648,-6.05035 -5.19426,-8.38769 -5.28622,-4.44807 -12.93363,-4.96159 -20.02353,-1.34459 -6.17503,3.15026 -8.43848,11.9069 -4.59426,17.77391 2.0664,3.15372 6.0272,5.21232 13.02337,6.76882 7.50766,1.6703 8.96952,2.94824 6.93116,6.05917 -2.71928,4.15014 -12.61515,2.11947 -12.61515,-2.58867 0,-1.00839 -1.15245,-1.2965 -5.186,-1.2965 -2.9887,0 -5.186,0.37798 -5.186,0.8921 0,1.57341 2.6105,7.20127 4.13854,8.92209 0.81379,0.91646 3.03542,2.40515 4.93696,3.3082 4.26969,2.02772 14.05445,1.76607 18.4053,-0.49214 z M 543.45809,467.1397 c 0.34177,-4.77504 0.33969,-14.49879 -0.004,-21.60833 l -0.62633,-12.92683 h -4.65597 -4.65597 v 21.60834 21.60834 h 4.66059 4.6606 l 0.6214,-8.68191 z m -0.1699,-42.0393 c 0.27879,-2.70114 0.31025,-5.22931 0.0699,-5.61817 -0.24035,-0.38886 -2.55325,-0.70702 -5.1398,-0.70702 h -4.70282 v 5.04194 c 0,2.77308 0.2593,5.30125 0.57622,5.61817 0.31692,0.31692 2.40173,0.57622 4.63291,0.57622 h 4.05669 z m 121.75401,2.61635 c 3.09595,-2.80179 1.02019,-8.94154 -3.02301,-8.94154 -2.27413,0 -4.90401,2.4199 -4.90401,4.51245 0,2.6352 1.72198,5.18273 3.13634,4.63998 0.71693,-0.2751 1.04395,-0.11526 0.74704,0.36513 -0.87646,1.41815 2.34761,0.95887 4.04364,-0.57602 z M 560.742,403.03921 c 4.29721,-5.96356 10.7586,-17.34739 10.28304,-18.11686 -0.66647,-1.07838 -26.05739,-0.90452 -26.72952,0.18303 -0.93844,1.5184 11.37669,21.60378 13.21363,21.5508 0.35191,-0.0101 1.8067,-1.63779 3.23285,-3.61697 z m -18.76265,-6.31442 c 0.13898,-4.74833 0.0343,-9.50847 -0.23256,-10.57808 l -0.48522,-1.94475 h -22.02404 c -13.11097,0 -22.02404,0.32758 -22.02404,0.80945 0,0.92917 12.47998,9.33642 17.89221,12.05324 8.28057,4.15667 22.42037,8.8901 25.32446,8.47761 1.03387,-0.14685 1.34769,-1.93302 1.54919,-8.81747 z m 38.05064,7.77307 c 11.32253,-2.66931 27.98309,-10.82662 35.285,-17.27617 l 3.33735,-2.94777 -21.71859,-0.036 c -16.37784,-0.0271 -21.92906,0.2297 -22.57453,1.04443 -0.98279,1.24053 -2.29628,18.40198 -1.50626,19.68024 0.663,1.07276 0.65239,1.07344 7.17703,-0.46475 z m 54.06389,-33.14267 c 3.37817,-3.42973 3.87623,-4.30473 2.7059,-4.75383 -2.53325,-0.9721 -159.46596,-0.64415 -159.46596,0.33324 0,0.48601 1.60534,2.62523 3.56742,4.75384 l 3.56741,3.87019 h 72.7425 72.74251 z m 14.71876,-19.34965 c 1.99519,-3.10236 2.60792,-4.73862 1.93702,-5.17277 -1.21824,-0.78832 -147.97307,-0.86612 -170.17459,-0.0902 -8.91344,0.31152 -16.20625,0.87798 -16.20625,1.25883 0,0.38085 1.06678,2.45858 2.37063,4.61717 l 2.37062,3.92473 h 88.39211 88.39213 z M 523.10353,336.18595 c 2.54143,-2.54412 -19.50782,-27.33039 -32.6486,-36.70135 -12.57955,-8.97073 -30.07266,-16.67804 -39.57738,-17.43744 l -3.36323,-0.26871 -0.26782,6.05033 c -0.47526,10.73603 4.2487,31.908 10.23587,45.87549 l 1.6958,3.95615 31.50824,-0.28231 c 20.53324,-0.18399 31.82482,-0.59924 32.41712,-1.19216 z m 63.12922,-12.27125 c -0.008,-14.58198 -0.9123,-25.02055 -3.12752,-36.08592 -3.6792,-18.37814 -13.80956,-41.55481 -22.28986,-50.99567 l -3.10556,-3.45733 -3.89985,4.31375 c -8.66385,9.58337 -19.45015,36.1206 -22.93374,56.42322 -1.93222,11.26112 -3.12847,32.2014 -2.19512,38.42539 0.59843,3.99063 0.64037,4.03382 4.23199,4.35919 1.99517,0.18074 14.80989,0.39656 28.47716,0.47962 l 24.84959,0.15101 -0.007,-13.61326 z m 71.2877,10.51915 c 2.81085,-6.72732 6.66505,-18.87362 8.27132,-26.06659 2.08556,-9.33927 3.229,-25.641 1.85795,-26.48836 -0.5232,-0.32335 -3.59369,0.0208 -6.82332,0.76482 -18.69211,4.30604 -36.96105,15.38573 -53.01329,32.15131 -7.93282,8.28534 -15.52294,18.38827 -15.52294,20.662 0,1.51377 3.96592,1.72137 36.50649,1.91104 l 27.43099,0.15989 z"
       id="path1409"
       inkscape:connector-curvature="0"
       transform="matrix(0.26458333,0,0,0.26458333,0,87)" />
  </g>
</svg>
