<?xml version="1.0" encoding="UTF-8" standalone="no"?>
<!-- Created with Inkscape (http://www.inkscape.org/) -->

<svg
   xmlns:dc="http://purl.org/dc/elements/1.1/"
   xmlns:cc="http://creativecommons.org/ns#"
   xmlns:rdf="http://www.w3.org/1999/02/22-rdf-syntax-ns#"
   xmlns:svg="http://www.w3.org/2000/svg"
   xmlns="http://www.w3.org/2000/svg"
   xmlns:xlink="http://www.w3.org/1999/xlink"
   xmlns:sodipodi="http://sodipodi.sourceforge.net/DTD/sodipodi-0.dtd"
   xmlns:inkscape="http://www.inkscape.org/namespaces/inkscape"
   width="297mm"
   height="210mm"
   viewBox="0 0 297 210"
   version="1.1"
   id="svg8"
   sodipodi:docname="camisa.svg"
   inkscape:version="0.92.2 (5c3e80d, 2017-08-06)">
  <defs
     id="defs2">
    <linearGradient
       inkscape:collect="always"
       id="linearGradient1292">
      <stop
         style="stop-color:#000000;stop-opacity:1;"
         offset="0"
         id="stop1288" />
      <stop
         style="stop-color:#000000;stop-opacity:0;"
         offset="1"
         id="stop1290" />
    </linearGradient>
    <linearGradient
       inkscape:collect="always"
       xlink:href="#linearGradient1292"
       id="linearGradient1294"
       x1="100.19638"
       y1="215.04804"
       x2="298.51037"
       y2="215.04804"
       gradientUnits="userSpaceOnUse" />
  </defs>
  <sodipodi:namedview
     id="base"
     pagecolor="#ffffff"
     bordercolor="#666666"
     borderopacity="1.0"
     inkscape:pageopacity="0.0"
     inkscape:pageshadow="2"
     inkscape:zoom="0.45193146"
     inkscape:cx="613.14712"
     inkscape:cy="247.28523"
     inkscape:document-units="mm"
     inkscape:current-layer="layer1"
     showgrid="false"
     inkscape:window-width="1366"
     inkscape:window-height="705"
     inkscape:window-x="-8"
     inkscape:window-y="-8"
     inkscape:window-maximized="1" />
  <metadata
     id="metadata5">
    <rdf:RDF>
      <cc:Work
         rdf:about="">
        <dc:format>image/svg+xml</dc:format>
        <dc:type
           rdf:resource="http://purl.org/dc/dcmitype/StillImage" />
        <dc:title></dc:title>
      </cc:Work>
    </rdf:RDF>
  </metadata>
  <g
     inkscape:label="Capa 1"
     inkscape:groupmode="layer"
     id="layer1"
     transform="translate(0,-87)">
    <path
       style="opacity:1;fill:#cccccc;fill-opacity:1;fill-rule:nonzero;stroke:none;stroke-width:1.46500003;stroke-linecap:butt;stroke-linejoin:miter;stroke-miterlimit:4;stroke-dasharray:none;stroke-dashoffset:0;stroke-opacity:1;paint-order:stroke fill markers"
       d="M -0.5880778,87.68523 V 299.35184 H 298.09736 V 87.68523 Z M 147.60806,112.25078 c 9.57732,0 17.41326,0.0615 17.41324,0.13677 -2e-5,0.0753 -1.05204,0.67902 -2.33774,1.34155 -2.1442,1.10492 -3.35315,1.19693 -14.6096,1.1094 -6.74959,-0.0525 -13.20067,-0.20863 -14.33567,-0.34691 -1.97299,-0.24038 -3.54439,-1.06801 -3.54397,-1.86664 1.1e-4,-0.2058 7.83643,-0.37417 17.41374,-0.37417 z m -21.67419,0.67549 c 0.50759,-0.0101 1.37598,0.39984 2.84826,1.30539 4.80963,2.95827 8.10995,3.78212 16.52296,4.12579 8.93717,0.36508 12.20928,-0.20446 18.05603,-3.14269 3.29534,-1.65603 4.05919,-1.84698 4.62516,-1.15813 1.00082,1.21808 0.39435,1.77795 -3.73489,3.44768 -7.72773,3.12484 -16.01882,3.98928 -26.0882,2.7203 -2.71813,-0.34255 -5.57517,-1.23499 -8.34916,-2.60868 -4.24892,-2.10408 -5.20069,-3.06715 -4.37146,-4.4224 0.10463,-0.17101 0.26058,-0.26266 0.4913,-0.26726 z m -2.62464,2.67367 2.40933,1.74034 c 4.63609,3.34837 8.50315,4.28206 19.04178,4.599 9.03752,0.2718 9.84292,0.20222 15.05214,-1.30591 3.02708,-0.87639 6.65544,-2.24315 8.06278,-3.03683 l 2.55875,-1.44269 2.33204,1.20163 c 1.28274,0.66101 5.84224,2.42606 10.1323,3.92246 8.98761,3.13492 19.31412,7.84266 19.30428,8.80077 -0.004,0.36044 -0.78797,3.27254 -1.74267,6.47088 -2.61758,8.76921 -6.28467,25.87652 -7.70013,35.92155 -0.69314,4.91902 -1.79918,10.95599 -2.45759,13.4155 -1.73654,6.48688 -2.088,20.23074 -0.86433,33.79499 1.34917,14.95535 2.69108,35.55716 2.87523,44.13906 0.12646,5.89378 -0.0157,7.45348 -0.74812,8.19656 -1.23867,1.2565 -9.80386,3.05173 -19.87756,4.16666 -7.6397,0.84554 -37.72396,1.18476 -46.80573,0.52771 -11.97669,-0.86648 -20.95171,-2.55662 -23.1585,-4.3616 -1.16158,-0.95009 -1.24182,-1.52817 -1.12477,-8.11743 0.0693,-3.90192 0.93622,-17.5584 1.92633,-30.34783 2.01609,-26.04213 2.09829,-41.1102 0.25889,-47.40176 -0.52732,-1.80364 -1.74099,-7.16955 -2.69676,-11.92459 -2.229048,-11.08956 -5.69122,-22.63627 -9.83347,-32.79355 -1.805422,-4.42711 -3.319224,-8.58089 -3.363943,-9.23048 -0.114149,-1.65812 9.462764,-6.34177 22.517773,-11.01224 5.61172,-2.00761 11.0352,-4.16124 12.05241,-4.78608 z m 80.76941,15.14431 c 0.94763,0.0441 3.66691,2.39761 5.80545,5.13037 1.61611,2.06516 2.87631,4.77768 4.33048,9.32063 1.12809,3.52423 3.24833,9.22489 4.71181,12.6682 1.46348,3.44331 3.61462,8.5007 4.78029,11.23862 l 2.11932,4.97789 -3.98704,3.99897 c -2.19288,2.1993 -5.71384,4.95352 -7.82412,6.12081 -3.6844,2.03802 -15.79859,7.05309 -17.0371,7.05309 -0.32898,0 -1.32123,-2.24219 -2.20493,-4.98312 l -1.60674,-4.98364 1.29182,-9.10786 c 0.71037,-5.00938 2.09224,-12.76162 3.07082,-17.22686 1.718,-7.83915 5.69568,-23.14031 6.25941,-24.07871 0.0562,-0.0936 0.15516,-0.13469 0.29053,-0.12839 z m -119.307422,3.39737 c 0.04095,0.001 0.08007,0.008 0.117769,0.0209 1.052805,0.35448 6.662,14.50689 9.393517,23.70088 1.315286,4.42711 3.137051,11.75994 4.048252,16.29511 l 1.656548,8.24581 -1.422049,4.22274 c -0.782104,2.32268 -1.4894,4.27568 -1.571984,4.33959 -0.08259,0.0639 -2.275372,-0.73798 -4.872634,-1.78174 -5.942714,-2.3882 -9.17258,-4.06451 -13.281457,-6.89378 -3.955475,-2.72365 -10.267832,-8.25028 -10.498058,-9.19119 -0.09234,-0.37742 1.59026,-4.9662 3.739043,-10.19735 2.148783,-5.23115 4.959662,-12.63133 6.246434,-16.44498 2.368957,-7.02097 5.175047,-12.3585 6.444619,-12.31605 z m -17.358759,41.01262 c 0.187605,0 1.813728,1.3602 3.614008,3.02216 5.868203,5.41733 13.431822,9.9436 21.764469,13.02455 2.9967,1.10802 3.570881,1.53688 3.325552,2.48449 -0.368563,1.42361 -1.554982,1.41261 -7.135152,-0.0639 -8.077171,-2.13726 -17.443378,-7.65341 -21.512846,-12.66978 -1.963889,-2.42086 -2.031029,-2.64713 -1.236835,-4.17819 0.461857,-0.89039 0.9932,-1.6193 1.180804,-1.6193 z m 159.195371,1.25351 c 0.0199,-0.004 0.0339,-0.003 0.041,0.005 0.11327,0.12782 0.37446,0.78823 0.58055,1.46732 0.29841,0.98339 -0.49781,2.08166 -3.91129,5.39554 -5.02443,4.87782 -11.69811,8.61763 -18.52505,10.38129 -5.64206,1.45756 -7.46018,1.51303 -7.20155,0.21904 0.12075,-0.60407 2.79559,-1.9823 7.28146,-3.75109 9.05112,-3.5689 13.06513,-5.90843 17.78054,-10.364 1.95375,-1.84608 3.65587,-3.28542 3.95435,-3.35282 z"
       id="rect1277"
       inkscape:connector-curvature="0" />
    <path
       style="opacity:1;fill:#000000;fill-opacity:1;fill-rule:nonzero;stroke:none;stroke-width:1.46499991;stroke-linecap:butt;stroke-linejoin:miter;stroke-miterlimit:4;stroke-dasharray:none;stroke-dashoffset:0;stroke-opacity:1;paint-order:stroke fill markers"
       d="m 145.12531,200.66931 c -1.88051,-1.96358 -17.43234,-19.76775 -28.00162,-32.05705 l -3.43679,-3.99608 5.3194,-5.676 5.31939,-5.676 h 22.73601 22.73601 l 5.59521,5.6122 5.5952,5.61219 -2.3435,2.74388 c -3.90156,4.56814 -31.1586,35.70561 -31.25588,35.70561 -0.0498,0 -1.0684,-1.02094 -2.26343,-2.26875 z m 10.41214,-10.93342 c 0.68399,-0.89675 1.14388,-1.7302 1.02198,-1.8521 -0.1219,-0.1219 -2.46242,-0.0151 -5.20116,0.23737 -2.85951,0.26359 -6.60634,0.29101 -8.8006,0.0644 -2.10158,-0.21702 -3.98616,-0.30289 -4.18794,-0.19083 -0.53632,0.29785 1.11464,2.44878 5.27006,6.86601 l 3.6737,3.90517 3.49017,-3.69979 c 1.9196,-2.03488 4.04981,-4.43349 4.73379,-5.33025 z m 1.92003,-5.65966 c 2.99077,-0.89501 4.69529,-2.70321 3.91776,-4.15606 -0.86647,-1.619 -3.39382,-2.24272 -11.23602,-2.7729 -10.66857,-0.72127 -19.6765,-1.44815 -21.8672,-1.76455 l -1.86718,-0.26967 1.00385,1.37463 c 0.55211,0.75604 2.17543,2.66424 3.60738,4.24043 l 2.60353,2.8658 1.28417,-1.19408 c 2.29204,-2.13127 7.78817,-1.1284 10.5197,1.91952 0.8953,0.99899 1.22516,1.04813 5.25397,0.78268 2.36429,-0.15579 5.4153,-0.61739 6.78004,-1.0258 z m 12.67571,-10.87085 c 1.63536,-1.75061 6.03719,-6.85067 7.00568,-8.11694 0.56584,-0.7398 0.22072,-1.26093 -3.08408,-4.65692 -2.04667,-2.10315 -4.00635,-3.8239 -4.35484,-3.8239 -0.4736,0 -0.63362,0.96498 -0.63362,3.82107 v 3.82106 l -4.89574,-0.0113 -4.89575,-0.0112 -1.0274,-2.33967 c -1.29929,-2.95883 -4.05869,-5.02787 -7.72433,-5.79182 -3.78096,-0.78799 -10.41735,-0.29919 -13.30991,0.98033 -4.24109,1.87603 -5.4934,3.9326 -4.23242,6.95056 1.23637,2.95904 3.42742,3.55669 14.875,4.05744 12.23476,0.53518 14.72744,1.13575 17.83042,4.2959 1.20232,1.22448 2.36849,2.26039 2.59146,2.30202 0.22297,0.0416 1.05796,-0.62285 1.85553,-1.47662 z m -46.91967,-3.85379 c 0,-0.60906 0.32711,-2.20891 0.72692,-3.55522 0.79718,-2.68439 4.31135,-6.95424 7.18533,-8.73046 0.9055,-0.55964 1.52488,-1.2141 1.37639,-1.45436 -0.14849,-0.24026 -1.77237,-0.43683 -3.60863,-0.43683 h -3.33864 l -4.1559,4.35523 c -2.28574,2.39539 -4.21976,4.5214 -4.29782,4.72449 -0.2322,0.60409 4.65405,6.20455 5.41331,6.20455 0.41262,0 0.69904,-0.45373 0.69904,-1.1074 z m 40.65049,-11.07776 c 0.52425,-1.18517 0.82189,-2.36732 0.6614,-2.62699 -0.31932,-0.51668 -5.61955,-0.66038 -6.11416,-0.16577 -0.3652,0.3652 3.37618,4.94762 4.03955,4.94762 0.253,0 0.88895,-0.96969 1.41321,-2.15486 z"
       id="path934"
       inkscape:connector-curvature="0" />
    <path
       style="fill:url(#linearGradient1294);fill-opacity:1;stroke:none;stroke-width:0.26458332px;stroke-linecap:butt;stroke-linejoin:miter;stroke-opacity:1"
       d="m 204.07864,130.74425 v 0 l 94.43173,49.01352 -0.41301,119.59407 c -65.96699,-9.51475 -172.12094,-7.9779 -196.79855,-27.12684 14.85649,9.90547 92.15619,2.49939 89.11588,0.2456 5.31067,2.95563 -0.83151,-36.8634 -1.24726,-55.2951 l -0.41575,-20.78763 c 4.38743,-29.17413 6.01965,-20.5935 4.41438,-15.1018 1.54521,4.74231 3.09042,10.23425 4.63562,14.21987 6.05568,-1.2345 12.55232,-3.74874 18.608,-6.06408 3.12537,-4.43494 12.8747,-7.87257 10.19816,-13.03383 -9.29348,-20.76434 -14.30446,-44.02875 -22.5292,-45.66378 z"
       id="path1286"
       inkscape:connector-curvature="0"
       sodipodi:nodetypes="ccccccccccccc" />
    <path
       style="fill:#000000;stroke-width:1"
       d="m 164.35919,265.54061 c -0.38525,-0.13316 -0.69723,-0.37686 -0.96131,-0.75087 -0.29326,-0.41533 -0.46024,-0.88009 -0.5215,-1.45158 -0.0521,-0.48913 0.0427,-1.13521 0.22867,-1.55691 0.34222,-0.77503 0.92861,-1.24597 1.64709,-1.32281 0.33874,-0.0363 0.81577,0.10613 1.0878,0.32462 0.0687,0.0554 0.13242,0.0915 0.14103,0.0802 0.009,-0.0113 0.016,-0.0949 0.016,-0.18572 v -0.16529 h 0.47159 0.47159 v 2.49644 2.49644 h -0.47159 -0.47159 v -0.15674 c 0,-0.0863 -0.009,-0.15161 -0.0196,-0.14534 -0.0109,0.006 -0.1095,0.0692 -0.21934,0.13991 -0.29985,0.19297 -0.54999,0.26512 -0.91145,0.26288 -0.2082,-10e-4 -0.36131,-0.0217 -0.48707,-0.0652 z m 0.98406,-1.23805 c 0.4593,-0.28759 0.70887,-0.88418 0.62694,-1.49853 -0.0513,-0.38251 -0.24864,-0.76749 -0.50197,-0.9781 -0.307,-0.25519 -0.7365,-0.29076 -1.05325,-0.0873 -0.47305,0.30399 -0.73051,0.9864 -0.60814,1.61206 0.0774,0.39607 0.25319,0.69686 0.53343,0.91286 0.17248,0.13297 0.33462,0.1802 0.58384,0.17008 0.19525,-0.008 0.24949,-0.0248 0.41923,-0.13115 z m 3.41748,1.23805 c -0.24733,-0.0854 -0.40715,-0.17935 -0.61978,-0.36353 -0.37388,-0.32426 -0.68631,-0.88901 -0.81228,-1.46729 -0.0767,-0.35245 -0.0831,-0.97829 -0.0145,-1.31553 0.14609,-0.70737 0.51347,-1.30096 1.01877,-1.64419 0.29867,-0.20285 0.54745,-0.27904 0.92453,-0.28331 0.36882,-0.004 0.61326,0.0705 0.92235,0.28209 0.10414,0.0714 0.19599,0.1218 0.20395,0.11194 0.007,-0.01 0.0145,-0.47701 0.0145,-1.03815 v -1.02023 h 0.47152 0.47152 v 3.35138 3.35139 h -0.47152 -0.47152 v -0.1311 c 0,-0.072 -0.007,-0.14014 -0.0145,-0.15121 -0.007,-0.0111 -0.10921,0.0411 -0.22419,0.11593 -0.30592,0.19907 -0.54529,0.26935 -0.91072,0.26709 -0.20828,-10e-4 -0.3616,-0.0217 -0.48671,-0.0652 z m 0.96351,-1.22374 c 0.20973,-0.12804 0.42813,-0.38651 0.52649,-0.62277 0.15331,-0.36865 0.16633,-0.86918 0.0289,-1.2542 -0.0919,-0.26173 -0.31965,-0.56084 -0.53372,-0.70101 -0.16778,-0.10991 -0.18876,-0.11516 -0.46429,-0.11516 -0.27192,0 -0.29868,0.006 -0.45851,0.10969 -0.22491,0.14528 -0.35291,0.28916 -0.47152,0.52863 -0.39341,0.79465 -0.10703,1.81604 0.59447,2.11744 0.23793,0.10226 0.54674,0.0773 0.77605,-0.0626 z m 4.93717,1.23936 c -0.4397,-0.14489 -0.8823,-0.53267 -1.13231,-0.99149 -0.27119,-0.49834 -0.37968,-0.93758 -0.37968,-1.5389 0,-0.74717 0.16273,-1.25533 0.57639,-1.79623 0.16489,-0.21547 0.30446,-0.36375 0.41294,-0.43811 0.42235,-0.28953 0.89207,-0.39787 1.31709,-0.30365 0.25673,0.057 0.58578,0.21037 0.71161,0.3318 0.0361,0.0379 0.0773,0.0688 0.0853,0.0688 0.007,0 0.0145,-0.46937 0.0145,-1.04303 v -1.04304 h 0.47152 0.47153 v 3.35138 3.35139 h -0.47153 -0.47152 v -0.15674 c 0,-0.0863 -0.007,-0.1515 -0.0217,-0.14509 -0.007,0.006 -0.0911,0.0601 -0.1779,0.11928 -0.31025,0.21129 -0.4614,0.25806 -0.8768,0.27137 -0.27337,0.009 -0.42235,-0.002 -0.53155,-0.0378 z m 0.81338,-1.17444 c 0.42668,-0.17329 0.73721,-0.66228 0.78285,-1.23228 0.0434,-0.55888 -0.22203,-1.14638 -0.64219,-1.41474 -0.16273,-0.10379 -0.19165,-0.11104 -0.44911,-0.11104 -0.25457,0 -0.28783,0.008 -0.45127,0.10892 -0.24227,0.14972 -0.41078,0.36526 -0.53444,0.6836 -0.0984,0.25224 -0.10197,0.27331 -0.10197,0.60644 0,0.31654 0.007,0.36405 0.0831,0.57355 0.24227,0.66834 0.79189,0.99709 1.31259,0.78555 z m 3.63309,1.1909 c -0.18224,-0.0472 -0.5272,-0.23689 -0.69137,-0.37967 -0.24588,-0.21459 -0.5489,-0.66028 -0.67473,-0.99389 -0.15043,-0.39725 -0.19309,-0.60573 -0.20973,-1.02097 -0.0289,-0.79277 0.17718,-1.48495 0.60748,-2.01009 0.31097,-0.3796 0.70077,-0.61685 1.14135,-0.69422 0.38617,-0.0678 0.9081,0.0651 1.20686,0.30763 0.0651,0.0555 0.1309,0.0921 0.13957,0.0811 0.007,-0.0109 0.0145,-0.0942 0.0145,-0.18503 v -0.16529 h 0.47152 0.47152 v 2.49644 2.49644 h -0.47152 -0.47152 v -0.15674 c 0,-0.0863 -0.007,-0.15149 -0.0217,-0.14506 -0.007,0.006 -0.10414,0.0686 -0.20683,0.13819 -0.28567,0.19324 -0.53806,0.26691 -0.89858,0.26246 -0.16633,-0.002 -0.35074,-0.0162 -0.40932,-0.0314 z m 0.89112,-1.25857 c 0.44116,-0.26957 0.70366,-0.90761 0.61906,-1.50596 -0.0962,-0.68144 -0.499,-1.16006 -1.00589,-1.19432 -0.26758,-0.018 -0.45562,0.0481 -0.67185,0.2364 -0.17429,0.15208 -0.28204,0.31239 -0.37967,0.56709 -0.29145,0.75727 0.004,1.66097 0.63713,1.951 0.25094,0.11473 0.5583,0.094 0.80093,-0.0542 z m 3.13779,1.23969 c -0.47659,-0.13623 -0.86899,-0.49595 -1.05029,-0.96269 -0.0651,-0.16747 -0.1432,-0.57842 -0.12367,-0.64668 0.0145,-0.037 0.11354,-0.0466 0.49683,-0.0466 h 0.4831 l 0.0289,0.17494 c 0.0651,0.37183 0.36233,0.61161 0.75046,0.61161 0.24951,0 0.37389,-0.048 0.50624,-0.19557 0.13596,-0.15178 0.1779,-0.32334 0.12294,-0.49657 -0.0651,-0.2007 -0.20177,-0.26895 -0.77744,-0.3869 -0.88829,-0.18186 -1.22118,-0.39846 -1.4155,-0.92117 -0.31748,-0.85416 0.0289,-1.75459 0.80593,-2.10601 0.50406,-0.22731 1.27773,-0.12688 1.69234,0.21964 0.15621,0.13033 0.39053,0.453 0.4614,0.63376 0.0579,0.15354 0.13307,0.46858 0.13307,0.5745 v 0.0792 h -0.47008 c -0.51636,0 -0.4708,0.0197 -0.51202,-0.22019 -0.0579,-0.35164 -0.41873,-0.53259 -0.85221,-0.43062 -0.26252,0.0617 -0.3927,0.20743 -0.3927,0.43963 0,0.27128 0.21769,0.40203 0.91701,0.55035 0.61616,0.13071 0.92121,0.28514 1.16992,0.59218 0.18368,0.22714 0.27553,0.47927 0.29144,0.80401 0.0434,0.89885 -0.36232,1.52177 -1.13541,1.73546 -0.23287,0.0643 -0.90435,0.063 -1.13288,-0.002 z m -11.32382,-2.54507 v -2.49644 h 0.47152 0.47152 v 2.49644 2.49644 h -0.47152 -0.47152 z m 12.82473,-2.84532 c -0.0434,-0.0195 -0.1186,-0.0838 -0.16706,-0.14265 -0.21984,-0.26587 -0.21695,-0.68034 0.005,-0.93532 0.31675,-0.36278 0.80332,-0.0812 0.80332,0.46461 0,0.26408 -0.0875,0.44882 -0.26686,0.56566 -0.14392,0.0937 -0.24589,0.10656 -0.37534,0.0477 z m 0.41512,-0.17466 c 0.11137,-0.11068 0.18803,-0.34814 0.16416,-0.50947 -0.0506,-0.36841 -0.35436,-0.57392 -0.60893,-0.41606 -0.30807,0.19064 -0.31024,0.77982 -0.004,0.9836 0.12656,0.0843 0.33267,0.0578 0.4491,-0.0581 z m -0.10703,-0.0832 c -0.0145,-0.008 -0.0361,-0.0488 -0.0361,-0.0906 0,-0.11656 -0.0579,-0.19995 -0.13234,-0.18646 -0.0506,0.01 -0.0651,0.0337 -0.0724,0.14004 -0.005,0.0838 -0.0217,0.12824 -0.0434,0.12824 -0.0289,0 -0.0361,-0.0671 -0.0361,-0.34197 v -0.34199 h 0.1403 c 0.1027,0 0.15187,0.0168 0.1837,0.0626 0.0506,0.0692 0.0579,0.16746 0.0217,0.24409 -0.0145,0.0314 -0.0145,0.0656 0.002,0.0916 0.0361,0.0597 0.0217,0.31275 -0.0217,0.29457 z m -0.0724,-0.43254 c 0.0434,-0.0405 0.0434,-0.0559 0.0145,-0.1026 -0.0217,-0.0302 -0.0724,-0.055 -0.11064,-0.055 -0.0651,0 -0.0752,0.0147 -0.0752,0.0797 0,0.0439 0.007,0.0901 0.0145,0.10259 0.0289,0.0375 0.10053,0.0259 0.15333,-0.0247 z m -13.06108,-0.0471 v -0.60759 l -0.25239,-0.56368 c -0.13885,-0.31004 -0.33701,-0.75605 -0.44115,-0.99116 -0.10414,-0.23512 -0.40499,-0.91223 -0.66823,-1.5047 -0.26324,-0.59248 -0.55758,-1.2542 -0.65377,-1.47051 -0.0962,-0.2163 -0.27264,-0.61226 -0.39197,-0.8799 -0.11932,-0.26764 -0.21261,-0.50343 -0.20755,-0.52399 0.005,-0.0205 0.17429,-0.16129 0.37534,-0.31275 0.90319,-0.67923 1.44009,-1.0835 2.14209,-1.61305 0.41511,-0.31287 0.76384,-0.56887 0.77563,-0.56887 0.0145,0 0.12583,0.23468 0.25239,0.52152 0.12728,0.28684 0.31314,0.70618 0.41366,0.93189 0.0998,0.22572 0.3146,0.71047 0.47659,1.07724 0.39992,0.90544 1.08696,2.4557 1.49354,3.36848 0.18442,0.4138 0.45055,1.01397 0.59085,1.33371 0.14029,0.31976 0.30953,0.70411 0.37606,0.85412 0.0651,0.15001 0.12004,0.28467 0.12004,0.29924 0,0.0146 -0.77815,0.0265 -1.72915,0.0265 h -1.72917 v 0.61557 0.61555 h -0.47152 -0.47153 z m -6.21851,-1.34059 c -0.17082,-0.3934 -0.30967,-0.7277 -0.30867,-0.74291 8.2e-4,-0.0152 0.27634,-0.2332 0.61183,-0.48444 0.33549,-0.25125 1.02852,-0.77334 1.54003,-1.16022 1.16326,-0.87979 1.15371,-0.87273 1.16442,-0.85768 0.0217,0.0331 1.74376,3.92296 1.74376,3.9434 0,0.0104 -0.99923,0.0185 -2.22042,0.018 l -2.22045,-8.9e-4 -0.31054,-0.71528 z m 11.86064,0.34936 c -0.089,-0.20216 -0.29361,-0.66765 -0.4556,-1.03441 -0.162,-0.36677 -0.47442,-1.07466 -0.69427,-1.5731 -1.17475,-2.66283 -2.66063,-6.02797 -2.76332,-6.25821 -0.58578,-1.31362 -0.55975,-1.2476 -0.51709,-1.29164 0.0145,-0.0182 0.36811,-0.28382 0.77874,-0.5901 0.41077,-0.30628 1.13483,-0.84688 1.60925,-1.20135 0.47441,-0.35445 0.876,-0.64446 0.89249,-0.64446 0.0145,0 0.0579,0.0653 0.0918,0.14534 0.0361,0.0799 0.18153,0.41465 0.32761,0.7438 0.14681,0.32915 0.4303,0.96779 0.62991,1.41922 0.1996,0.4514 0.418,0.94385 0.48453,1.09433 0.30447,0.68679 0.66028,1.48712 0.91079,2.05186 0.15042,0.33855 0.3616,0.81561 0.47008,1.06012 0.50045,1.1314 1.29408,2.91969 1.49519,3.36849 0.12222,0.27274 0.31315,0.70363 0.42524,0.95755 0.11137,0.25392 0.36304,0.82238 0.55903,1.26327 0.19599,0.44088 0.35654,0.81407 0.35654,0.8293 0,0.0152 -0.99917,0.0277 -2.22042,0.0275 l -2.22042,-6e-5 -0.16128,-0.36755 z"
       id="path1307"
       inkscape:connector-curvature="0" />
    <path
       style="fill:#000055;stroke-width:1"
       d="m 176.81572,403.74113 c 0,-0.11989 0.2178,-0.77197 0.48398,-1.44905 0.2662,-0.67708 0.48379,-1.32809 0.48355,-1.44668 -1.9e-4,-0.11859 -0.38012,-1.25108 -0.84417,-2.51666 -1.26509,-3.4501 -1.22961,-3.20146 -0.4568,-3.20146 h 0.66061 l 0.62185,2.00092 c 0.34202,1.1005 0.68243,2.0009 0.75647,2.0009 0.074,0 0.43955,-0.8779 0.81224,-1.95088 0.61648,-1.77489 0.72559,-1.9566 1.20945,-2.01419 0.29253,-0.0349 0.53027,0.0102 0.52833,0.10003 -0.002,0.0898 -0.77578,2.05422 -1.71964,4.36527 -1.40043,3.42896 -1.79151,4.21366 -2.12599,4.26584 -0.22543,0.0351 -0.40988,-0.0342 -0.40988,-0.15404 z m 26.52684,-2.81136 c -0.3701,-0.0923 -0.82269,-0.35906 -1.00575,-0.59272 -0.40953,-0.52272 -0.63539,-1.9611 -0.47289,-3.01147 0.26707,-1.72623 0.79071,-2.1983 2.43845,-2.1983 1.33678,0 1.91061,0.28007 2.23917,1.09281 0.57802,1.42984 0.21842,4.01373 -0.62214,4.4704 -0.55956,0.30398 -1.84065,0.42294 -2.57684,0.23928 z m 1.88287,-1.15879 c 0.13795,-0.18138 0.24199,-0.88485 0.24199,-1.63605 0,-1.65176 -0.34203,-2.25766 -1.22414,-2.1685 -0.84069,0.0849 -1.13199,0.73531 -1.04768,2.33903 0.0551,1.04808 0.14821,1.34514 0.5189,1.65537 0.49653,0.41557 1.109,0.33861 1.51093,-0.18985 z m -42.3516,1.10892 c -0.002,-0.0275 -0.009,-1.71578 -0.0156,-3.7517 l -0.0124,-3.70168 1.87265,0.002 c 1.80998,0.002 1.88826,0.0201 2.33871,0.56141 0.38075,0.4575 0.46605,0.78052 0.46605,1.76477 0,1.06482 -0.0658,1.27273 -0.56589,1.78967 -0.46059,0.47605 -0.73074,0.58487 -1.45193,0.58487 -0.75701,0 -0.88607,-0.0583 -0.88607,-0.40017 0,-0.32449 0.12906,-0.40018 0.68237,-0.40018 0.56557,0 0.71749,-0.0942 0.88762,-0.55025 0.27759,-0.7441 0.0852,-2.07587 -0.34719,-2.40296 -0.1934,-0.1463 -0.69069,-0.23951 -1.10508,-0.2071 l -0.75344,0.0589 0.0392,3.35152 0.0392,3.35152 h -0.59251 c -0.32589,0 -0.59398,-0.0226 -0.59576,-0.05 z m 5.61742,-3.765 v -3.81501 l 0.53237,0.0633 0.53238,0.0633 0.0527,3.75169 0.0527,3.75171 h -0.58505 -0.58505 z m 2.58117,3.29958 c -0.42236,-0.43654 -0.48252,-0.6401 -0.39299,-1.32996 0.14039,-1.08176 0.60897,-1.52656 1.68366,-1.59815 0.67026,-0.0447 0.87117,0.0112 0.87117,0.2421 0,0.16507 -0.19816,0.32919 -0.44035,0.36472 -1.09954,0.16127 -1.20902,1.84133 -0.13808,2.11914 1.12094,0.29078 1.256,0.0768 1.256,-1.99007 0,-2.1602 -0.0965,-2.2946 -1.647,-2.2946 -0.75087,0 -0.8875,-0.0574 -0.8335,-0.35016 0.0524,-0.28416 0.3067,-0.36122 1.34882,-0.40884 1.12442,-0.0514 1.35181,0.002 1.82754,0.42435 0.53863,0.47886 0.54339,0.50396 0.5529,2.90995 l 0.01,2.4269 -1.79953,3e-5 c -1.67556,3e-5 -1.8339,-0.0355 -2.29824,-0.51541 z m 10.97031,0.21531 c 0,-0.22677 0.23661,-0.30014 0.96796,-0.30014 1.18556,0 1.74233,-0.47173 1.74233,-1.47619 0,-0.84339 -0.34336,-1.14649 -1.44402,-1.27471 -1.21381,-0.14142 -1.55835,-0.60253 -1.54985,-2.07426 0.01,-1.70881 0.41291,-2.07797 2.26875,-2.07797 1.15694,0 1.40514,0.0578 1.45905,0.33979 0.0541,0.28301 -0.12203,0.34989 -1.05402,0.40019 -0.99093,0.0535 -1.15294,0.12335 -1.4158,0.61063 -0.26674,0.49447 -0.26672,0.60602 3.8e-4,1.1005 0.24047,0.44524 0.47178,0.57115 1.21219,0.65974 1.33143,0.15935 1.58812,0.51757 1.58812,2.21638 -5e-5,1.8853 -0.31342,2.17617 -2.3446,2.17617 -1.14249,0 -1.43049,-0.0605 -1.43049,-0.30013 z m 5.48973,0.14699 c -0.14612,-0.0971 -0.24474,-1.25405 -0.29047,-3.40742 l -0.0692,-3.26043 0.58085,0.0589 c 0.43278,0.0439 0.58086,0.161 0.58086,0.45917 0,0.30522 0.14929,0.41504 0.62918,0.46287 0.46434,0.0463 0.62917,0.1609 0.62917,0.43753 0,0.27409 -0.16444,0.39168 -0.61185,0.43753 -0.56166,0.0575 -0.61719,0.12834 -0.67703,0.86306 -0.0359,0.4402 -8e-5,1.38563 0.0795,2.10095 0.12707,1.14247 0.1976,1.30836 0.58023,1.36453 0.23957,0.0351 0.43558,0.19274 0.43558,0.35016 0,0.20382 -0.23687,0.28533 -0.82276,0.28316 -0.45253,-0.002 -0.92233,-0.0692 -1.04401,-0.15008 z m 3.11633,-0.33799 c -1.04198,-1.07696 -0.36135,-2.7599 1.21875,-3.01359 0.73193,-0.11751 0.82277,-0.0887 0.82277,0.26067 0,0.27554 -0.17178,0.42826 -0.57561,0.51175 -0.39858,0.0824 -0.61205,0.26897 -0.69404,0.60664 -0.2369,0.97558 0.65676,1.75341 1.64287,1.42992 0.36605,-0.12008 0.40116,-0.28675 0.40116,-1.90463 0,-2.14319 -0.16831,-2.40189 -1.56258,-2.40189 -0.82507,0 -0.95413,-0.0541 -0.95413,-0.40019 0,-0.36231 0.12906,-0.40019 1.36395,-0.40019 1.19001,0 1.42454,0.0626 1.83912,0.49114 0.45192,0.46709 0.47519,0.60915 0.47519,2.90132 v 2.41018 h -1.75114 c -1.6011,0 -1.79184,-0.042 -2.22631,-0.49113 z m 5.533,0.1041 c -0.11271,-0.21767 -0.2004,-1.7062 -0.2004,-3.40154 v -3.01451 h 0.56732 c 0.44092,0 0.58108,0.10028 0.62916,0.4502 0.0477,0.34707 0.20867,0.46477 0.70271,0.51381 0.87177,0.0865 0.78596,0.70994 -0.11004,0.79945 l -0.6276,0.0627 v 1.94821 c 0,1.98536 0.14246,2.42842 0.78082,2.42842 0.17391,0 0.31621,0.13507 0.31621,0.30015 0,0.48994 -1.79882,0.414 -2.05818,-0.0869 z m 3.28426,-2.51429 v -2.90132 h 0.58078 0.58077 v 2.90132 2.90132 h -0.58077 -0.58078 z m 8.51808,0 v -2.90132 h 1.73153 c 1.52126,0 1.79112,0.0547 2.2221,0.45022 0.46993,0.43127 0.49177,0.55113 0.51935,2.85128 l 0.0288,2.40109 -0.60535,0.0627 -0.60536,0.0626 v -2.28922 c 0,-2.59533 -0.0994,-2.80289 -1.29323,-2.7013 l -0.73948,0.0629 -0.0543,2.45111 -0.0543,2.45111 h -0.57482 -0.57482 z m -8.42136,-3.66841 c -0.0532,-0.055 -0.0967,-0.31006 -0.0967,-0.56685 0,-0.38759 0.1008,-0.46688 0.59364,-0.46688 0.52966,0 0.58703,0.0576 0.53238,0.5348 -0.0447,0.39026 -0.17899,0.54345 -0.49693,0.56684 -0.23961,0.0177 -0.47918,-0.0129 -0.53237,-0.0679 z m -14.51936,-6.21178 -4.45263,-1.54167 -0.0578,-1.36375 c -0.0545,-1.28765 -0.0816,-1.35846 -0.48398,-1.26901 -3.50523,0.77905 -3.68065,0.79606 -7.18078,0.69586 -6.97707,-0.19973 -12.63335,-1.86898 -13.63956,-4.02527 -0.46293,-0.99202 -0.13699,-1.86418 1.20159,-3.21521 0.65972,-0.66585 1.67613,-1.47726 2.25869,-1.80314 0.58256,-0.32587 4.80522,-1.95879 9.38368,-3.62871 l 8.32448,-3.03623 0.0499,-12.54945 c 0.0416,-10.45254 0.0936,-12.53207 0.31184,-12.44552 0.14409,0.0572 2.16888,0.61338 4.49955,1.23606 13.00247,3.47387 17.41287,6.37434 18.93706,12.45384 0.68602,2.7363 0.24353,6.60227 -1.06297,9.287 -0.87497,1.79797 -1.54882,2.60607 -2.73267,3.27709 -0.89278,0.50602 -1.23773,0.58482 -2.57935,0.58922 -1.08198,0.004 -1.97173,-0.13211 -2.95228,-0.45006 l -1.40355,-0.45513 v -8.00429 c 0,-8.51416 -0.0562,-9.08785 -0.93885,-9.57606 -0.61283,-0.33899 -1.47842,-0.25458 -2.03572,0.1985 l -0.51009,0.41471 v 10.79037 c 0,6.4349 0.0719,10.79038 0.17811,10.79038 0.098,0 1.25225,-0.32228 2.56509,-0.71619 1.31285,-0.3939 3.30172,-0.93333 4.41971,-1.19873 4.79431,-1.13809 12.39469,-0.27323 16.75102,1.90614 3.18368,1.59271 3.44669,3.28392 0.84167,5.41218 -1.34733,1.10076 -2.039,1.44724 -5.16916,2.58947 -1.4559,0.53128 -6.40844,2.37177 -11.00562,4.09 -4.59718,1.71822 -8.51744,3.11621 -8.71167,3.10666 -0.19422,-0.01 -2.35682,-0.71114 -4.80577,-1.55906 z m 13.48563,-7.70833 c 7.77773,-2.63877 9.35829,-3.3024 9.35829,-3.92919 0,-0.7296 -3.47727,-1.05606 -5.4541,-0.51206 -0.55081,0.15157 -3.57811,1.19962 -6.72734,2.32897 l -5.72587,2.05339 v 1.49177 c 0,1.11029 0.0619,1.46769 0.24199,1.39757 0.13309,-0.0518 3.87125,-1.32552 8.30703,-2.83045 z m -25.35338,0.31167 c 0.7085,-0.20306 2.64358,-0.90088 4.30019,-1.55071 l 3.01203,-1.1815 0.003,-1.65075 c 0.002,-0.90792 -0.069,-1.65075 -0.15709,-1.65075 -0.0881,0 -1.24237,0.41265 -2.5651,0.91701 -1.32273,0.50437 -3.63341,1.35109 -5.13484,1.88161 -3.87429,1.36894 -4.92236,1.97952 -4.65127,2.70969 0.33094,0.89136 2.9807,1.15944 5.19303,0.5254 z"
       id="path1344"
       inkscape:connector-curvature="0" />
  </g>
</svg>
