<?xml version="1.0" encoding="UTF-8" standalone="no"?>
<!-- Created with Inkscape (http://www.inkscape.org/) -->

<svg
   xmlns:dc="http://purl.org/dc/elements/1.1/"
   xmlns:cc="http://creativecommons.org/ns#"
   xmlns:rdf="http://www.w3.org/1999/02/22-rdf-syntax-ns#"
   xmlns:svg="http://www.w3.org/2000/svg"
   xmlns="http://www.w3.org/2000/svg"
   xmlns:xlink="http://www.w3.org/1999/xlink"
   xmlns:sodipodi="http://sodipodi.sourceforge.net/DTD/sodipodi-0.dtd"
   xmlns:inkscape="http://www.inkscape.org/namespaces/inkscape"
   width="297mm"
   height="210mm"
   viewBox="0 0 297 210"
   version="1.1"
   id="svg8"
   sodipodi:docname="zapt2.svg"
   inkscape:version="0.92.2 (5c3e80d, 2017-08-06)">
  <defs
     id="defs2">
    <linearGradient
       inkscape:collect="always"
       id="linearGradient4641">
      <stop
         style="stop-color:#000000;stop-opacity:1;"
         offset="0"
         id="stop4637" />
      <stop
         style="stop-color:#000000;stop-opacity:0;"
         offset="1"
         id="stop4639" />
    </linearGradient>
    <inkscape:path-effect
       effect="spiro"
       id="path-effect1882"
       is_visible="true" />
    <inkscape:path-effect
       effect="spiro"
       id="path-effect1874"
       is_visible="true" />
    <inkscape:path-effect
       effect="spiro"
       id="path-effect1870"
       is_visible="true" />
    <inkscape:path-effect
       effect="spiro"
       id="path-effect1800"
       is_visible="true" />
    <inkscape:path-effect
       effect="spiro"
       id="path-effect1796"
       is_visible="true" />
    <inkscape:path-effect
       effect="spiro"
       id="path-effect1792"
       is_visible="true" />
    <inkscape:path-effect
       effect="spiro"
       id="path-effect1524"
       is_visible="true" />
    <inkscape:path-effect
       effect="spiro"
       id="path-effect1524-7"
       is_visible="true" />
    <inkscape:path-effect
       effect="spiro"
       id="path-effect1524-6"
       is_visible="true" />
    <linearGradient
       inkscape:collect="always"
       xlink:href="#linearGradient4641"
       id="linearGradient4643"
       x1="83.242511"
       y1="226.33533"
       x2="299.58154"
       y2="226.33533"
       gradientUnits="userSpaceOnUse" />
  </defs>
  <sodipodi:namedview
     id="base"
     pagecolor="#ffffff"
     bordercolor="#666666"
     borderopacity="1.0"
     inkscape:pageopacity="0.0"
     inkscape:pageshadow="2"
     inkscape:zoom="0.66245342"
     inkscape:cx="607.14849"
     inkscape:cy="422.24536"
     inkscape:document-units="mm"
     inkscape:current-layer="layer1"
     showgrid="false"
     inkscape:window-width="1366"
     inkscape:window-height="705"
     inkscape:window-x="-8"
     inkscape:window-y="-8"
     inkscape:window-maximized="1" />
  <metadata
     id="metadata5">
    <rdf:RDF>
      <cc:Work
         rdf:about="">
        <dc:format>image/svg+xml</dc:format>
        <dc:type
           rdf:resource="http://purl.org/dc/dcmitype/StillImage" />
        <dc:title></dc:title>
      </cc:Work>
    </rdf:RDF>
  </metadata>
  <g
     inkscape:label="Capa 1"
     inkscape:groupmode="layer"
     id="layer1"
     transform="translate(0,-87)">
    <rect
       style="opacity:1;fill:#e9afaf;fill-opacity:1;fill-rule:nonzero;stroke:none;stroke-width:0.1;stroke-linecap:butt;stroke-linejoin:miter;stroke-miterlimit:4;stroke-dasharray:none;stroke-dashoffset:0;stroke-opacity:1;paint-order:stroke fill markers"
       id="rect4633"
       width="299.12418"
       height="209.02103"
       x="0.45737347"
       y="87.521591" />
    <path
       style="fill:url(#linearGradient4643);fill-opacity:1;stroke:none;stroke-width:0.26458332px;stroke-linecap:butt;stroke-linejoin:miter;stroke-opacity:1"
       d="m 220.45544,156.12805 78.21138,52.14092 0.91472,88.27363 C 227.46853,259.1902 141.32182,226.51569 83.242511,184.48539 L 203.96407,172.72807 c 9.52679,-2.67584 28.76286,1.53333 16.49137,-16.60002 z"
       id="path4635"
       inkscape:connector-curvature="0"
       sodipodi:nodetypes="cccccc" />
    <path
       style="opacity:1;fill:#ffffff;fill-opacity:1;fill-rule:nonzero;stroke:none;stroke-width:5.53700781;stroke-linecap:butt;stroke-linejoin:miter;stroke-miterlimit:4;stroke-dasharray:none;stroke-dashoffset:0;stroke-opacity:1;paint-order:stroke fill markers"
       d=""
       id="path1642"
       inkscape:connector-curvature="0"
       transform="matrix(0.26458333,0,0,0.26458333,0,87)" />
    <path
       style="opacity:1;fill:#ffffff;fill-opacity:1;fill-rule:nonzero;stroke:none;stroke-width:5.53700781;stroke-linecap:butt;stroke-linejoin:miter;stroke-miterlimit:4;stroke-dasharray:none;stroke-dashoffset:0;stroke-opacity:1;paint-order:stroke fill markers"
       d=""
       id="path1654"
       inkscape:connector-curvature="0"
       transform="matrix(0.26458333,0,0,0.26458333,0,87)" />
    <path
       style="opacity:1;fill:#ffffff;fill-opacity:1;fill-rule:nonzero;stroke:none;stroke-width:5.53700781;stroke-linecap:butt;stroke-linejoin:miter;stroke-miterlimit:4;stroke-dasharray:none;stroke-dashoffset:0;stroke-opacity:1;paint-order:stroke fill markers"
       d=""
       id="path1678"
       inkscape:connector-curvature="0"
       transform="matrix(0.26458333,0,0,0.26458333,0,87)" />
    <path
       style="opacity:1;fill:#6c5353;fill-opacity:1;fill-rule:nonzero;stroke:none;stroke-width:0.37795275;stroke-linecap:butt;stroke-linejoin:miter;stroke-miterlimit:4;stroke-dasharray:none;stroke-dashoffset:0;stroke-opacity:1;paint-order:stroke fill markers"
       d=""
       id="path4448"
       inkscape:connector-curvature="0"
       transform="matrix(0.26458333,0,0,0.26458333,0,87)" />
    <path
       style="opacity:1;fill:#6c5353;fill-opacity:1;fill-rule:nonzero;stroke:none;stroke-width:0.37795275;stroke-linecap:butt;stroke-linejoin:miter;stroke-miterlimit:4;stroke-dasharray:none;stroke-dashoffset:0;stroke-opacity:1;paint-order:stroke fill markers"
       d=""
       id="path4450"
       inkscape:connector-curvature="0"
       transform="matrix(0.26458333,0,0,0.26458333,0,87)" />
    <path
       style="fill:#000000;stroke-width:1"
       d="m 176.11105,218.45872 c 15.14382,4.20654 24.90533,6.79364 26.93452,7.13846 9.34793,1.58854 12.93393,1.05849 14.25784,-2.10747 0.30493,-0.72922 1.35799,-4.60205 2.34014,-8.60627 1.58862,-6.47898 1.75811,-7.40252 1.53536,-8.38933 -0.2195,-0.97227 -0.16544,-1.28324 0.4387,-2.52355 1.20504,-2.47393 3.35003,-10.84689 3.6834,-14.37811 0.16127,-1.70833 0.42823,-3.65782 0.59322,-4.33225 0.17239,-0.70474 0.17365,-2.98543 0.003,-5.36283 -0.16337,-2.27512 -0.47061,-7.06135 -0.68279,-10.63605 -0.6021,-10.14436 -0.71391,-11.22078 -1.2596,-12.12571 -1.14575,-1.89996 -3.1301,-1.48748 -5.27915,1.09736 -2.18194,2.62439 -4.03016,4.29007 -6.0862,5.48507 -3.67108,2.13369 -7.0022,2.45301 -11.67378,1.11904 -4.28297,-1.22351 -8.28031,-3.88992 -11.78496,-7.86274 l -1.56567,-1.7748 0.32053,-1.92736 c 0.17632,-1.06002 0.20698,-2.45072 0.0683,-3.09037 -0.90963,-4.19306 -5.0859,-9.89363 -7.38174,-10.07603 -0.50617,-0.0403 -1.96272,0.29929 -3.23674,0.75445 -1.274,0.45517 -3.80434,1.27257 -5.62293,1.81647 -3.28125,0.98134 -3.31157,0.98354 -3.96218,0.28826 -0.63617,-0.67986 -0.71053,-0.68601 -2.50598,-0.20742 -1.01771,0.27129 -3.04906,0.76331 -4.51414,1.09339 -2.73939,0.6172 -3.34949,1.00104 -3.66968,2.30866 -0.23328,0.95272 -0.89955,1.04727 -1.54582,0.21938 -0.63462,-0.81298 -1.49429,-1.05594 -2.72929,-0.77174 -1.50623,0.34699 -2.08949,0.75818 -2.54584,1.79471 -0.23073,0.52405 -0.56512,0.95232 -0.74312,0.95169 -0.17801,-6.5e-4 -1.14544,-0.0668 -2.14983,-0.14704 -2.34794,-0.18759 -3.48802,0.0984 -4.10203,1.02877 -0.55933,0.84755 -2.44658,1.33609 -3.18951,0.82563 -0.25859,-0.17767 -1.00565,-0.19643 -1.66788,-0.0418 -0.65973,0.15402 -1.36174,0.23362 -1.56001,0.17688 -0.73112,-0.20928 -2.17534,0.3496 -2.7856,1.07794 -0.56246,0.67132 -0.76166,0.71188 -1.90136,0.38725 -0.70018,-0.19948 -1.76463,-0.35623 -2.36543,-0.34838 -1.19485,0.0156 -3.20304,0.95971 -3.64665,1.71438 -0.40652,0.69158 -1.59949,0.81694 -3.25779,0.3423 -0.79827,-0.22848 -1.8007,-0.37581 -2.22763,-0.32738 -1.94026,0.22007 -4.78625,2.21793 -6.34385,4.45334 -1.31512,1.88742 -2.55402,2.88016 -3.67861,2.94765 -0.56814,0.034 -3.79337,-0.58448 -7.16719,-1.3746 -6.701009,-1.56932 -8.423329,-1.71094 -10.812954,-0.8891 -3.366987,1.15795 -6.643965,4.56294 -8.100314,8.41677 -0.459407,1.21567 -0.908566,2.61009 -0.998122,3.0987 -0.316168,1.72459 -1.394557,6.17077 -1.943878,8.01431 -0.842992,2.82914 -0.371241,4.27395 2.339091,7.1639 4.84795,5.16921 14.435389,10.36721 28.192227,15.28491 4.58827,1.64019 24.23891,7.26069 63.98213,18.30025 z m -58.86711,-18.07331 c -4.19556,-1.36001 -8.97915,-3.01483 -10.63019,-3.67738 -10.669458,-4.28158 -18.59322,-9.07672 -22.705776,-13.74066 -1.476392,-1.67434 -1.578144,-1.89115 -1.566706,-3.3381 0.0095,-1.16808 0.191192,-1.97445 0.742156,-3.28904 0.534386,-1.27503 0.688178,-1.932 0.574156,-2.45249 -0.08563,-0.39102 0.04413,-1.26652 0.28851,-1.94556 0.244381,-0.67901 0.355201,-1.33628 0.246234,-1.46058 -0.318064,-0.36294 0.04392,-1.37027 0.51209,-1.42495 0.235849,-0.0276 0.887533,0.52765 1.448176,1.2338 3.697953,4.65748 11.120548,9.47134 20.76744,13.46857 6.2595,2.59365 17.86142,5.55179 26.45431,6.74509 1.68666,0.23422 7.1033,1.15788 12.03698,2.05257 4.93368,0.89469 10.83514,1.95738 13.11438,2.36154 9.10481,1.61451 17.91004,3.69163 30.65898,7.23238 17.21654,4.78154 21.29935,5.36197 29.73332,4.22703 0.61872,-0.0832 1.03248,-0.002 1.15384,0.22483 0.2896,0.54272 -1.57317,9.01443 -2.89411,13.16215 -1.3812,4.33691 -1.74943,4.78726 -4.18156,5.11421 -3.66604,0.49285 -5.71569,0.047 -28.57554,-6.21527 -24.73784,-6.77679 -55.4838,-14.95777 -58.86272,-15.66238 -0.37711,-0.0786 -4.11839,-1.25567 -8.31395,-2.61571 z m -10.23235,-17.58907 c -5.46328,-2.09475 -12.154239,-5.70186 -14.908637,-8.03726 -1.177761,-0.99859 -1.187124,-1.02351 -0.757386,-2.01415 0.553744,-1.27645 1.833478,-3.17808 2.848936,-4.23336 2.399156,-2.49323 6.968437,-4.23938 10.035787,-3.83518 l 1.38512,0.18253 -0.64581,0.62731 c -1.51331,1.46999 -3.44185,3.86431 -4.18067,5.19038 -1.09438,1.96427 -2.315093,5.63008 -1.913129,5.74513 0.168611,0.0483 0.381648,-0.21895 0.473439,-0.5938 0.30425,-1.2426 2.30821,-4.84132 3.63984,-6.53651 1.81999,-2.31685 7.06511,-7.26249 8.18603,-7.71864 1.21854,-0.49584 1.44948,-0.40016 2.28669,0.94741 1.03686,1.66896 3.12555,2.10403 4.96364,1.03393 0.90325,-0.52586 1.11743,-1.21376 0.74981,-2.40816 -0.2582,-0.83892 -0.24123,-0.89686 0.33428,-1.14001 0.83975,-0.35483 0.87249,-0.3251 1.17994,1.07136 0.33249,1.51017 1.20726,2.24424 2.45747,2.06215 1.13096,-0.16472 1.74859,-0.99189 2.24041,-3.00051 0.32125,-1.31192 0.5433,-1.69643 1.2284,-2.12703 0.45995,-0.2891 1.06788,-0.45934 1.35096,-0.37832 0.28307,0.0811 0.8772,-0.022 1.32025,-0.22887 l 0.80558,-0.37618 0.19548,1.122 c 0.21082,1.21018 0.97747,1.87482 2.18192,1.8916 0.953,0.0133 1.86828,-0.92663 2.71031,-2.78326 0.96334,-2.12412 1.48609,-2.22273 2.53682,-0.47851 1.46297,2.42854 3.66402,2.28114 5.02574,-0.33656 1.27,-2.44134 1.27272,-2.44426 2.23676,-2.38473 0.51237,0.0317 1.21649,-0.10157 1.56472,-0.29602 0.71642,-0.40007 1.17522,-0.0646 0.98335,0.71909 -0.17333,0.70787 0.45725,2.22043 1.0859,2.60469 0.94476,0.5775 1.77525,-0.16767 2.44494,-2.19378 0.81364,-2.46163 0.8254,-2.47664 2.08837,-2.66486 1.43851,-0.21439 1.43703,-0.21524 1.54157,0.88771 0.12227,1.28985 1.90454,2.98852 3.02904,2.88698 1.2621,-0.11399 2.2042,-1.14127 2.8182,-3.073 0.59954,-1.88617 0.95476,-2.21009 1.48693,-1.35587 2.08804,3.35169 5.67667,2.93669 6.58213,-0.76116 0.28954,-1.18248 0.37019,-1.26048 1.41668,-1.37092 1.64078,-0.17314 3.16384,0.38332 4.63953,1.69508 1.50146,1.3347 1.87009,2.33493 1.19089,3.23134 -0.53831,0.71048 -8.03044,2.47004 -22.37648,5.25524 -5.40993,1.0503 -15.41513,3.23791 -22.23377,4.86135 -12.80453,3.04862 -16.82431,3.86838 -21.3909,4.36233 -1.88831,0.20425 -2.33901,0.32939 -1.54649,0.42942 3.96989,0.50101 9.31943,-0.0663 16.81993,-1.7837 2.15556,-0.49358 3.98596,-0.75675 4.06758,-0.58487 0.29539,0.62212 5.5507,22.32471 5.42507,22.40368 -0.14264,0.0896 -11.56242,-1.98041 -14.15878,-2.56657 -3.86812,-0.87327 -10.51905,-2.8265 -13.44635,-3.94896 z m 33.54141,-0.60112 c -2.88177,-11.18281 -4.14805,-16.42931 -4.05605,-16.80504 0.0405,-0.16562 1.32848,-0.58551 2.86205,-0.93307 2.29275,-0.51963 2.83031,-0.54635 3.02456,-0.15035 0.12993,0.26489 1.41544,5.09667 2.8567,10.73728 1.44124,5.64063 3.01757,11.75262 3.50294,13.58223 0.48538,1.8296 0.78516,3.388 0.66619,3.46311 -0.23014,0.14528 -2.99605,-0.32189 -5.2588,-0.88824 l -1.36481,-0.34163 z m 5.30568,6.90965 c 0.13953,-0.20897 0.20676,-0.54716 0.14928,-0.75156 -0.1505,-0.53592 -1.00547,-0.0563 -0.94676,0.53116 0.0591,0.59133 0.47336,0.70582 0.79753,0.22002 z m -1.6202,-6.6814 c 0.2857,-0.42793 0.15564,-0.76507 -0.35103,-0.9101 -0.19754,-0.0565 -0.42336,0.15933 -0.50181,0.4797 -0.16216,0.66225 0.48127,0.98697 0.85284,0.4304 z m -1.69706,-6.78087 c 0.32206,-0.48239 -0.1924,-1.22853 -0.64913,-0.94145 -0.37187,0.23373 -0.31122,1.16553 0.0832,1.27841 0.15747,0.0451 0.41216,-0.10659 0.56596,-0.33696 z m -1.56413,-6.18195 c 0.0792,-0.32361 -0.037,-0.63389 -0.26144,-0.69815 -0.2245,-0.0642 -0.46748,0.14323 -0.54671,0.46683 -0.0792,0.32362 0.037,0.63391 0.26145,0.69817 0.22448,0.0642 0.46747,-0.14323 0.5467,-0.46685 z m 12.74339,8.94562 c -2.0855,-8.22481 -3.85734,-15.21518 -3.9374,-15.53418 -0.12461,-0.49644 0.19604,-0.6569 2.22586,-1.11393 3.58302,-0.80672 3.47722,-0.83373 3.98125,1.01599 0.66627,2.44518 7.54953,28.69803 7.95486,30.34 0.19588,0.7935 0.28569,1.48701 0.19958,1.54115 -0.25268,0.15881 -4.16685,-0.49638 -5.45208,-0.91261 l -1.18023,-0.3822 z m 6.9135,13.19855 c 0.10741,-0.43865 0.005,-0.63617 -0.34237,-0.66198 -0.27249,-0.0203 -0.54272,0.15624 -0.60048,0.39213 -0.0577,0.2359 0.0963,0.53379 0.34237,0.66199 0.3139,0.16357 0.49307,0.0466 0.60048,-0.39214 z m -1.81872,-6.33171 c 0.48228,-0.30312 0.40476,-0.92951 -0.13411,-1.08375 -0.37659,-0.10784 -0.56888,0.007 -0.59031,0.35062 -0.0352,0.56354 0.35925,0.96266 0.72442,0.73313 z m -1.52455,-7.09161 c 0.0785,-0.32037 -0.019,-0.62877 -0.21654,-0.6853 -0.50669,-0.14503 -0.77399,0.0783 -0.72156,0.6031 0.0683,0.68244 0.77595,0.74445 0.9381,0.0822 z m -1.66428,-5.71155 c 0.30423,-0.31163 -0.0297,-1.10715 -0.41204,-0.98166 -0.50323,0.16521 -0.62298,0.93405 -0.16585,1.06488 0.2135,0.0611 0.47355,0.0236 0.57789,-0.0832 z m -1.57885,-6.56185 c 0.28569,-0.42792 0.15563,-0.76506 -0.35104,-0.91009 -0.19754,-0.0566 -0.42336,0.15932 -0.50181,0.47969 -0.16215,0.66226 0.48126,0.98698 0.85285,0.4304 z m -68.291119,2.93426 c -0.691696,-0.97759 -0.656118,-1.7314 0.155393,-3.29173 1.963278,-3.77492 5.389709,-5.65642 10.272374,-5.6407 2.192776,0.007 11.678072,2.0535 11.961552,2.58068 0.13508,0.25122 -0.67892,0.18638 -2.49888,-0.19908 -8.661356,-1.83443 -14.186995,-0.53354 -17.210809,4.05195 -0.735373,1.11515 -0.387893,0.90939 0.926682,-0.5487 3.209961,-3.56046 8.580175,-4.694 15.248997,-3.21877 l 2.87127,0.63516 -0.66624,0.4782 c -0.36642,0.26302 -0.86442,0.42147 -1.10665,0.35214 -0.86881,-0.24867 -3.89982,-0.14734 -5.46808,0.18279 -3.802298,0.80042 -7.002464,3.204 -8.729303,6.55645 -0.526192,1.02152 -1.044896,2.01479 -1.152694,2.20725 -0.138057,0.24659 -0.796766,-0.24312 -2.229892,-1.65772 -1.118663,-1.10423 -2.186836,-2.22379 -2.37372,-2.48792 z m 87.404609,27.4108 c -0.30002,-0.18611 -0.78584,-1.28988 -1.13587,-2.58038 -2.48901,-9.17669 -8.51545,-31.59801 -8.84011,-32.88949 l -0.39992,-1.59094 5.25256,-1.10249 c 2.88892,-0.60638 6.03199,-1.4005 6.98459,-1.76474 1.54963,-0.59251 1.78923,-0.60457 2.27552,-0.11461 1.09014,1.09843 2.21842,3.20189 3.69074,6.88073 1.66046,4.14892 2.37478,5.49504 3.86799,7.28913 2.08162,2.50108 4.63618,4.16524 8.57244,5.58453 2.61582,0.94317 2.64987,0.96667 3.2059,2.21161 2.31885,5.19185 3.12326,6.09116 5.96332,6.66669 1.38049,0.2798 2.99676,0.22679 6.56379,-0.21512 5.47185,-0.67788 6.82947,-0.53635 9.57027,0.99773 1.73936,0.97355 3.4158,1.49244 5.36841,1.66163 0.50478,0.0437 0.53796,0.3053 0.31325,2.47028 -0.31052,2.99173 -1.8904,9.62211 -2.91991,12.25401 -1.08866,2.78317 -1.56213,3.09446 -5.00191,3.28859 -5.21198,0.29415 -11.0721,-0.36688 -18.48792,-2.08546 -5.22337,-1.21047 -24.09911,-6.49996 -24.84315,-6.9617 z M 94.326999,159.0363 c 1.603569,-0.4205 4.641897,-0.0387 9.814861,1.23336 3.87915,0.95389 5.07362,1.33391 4.86486,1.54776 -0.17388,0.17811 -1.09676,0.049 -2.48341,-0.34741 -3.3354,-0.95347 -9.172855,-2.04751 -10.801733,-2.02436 -1.920886,0.0273 -2.458211,-0.13043 -1.394483,-0.40973 z m 19.839461,3.14182 c -0.5422,-0.85764 -0.36179,-2.18793 0.50884,-3.75218 0.60939,-1.09489 1.24247,-1.70253 2.7606,-2.64976 2.26536,-1.41344 3.6524,-1.97628 4.37081,-1.77359 0.41097,0.11644 0.26972,0.30643 -0.77196,1.03993 -0.70137,0.49387 -1.47168,1.19414 -1.71178,1.55614 -0.72903,1.09913 -1.12947,3.31357 -0.85116,4.70696 0.30373,1.5206 0.0303,1.82292 -1.77675,1.96448 -1.21968,0.0955 -1.98749,-0.23603 -2.5286,-1.09198 z m 7.71617,-0.67599 c -0.72798,-1.35382 0.77852,-4.87578 2.51248,-5.87386 1.35157,-0.77796 2.86691,-0.83485 3.2502,-0.12202 0.26487,0.49258 0.1994,0.62044 -0.59395,1.1598 -1.27424,0.8663 -1.76818,1.54375 -2.09309,2.87065 -0.66305,2.70785 -2.16153,3.66541 -3.07564,1.96543 z m -2.65982,-3.2646 c 0.13087,-0.53452 1.41041,-2.19583 2.02259,-2.6261 0.64553,-0.4537 2.29017,-0.92572 2.41521,-0.69317 0.14361,0.26706 -2.77715,3.47979 -3.30732,3.63794 -0.69207,0.20643 -1.22245,0.0569 -1.13044,-0.31884 z m 12.16122,-0.13535 c -0.54452,-1.36301 -0.14652,-2.48816 1.3382,-3.78297 1.5349,-1.33858 2.57109,-1.75678 3.61355,-1.45842 1.14238,0.32697 1.13656,0.59797 -0.0323,1.50515 -0.58032,0.45041 -1.12069,1.08376 -1.20083,1.40744 -0.4424,1.78896 -2.05947,3.62487 -2.96369,3.36606 -0.21149,-0.0606 -0.55122,-0.52729 -0.75494,-1.03726 z m -2.86096,-2.36095 c 0.0647,-0.93788 -0.27217,-1.45454 -1.10326,-1.69243 -0.42635,-0.12202 -0.74868,-0.33007 -0.71629,-0.46234 0.1049,-0.42849 1.55327,-1.12589 2.69005,-1.29532 1.06021,-0.15799 3.32474,0.27648 3.24022,0.62168 -0.0222,0.0909 -0.43179,0.49949 -0.91014,0.90823 -0.47833,0.40875 -1.271,1.23354 -1.76147,1.83289 -0.9073,1.10867 -1.51204,1.14536 -1.43911,0.0873 z m 62.326,17.52998 c -3.97214,-2.13376 -5.71331,-4.34983 -8.87826,-11.29982 -1.70157,-3.73653 -3.01391,-5.74132 -4.23613,-6.47131 -0.41546,-0.24814 -0.61849,-0.59806 -0.53791,-0.92715 0.20126,-0.82192 -0.68356,-2.54158 -1.85429,-3.60381 -0.58457,-0.53041 -1.04334,-1.04411 -1.01947,-1.14157 0.0772,-0.31523 2.47348,0.9352 3.52672,1.84033 1.35461,1.1641 1.63403,1.58831 4.87355,7.39946 5.54737,9.95103 8.59997,13.09216 14.27803,14.6922 4.46759,1.25892 8.2191,0.68613 12.29143,-1.87671 2.11447,-1.33071 2.95132,-2.0901 4.71101,-4.27501 1.17691,-1.46128 3.12488,-4.26132 4.32884,-6.22232 1.20396,-1.96101 2.44418,-3.7448 2.75606,-3.964 1.12547,-0.79102 2.4245,0.2189 2.40481,1.86961 -0.006,0.53415 -0.43464,1.26432 -1.43691,2.44979 -0.7853,0.92886 -2.50515,3.27383 -3.82186,5.21104 -2.65284,3.90298 -5.86162,7.2163 -8.16148,8.42741 -2.44257,1.28624 -5.356,1.75073 -8.76609,1.39757 -2.01693,-0.20888 -8.14463,-2.26293 -10.45805,-3.50571 z m -52.55811,-17.56042 c -0.31063,-0.67491 -0.5301,-1.36872 -0.4877,-1.54185 0.11683,-0.47714 2.80712,-1.95615 3.88556,-2.13614 0.72608,-0.12115 1.12962,-0.0284 1.70558,0.39241 0.79272,0.5791 0.86365,0.82766 0.33221,1.16405 -0.17716,0.11217 -0.8093,0.97205 -1.40477,1.91092 -1.61923,2.55298 -2.92145,2.62102 -4.03087,0.21059 z m 54.54249,14.58612 c -3.43851,-2.51109 -5.42368,-5.10951 -9.74131,-12.75058 -2.09423,-3.70623 -3.78122,-6.34549 -4.41196,-6.9024 -0.85122,-0.75162 -1.63276,-1.07789 -4.6949,-1.96003 -3.01324,-0.86833 -3.6823,-1.14488 -3.72175,-1.53957 -0.0264,-0.26471 -0.36506,-0.57197 -0.75246,-0.68286 -0.9562,-0.27368 -0.62287,-0.72143 1.12992,-1.51779 l 1.43411,-0.65158 -0.92063,-0.0663 c -1.41208,-0.10169 -1.04414,-0.33231 1.15362,-0.72295 1.1003,-0.19558 2.96725,-0.76103 4.14879,-1.25657 3.99882,-1.67708 5.33792,-1.67013 5.0492,0.0262 -0.18964,1.1144 -0.003,2.06627 1.4508,7.41409 1.9036,7.00036 2.60592,9.16069 3.01635,9.27816 0.11855,0.0339 0.42144,-0.44036 0.67311,-1.05397 0.25168,-0.61361 0.5592,-1.08658 0.68343,-1.05103 0.12423,0.0355 0.83414,0.78747 1.57758,1.67092 2.93074,3.4827 8.24607,6.64896 12.83367,7.64479 5.61898,1.21974 10.23189,0.0483 13.88235,-3.52543 0.80003,-0.78322 1.43442,-1.3416 1.40975,-1.24083 -0.0246,0.10066 -0.64156,1.05523 -1.37084,2.12108 -3.31448,4.844 -7.72092,8.24174 -11.77332,9.0782 -1.23831,0.25561 -2.89011,0.42402 -3.67065,0.37427 -2.06876,-0.13187 -5.69216,-1.44969 -7.38486,-2.68584 z M 148.3366,155.049 c -0.32755,-1.68174 1.13215,-5.27867 2.61927,-6.45425 0.58821,-0.46499 0.7442,-0.46329 1.28313,0.014 0.80719,0.71487 0.79696,2.00021 -0.0204,2.57474 -0.41872,0.2943 -0.87072,1.18023 -1.41656,2.77651 -0.44089,1.28938 -0.8194,2.38361 -0.84113,2.43163 -0.0216,0.0482 -0.35993,-0.0487 -0.75152,-0.21511 -0.44635,-0.18959 -0.77196,-0.61025 -0.87272,-1.12755 z m -12.71853,-3.50881 c -0.56575,-0.3833 0.12069,-0.72024 0.97136,-0.47676 0.44941,0.12862 1.18953,0.06 1.64469,-0.15259 0.45516,-0.21255 1.20351,-0.27149 1.663,-0.131 l 0.83543,0.25549 -0.79452,0.30166 c -0.43699,0.16591 -1.10184,0.51552 -1.47746,0.77694 -0.6533,0.45467 -1.60937,0.2617 -2.84251,-0.57372 z m 8.76806,-0.30804 c -0.24797,-0.64706 -0.33568,-1.34896 -0.19493,-1.55979 0.3351,-0.50194 2.32007,-0.9559 3.70026,-0.84625 1.00093,0.0795 1.06264,0.12777 0.73396,0.57364 -0.19737,0.26774 -0.54775,1.02978 -0.7786,1.69343 -0.29318,0.84269 -0.65639,1.31712 -1.20437,1.57302 -1.0149,0.47394 -1.68939,0.0452 -2.25632,-1.43405 z m 11.43715,2.24372 c -0.46473,-0.86427 -0.51641,-1.32488 -0.26184,-2.33448 0.17481,-0.69166 0.53449,-1.44114 0.80014,-1.66529 0.26563,-0.22415 0.50621,-0.76626 0.5346,-1.2047 0.07,-1.08056 0.66166,-1.2076 1.78188,-0.38259 1.67282,1.23195 2.08079,1.91627 1.63085,2.73562 -0.21894,0.39873 -0.42455,0.99788 -0.4569,1.33145 -0.0934,0.96352 -1.07173,2.60412 -1.65679,2.77844 -0.95029,0.28314 -1.77959,-0.15684 -2.37194,-1.25845 z m 68.26706,19.90145 c -0.0398,-0.14185 0.1606,-0.4619 0.44541,-0.71123 0.28481,-0.24933 0.48223,-0.30793 0.43872,-0.13023 -0.0435,0.1777 -0.0562,0.55148 -0.0284,0.83059 0.0518,0.5181 -0.71056,0.52779 -0.85573,0.0114 z m -0.5991,-1.12246 c -0.0426,-0.15144 0.25168,-0.59314 0.65384,-0.98159 0.66142,-0.6389 0.71659,-0.64598 0.5783,-0.0742 -0.2926,1.20829 -1.0153,1.82798 -1.23214,1.05585 z m 0.37842,-2.1193 c 1.02088,-0.8841 1.16336,-0.43776 0.21976,0.68843 -0.45442,0.54234 -0.73523,0.67937 -0.8718,0.42538 -0.13657,-0.25398 0.0734,-0.61275 0.65204,-1.11381 z m -70.15595,-19.72642 c 0.23385,-0.955 -0.39077,-2.20311 -1.4033,-2.80412 -0.87896,-0.5217 -0.81738,-0.73703 0.30899,-1.08032 1.12873,-0.34401 1.8634,-0.1418 2.88821,0.79498 0.89102,0.81447 0.88963,1.13495 -0.0105,2.36631 -0.34025,0.46554 -0.74044,1.05699 -0.88933,1.31435 -0.45171,0.7808 -1.12175,0.33782 -0.89426,-0.5912 z m 68.79763,17.96215 c -0.39828,-2.54717 0.16395,-3.17506 1.59129,-1.77717 1.05902,1.03719 1.00017,2.08721 -0.17038,3.04032 -0.89745,0.7307 -1.14334,0.51211 -1.42091,-1.26315 z m -59.74125,-17.61161 c -1.24696,-1.63159 -3.92101,-4.23256 -4.53165,-4.40779 -0.18517,-0.0532 -0.27323,-0.35572 -0.19569,-0.6724 0.34928,-1.42644 3.75819,-1.3985 6.16739,0.0506 1.71043,1.02876 3.5342,3.11071 3.71168,4.23708 0.13888,0.88143 -0.41131,1.83061 -1.43372,2.4732 -1.11682,0.70197 -2.30891,0.1631 -3.71801,-1.68065 z m 21.82658,2.54834 c -2.53032,-10.71183 -2.48416,-10.46883 -1.99475,-10.5022 0.30504,-0.0208 3.16554,4.04807 3.94271,5.60821 1.11023,2.2287 1.13044,5.72727 0.0488,8.43541 l -0.54014,1.35231 -0.34874,-0.8401 c -0.19181,-0.46205 -0.69033,-2.28618 -1.10784,-4.05363 z M 167.469,146.03283 c 0.13729,-0.56065 0.37083,-0.98467 0.51899,-0.94227 0.14818,0.0424 0.15708,0.53582 0.0198,1.09647 -0.13728,0.56065 -0.37082,0.98467 -0.519,0.94227 -0.14816,-0.0424 -0.15706,-0.53582 -0.0198,-1.09647 z m -0.67375,-0.40711 c 0.14292,-0.20772 0.18981,-0.12044 0.11967,0.22253 -0.0635,0.31039 -0.16934,0.46416 -0.2351,0.34178 -0.0658,-0.12237 -0.0139,-0.37635 0.11541,-0.56432 z m -2.90315,-0.82269 c -0.33185,-0.29391 -0.58132,-0.61073 -0.55438,-0.70409 0.0272,-0.0933 0.73444,-0.4293 1.57221,-0.74661 2.65362,-1.00504 3.72144,-0.0994 1.54932,1.31406 -1.42784,0.9291 -1.65852,0.94138 -2.56715,0.13664 z"
       id="path4549"
       inkscape:connector-curvature="0" />
    <path
       style="opacity:1;fill:#d35f5f;fill-opacity:1;fill-rule:nonzero;stroke:none;stroke-width:0.10000001;stroke-linecap:butt;stroke-linejoin:miter;stroke-miterlimit:4;stroke-dasharray:none;stroke-dashoffset:0;stroke-opacity:1;paint-order:stroke fill markers"
       d="m 203.21645,176.79889 c 6.78309,0.29361 9.40368,-1.4819 16.73058,-11.33537 4.02153,-5.4083 4.56784,-6.76613 3.00979,-7.48073 -0.82005,-0.3761 -1.38538,0.21433 -4.2514,4.44013 -4.1123,6.06338 -6.03073,8.18098 -9.12877,10.07651 -3.84277,2.35117 -7.45568,2.81906 -11.9142,1.54295 -5.86523,-1.67873 -8.48264,-4.37139 -14.61597,-15.0361 -2.87554,-5.00002 -5.18854,-7.99066 -5.85574,-7.57131 -0.38618,0.24274 1.34514,4.50255 1.8938,4.65961 0.23037,0.0659 2.06077,3.12233 4.06755,6.79197 4.36344,7.97907 5.836,9.43038 12.03518,11.86151 5.21583,2.04551 4.66693,1.9053 8.02918,2.05083 z"
       id="path4571"
       inkscape:connector-curvature="0" />
    <path
       style="opacity:1;fill:#c8b7b7;fill-opacity:1;fill-rule:nonzero;stroke:none;stroke-width:0.10000001;stroke-linecap:butt;stroke-linejoin:miter;stroke-miterlimit:4;stroke-dasharray:none;stroke-dashoffset:0;stroke-opacity:1;paint-order:stroke fill markers"
       d="m 167.09224,152.32565 c 1.50452,-0.94566 1.35746,-2.62037 -0.39221,-4.46644 -1.69963,-1.79325 -4.87029,-3.02506 -6.62785,-2.57492 -1.13993,0.29195 -1.57589,1.14626 -0.71123,1.39375 0.30525,0.0873 1.74403,1.46894 3.1973,3.07015 2.98279,3.28646 3.205,3.41279 4.53399,2.57746 z"
       id="path4573"
       inkscape:connector-curvature="0" />
    <path
       style="opacity:1;fill:#c8b7b7;fill-opacity:1;fill-rule:nonzero;stroke:none;stroke-width:0.10000001;stroke-linecap:butt;stroke-linejoin:miter;stroke-miterlimit:4;stroke-dasharray:none;stroke-dashoffset:0;stroke-opacity:1;paint-order:stroke fill markers"
       d="m 159.42417,154.21593 c 0.41843,-0.48542 0.90095,-1.73692 1.07227,-2.78114 0.25221,-1.53724 0.0918,-2.05929 -0.84239,-2.74302 -0.63463,-0.46444 -1.29043,-0.75862 -1.45732,-0.65372 -0.16688,0.10488 -0.70928,1.24315 -1.2053,2.52944 -0.75097,1.94737 -0.78579,2.49371 -0.2081,3.26509 0.97109,1.29663 1.75545,1.41049 2.64084,0.38335 z"
       id="path4575"
       inkscape:connector-curvature="0" />
    <path
       style="opacity:1;fill:#c8b7b7;fill-opacity:1;fill-rule:nonzero;stroke:none;stroke-width:0.10000001;stroke-linecap:butt;stroke-linejoin:miter;stroke-miterlimit:4;stroke-dasharray:none;stroke-dashoffset:0;stroke-opacity:1;paint-order:stroke fill markers"
       d="m 155.94917,149.87689 c 0.82361,-1.24461 0.42147,-2.44159 -0.94815,-2.82222 -1.77775,-0.4941 -2.49551,0.10089 -1.34791,1.11722 0.56947,0.50437 0.95099,1.26171 0.84783,1.68301 -0.28437,1.16133 0.68456,1.17604 1.44823,0.022 z"
       id="path4577"
       inkscape:connector-curvature="0" />
    <path
       style="opacity:1;fill:#c8b7b7;fill-opacity:1;fill-rule:nonzero;stroke:none;stroke-width:0.10000001;stroke-linecap:butt;stroke-linejoin:miter;stroke-miterlimit:4;stroke-dasharray:none;stroke-dashoffset:0;stroke-opacity:1;paint-order:stroke fill markers"
       d="m 148.95109,154.20432 c 0.10175,-0.41537 -0.018,-0.8133 -0.26615,-0.88431 -0.24807,-0.0711 -0.41365,0.24526 -0.36793,0.70283 0.0457,0.45755 0.16549,0.85549 0.26615,0.8843 0.10069,0.0288 0.26623,-0.28746 0.36793,-0.70282 z"
       id="path4579"
       inkscape:connector-curvature="0" />
    <path
       style="opacity:1;fill:#c8b7b7;fill-opacity:1;fill-rule:nonzero;stroke:none;stroke-width:0.10000001;stroke-linecap:butt;stroke-linejoin:miter;stroke-miterlimit:4;stroke-dasharray:none;stroke-dashoffset:0;stroke-opacity:1;paint-order:stroke fill markers"
       d="m 147.51636,152.58147 c 0.1639,-0.17533 0.62959,-1.02424 1.03487,-1.88649 l 0.73683,-1.56771 -1.95982,0.29206 c -2.48656,0.37059 -2.4599,0.34855 -2.14756,1.77403 0.2543,1.16063 1.72898,2.03704 2.33568,1.38811 z"
       id="path4581"
       inkscape:connector-curvature="0" />
    <path
       style="opacity:1;fill:#c8b7b7;fill-opacity:1;fill-rule:nonzero;stroke:none;stroke-width:0.10000001;stroke-linecap:butt;stroke-linejoin:miter;stroke-miterlimit:4;stroke-dasharray:none;stroke-dashoffset:0;stroke-opacity:1;paint-order:stroke fill markers"
       d="m 150.83188,155.41609 c 0.30699,-0.57885 0.70251,-1.62937 0.8789,-2.33449 0.17595,-0.70525 0.62095,-1.47074 0.98789,-1.70137 0.84807,-0.53305 0.71339,-2.09481 -0.20329,-2.35718 -0.85016,-0.24334 -1.71916,0.74239 -2.74436,3.11296 -1.18564,2.74157 -0.20763,5.70953 1.08086,3.28008 z"
       id="path4583"
       inkscape:connector-curvature="0" />
    <path
       style="opacity:1;fill:#c8b7b7;fill-opacity:1;fill-rule:nonzero;stroke:none;stroke-width:0.10000001;stroke-linecap:butt;stroke-linejoin:miter;stroke-miterlimit:4;stroke-dasharray:none;stroke-dashoffset:0;stroke-opacity:1;paint-order:stroke fill markers"
       d="m 141.60113,157.08413 c 0.31793,-0.27941 1.12823,-1.23903 1.80067,-2.13251 1.10497,-1.46815 1.15939,-1.67386 0.56551,-2.13731 -0.75628,-0.59019 -3.56855,0.1257 -4.60655,1.17264 -0.5387,0.54333 -0.55981,1.01123 -0.0901,1.99456 0.69969,1.46459 1.49202,1.83947 2.33044,1.10263 z"
       id="path4585"
       inkscape:connector-curvature="0" />
    <path
       style="opacity:1;fill:#c8b7b7;fill-opacity:1;fill-rule:nonzero;stroke:none;stroke-width:0.10000001;stroke-linecap:butt;stroke-linejoin:miter;stroke-miterlimit:4;stroke-dasharray:none;stroke-dashoffset:0;stroke-opacity:1;paint-order:stroke fill markers"
       d="m 134.4596,158.11259 c 0.46994,-0.62023 0.94453,-1.49566 1.05466,-1.94543 0.11013,-0.44975 0.65001,-1.13386 1.19972,-1.52021 1.36876,-0.96203 0.81955,-1.70277 -0.90548,-1.22126 -2.10006,0.58623 -4.00154,2.80408 -3.6764,4.2881 0.35031,1.59871 1.29562,1.76069 2.3275,0.3988 z"
       id="path4587"
       inkscape:connector-curvature="0" />
    <path
       style="opacity:1;fill:#c8b7b7;fill-opacity:1;fill-rule:nonzero;stroke:none;stroke-width:0.10000001;stroke-linecap:butt;stroke-linejoin:miter;stroke-miterlimit:4;stroke-dasharray:none;stroke-dashoffset:0;stroke-opacity:1;paint-order:stroke fill markers"
       d="m 129.06368,156.05479 c 0.10174,-0.41538 -0.018,-0.81331 -0.26614,-0.88432 -0.24809,-0.0711 -0.41367,0.24526 -0.36795,0.70283 0.0457,0.45755 0.16548,0.8555 0.26615,0.8843 0.10069,0.0288 0.26623,-0.28746 0.36794,-0.70281 z"
       id="path4589"
       inkscape:connector-curvature="0" />
    <path
       style="opacity:1;fill:#c8b7b7;fill-opacity:1;fill-rule:nonzero;stroke:none;stroke-width:0.10000001;stroke-linecap:butt;stroke-linejoin:miter;stroke-miterlimit:4;stroke-dasharray:none;stroke-dashoffset:0;stroke-opacity:1;paint-order:stroke fill markers"
       d="m 124.27283,162.08736 c 0.1713,-0.17546 0.68835,-1.17907 1.14901,-2.23023 0.46065,-1.05116 1.27521,-2.339 1.81013,-2.86184 1.3009,-1.27161 0.94437,-1.72398 -0.99234,-1.25915 -1.79927,0.43186 -3.56187,2.87773 -3.5869,4.9774 -0.0149,1.24566 0.94808,2.06221 1.6201,1.37382 z"
       id="path4591"
       inkscape:connector-curvature="0" />
    <path
       style="opacity:1;fill:#c8b7b7;fill-opacity:1;fill-rule:nonzero;stroke:none;stroke-width:0.10000001;stroke-linecap:butt;stroke-linejoin:miter;stroke-miterlimit:4;stroke-dasharray:none;stroke-dashoffset:0;stroke-opacity:1;paint-order:stroke fill markers"
       d="m 117.89021,163.35172 c 0.4468,-0.0738 0.90924,-0.23348 1.02767,-0.35479 0.11839,-0.12133 0.16985,-0.96287 0.11427,-1.87013 -0.16491,-2.69184 0.51379,-4.30503 2.45845,-5.8434 0.81453,-0.64436 0.70885,-1.04272 -0.21397,-0.80638 -1.12221,0.28741 -4.5906,2.53265 -5.28351,3.42023 -0.36079,0.46217 -0.862,1.42911 -1.11379,2.14874 -0.41094,1.17454 -0.41247,1.39262 -0.0154,2.13123 0.50635,0.94165 1.67964,1.39703 3.02622,1.1745 z"
       id="path4593"
       inkscape:connector-curvature="0" />
    <path
       style="opacity:1;fill:#c8b7b7;fill-opacity:1;fill-rule:nonzero;stroke:none;stroke-width:0.10000001;stroke-linecap:butt;stroke-linejoin:miter;stroke-miterlimit:4;stroke-dasharray:none;stroke-dashoffset:0;stroke-opacity:1;paint-order:stroke fill markers"
       d="m 121.11108,158.53599 c 0.71242,-0.37005 3.2046,-3.18884 2.89715,-3.27683 -0.87695,-0.251 -2.98007,1.3086 -3.86409,2.86545 -0.36746,0.64714 0.11658,0.85308 0.96694,0.41138 z"
       id="path4595"
       inkscape:connector-curvature="0" />
    <path
       style="opacity:1;fill:#c8b7b7;fill-opacity:1;fill-rule:nonzero;stroke:none;stroke-width:0.10000001;stroke-linecap:butt;stroke-linejoin:miter;stroke-miterlimit:4;stroke-dasharray:none;stroke-dashoffset:0;stroke-opacity:1;paint-order:stroke fill markers"
       d="m 130.92981,155.4228 c 0.63358,-0.67016 1.43286,-1.491 1.77617,-1.82408 l 0.62419,-0.60561 -1.34107,-0.22797 c -1.41803,-0.24104 -2.69782,-0.0563 -3.7572,0.54255 -0.74104,0.41885 -0.72944,0.79758 0.0312,1.01526 0.54918,0.15719 0.98858,0.87304 1.05256,1.71482 0.0605,0.79567 0.40453,0.6646 1.61423,-0.61497 z"
       id="path4597"
       inkscape:connector-curvature="0" />
    <path
       style="opacity:1;fill:#c8b7b7;fill-opacity:1;fill-rule:nonzero;stroke:none;stroke-width:0.10000001;stroke-linecap:butt;stroke-linejoin:miter;stroke-miterlimit:4;stroke-dasharray:none;stroke-dashoffset:0;stroke-opacity:1;paint-order:stroke fill markers"
       d="m 139.3794,152.06206 c 1.91224,-0.86555 1.58625,-1.27289 -0.63277,-0.79067 -0.72335,0.15721 -1.55107,0.2194 -1.83937,0.13825 -0.77654,-0.21874 -0.73729,0.23691 0.0568,0.65817 1.05813,0.56138 1.16299,0.56113 2.41541,-0.006 z"
       id="path4601"
       inkscape:connector-curvature="0" />
    <path
       style="opacity:1;fill:#c8b7b7;fill-opacity:1;fill-rule:nonzero;stroke:none;stroke-width:0.10000001;stroke-linecap:butt;stroke-linejoin:miter;stroke-miterlimit:4;stroke-dasharray:none;stroke-dashoffset:0;stroke-opacity:1;paint-order:stroke fill markers"
       d="m 166.84985,144.93591 c 2.43163,-1.52839 1.09082,-2.26073 -1.83805,-1.00391 -0.94389,0.40504 -0.98175,0.53555 -0.32428,1.11787 0.76763,0.67984 0.91145,0.67225 2.16232,-0.11397 z"
       id="path4603"
       inkscape:connector-curvature="0" />
    <path
       style="opacity:1;fill:#b3b3b3;fill-opacity:1;fill-rule:nonzero;stroke:none;stroke-width:0.37795275;stroke-linecap:butt;stroke-linejoin:miter;stroke-miterlimit:4;stroke-dasharray:none;stroke-dashoffset:0;stroke-opacity:1;paint-order:stroke fill markers"
       d=""
       id="path4623"
       inkscape:connector-curvature="0"
       transform="matrix(0.26458333,0,0,0.26458333,0,87)" />
    <path
       style="opacity:1;fill:#b3b3b3;fill-opacity:1;fill-rule:nonzero;stroke:none;stroke-width:0.10000001;stroke-linecap:butt;stroke-linejoin:miter;stroke-miterlimit:4;stroke-dasharray:none;stroke-dashoffset:0;stroke-opacity:1;paint-order:stroke fill markers"
       d="m 202.37159,176.71577 c 5.91546,0.28848 8.6507,-0.8416 12.6921,-5.24382 1.46098,-1.59143 4.98411,-6.14627 6.80698,-8.80037 1.79973,-2.6204 2.1756,-4.35843 1.01444,-4.69078 -0.69533,-0.19901 -1.49143,0.6733 -4.22664,4.6313 -3.16006,4.57278 -4.84011,6.60771 -6.90943,8.36896 -2.8132,2.39437 -6.75168,3.89448 -10.02929,3.82002 -1.78537,-0.0405 -6.76147,-1.54084 -8.34101,-2.51476 -2.88848,-1.78101 -5.32648,-4.76479 -9.0834,-11.11684 -3.75842,-6.35458 -6.44766,-10.06802 -7.02733,-9.70367 -0.32246,0.20268 0.72045,2.76084 1.84043,4.5144 0.62374,0.97659 2.31504,3.81773 3.75845,6.31367 5.25121,9.08032 5.95116,9.77442 12.57784,12.47273 3.86705,1.57461 4.83574,1.84719 6.92687,1.94914 z"
       id="path4625"
       inkscape:connector-curvature="0" />
    <path
       style="opacity:1;fill:#e6e6e6;fill-opacity:1;fill-rule:nonzero;stroke:none;stroke-width:0.10000001;stroke-linecap:butt;stroke-linejoin:miter;stroke-miterlimit:4;stroke-dasharray:none;stroke-dashoffset:0;stroke-opacity:1;paint-order:stroke fill markers"
       d="m 141.04585,206.97335 c 4.11984,1.07504 16.84368,4.49043 28.27523,7.58973 25.31443,6.86319 37.99975,10.14124 40.40238,10.44046 2.38149,0.29661 5.17709,-0.0447 5.97235,-0.72921 0.34111,-0.29358 0.82958,-1.00192 1.08548,-1.57406 1.2777,-2.85662 4.10192,-14.47228 3.78937,-15.5852 -0.0917,-0.32665 -0.84799,-0.3486 -3.99574,-0.11587 -6.80626,0.50317 -10.62292,-0.14812 -27.32534,-4.66296 -10.37441,-2.80431 -18.19538,-4.72937 -23.95797,-5.89704 -4.76845,-0.96623 -22.48003,-4.1404 -30.05975,-5.38715 -3.55504,-0.58475 -8.43345,-1.48588 -10.84092,-2.00252 -5.4809,-1.17623 -15.45426,-4.25093 -18.98779,-5.8538 -8.424325,-3.82139 -14.828797,-8.12207 -18.526329,-12.44062 -1.496161,-1.74742 -1.694252,-1.68401 -2.098659,0.67184 -0.18778,1.09392 -0.345701,2.35661 -0.350904,2.80595 -0.0053,0.44933 -0.280822,1.52106 -0.612367,2.38162 -0.897297,2.32881 -0.920773,4.0754 -0.07204,5.3537 1.744997,2.62821 6.880447,6.65297 12.156807,9.52753 10.059412,5.48034 20.335772,9.00341 45.146212,15.47759 z"
       id="path4627"
       inkscape:connector-curvature="0" />
    <path
       style="opacity:1;fill:#ffffff;fill-opacity:1;fill-rule:nonzero;stroke:none;stroke-width:0.37795275;stroke-linecap:butt;stroke-linejoin:miter;stroke-miterlimit:4;stroke-dasharray:none;stroke-dashoffset:0;stroke-opacity:1;paint-order:stroke fill markers"
       d="m 456.85052,282.1708 c -0.90486,-0.68468 -1.36851,-0.72406 -2.0329,-0.17266 -1.07959,0.89598 -1.9668,-0.28987 -1.98053,-2.6472 -0.007,-1.20592 0.4387,-1.79218 1.78728,-2.35078 2.27006,-0.94029 2.85347,-0.5657 3.36491,2.16049 0.22589,1.2041 0.56152,2.58228 0.74585,3.06263 0.42594,1.10998 -0.37789,1.0876 -1.88461,-0.0525 z"
       id="path4651"
       inkscape:connector-curvature="0"
       transform="matrix(0.26458333,0,0,0.26458333,0,87)" />
    <path
       style="opacity:1;fill:#ffffff;fill-opacity:1;fill-rule:nonzero;stroke:none;stroke-width:0.37795278;stroke-linecap:butt;stroke-linejoin:miter;stroke-miterlimit:4;stroke-dasharray:none;stroke-dashoffset:0;stroke-opacity:1;paint-order:stroke fill markers"
       d=""
       id="path4653"
       inkscape:connector-curvature="0"
       transform="matrix(0.26458333,0,0,0.26458333,0,87)" />
    <path
       style="opacity:1;fill:#ffffff;fill-opacity:1;fill-rule:nonzero;stroke:none;stroke-width:0.37795278;stroke-linecap:butt;stroke-linejoin:miter;stroke-miterlimit:4;stroke-dasharray:none;stroke-dashoffset:0;stroke-opacity:1;paint-order:stroke fill markers"
       d="m 436.86567,287.8427 c -1.01156,-0.40468 -2.45161,-2.34656 -3.20012,-4.31529 -2.31523,-6.0895 3.97186,-16.85633 13.02441,-22.30472 8.46095,-5.09233 15.09886,-7.83552 15.09886,-6.23978 0,0.59947 -2.17105,3.19422 -4.82455,5.76609 -5.23316,5.07218 -8.16556,14.41213 -6.7671,21.55382 0.50885,2.59859 0.10394,4.42587 -1.15781,5.22493 -2.0938,1.32598 -9.18773,1.50951 -12.17369,0.31495 z"
       id="path4655"
       inkscape:connector-curvature="0"
       transform="matrix(0.26458333,0,0,0.26458333,0,87)" />
    <path
       style="opacity:1;fill:#ffffff;fill-opacity:1;fill-rule:nonzero;stroke:none;stroke-width:0.37795278;stroke-linecap:butt;stroke-linejoin:miter;stroke-miterlimit:4;stroke-dasharray:none;stroke-dashoffset:0;stroke-opacity:1;paint-order:stroke fill markers"
       d="m 464.75736,284.21317 c -1.95652,-1.95651 -2.0233,-8.02836 -0.14269,-12.97472 1.22729,-3.22803 8.67033,-11.52672 10.53386,-11.74484 0.34681,-0.0406 0.78796,-0.12627 0.98033,-0.19039 2.35101,-0.78367 6.92759,-0.55862 7.5008,0.36885 0.40532,0.65582 1.32301,0.8302 2.0393,0.3875 0.7163,-0.44269 1.30236,-0.27392 1.30236,0.37506 0,0.64897 -1.94624,2.32962 -4.32498,3.73478 -2.9283,1.72979 -5.59003,5.37438 -8.24236,11.28593 -4.00973,8.93692 -6.87042,11.53404 -9.64662,8.75783 z"
       id="path4657"
       inkscape:connector-curvature="0"
       transform="matrix(0.26458333,0,0,0.26458333,0,87)" />
    <path
       style="opacity:1;fill:#ffffff;fill-opacity:1;fill-rule:nonzero;stroke:none;stroke-width:0.37795278;stroke-linecap:butt;stroke-linejoin:miter;stroke-miterlimit:4;stroke-dasharray:none;stroke-dashoffset:0;stroke-opacity:1;paint-order:stroke fill markers"
       d="m 499.36226,269.45032 c -0.85072,-2.1995 -0.9627,-5.11301 -0.27238,-7.08722 2.66612,-7.62471 18.54207,-15.90964 20.53495,-10.71626 0.4985,1.29907 -0.2915,2.72847 -2.0189,3.65295 -1.56082,0.83532 -3.96961,4.15905 -5.35286,7.38605 -4.24679,9.90735 -10.42188,13.14774 -12.89081,6.76448 z"
       id="path4659"
       inkscape:connector-curvature="0"
       transform="matrix(0.26458333,0,0,0.26458333,0,87)" />
    <path
       style="opacity:1;fill:#ffffff;fill-opacity:1;fill-rule:nonzero;stroke:none;stroke-width:0.37795278;stroke-linecap:butt;stroke-linejoin:miter;stroke-miterlimit:4;stroke-dasharray:none;stroke-dashoffset:0;stroke-opacity:1;paint-order:stroke fill markers"
       d="m 527.02154,263.26713 c -4.68725,-7.43259 -4.30585,-9.0882 2.89511,-12.56755 6.43023,-3.10694 13.37895,-3.97419 15.42766,-1.92549 1.23103,1.23103 -2.97426,9.07251 -7.45967,13.90982 -4.22715,4.55879 -8.22076,4.7732 -10.8631,0.58322 z"
       id="path4661"
       inkscape:connector-curvature="0"
       transform="matrix(0.26458333,0,0,0.26458333,0,87)" />
    <path
       style="opacity:1;fill:#ffffff;fill-opacity:1;fill-rule:nonzero;stroke:none;stroke-width:0.37795278;stroke-linecap:butt;stroke-linejoin:miter;stroke-miterlimit:4;stroke-dasharray:none;stroke-dashoffset:0;stroke-opacity:1;paint-order:stroke fill markers"
       d="m 564.87968,261.31432 c -0.52901,-0.52901 -0.96183,-3.93357 -0.96183,-7.56569 0,-5.14284 1.00593,-8.08681 4.54684,-13.30689 2.50076,-3.68667 5.65049,-6.85021 6.99939,-7.03008 3.09085,-0.41216 4.928,5.92935 2.63241,9.08659 -0.89247,1.22747 -2.87311,5.06479 -4.40142,8.52739 -4.62971,10.48926 -6.4686,12.63547 -8.81539,10.28868 z"
       id="path4663"
       inkscape:connector-curvature="0"
       transform="matrix(0.26458333,0,0,0.26458333,0,87)" />
    <path
       style="opacity:1;fill:#ffffff;fill-opacity:1;fill-rule:nonzero;stroke:none;stroke-width:0.37795278;stroke-linecap:butt;stroke-linejoin:miter;stroke-miterlimit:4;stroke-dasharray:none;stroke-dashoffset:0;stroke-opacity:1;paint-order:stroke fill markers"
       d="m 583.50424,238.3053 c 0,-1.60993 -1.25913,-4.52786 -2.79806,-6.4843 -3.74965,-4.7669 -3.5293,-5.97786 1.08773,-5.97786 6.04941,0 9.86272,3.36546 9.05837,7.99453 -1.08881,6.26619 -7.34804,10.07182 -7.34804,4.46763 z"
       id="path4665"
       inkscape:connector-curvature="0"
       transform="matrix(0.26458333,0,0,0.26458333,0,87)" />
    <path
       style="opacity:1;fill:#ffffff;fill-opacity:1;fill-rule:nonzero;stroke:none;stroke-width:0.37795278;stroke-linecap:butt;stroke-linejoin:miter;stroke-miterlimit:4;stroke-dasharray:none;stroke-dashoffset:0;stroke-opacity:1;paint-order:stroke fill markers"
       d="m 592.5362,253.22634 c -1.73941,-2.65469 -1.92934,-4.46534 -0.87059,-8.29982 0.7448,-2.69742 0.99694,-5.26164 0.56031,-5.69827 -0.43662,-0.43662 -0.12762,-0.79386 0.68667,-0.79386 0.8143,0 1.88233,-1.60087 2.3734,-3.55748 1.25654,-5.00643 4.54115,-5.76167 8.57533,-1.97176 4.19362,3.93971 4.4034,9.53708 0.66601,17.77073 -2.13951,4.71344 -3.43138,5.94587 -6.23265,5.94587 -2.19715,0 -4.3752,-1.28426 -5.75848,-3.39541 z"
       id="path4667"
       inkscape:connector-curvature="0"
       transform="matrix(0.26458333,0,0,0.26458333,0,87)" />
    <path
       style="opacity:1;fill:#ffffff;fill-opacity:1;fill-rule:nonzero;stroke:none;stroke-width:0.37795278;stroke-linecap:butt;stroke-linejoin:miter;stroke-miterlimit:4;stroke-dasharray:none;stroke-dashoffset:0;stroke-opacity:1;paint-order:stroke fill markers"
       d="m 624.95523,248.02034 c -1.44011,-0.83665 -7.55391,-6.61839 -13.58623,-12.8483 -9.63952,-9.95528 -10.72929,-11.59071 -8.99817,-13.50358 2.80786,-3.10264 13.47419,-2.45929 17.23785,1.03973 1.04218,0.9689 2.47369,1.40392 3.18112,0.9667 0.70743,-0.43722 1.28624,-0.27751 1.28624,0.35491 0,0.63241 1.37618,1.7713 3.05817,2.53086 3.48202,1.57242 7.66563,8.42822 8.35546,13.69234 0.31488,2.40289 -0.62061,4.49504 -2.89003,6.4633 -3.83377,3.32501 -4.09041,3.36879 -7.64441,1.30404 z"
       id="path4669"
       inkscape:connector-curvature="0"
       transform="matrix(0.26458333,0,0,0.26458333,0,87)" />
    <path
       style="opacity:1;fill:#ffffff;fill-opacity:1;fill-rule:nonzero;stroke:none;stroke-width:0.37795278;stroke-linecap:butt;stroke-linejoin:miter;stroke-miterlimit:4;stroke-dasharray:none;stroke-dashoffset:0;stroke-opacity:1;paint-order:stroke fill markers"
       d="m 622.6278,219.48822 c -2.24506,-2.70513 -0.78978,-4.16197 5.98409,-5.99051 6.93971,-1.87331 8.44553,0.54585 3.03472,4.87538 -4.78244,3.82674 -6.58355,4.04943 -9.01881,1.11513 z"
       id="path4671"
       inkscape:connector-curvature="0"
       transform="matrix(0.26458333,0,0,0.26458333,0,87)" />
    <path
       style="opacity:1;fill:#ffffff;fill-opacity:1;fill-rule:nonzero;stroke:none;stroke-width:0.37795278;stroke-linecap:butt;stroke-linejoin:miter;stroke-miterlimit:4;stroke-dasharray:none;stroke-dashoffset:0;stroke-opacity:1;paint-order:stroke fill markers"
       d="m 548.96244,244.31009 c -2.5906,-6.20016 -0.93371,-8.07911 8.31002,-9.42379 7.79994,-1.13465 8.25118,-0.0521 3.47456,8.33583 -4.23755,7.4413 -8.94828,7.8762 -11.78458,1.08796 z"
       id="path4673"
       inkscape:connector-curvature="0"
       transform="matrix(0.26458333,0,0,0.26458333,0,87)" />
    <path
       style="opacity:1;fill:#ffffff;fill-opacity:1;fill-rule:nonzero;stroke:none;stroke-width:0.37795278;stroke-linecap:butt;stroke-linejoin:miter;stroke-miterlimit:4;stroke-dasharray:none;stroke-dashoffset:0;stroke-opacity:1;paint-order:stroke fill markers"
       d="m 519.42876,246.54875 c -2.85982,-2.85983 -1.88814,-3.77737 3.76168,-3.55207 3.79969,0.15152 5.23225,0.75964 4.75,2.01638 -0.37978,0.98968 -1.2541,1.4511 -1.94294,1.02538 -0.68884,-0.42572 -1.25243,-0.10733 -1.25243,0.70755 0,1.99892 -3.24036,1.8787 -5.31631,-0.19724 z"
       id="path4675"
       inkscape:connector-curvature="0"
       transform="matrix(0.26458333,0,0,0.26458333,0,87)" />
    <path
       style="opacity:1;fill:#ffffff;fill-opacity:1;fill-rule:nonzero;stroke:none;stroke-width:0.37795278;stroke-linecap:butt;stroke-linejoin:miter;stroke-miterlimit:4;stroke-dasharray:none;stroke-dashoffset:0;stroke-opacity:1;paint-order:stroke fill markers"
       d="m 488.37035,260.28996 c 0,-1.8563 -1.39145,-4.31329 -3.14781,-5.55834 -3.09482,-2.19385 -3.1021,-2.26738 -0.43212,-4.36773 2.75773,-2.16937 16.2007,-3.03947 18.07055,-1.16962 1.00504,1.00504 -11.45073,14.42262 -13.38876,14.42262 -0.60602,0 -1.10186,-1.49712 -1.10186,-3.32693 z"
       id="path4677"
       inkscape:connector-curvature="0"
       transform="matrix(0.26458333,0,0,0.26458333,0,87)" />
    <path
       style="opacity:1;fill:#ffffff;fill-opacity:1;fill-rule:nonzero;stroke:none;stroke-width:0.37795278;stroke-linecap:butt;stroke-linejoin:miter;stroke-miterlimit:4;stroke-dasharray:none;stroke-dashoffset:0;stroke-opacity:1;paint-order:stroke fill markers"
       d="m 454.11503,270.64578 c -1.29071,-2.08842 4.75313,-9.4367 9.31604,-11.32672 6.03674,-2.5005 6.45513,-0.47477 1.06018,5.13313 -5.82934,6.05943 -9.21146,8.07822 -10.37622,6.19359 z"
       id="path4679"
       inkscape:connector-curvature="0"
       transform="matrix(0.26458333,0,0,0.26458333,0,87)" />
    <path
       style="opacity:1;fill:#ffffff;fill-opacity:1;fill-rule:nonzero;stroke:none;stroke-width:0.37795278;stroke-linecap:butt;stroke-linejoin:miter;stroke-miterlimit:4;stroke-dasharray:none;stroke-dashoffset:0;stroke-opacity:1;paint-order:stroke fill markers"
       d="m 759.08222,513.40993 c -16.15877,-4.15237 -47.95168,-12.55318 -70.6509,-18.66847 -22.69923,-6.1153 -77.78595,-20.93087 -122.41493,-32.92349 -94.85776,-25.49 -99.55831,-26.81511 -127.75805,-36.01588 -52.14899,-17.01472 -88.75549,-35.73777 -113.12502,-57.85981 -10.93089,-9.92279 -12.45503,-14.05414 -9.33982,-25.31669 1.27147,-4.59679 3.00504,-13.25796 3.85239,-19.24705 0.84736,-5.98909 2.07912,-10.93729 2.73725,-10.99601 0.65814,-0.0587 6.10399,4.60228 12.1019,10.35778 12.78815,12.2713 28.04515,22.66458 50.35726,34.30406 18.07195,9.42753 27.19817,12.91421 55.32106,21.13548 24.0638,7.03466 33.63203,9.00238 99.78591,20.52111 89.30926,15.55055 107.91872,19.55934 180.65968,38.91711 52.45751,13.95994 65.42709,16.26659 91.46234,16.26659 12.0224,0 21.85891,0.30477 21.85891,0.67724 0,3.38659 -7.858,36.48435 -11.19575,47.15625 -5.54488,17.72892 -7.4529,19.33403 -22.91934,19.2807 -9.08694,-0.0313 -17.2181,-1.54625 -40.73289,-7.58892 z"
       id="path4681"
       inkscape:connector-curvature="0"
       transform="matrix(0.26458333,0,0,0.26458333,0,87)" />
    <path
       style="fill:#000000;stroke-width:1"
       d="m 18.518369,284.59036 c -0.907451,-0.19936 -1.983459,-1.11231 -2.47949,-2.10404 -0.368942,-0.7376 -0.416398,-0.9704 -0.416398,-2.04326 0,-1.05764 0.0503,-1.31276 0.397235,-2.01653 0.727372,-1.47552 1.830128,-2.17995 3.38444,-2.162 1.117128,0.0125 1.591228,0.1781 2.11116,0.73539 l 0.370406,0.39704 v -0.48235 -0.48239 h 0.80815 0.808177 v 4.01084 4.01083 h -0.808177 c -0.776531,0 -0.80815,-0.016 -0.80815,-0.38609 v -0.38608 l -0.449587,0.38536 c -0.247257,0.21194 -0.770782,0.45379 -1.163279,0.53742 -0.80634,0.17186 -0.911178,0.17097 -1.754487,-0.0143 z m 1.974596,-2.04999 c 1.747248,-0.93167 1.356294,-4.04743 -0.551497,-4.3953 -1.594848,-0.29083 -2.942252,1.23109 -2.513505,2.83909 0.40687,1.52597 1.797551,2.23206 3.065002,1.55621 z m 7.251923,2.08315 c -1.163997,-0.34561 -2.162766,-1.30228 -2.64895,-2.53733 -0.282469,-0.71788 -0.340943,-2.10534 -0.122963,-2.91646 0.310788,-1.15538 1.327363,-2.29444 2.421442,-2.7135 0.815921,-0.3125 2.309844,-0.22228 3.021326,0.18244 l 0.628975,0.35779 v -1.5575 c 0,-1.75253 -0.04019,-1.69408 1.096847,-1.60294 l 0.654153,0.0524 v 5.28271 5.28271 h -0.875513 c -0.688434,0 -0.875487,-0.0486 -0.875487,-0.22704 0,-0.29355 -0.03833,-0.28837 -0.708581,0.0958 -0.610291,0.34983 -1.915936,0.50144 -2.591435,0.30087 z m 2.289776,-2.11426 c 0.587189,-0.37331 1.043057,-1.44542 0.966378,-2.27267 -0.196687,-2.12143 -2.653501,-2.90793 -3.896893,-1.2475 -0.702486,0.93813 -0.618302,2.26729 0.19935,3.14937 0.751272,0.81039 1.812907,0.95452 2.731059,0.3708 z m 10.102006,2.11457 c -1.174298,-0.34957 -2.16282,-1.30273 -2.659463,-2.56437 -0.206004,-0.52283 -0.253113,-0.92269 -0.216384,-1.82745 0.04125,-1.00912 0.10593,-1.2608 0.502632,-1.95567 0.78896,-1.38141 1.850009,-1.99546 3.447945,-1.99546 0.749755,0 1.108717,0.0805 1.596205,0.35779 l 0.628975,0.35779 v -1.5546 -1.55461 l 0.742569,-0.0518 c 0.40844,-0.0287 0.802428,-0.0292 0.875513,-8.9e-4 0.08411,0.0321 0.132811,1.99425 0.132811,5.33514 v 5.28465 H 44.31196 c -0.688461,0 -0.875514,-0.0486 -0.875514,-0.22701 0,-0.29226 -0.04019,-0.28747 -0.684441,0.0819 -0.592432,0.33963 -1.973931,0.50602 -2.615548,0.315 z m 2.289775,-2.11457 c 0.587189,-0.37331 1.043084,-1.44542 0.966379,-2.27267 -0.195889,-2.11418 -2.653129,-2.90837 -3.8896,-1.2572 -1.530891,2.04436 0.81129,4.87254 2.923221,3.52987 z m 6.841967,2.09476 c -1.091072,-0.25426 -1.974863,-1.00082 -2.53863,-2.1444 -0.346825,-0.70381 -0.397208,-0.95893 -0.397208,-2.01656 0,-1.05764 0.0503,-1.31276 0.397208,-2.01653 0.724498,-1.46964 1.819003,-2.17147 3.372064,-2.16237 1.11263,0.005 1.601209,0.17578 2.123562,0.73576 l 0.370407,0.39704 v -0.48235 -0.48239 h 0.80815 0.808176 v 4.01084 4.01083 h -0.808176 c -0.786272,0 -0.80815,-0.0107 -0.80815,-0.40478 v -0.40475 l -0.30307,0.31902 c -0.166612,0.17542 -0.45853,0.38516 -0.648537,0.46604 -0.54141,0.23043 -1.753875,0.31953 -2.375796,0.17453 z m 1.934646,-2.06365 c 1.351476,-0.72064 1.513325,-3.03056 0.281378,-4.01626 -0.494062,-0.39529 -1.564719,-0.53472 -2.120369,-0.27607 -0.586124,0.27281 -1.171583,1.09199 -1.275782,1.78519 -0.09635,0.64067 0.147982,1.51556 0.572843,2.052 0.546414,0.68981 1.710784,0.89829 2.541903,0.45514 z m 5.79505,1.99694 c -0.838705,-0.3361 -1.316664,-1.0228 -1.524424,-2.19026 l -0.08304,-0.46615 h 0.824998 c 0.719094,0 0.825024,0.0367 0.825024,0.28595 0,0.50672 0.453127,0.97366 0.930128,0.95843 0.617237,-0.0201 0.842164,-0.28285 0.79399,-0.92872 -0.03859,-0.51997 -0.09129,-0.57117 -1.25095,-1.22378 -1.392597,-0.78351 -1.727046,-1.24782 -1.707005,-2.36955 0.01597,-0.83262 0.34978,-1.51987 0.971702,-1.99419 0.402158,-0.30668 0.593443,-0.34688 1.432174,-0.30077 0.806899,0.0443 1.027594,0.11576 1.326059,0.42914 0.428987,0.45042 0.736501,1.07818 0.736501,1.50354 0,0.27398 -0.08384,0.31021 -0.719175,0.31021 -0.629534,0 -0.737672,-0.0456 -0.867289,-0.36526 -0.199615,-0.49227 -0.635496,-0.62757 -1.046624,-0.32488 -0.675552,0.49737 -0.294259,1.12544 1.104539,1.82013 0.455682,0.2263 1.001165,0.61398 1.212225,0.8615 0.349034,0.40936 0.383714,0.54826 0.383714,1.53738 0,1.31225 -0.221706,1.73512 -1.205065,2.29626 -0.740334,0.42262 -1.36702,0.4698 -2.137536,0.16118 z m -22.63123,-0.0328 c -0.01065,-0.0143 -0.0027,-1.83566 0.01597,-4.04868 l 0.03779,-4.02364 h 0.803865 0.803865 v 3.99739 3.99739 l -0.819834,0.0513 c -0.450865,0.0281 -0.829708,0.0401 -0.841818,0.0262 z m 28.360353,-6.65915 c -0.87924,-0.48693 -1.361271,-1.71406 -1.100653,-2.80168 0.523631,-2.18504 3.236112,-2.53199 4.084771,-0.52248 0.903539,2.13963 -1.097726,4.36893 -2.984118,3.32416 z m 2.04337,-0.60257 c 0.387919,-0.31783 0.755771,-1.0758 0.755771,-1.55726 0,-1.70835 -1.922324,-2.61175 -2.994312,-1.40719 -0.824412,0.92637 -0.57074,2.62012 0.471492,3.14819 0.535209,0.27119 1.310089,0.19071 1.767049,-0.18384 z m -1.98298,-0.30609 c -0.04924,-0.0556 -0.08969,-0.66846 -0.08969,-1.36217 v -1.26125 h 0.800511 c 0.674541,0 0.833541,0.0529 1.010188,0.33638 0.270332,0.4339 0.264823,0.50973 -0.06521,0.88045 l -0.274751,0.30871 0.274751,0.43357 c 0.355662,0.56103 0.347198,0.76522 -0.033,0.76522 -0.211592,0 -0.384406,-0.16349 -0.559961,-0.52974 -0.139731,-0.29137 -0.304906,-0.52975 -0.367426,-0.52975 -0.06255,0 -0.113648,0.23838 -0.113648,0.52975 0,0.41278 -0.05456,0.52974 -0.246724,0.52974 -0.135739,0 -0.287234,-0.0452 -0.336898,-0.10098 z m 1.189788,-1.86668 c 0,-0.12484 -0.136537,-0.2488 -0.303069,-0.27537 -0.233151,-0.0372 -0.30307,0.0262 -0.30307,0.27537 0,0.24919 0.07,0.31263 0.30307,0.27541 0.166612,-0.0265 0.303069,-0.15067 0.303069,-0.27541 z m -29.586391,-0.39304 c -0.02661,-0.46591 -0.01597,-0.86603 0.02129,-0.88915 0.037,-0.0231 0.415892,-0.009 0.841845,0.0335 l 0.774481,0.0755 v 0.81368 0.8137 h -0.795691 -0.795694 z m -13.298381,-4.38325 c -0.304533,-0.54589 -0.553467,-1.03966 -0.552988,-1.09729 4.79e-4,-0.0575 0.166878,-0.21245 0.370406,-0.34406 0.203342,-0.13144 1.624764,-1.09769 3.158902,-2.14686 l 2.789319,-1.90757 1.508667,2.82793 c 0.829762,1.55537 1.624338,3.01524 1.765746,3.24417 l 0.257104,0.4162 H 26.018108 21.64645 Z m 9.68284,-3.4915 c -1.37048,-2.46328 -2.484228,-4.52238 -2.474992,-4.57573 0.02661,-0.13892 6.012843,-4.24722 6.200748,-4.25376 0.08597,-0.002 1.68683,2.83806 3.557387,6.31349 1.870583,3.47541 3.489198,6.47221 3.596884,6.65949 l 0.195623,0.34053 -4.291998,-0.002 -4.292025,-0.002 z m 13.823663,4.14349 c -1.841892,-3.2893 -8.435909,-15.31975 -8.435909,-15.39091 0,-0.0534 1.287999,-0.97589 2.86222,-2.04992 1.574247,-1.07407 2.992448,-2.04514 3.151582,-2.15794 0.280632,-0.19895 0.442321,0.0816 5.443087,9.45091 2.83462,5.31079 5.269422,9.84326 5.410644,10.07219 l 0.256838,0.4162 h -4.248908 -4.248935 z"
       id="path4694"
       inkscape:connector-curvature="0" />
    <path
       style="opacity:1;fill:#ffff00;fill-opacity:1;fill-rule:nonzero;stroke:none;stroke-width:0.37795275;stroke-linecap:butt;stroke-linejoin:miter;stroke-miterlimit:4;stroke-dasharray:none;stroke-dashoffset:0;stroke-opacity:1;paint-order:stroke fill markers"
       d="m 631.74635,333.94854 c -2.34252,-8.24118 -16.24027,-60.70852 -16.10987,-60.81864 0.0811,-0.0685 6.21062,-1.41338 13.62116,-2.98866 15.75205,-3.34847 29.41143,-6.76159 33.55387,-8.38422 4.30237,-1.68529 5.69437,-1.49413 8.07965,1.10955 3.32028,3.62428 6.86729,10.40691 12.85791,24.58706 6.99612,16.56019 9.16562,20.69635 14.07248,26.82917 4.12659,5.15759 8.30214,8.99645 13.73755,12.62982 l 3.29645,2.20355 -2.07156,0.34065 c -2.11297,0.34746 -78.01285,7.72218 -79.37525,7.71241 -0.41165,-0.003 -1.15972,-1.45227 -1.66239,-3.22069 z"
       id="path4724"
       inkscape:connector-curvature="0"
       transform="matrix(0.26458333,0,0,0.26458333,0,87)" />
    <path
       style="opacity:1;fill:#ffff00;fill-opacity:1;fill-rule:nonzero;stroke:none;stroke-width:0.37795275;stroke-linecap:butt;stroke-linejoin:miter;stroke-miterlimit:4;stroke-dasharray:none;stroke-dashoffset:0;stroke-opacity:1;paint-order:stroke fill markers"
       d="m 771.03796,443.72822 c -5.55791,-0.96157 -12.72348,-2.32973 -15.92349,-3.04036 -14.18667,-3.15047 -55.06532,-14.18611 -81.72729,-22.06318 -19.6202,-5.79664 -18.79831,-5.45985 -20.3944,-8.35694 -0.76744,-1.39298 -5.62868,-18.20451 -10.80276,-37.35896 -8.18035,-30.28366 -9.27783,-34.8793 -8.41391,-35.23293 0.54643,-0.22368 19.25038,-2.13041 41.56433,-4.2372 l 40.57082,-3.83051 5.36232,2.52425 c 2.94929,1.38834 8.21179,3.61909 11.69446,4.95722 3.48266,1.33814 6.84493,2.89707 7.47172,3.4643 0.62678,0.56723 3.23775,5.31229 5.80215,10.54458 3.83729,7.8294 5.28011,10.1308 8.1516,13.00229 5.11774,5.11773 7.59626,5.82872 20.3191,5.82872 h 10.1053 l -0.16228,37.8183 -0.16228,37.81829 -1.67505,-0.0448 c -0.92128,-0.0246 -6.22243,-0.83153 -11.78034,-1.7931 z"
       id="path4726"
       inkscape:connector-curvature="0"
       transform="matrix(0.26458333,0,0,0.26458333,0,87)" />
    <path
       style="opacity:1;fill:#ffff00;fill-opacity:1;fill-rule:nonzero;stroke:none;stroke-width:0.37795275;stroke-linecap:butt;stroke-linejoin:miter;stroke-miterlimit:4;stroke-dasharray:none;stroke-dashoffset:0;stroke-opacity:1;paint-order:stroke fill markers"
       d="m 796.4543,446.74688 c -3.70527,-0.26359 -7.93802,-0.65847 -9.40611,-0.87751 l -2.66926,-0.39824 0.21949,-37.83261 0.21949,-37.83262 9.18663,-1.01077 c 17.19369,-1.89177 21.71097,-1.3498 32.06758,3.84739 6.85205,3.43852 12.07771,5.24028 17.77443,6.12846 2.14988,0.33519 4.06774,0.76831 4.26193,0.9625 0.57187,0.57187 0.13794,7.51019 -0.86151,13.77504 -3.04769,19.10375 -9.83822,42.90348 -13.84785,48.53448 -2.101,2.95058 -5.61296,4.10776 -14.423,4.75232 -8.83608,0.64647 -12.87568,0.63778 -22.52182,-0.0484 z"
       id="path4728"
       inkscape:connector-curvature="0"
       transform="matrix(0.26458333,0,0,0.26458333,0,87)" />
    <path
       style="opacity:1;fill:#ffff00;fill-opacity:1;fill-rule:nonzero;stroke:none;stroke-width:0.37795275;stroke-linecap:butt;stroke-linejoin:miter;stroke-miterlimit:4;stroke-dasharray:none;stroke-dashoffset:0;stroke-opacity:1;paint-order:stroke fill markers"
       d="m 495.13285,384.57682 c -37.49752,-6.74218 -54.56853,-10.79031 -78.81381,-18.68946 -10.65504,-3.47143 -14.10815,-4.92928 -13.35774,-5.63945 0.58854,-0.55699 96.99857,-9.62114 97.41756,-9.15888 0.32812,0.36202 4.30235,16.89711 8.24516,34.30463 0.39369,1.73817 0.88387,1.76784 -13.49117,-0.81684 z"
       id="path4730"
       inkscape:connector-curvature="0"
       transform="matrix(0.26458333,0,0,0.26458333,0,87)" />
    <path
       style="opacity:1;fill:#ffff00;fill-opacity:1;fill-rule:nonzero;stroke:none;stroke-width:0.37795275;stroke-linecap:butt;stroke-linejoin:miter;stroke-miterlimit:4;stroke-dasharray:none;stroke-dashoffset:0;stroke-opacity:1;paint-order:stroke fill markers"
       d="m 392.54882,356.83305 c -25.49389,-11.62628 -47.77048,-25.54246 -47.77048,-29.8422 0,-3.55456 7.30025,-14.89605 12.96261,-20.13839 10.068,-9.32119 25.51942,-14.50562 38.09479,-12.78197 l 2.84543,0.39 -4.86789,5.07052 c -9.50125,9.89672 -14.92142,18.53112 -18.62578,29.6711 -1.75107,5.26592 -2.19926,8.16045 -1.31816,8.51309 0.33684,0.13481 0.92933,-0.41639 1.31663,-1.22489 5.67947,-11.85593 7.4218,-15.15088 10.49289,-19.84326 4.39037,-6.70814 11.23208,-14.33793 20.80266,-23.19884 11.95278,-11.06646 16.04415,-13.59395 18.93695,-11.69852 0.78721,0.5158 2.10894,2.01128 2.93717,3.32328 3.33954,5.29017 8.74228,7.54895 14.80887,6.19131 2.71741,-0.60813 4.13132,-1.35403 5.87838,-3.10109 2.52012,-2.52011 2.93001,-4.81939 1.46961,-8.2437 -0.7145,-1.67537 -0.75843,-1.5068 -0.55854,2.14354 0.11933,2.17906 -0.0304,4.32671 -0.33265,4.77256 -0.84784,1.25048 -5.5593,2.06847 -9.37708,1.62802 -6.54602,-0.75519 -10.0198,-4.36148 -9.50729,-9.86994 0.33937,-3.64755 2.58834,-8.71787 5.34018,-12.03949 3.48125,-4.20207 16.50274,-12.05465 21.56402,-13.00416 1.60456,-0.30101 2.49116,-0.16334 3.14246,0.48796 0.80141,0.80141 0.73234,1.14439 -0.59189,2.93927 -0.82453,1.1176 -1.49916,2.10279 -1.49916,2.1893 0,0.0865 1.1713,-0.37438 2.60288,-1.0242 2.77153,-1.25805 6.30395,-1.62964 5.66509,-0.59595 -0.20818,0.33684 0.0511,0.61244 0.5763,0.61244 1.90507,0 0.59978,2.25439 -4.18693,7.23134 -4.57284,4.75457 -6.4905,5.79746 -9.75909,5.30731 -2.64434,-0.39655 -2.69021,-0.37319 -3.07838,1.5677 -0.21673,1.08364 -0.39406,2.60368 -0.39406,3.37786 0,1.34291 0.0802,1.36759 1.74532,0.53693 1.52195,-0.75924 1.98419,-0.75152 3.61163,0.0604 1.13865,0.56803 2.02161,1.58246 2.26464,2.60183 0.21908,0.91894 0.55485,2.19479 0.74614,2.83522 0.26517,0.88773 0.11273,1.07421 -0.64152,0.78478 -1.21657,-0.46684 -1.2293,-0.20884 -0.0977,1.97951 1.883,3.64133 7.7441,4.67931 11.32517,2.00566 1.641,-1.22519 3.91107,-5.39638 4.56285,-8.38413 0.29808,-1.3664 -0.0767,-0.97396 -1.46206,1.5311 -2.46935,4.46506 -3.96364,5.67556 -6.38477,5.1722 -4.56099,-0.94825 -6.27943,-4.0745 -5.24318,-9.53862 2.4239,-12.78116 14.33889,-21.46798 22.15808,-16.1547 1.24577,0.84652 2.67349,1.36308 3.20438,1.15936 2.17082,-0.83302 0.71818,0.97891 -2.71617,3.38796 -3.7282,2.61518 -6.28734,5.66562 -3.89999,4.64869 0.62866,-0.26779 2.65882,-0.68744 4.51145,-0.93256 1.85264,-0.24512 4.37447,-0.86907 5.60406,-1.38656 l 2.23563,-0.94087 0.42102,2.85234 c 0.73277,4.96454 2.51775,6.96128 7.46472,8.35027 1.8918,0.53118 5.17323,-1.00848 7.14591,-3.35287 1.93076,-2.29458 4.16978,-6.44054 3.72072,-6.8896 -0.44097,-0.44098 1.06831,-3.5336 1.57244,-3.22204 0.23402,0.14464 1.02876,-0.553 1.7661,-1.55031 1.75393,-2.37231 2.72611,-2.28721 4.79938,0.42014 5.20989,6.8033 7.74255,8.79054 11.20317,8.79054 2.53344,0 4.91816,-1.30551 7.26296,-3.9761 2.37869,-2.70917 5.53265,-8.88758 5.12636,-10.0422 -0.16466,-0.46794 -0.0249,-0.68114 0.31066,-0.47378 0.33553,0.20737 1.10299,-0.16767 1.70548,-0.83341 0.63296,-0.69941 1.89568,-1.21661 2.99095,-1.22505 1.04253,-0.008 2.99791,-0.30632 4.34528,-0.66286 5.95979,-1.57704 5.8182,-1.61196 5.8182,1.43523 0,3.37736 0.93969,6.28575 2.87174,8.8882 1.16379,1.56762 1.92134,1.99044 3.56621,1.99044 2.34886,0 4.00299,-1.41833 5.86422,-5.02825 1.58584,-3.07578 1.47722,-3.56931 -0.22748,-1.03363 -1.61604,2.40378 -3.53964,2.90374 -5.70734,1.4834 -2.28058,-1.49429 -3.10227,-3.67363 -1.85526,-4.92064 1.17156,-1.17156 1.29958,-3.51135 0.28133,-5.14183 -1.94076,-3.10764 7.03713,-19.04336 10.72867,-19.04336 1.69425,0 5.22759,3.12777 5.92684,5.24654 0.67635,2.04935 0.5699,2.51543 -1.45921,6.38888 l -2.18878,4.17826 2.14786,-0.59306 c 1.18133,-0.32618 3.16425,-0.50817 4.40649,-0.40442 2.15958,0.18035 2.27908,0.3095 2.72475,2.94461 0.93847,5.54888 6.90886,11.36569 11.54111,11.24423 4.38688,-0.11503 8.05617,-3.67229 10.42488,-10.10658 2.08877,-5.67389 3.17502,-7.87451 3.88698,-7.87451 0.37917,0 2.14924,1.65848 3.93351,3.6855 3.80941,4.32772 6.9479,6.11357 10.74405,6.11357 6.43263,0 10.15573,-3.43708 12.60474,-11.63639 1.27411,-4.26573 2.59596,-5.04628 7.9862,-4.71581 6.81358,0.41773 14.85012,5.09278 18.41342,10.71152 2.14642,3.38456 2.24399,5.07243 0.40931,7.08091 -2.83532,3.10389 -17.98523,6.82292 -72.72749,17.85328 -38.9863,7.85559 -60.69964,12.5693 -97.68449,21.20613 -47.85302,11.17481 -59.27535,13.52136 -75.63659,15.53845 -4.21054,0.51909 -8.34062,1.09759 -9.17797,1.28556 -1.46232,0.32825 -1.47441,0.36892 -0.30622,1.02966 1.63435,0.92441 20.22347,0.8501 28.16367,-0.11258 9.32324,-1.13036 19.64862,-2.93986 32.15321,-5.63476 6.23159,-1.34299 13.03076,-2.60479 15.10926,-2.804 l 3.77908,-0.3622 0.87728,2.99312 c 2.5792,8.79983 11.03381,44.35977 10.64036,44.7532 -0.41886,0.41887 -95.42843,9.95879 -98.99949,9.94056 -0.8421,-0.004 -4.42489,-1.32751 -7.96174,-2.94046 z"
       id="path4732"
       inkscape:connector-curvature="0"
       transform="matrix(0.26458333,0,0,0.26458333,0,87)" />
    <path
       style="opacity:1;fill:#ffff00;fill-opacity:1;fill-rule:nonzero;stroke:none;stroke-width:0.37795275;stroke-linecap:butt;stroke-linejoin:miter;stroke-miterlimit:4;stroke-dasharray:none;stroke-dashoffset:0;stroke-opacity:1;paint-order:stroke fill markers"
       d="m 333.71265,318.94371 c -8.91363,-8.46681 -10.98222,-11.21936 -10.98222,-14.61338 0,-5.24977 5.9233,-14.76356 12.3961,-19.91018 9.0969,-7.23308 22.613,-9.9967 37.21689,-7.60969 15.72144,2.56967 34.29156,7.08181 34.29156,8.33211 0,0.32972 -0.62009,0.45748 -1.37799,0.28391 -14.57509,-3.33801 -32.09663,-4.79327 -41.37571,-3.43649 -9.43033,1.3789 -17.37676,4.86924 -23.38572,10.27182 -3.23341,2.90711 -8.34858,9.81447 -7.72775,10.4353 0.19142,0.19143 1.80081,-1.24192 3.57641,-3.18521 13.71336,-15.00851 32.66767,-19.23448 60.11766,-13.40356 4.07942,0.86655 7.65328,1.79672 7.94192,2.06705 0.28864,0.27034 -0.20639,0.97061 -1.10007,1.55617 -1.35631,0.88869 -2.91074,1.04503 -9.40521,0.94593 -8.91163,-0.13598 -14.92158,0.6471 -21.10362,2.74975 -12.45871,4.23748 -21.81518,12.67452 -28.39386,25.60368 -1.64512,3.23317 -3.30856,5.87976 -3.69654,5.8813 -0.38798,0.002 -3.53431,-2.68429 -6.99185,-5.96851 z"
       id="path4734"
       inkscape:connector-curvature="0"
       transform="matrix(0.26458333,0,0,0.26458333,0,87)" />
    <path
       style="opacity:1;fill:#806600;fill-opacity:1;fill-rule:nonzero;stroke:none;stroke-width:0.37795275;stroke-linecap:butt;stroke-linejoin:miter;stroke-miterlimit:4;stroke-dasharray:none;stroke-dashoffset:0;stroke-opacity:1;paint-order:stroke fill markers"
       d="m 400.81679,280.77515 c -8.8493,-2.32529 -23.53724,-5.35233 -30.48971,-6.28361 -6.01021,-0.80507 -8.16146,-2.24653 -3.35275,-2.24653 6.72829,0 41.52349,7.86381 43.61091,9.85618 1.06655,1.018 -2.89379,0.48039 -9.76845,-1.32604 z"
       id="path4736"
       inkscape:connector-curvature="0"
       transform="matrix(0.26458333,0,0,0.26458333,0,87)" />
    <path
       style="opacity:1;fill:#806600;fill-opacity:1;fill-rule:nonzero;stroke:none;stroke-width:0.37795275;stroke-linecap:butt;stroke-linejoin:miter;stroke-miterlimit:4;stroke-dasharray:none;stroke-dashoffset:0;stroke-opacity:1;paint-order:stroke fill markers"
       d="m 528.30367,347.11737 c -0.35365,-0.57938 -9.76941,-38.61086 -11.14657,-45.02249 -0.56151,-2.61421 -0.88194,-5.11529 -0.71207,-5.55796 0.3656,-0.95274 7.15677,-3.01864 14.69848,-4.47134 4.64513,-0.89475 5.50418,-0.91833 6.22656,-0.17086 0.46089,0.4769 2.22427,6.10347 3.91862,12.50349 7.09681,26.80655 10.51658,40.29756 10.27585,40.53829 -0.14084,0.14084 -4.35202,0.64829 -9.35818,1.12767 -5.00616,0.47938 -10.11897,1.0161 -11.3618,1.19272 -1.24283,0.17663 -2.38623,0.11384 -2.54089,-0.13952 z m 10.31481,-11.79333 c 0.91779,-1.01414 0.98976,-1.49293 0.41427,-2.75599 -1.44539,-3.17229 -4.4166,-1.06646 -3.52236,2.49646 0.45362,1.80738 1.61923,1.90471 3.10809,0.25953 z m -6.22909,-22.69748 c 1.21788,-1.73878 0.61686,-3.7518 -1.04919,-3.51406 -1.32749,0.18943 -2.02559,2.18509 -1.36581,3.90444 0.47297,1.23253 1.38108,1.08574 2.415,-0.39038 z"
       id="path4738"
       inkscape:connector-curvature="0"
       transform="matrix(0.26458333,0,0,0.26458333,0,87)" />
    <path
       style="opacity:1;fill:#806600;fill-opacity:1;fill-rule:nonzero;stroke:none;stroke-width:0.37795275;stroke-linecap:butt;stroke-linejoin:miter;stroke-miterlimit:4;stroke-dasharray:none;stroke-dashoffset:0;stroke-opacity:1;paint-order:stroke fill markers"
       d="m 580.36792,341.60406 c -0.68806,-1.15821 -13.9475,-54.80528 -13.77154,-55.71898 0.22657,-1.17645 2.76031,-2.01497 11.89798,-3.93752 6.42061,-1.35089 9.01924,-1.22776 9.66613,0.458 0.88073,2.29513 15.18086,57.29972 14.95543,57.52515 -0.28935,0.28935 -18.23251,2.13268 -20.75975,2.13268 -0.94345,0 -1.83817,-0.2067 -1.98825,-0.45933 z m 8.11166,-19.04412 c 0.9245,-1.72746 -0.83484,-3.99406 -2.43533,-3.13751 -1.14235,0.61137 -1.62775,3.01202 -0.78035,3.85941 0.79926,0.79927 2.62037,0.39044 3.21568,-0.7219 z m -6.19624,-24.10242 c 1.10287,-1.10286 0.8857,-2.81593 -0.44742,-3.5294 -0.89249,-0.47764 -1.418,-0.39713 -2.14354,0.32842 -0.98949,0.98949 -1.27425,2.80628 -0.5529,3.52762 0.65,0.65 2.34314,0.47409 3.14386,-0.32664 z"
       id="path4740"
       inkscape:connector-curvature="0"
       transform="matrix(0.26458333,0,0,0.26458333,0,87)" />
    <path
       style="opacity:1;fill:#806600;fill-opacity:1;fill-rule:nonzero;stroke:none;stroke-width:0.37795275;stroke-linecap:butt;stroke-linejoin:miter;stroke-miterlimit:4;stroke-dasharray:none;stroke-dashoffset:0;stroke-opacity:1;paint-order:stroke fill markers"
       d="m 552.08995,395.302 c -4.7158,-0.99272 -9.35577,-1.97936 -10.31104,-2.19252 -0.95527,-0.21316 -1.88083,-0.76277 -2.0568,-1.22134 -0.17597,-0.45857 -2.84763,-10.57778 -5.93702,-22.48711 l -5.61706,-21.65335 8.81406,-0.76071 c 4.84774,-0.41839 10.24471,-0.95485 11.99327,-1.19213 l 3.1792,-0.43143 5.98781,23.307 c 3.2933,12.81885 6.13994,24.4783 6.32587,25.90988 l 0.33805,2.60288 -2.07107,-0.0381 c -1.13909,-0.021 -5.92946,-0.85033 -10.64527,-1.84306 z m -1.04115,-9.26527 c 0.84134,-0.84134 0.98671,-3.32427 0.2223,-3.7967 -0.82189,-0.50796 -3.16202,1.43618 -3.16202,2.62696 0,1.93392 1.55629,2.55317 2.93972,1.16974 z m -6.02635,-25.26444 c 0.40591,-0.48908 0.64258,-1.38477 0.52594,-1.99043 -0.28982,-1.50492 -3.164,-1.49964 -3.45403,0.006 -0.49243,2.55701 1.39256,3.83429 2.92809,1.98408 z"
       id="path4742"
       inkscape:connector-curvature="0"
       transform="matrix(0.26458333,0,0,0.26458333,0,87)" />
    <path
       style="opacity:1;fill:#806600;fill-opacity:1;fill-rule:nonzero;stroke:none;stroke-width:0.37795275;stroke-linecap:butt;stroke-linejoin:miter;stroke-miterlimit:4;stroke-dasharray:none;stroke-dashoffset:0;stroke-opacity:1;paint-order:stroke fill markers"
       d="m 610.88438,405.70485 c -3.70527,-0.64817 -8.69709,-1.75721 -11.09293,-2.46455 l -4.35607,-1.28608 -7.23406,-28.56742 c -3.97873,-15.71208 -7.34947,-29.02503 -7.49052,-29.58433 -0.21368,-0.84729 0.44263,-1.08237 3.93461,-1.40932 2.30508,-0.21583 4.74226,-0.50429 5.41595,-0.64104 1.04932,-0.21299 1.22488,0.0768 1.22488,2.02177 0,1.86132 0.23881,2.30441 1.32539,2.4592 1.50686,0.21466 2.37175,-1.55676 1.73682,-3.55725 -0.2527,-0.7962 -0.10639,-1.23589 0.41806,-1.25633 0.44375,-0.0173 2.66712,-0.2383 4.94081,-0.49112 2.27369,-0.25282 4.13398,-0.34786 4.13398,-0.2112 0,0.13665 3.72059,14.4821 8.26797,31.87877 4.54738,17.39667 8.26797,32.2504 8.26797,33.0083 -10e-6,1.68412 -0.4154,1.68852 -9.49286,0.1006 z m -3.95526,-9.79442 c 0.86203,-1.61071 0.34572,-3.01435 -1.10878,-3.01435 -1.12648,0 -2.59148,1.08317 -2.59148,1.91607 0,0.62988 1.81527,2.37102 2.47197,2.37102 0.30093,0 0.85366,-0.57273 1.22829,-1.27274 z m -5.64638,-25.85724 c 0.26665,-1.39868 -0.94216,-2.87968 -2.35044,-2.87968 -1.37724,0 -1.81458,1.1338 -1.13874,2.9522 0.63366,1.70491 3.16033,1.6524 3.48918,-0.0725 z"
       id="path4744"
       inkscape:connector-curvature="0"
       transform="matrix(0.26458333,0,0,0.26458333,0,87)" />
    <path
       style="opacity:1;fill:#806600;fill-opacity:1;fill-rule:nonzero;stroke:none;stroke-width:0.37795275;stroke-linecap:butt;stroke-linejoin:miter;stroke-miterlimit:4;stroke-dasharray:none;stroke-dashoffset:0;stroke-opacity:1;paint-order:stroke fill markers"
       d="m 752.05226,323.99129 c -5.12049,-1.04012 -14.04475,-4.19907 -18.45692,-6.53326 -1.89866,-1.00445 -5.68591,-3.61354 -8.41611,-5.79797 -8.88663,-7.11018 -15.47739,-15.56007 -26.08553,-33.44374 -3.54657,-5.97897 -9.35918,-15.78699 -12.91691,-21.7956 -7.2878,-12.3083 -10.73167,-16.63255 -14.94784,-18.76904 -1.59773,-0.80963 -7.56092,-2.89623 -13.25151,-4.63688 -11.68258,-3.5735 -13.14087,-4.20444 -14.49524,-6.27146 -0.52919,-0.80765 -1.8207,-1.82408 -2.87002,-2.25872 -1.04932,-0.43464 -1.81353,-1.09701 -1.69825,-1.47194 0.11528,-0.37493 2.75565,-1.96848 5.86748,-3.54121 4.59286,-2.32125 5.41603,-2.93627 4.37308,-3.26729 -2.40194,-0.76235 -0.88544,-1.63863 5.84455,-3.37718 3.69492,-0.9545 9.99112,-3.01792 13.99157,-4.58537 8.99288,-3.52359 13.17589,-4.48404 15.30469,-3.51409 1.46102,0.66568 1.53214,0.93909 1.50421,5.78265 -0.0323,5.5952 0.36186,7.47578 5.68612,27.13185 6.75178,24.92619 9.97482,34.60297 11.52519,34.60297 0.29781,0 1.44165,-1.7914 2.54186,-3.98088 1.10021,-2.18948 2.18994,-3.98087 2.4216,-3.98087 0.23167,0 2.4556,2.33679 4.94207,5.19286 13.51905,15.5286 34.00993,27.33499 53.24602,30.67918 8.67388,1.50795 20.61307,0.96877 27.53594,-1.24353 8.16038,-2.60777 14.47928,-6.372 20.9649,-12.48902 1.25698,-1.18555 2.4568,-1.98415 2.66627,-1.77468 0.56054,0.56053 -5.44725,9.01325 -10.57459,14.87802 -12.79168,14.63143 -26.95422,22.89546 -42.43773,24.76298 -6.27253,0.75656 -7.18329,0.73444 -12.2649,-0.29778 z"
       id="path4746"
       inkscape:connector-curvature="0"
       transform="matrix(0.26458333,0,0,0.26458333,0,87)" />
    <path
       style="opacity:1;fill:#d4aa00;fill-opacity:1;fill-rule:nonzero;stroke:none;stroke-width:0.37795275;stroke-linecap:butt;stroke-linejoin:miter;stroke-miterlimit:4;stroke-dasharray:none;stroke-dashoffset:0;stroke-opacity:1;paint-order:stroke fill markers"
       d="m 701.59543,264.46755 c -2.07287,-6.29508 -12.01225,-48.72318 -12.01225,-51.27654 0,-2.57582 1.11902,-1.75061 5.51198,4.06472 5.2858,6.99728 9.74716,14.46623 11.19574,18.74329 1.71943,5.07674 2.07141,13.96742 0.80115,20.23639 -1.14112,5.63166 -2.91839,10.63573 -3.89279,10.96053 -0.3496,0.11654 -1.07133,-1.11124 -1.60383,-2.72839 z"
       id="path4748"
       inkscape:connector-curvature="0"
       transform="matrix(0.26458333,0,0,0.26458333,0,87)" />
    <path
       style="opacity:1;fill:#d4aa00;fill-opacity:1;fill-rule:nonzero;stroke:none;stroke-width:0.37795275;stroke-linecap:butt;stroke-linejoin:miter;stroke-miterlimit:4;stroke-dasharray:none;stroke-dashoffset:0;stroke-opacity:1;paint-order:stroke fill markers"
       d="m 756.64558,338.12873 c -4.64294,-1.05945 -18.44182,-6.28358 -30.59632,-11.58348 -5.88269,-2.56511 -16.74401,-10.75583 -15.95522,-12.03212 0.16591,-0.26845 -0.39376,-0.94373 -1.24371,-1.50065 -0.84995,-0.5569 -1.39107,-1.26222 -1.20248,-1.56736 0.18859,-0.30515 -0.22374,-0.85807 -0.9163,-1.22871 -0.69255,-0.37064 -1.0962,-0.93762 -0.89699,-1.25994 0.1992,-0.32232 -0.0671,-0.75077 -0.59178,-0.95211 -0.52468,-0.20133 -0.80027,-0.61473 -0.61244,-0.91866 0.18784,-0.30393 -0.0878,-0.71732 -0.61244,-0.91866 -0.52468,-0.20134 -0.80028,-0.61474 -0.61244,-0.91867 0.18784,-0.30392 -0.0878,-0.71732 -0.61244,-0.91866 -0.52468,-0.20133 -0.80028,-0.61473 -0.61245,-0.91866 0.18784,-0.30393 -0.0878,-0.71733 -0.61244,-0.91867 -0.52468,-0.20133 -0.81933,-0.58391 -0.65477,-0.85016 0.16455,-0.26625 -0.1301,-0.64882 -0.65478,-0.85016 -0.52468,-0.20134 -0.78243,-0.64362 -0.57278,-0.98284 0.20965,-0.33922 0.0434,-0.61677 -0.36948,-0.61677 -0.41286,0 -0.58989,-0.16076 -0.3934,-0.35725 0.19649,-0.1965 -0.18103,-0.89554 -0.83893,-1.55345 -0.6579,-0.6579 -1.03207,-1.46173 -0.83148,-1.78629 0.20059,-0.32455 0.12122,-0.5901 -0.17636,-0.5901 -0.29759,0 -2.01812,-2.68709 -3.82341,-5.97131 -5.32771,-9.69228 -13.48732,-23.56792 -15.20837,-25.86223 -0.87883,-1.17156 -1.65832,-2.542 -1.73221,-3.04543 -0.0739,-0.50343 -0.6158,-1.26738 -1.20424,-1.69766 -0.58845,-0.43028 -0.82675,-0.78233 -0.52957,-0.78233 0.29718,0 0.0322,-0.37159 -0.58895,-0.82575 -0.62111,-0.45417 -0.93312,-1.14316 -0.69336,-1.53111 0.23977,-0.38794 0.12781,-0.70535 -0.24879,-0.70535 -0.37661,0 -0.51441,-0.2756 -0.30623,-0.61244 0.20818,-0.33685 0.0704,-0.61244 -0.30622,-0.61244 -0.3766,0 -0.5144,-0.2756 -0.30622,-0.61245 0.20818,-0.33684 0.0572,-0.61244 -0.3356,-0.61244 -0.39276,0 -0.55547,-0.4134 -0.36159,-0.91866 0.19389,-0.50527 0.1214,-0.91866 -0.1611,-0.91866 -0.79118,0 -2.10029,-5.33013 -1.6118,-6.56256 0.36203,-0.91338 1.06013,-0.42207 4.24853,2.99001 4.64278,4.9685 10.34106,13.43543 21.72732,32.28408 12.01607,19.89125 16.92227,26.73776 24.86749,34.70217 8.7925,8.81373 15.06937,12.15891 30.00264,15.98953 11.05502,2.83578 18.80526,2.6374 29.10768,-0.74506 5.0886,-1.67068 15.47442,-7.01836 15.18772,-7.82019 -0.10059,-0.28134 0.77425,-0.91397 1.94409,-1.40585 2.82987,-1.18987 13.34428,-11.95661 18.76163,-19.21189 2.38938,-3.20001 7.43325,-10.29668 11.20861,-15.77038 3.77537,-5.4737 7.14009,-9.95218 7.47716,-9.95218 0.33707,0 0.47185,-0.22816 0.29951,-0.50701 -0.31472,-0.50922 4.29029,-4.70698 6.58899,-6.0063 1.36786,-0.77316 2.08615,-0.3243 3.39519,2.12166 1.8058,3.37418 -2.0012,10.7157 -13.56535,26.15973 -11.61121,15.50689 -15.59829,20.34912 -22.18775,26.94657 -6.78709,6.79533 -12.91856,10.92359 -19.85106,13.36551 -5.07057,1.78608 -5.7349,1.86564 -16.91427,2.0257 -8.19207,0.11729 -12.72408,-0.0816 -15.31104,-0.67191 z"
       id="path4750"
       inkscape:connector-curvature="0"
       transform="matrix(0.26458333,0,0,0.26458333,0,87)" />
    <path
       style="opacity:1;fill:#d4aa00;fill-opacity:1;fill-rule:nonzero;stroke:none;stroke-width:0.37795275;stroke-linecap:butt;stroke-linejoin:miter;stroke-miterlimit:4;stroke-dasharray:none;stroke-dashoffset:0;stroke-opacity:1;paint-order:stroke fill markers"
       d="m 794.31076,319.47348 c 0,-0.29811 0.75789,-1.03777 1.68421,-1.6437 6.48177,-4.23989 14.72902,-14.46384 28.71742,-35.60041 5.86352,-8.85983 10.88346,-16.10878 11.15542,-16.10878 0.27195,0 0.86623,0.69464 1.3206,1.54365 0.73677,1.37666 0.68134,1.72451 -0.51231,3.21533 -0.73615,0.91941 -4.68626,6.35684 -8.77802,12.08317 -4.09177,5.72633 -9.38258,13.02971 -11.75737,16.22971 -4.70273,6.33688 -13.98834,16.29442 -17.78786,19.07502 -2.37882,1.74089 -4.04209,2.23715 -4.04209,1.20601 z"
       id="path4752"
       inkscape:connector-curvature="0"
       transform="matrix(0.26458333,0,0,0.26458333,0,87)" />
    <path
       style="opacity:1;fill:#d4aa00;fill-opacity:1;fill-rule:nonzero;stroke:none;stroke-width:0.37795275;stroke-linecap:butt;stroke-linejoin:miter;stroke-miterlimit:4;stroke-dasharray:none;stroke-dashoffset:0;stroke-opacity:1;paint-order:stroke fill markers"
       d="m 672.94112,259.54669 c -2.74815,-2.25844 -2.93588,-2.58306 -2.94671,-5.09536 -0.0133,-3.08882 -2.67791,-8.0463 -6.60431,-12.28727 -1.85393,-2.00247 -3.23371,-3.77793 -3.06618,-3.94547 0.45221,-0.45221 3.04885,0.64866 6.29354,2.6682 2.63619,1.64081 2.88775,2.00946 3.05539,4.47739 0.1905,2.80452 2.60227,9.01231 5.02555,12.9356 0.77608,1.25647 1.41106,2.42777 1.41106,2.60288 0,0.74772 -1.26973,0.20431 -3.16834,-1.35597 z"
       id="path4754"
       inkscape:connector-curvature="0"
       transform="matrix(0.26458333,0,0,0.26458333,0,87)" />
    <path
       style="opacity:1;fill:#d4aa00;fill-opacity:1;fill-rule:nonzero;stroke:none;stroke-width:0.37795275;stroke-linecap:butt;stroke-linejoin:miter;stroke-miterlimit:4;stroke-dasharray:none;stroke-dashoffset:0;stroke-opacity:1;paint-order:stroke fill markers"
       d="m 714.90819,321.89903 c -4.96093,-3.31279 -11.02821,-9.76531 -15.19945,-16.16457 -3.81172,-5.84769 -13.52514,-25.39449 -12.92002,-25.9996 0.63856,-0.63857 1.80957,1.08425 7.27803,10.70757 9.62119,16.93125 15.5886,25.11466 21.87201,29.99416 3.41835,2.65459 4.39331,3.86599 3.11142,3.86599 -0.29846,0 -2.16235,-1.0816 -4.14199,-2.40355 z"
       id="path4756"
       inkscape:connector-curvature="0"
       transform="matrix(0.26458333,0,0,0.26458333,0,87)" />
    <path
       style="opacity:1;fill:#000000;fill-opacity:1;fill-rule:nonzero;stroke:none;stroke-width:0.37795275;stroke-linecap:butt;stroke-linejoin:miter;stroke-miterlimit:4;stroke-dasharray:none;stroke-dashoffset:0;stroke-opacity:1;paint-order:stroke fill markers"
       d="m 701.61053,263.85511 c -1.32751,-4.09543 -4.03077,-15.08581 -7.95391,-32.33749 -3.99967,-17.5882 -4.31199,-19.29193 -3.53647,-19.29193 1.6488,0 11.53613,13.99732 14.70882,20.82303 2.44375,5.25746 3.40212,12.76564 2.52767,19.80265 -0.70585,5.68017 -2.99858,13.37736 -4.08705,13.72108 -0.39002,0.12316 -1.13253,-1.09299 -1.65906,-2.71734 z"
       id="path4758"
       inkscape:connector-curvature="0"
       transform="matrix(0.26458333,0,0,0.26458333,0,87)" />
    <path
       style="opacity:1;fill:#000000;fill-opacity:1;fill-rule:nonzero;stroke:none;stroke-width:0.1;stroke-linecap:butt;stroke-linejoin:miter;stroke-miterlimit:4;stroke-dasharray:none;stroke-dashoffset:0;stroke-opacity:1;paint-order:stroke fill markers"
       id="path4760"
       d="m 118.71982,162.52265 c 0.13022,-0.36397 0.22454,-0.73958 0.23313,-1.12695 -0.0208,-0.41891 -0.0565,-0.83673 -0.075,-1.25586 -0.0156,-0.43565 -0.0966,-0.86533 -0.13684,-1.29957 -0.005,-0.0725 -0.0106,-0.14503 -0.016,-0.21754 -0.0251,-0.34283 0.45974,-0.37831 0.48483,-0.0355 v 0 c 0.005,0.0694 0.0101,0.13889 0.0152,0.20833 0.0407,0.44197 0.12392,0.87925 0.13843,1.32287 0.019,0.43139 0.0579,0.86134 0.0752,1.29271 -0.0161,0.41265 -0.0934,0.8202 -0.24232,1.20683 -0.0674,0.33707 -0.5441,0.24174 -0.47669,-0.0953 z"
       inkscape:connector-curvature="0" />
    <path
       style="opacity:1;fill:#000000;fill-opacity:1;fill-rule:nonzero;stroke:none;stroke-width:0.1;stroke-linecap:butt;stroke-linejoin:miter;stroke-miterlimit:4;stroke-dasharray:none;stroke-dashoffset:0;stroke-opacity:1;paint-order:stroke fill markers"
       id="path4766"
       d="m 124.28295,161.46355 c 0.27297,-0.57459 0.57485,-1.13644 0.86798,-1.70167 0.22703,-0.60694 0.48347,-1.20007 0.85312,-1.73415 0.40712,-0.42985 0.94276,-0.70515 1.421,-1.04638 0.0693,-0.0477 0.1386,-0.0953 0.2079,-0.14302 0.28322,-0.19479 0.55869,0.20576 0.27546,0.40055 v 0 c -0.0671,0.0462 -0.13429,0.0923 -0.20143,0.13849 -0.4346,0.30873 -0.91089,0.5666 -1.30423,0.92849 -0.36193,0.51406 -0.59221,1.09708 -0.82029,1.67986 -0.28774,0.55461 -0.5842,1.10589 -0.85269,1.66932 -0.13541,0.31595 -0.58223,0.12446 -0.44682,-0.19149 z"
       inkscape:connector-curvature="0" />
    <path
       style="opacity:1;fill:#ffffff;fill-opacity:1;fill-rule:nonzero;stroke:none;stroke-width:0.1;stroke-linecap:butt;stroke-linejoin:miter;stroke-miterlimit:4;stroke-dasharray:none;stroke-dashoffset:0;stroke-opacity:1;paint-order:stroke fill markers"
       id="path4768"
       d="m 149.50779,156.5271 c 0.27898,-0.70789 0.87654,-1.21512 1.39232,-1.74954 0.31187,-0.45891 0.68621,-0.89451 0.89099,-1.41547 0.13348,-0.41737 0.26915,-0.83295 0.42237,-1.24363 0.175,-0.45046 0.42861,-0.86304 0.68035,-1.2737 0.20677,-0.31198 0.10811,-0.15939 0.29657,-0.45742 0.18379,-0.29049 0.5946,-0.0306 0.41081,0.25991 v 0 c -0.19116,0.302 -0.0935,0.15142 -0.293,0.45169 -0.23563,0.38387 -0.47436,0.76882 -0.63928,1.18945 -0.15476,0.41479 -0.29007,0.83505 -0.42712,1.25588 -0.23742,0.57518 -0.62901,1.07046 -0.99202,1.57101 -0.45424,0.46997 -0.97034,0.91194 -1.2653,1.50715 -0.0674,0.33707 -0.5441,0.24173 -0.47669,-0.0953 z"
       inkscape:connector-curvature="0" />
    <path
       style="opacity:1;fill:#ffffff;fill-opacity:1;fill-rule:nonzero;stroke:none;stroke-width:0.37795275;stroke-linecap:butt;stroke-linejoin:miter;stroke-miterlimit:4;stroke-dasharray:none;stroke-dashoffset:0;stroke-opacity:1;paint-order:stroke fill markers"
       d="m 462.23897,282.62251 c -1.78282,-1.78282 -1.8566,-2.05481 -1.55996,-5.75032 0.59239,-7.37997 5.61139,-14.98988 11.79349,-17.8815 3.89649,-1.82255 5.939,-1.80375 10.01166,0.0922 1.80114,0.83848 3.59253,1.33408 3.98087,1.10134 0.38834,-0.23274 0.30462,0.0711 -0.18604,0.6752 -0.49067,0.6041 -2.41986,2.06539 -4.2871,3.24731 -1.86723,1.18192 -4.04093,2.73865 -4.83043,3.4594 -1.61772,1.47685 -7.44495,12.737 -7.44495,14.38612 0,3.106 -4.62704,3.52076 -7.47754,0.67027 z"
       id="path4770"
       inkscape:connector-curvature="0"
       transform="matrix(0.26458333,0,0,0.26458333,0,87)" />
    <path
       style="opacity:1;fill:#ffffff;fill-opacity:1;fill-rule:nonzero;stroke:none;stroke-width:0.37795275;stroke-linecap:butt;stroke-linejoin:miter;stroke-miterlimit:4;stroke-dasharray:none;stroke-dashoffset:0;stroke-opacity:1;paint-order:stroke fill markers"
       d="m 435.70031,287.01717 c -4.31075,-1.9581 -5.6251,-5.44164 -4.17233,-11.05824 1.89239,-7.31617 6.07444,-11.92112 16.19338,-17.83091 6.71756,-3.92326 10.85772,-5.22833 12.58332,-3.96654 0.97397,0.71218 0.95625,0.90488 -0.26487,2.8807 l -1.30867,2.11746 3.62381,-1.18813 c 3.27464,-1.07365 3.71537,-1.09658 4.57402,-0.23793 0.52262,0.52262 0.95021,1.23119 0.95021,1.5746 0,1.12854 -6.14074,8.03071 -8.58226,9.64644 -2.09957,1.38942 -2.89709,1.55555 -6.55015,1.36444 l -4.15951,-0.2176 0.28788,3.98087 c 0.51901,7.17686 0.14391,12.85027 -0.90032,13.61746 -1.27703,0.93822 -9.74271,0.46741 -12.27451,-0.68262 z"
       id="path4772"
       inkscape:connector-curvature="0"
       transform="matrix(0.26458333,0,0,0.26458333,0,87)" />
    <path
       style="opacity:1;fill:#ffffff;fill-opacity:1;fill-rule:nonzero;stroke:none;stroke-width:0.37795275;stroke-linecap:butt;stroke-linejoin:miter;stroke-miterlimit:4;stroke-dasharray:none;stroke-dashoffset:0;stroke-opacity:1;paint-order:stroke fill markers"
       d="m 562.74775,259.93623 c -0.98157,-0.98157 -1.17628,-1.6682 -0.82497,-2.9091 0.25292,-0.89335 0.41488,-3.47037 0.35992,-5.7267 -0.11608,-4.76584 1.35937,-8.71104 5.42591,-14.50829 4.00581,-5.71068 5.88237,-6.08357 9.42541,-1.87291 2.0467,2.43236 2.01087,3.88234 -0.19699,7.97291 -0.98678,1.82825 -2.35973,4.84239 -3.05101,6.69809 -1.32444,3.5554 -7.59052,11.63082 -9.02488,11.63082 -0.45571,0 -1.40674,-0.57817 -2.11339,-1.28482 z"
       id="path4774"
       inkscape:connector-curvature="0"
       transform="matrix(0.26458333,0,0,0.26458333,0,87)" />
  </g>
</svg>
