<?xml version="1.0" encoding="UTF-8" standalone="no"?>
<!-- Created with Inkscape (http://www.inkscape.org/) -->

<svg
   xmlns:dc="http://purl.org/dc/elements/1.1/"
   xmlns:cc="http://creativecommons.org/ns#"
   xmlns:rdf="http://www.w3.org/1999/02/22-rdf-syntax-ns#"
   xmlns:svg="http://www.w3.org/2000/svg"
   xmlns="http://www.w3.org/2000/svg"
   xmlns:xlink="http://www.w3.org/1999/xlink"
   xmlns:sodipodi="http://sodipodi.sourceforge.net/DTD/sodipodi-0.dtd"
   xmlns:inkscape="http://www.inkscape.org/namespaces/inkscape"
   width="297mm"
   height="210mm"
   viewBox="0 0 297 210"
   version="1.1"
   id="svg8"
   sodipodi:docname="zapt1.svg"
   inkscape:version="0.92.2 (5c3e80d, 2017-08-06)">
  <defs
     id="defs2">
    <linearGradient
       inkscape:collect="always"
       id="linearGradient4641">
      <stop
         style="stop-color:#000000;stop-opacity:1;"
         offset="0"
         id="stop4637" />
      <stop
         style="stop-color:#000000;stop-opacity:0;"
         offset="1"
         id="stop4639" />
    </linearGradient>
    <inkscape:path-effect
       effect="spiro"
       id="path-effect1882"
       is_visible="true" />
    <inkscape:path-effect
       effect="spiro"
       id="path-effect1874"
       is_visible="true" />
    <inkscape:path-effect
       effect="spiro"
       id="path-effect1870"
       is_visible="true" />
    <inkscape:path-effect
       effect="spiro"
       id="path-effect1800"
       is_visible="true" />
    <inkscape:path-effect
       effect="spiro"
       id="path-effect1796"
       is_visible="true" />
    <inkscape:path-effect
       effect="spiro"
       id="path-effect1792"
       is_visible="true" />
    <inkscape:path-effect
       effect="spiro"
       id="path-effect1524"
       is_visible="true" />
    <inkscape:path-effect
       effect="spiro"
       id="path-effect1524-7"
       is_visible="true" />
    <inkscape:path-effect
       effect="spiro"
       id="path-effect1524-6"
       is_visible="true" />
    <linearGradient
       inkscape:collect="always"
       xlink:href="#linearGradient4641"
       id="linearGradient4643"
       x1="83.242511"
       y1="226.33533"
       x2="299.58154"
       y2="226.33533"
       gradientUnits="userSpaceOnUse" />
  </defs>
  <sodipodi:namedview
     id="base"
     pagecolor="#ffffff"
     bordercolor="#666666"
     borderopacity="1.0"
     inkscape:pageopacity="0.0"
     inkscape:pageshadow="2"
     inkscape:zoom="0.50542728"
     inkscape:cx="671.51846"
     inkscape:cy="357.0074"
     inkscape:document-units="mm"
     inkscape:current-layer="layer1"
     showgrid="false"
     inkscape:window-width="1366"
     inkscape:window-height="705"
     inkscape:window-x="-8"
     inkscape:window-y="-8"
     inkscape:window-maximized="1" />
  <metadata
     id="metadata5">
    <rdf:RDF>
      <cc:Work
         rdf:about="">
        <dc:format>image/svg+xml</dc:format>
        <dc:type
           rdf:resource="http://purl.org/dc/dcmitype/StillImage" />
        <dc:title></dc:title>
      </cc:Work>
    </rdf:RDF>
  </metadata>
  <g
     inkscape:label="Capa 1"
     inkscape:groupmode="layer"
     id="layer1"
     transform="translate(0,-87)">
    <rect
       style="opacity:1;fill:#e6e6e6;fill-opacity:1;fill-rule:nonzero;stroke:none;stroke-width:0.1;stroke-linecap:butt;stroke-linejoin:miter;stroke-miterlimit:4;stroke-dasharray:none;stroke-dashoffset:0;stroke-opacity:1;paint-order:stroke fill markers"
       id="rect4633"
       width="299.12418"
       height="209.02103"
       x="0.45737347"
       y="87.521591" />
    <path
       style="fill:url(#linearGradient4643);fill-opacity:1;stroke:none;stroke-width:0.26458332px;stroke-linecap:butt;stroke-linejoin:miter;stroke-opacity:1"
       d="m 220.45544,156.12805 78.21138,52.14092 0.91472,88.27363 C 227.46853,259.1902 141.32182,226.51569 83.242511,184.48539 L 203.96407,172.72807 c 9.52679,-2.67584 28.76286,1.53333 16.49137,-16.60002 z"
       id="path4635"
       inkscape:connector-curvature="0"
       sodipodi:nodetypes="cccccc" />
    <path
       style="opacity:1;fill:#ffffff;fill-opacity:1;fill-rule:nonzero;stroke:none;stroke-width:5.53700781;stroke-linecap:butt;stroke-linejoin:miter;stroke-miterlimit:4;stroke-dasharray:none;stroke-dashoffset:0;stroke-opacity:1;paint-order:stroke fill markers"
       d=""
       id="path1642"
       inkscape:connector-curvature="0"
       transform="matrix(0.26458333,0,0,0.26458333,0,87)" />
    <path
       style="opacity:1;fill:#ffffff;fill-opacity:1;fill-rule:nonzero;stroke:none;stroke-width:5.53700781;stroke-linecap:butt;stroke-linejoin:miter;stroke-miterlimit:4;stroke-dasharray:none;stroke-dashoffset:0;stroke-opacity:1;paint-order:stroke fill markers"
       d=""
       id="path1654"
       inkscape:connector-curvature="0"
       transform="matrix(0.26458333,0,0,0.26458333,0,87)" />
    <path
       style="opacity:1;fill:#ffffff;fill-opacity:1;fill-rule:nonzero;stroke:none;stroke-width:5.53700781;stroke-linecap:butt;stroke-linejoin:miter;stroke-miterlimit:4;stroke-dasharray:none;stroke-dashoffset:0;stroke-opacity:1;paint-order:stroke fill markers"
       d=""
       id="path1678"
       inkscape:connector-curvature="0"
       transform="matrix(0.26458333,0,0,0.26458333,0,87)" />
    <path
       style="opacity:1;fill:#6c5353;fill-opacity:1;fill-rule:nonzero;stroke:none;stroke-width:0.37795275;stroke-linecap:butt;stroke-linejoin:miter;stroke-miterlimit:4;stroke-dasharray:none;stroke-dashoffset:0;stroke-opacity:1;paint-order:stroke fill markers"
       d=""
       id="path4448"
       inkscape:connector-curvature="0"
       transform="matrix(0.26458333,0,0,0.26458333,0,87)" />
    <path
       style="opacity:1;fill:#6c5353;fill-opacity:1;fill-rule:nonzero;stroke:none;stroke-width:0.37795275;stroke-linecap:butt;stroke-linejoin:miter;stroke-miterlimit:4;stroke-dasharray:none;stroke-dashoffset:0;stroke-opacity:1;paint-order:stroke fill markers"
       d=""
       id="path4450"
       inkscape:connector-curvature="0"
       transform="matrix(0.26458333,0,0,0.26458333,0,87)" />
    <path
       style="fill:#000000;stroke-width:1"
       d="m 176.77134,218.70172 c 15.14382,4.20654 24.90533,6.79364 26.93452,7.13846 9.34793,1.58854 12.93393,1.05849 14.25784,-2.10747 0.30493,-0.72922 1.35799,-4.60205 2.34014,-8.60627 1.58862,-6.47898 1.75811,-7.40252 1.53536,-8.38933 -0.2195,-0.97227 -0.16544,-1.28324 0.4387,-2.52355 1.20504,-2.47393 3.35003,-10.84689 3.6834,-14.37811 0.16127,-1.70833 0.42823,-3.65782 0.59322,-4.33225 0.17239,-0.70474 0.17365,-2.98543 0.003,-5.36283 -0.16337,-2.27512 -0.47061,-7.06135 -0.68279,-10.63605 -0.6021,-10.14436 -0.71391,-11.22078 -1.2596,-12.12571 -1.14575,-1.89996 -3.1301,-1.48748 -5.27915,1.09736 -2.18194,2.62439 -4.03016,4.29007 -6.0862,5.48507 -3.67108,2.13369 -7.0022,2.45301 -11.67378,1.11904 -4.28297,-1.22351 -8.28031,-3.88992 -11.78496,-7.86274 l -1.56567,-1.7748 0.32053,-1.92736 c 0.17632,-1.06002 0.20698,-2.45072 0.0683,-3.09037 -0.90963,-4.19306 -5.0859,-9.89363 -7.38174,-10.07603 -0.50617,-0.0403 -1.96272,0.29929 -3.23674,0.75445 -1.274,0.45517 -3.80434,1.27257 -5.62293,1.81647 -3.28125,0.98134 -3.31157,0.98354 -3.96218,0.28826 -0.63617,-0.67986 -0.71053,-0.68601 -2.50598,-0.20742 -1.01771,0.27129 -3.04906,0.76331 -4.51414,1.09339 -2.73939,0.6172 -3.34949,1.00104 -3.66968,2.30866 -0.23328,0.95272 -0.89955,1.04727 -1.54582,0.21938 -0.63462,-0.81298 -1.49429,-1.05594 -2.72929,-0.77174 -1.50623,0.34699 -2.08949,0.75818 -2.54584,1.79471 -0.23073,0.52405 -0.56512,0.95232 -0.74312,0.95169 -0.17801,-6.5e-4 -1.14544,-0.0668 -2.14983,-0.14704 -2.34794,-0.18759 -3.48802,0.0984 -4.10203,1.02877 -0.55933,0.84755 -2.44658,1.33609 -3.18951,0.82563 -0.25859,-0.17767 -1.00565,-0.19643 -1.66788,-0.0418 -0.65973,0.15402 -1.36174,0.23362 -1.56001,0.17688 -0.73112,-0.20928 -2.17534,0.3496 -2.7856,1.07794 -0.56246,0.67132 -0.76166,0.71188 -1.90136,0.38725 -0.70018,-0.19948 -1.76463,-0.35623 -2.36543,-0.34838 -1.19485,0.0156 -3.20304,0.95971 -3.64665,1.71438 -0.40652,0.69158 -1.59949,0.81694 -3.25779,0.3423 -0.79827,-0.22848 -1.8007,-0.37581 -2.22763,-0.32738 -1.94026,0.22007 -4.78625,2.21793 -6.34385,4.45334 -1.31512,1.88742 -2.55402,2.88016 -3.67861,2.94765 -0.56814,0.034 -3.79337,-0.58448 -7.16719,-1.3746 -6.701009,-1.56932 -8.423329,-1.71094 -10.812954,-0.8891 -3.366987,1.15795 -6.643965,4.56294 -8.100314,8.41677 -0.459407,1.21567 -0.908566,2.61009 -0.998122,3.0987 -0.316168,1.72459 -1.394557,6.17077 -1.943878,8.01431 -0.842992,2.82914 -0.371241,4.27395 2.339091,7.1639 4.84795,5.16921 14.435389,10.36721 28.192227,15.28491 4.58827,1.64019 24.23891,7.26069 63.98213,18.30025 z m -58.86711,-18.07331 c -4.19556,-1.36001 -8.97915,-3.01483 -10.63019,-3.67738 -10.669458,-4.28158 -18.59322,-9.07672 -22.705776,-13.74066 -1.476392,-1.67434 -1.578144,-1.89115 -1.566706,-3.3381 0.0095,-1.16808 0.191192,-1.97445 0.742156,-3.28904 0.534386,-1.27503 0.688178,-1.932 0.574156,-2.45249 -0.08563,-0.39102 0.04413,-1.26652 0.28851,-1.94556 0.244381,-0.67901 0.355201,-1.33628 0.246234,-1.46058 -0.318064,-0.36294 0.04392,-1.37027 0.51209,-1.42495 0.235849,-0.0276 0.887533,0.52765 1.448176,1.2338 3.697953,4.65748 11.120548,9.47134 20.76744,13.46857 6.2595,2.59365 17.86142,5.55179 26.45431,6.74509 1.68666,0.23422 7.1033,1.15788 12.03698,2.05257 4.93368,0.89469 10.83514,1.95738 13.11438,2.36154 9.10481,1.61451 17.91004,3.69163 30.65898,7.23238 17.21654,4.78154 21.29935,5.36197 29.73332,4.22703 0.61872,-0.0832 1.03248,-0.002 1.15384,0.22483 0.2896,0.54272 -1.57317,9.01443 -2.89411,13.16215 -1.3812,4.33691 -1.74943,4.78726 -4.18156,5.11421 -3.66604,0.49285 -5.71569,0.047 -28.57554,-6.21527 -24.73784,-6.77679 -55.4838,-14.95777 -58.86272,-15.66238 -0.37711,-0.0786 -4.11839,-1.25567 -8.31395,-2.61571 z m -10.23235,-17.58907 c -5.46328,-2.09475 -12.154239,-5.70186 -14.908637,-8.03726 -1.177761,-0.99859 -1.187124,-1.02351 -0.757386,-2.01415 0.553744,-1.27645 1.833478,-3.17808 2.848936,-4.23336 2.399156,-2.49323 6.968437,-4.23938 10.035787,-3.83518 l 1.38512,0.18253 -0.64581,0.62731 c -1.51331,1.46999 -3.44185,3.86431 -4.18067,5.19038 -1.09438,1.96427 -2.315093,5.63008 -1.913129,5.74513 0.168611,0.0483 0.381648,-0.21895 0.473439,-0.5938 0.30425,-1.2426 2.30821,-4.84132 3.63984,-6.53651 1.81999,-2.31685 7.06511,-7.26249 8.18603,-7.71864 1.21854,-0.49584 1.44948,-0.40016 2.28669,0.94741 1.03686,1.66896 3.12555,2.10403 4.96364,1.03393 0.90325,-0.52586 1.11743,-1.21376 0.74981,-2.40816 -0.2582,-0.83892 -0.24123,-0.89686 0.33428,-1.14001 0.83975,-0.35483 0.87249,-0.3251 1.17994,1.07136 0.33249,1.51017 1.20726,2.24424 2.45747,2.06215 1.13096,-0.16472 1.74859,-0.99189 2.24041,-3.00051 0.32125,-1.31192 0.5433,-1.69643 1.2284,-2.12703 0.45995,-0.2891 1.06788,-0.45934 1.35096,-0.37832 0.28307,0.0811 0.8772,-0.022 1.32025,-0.22887 l 0.80558,-0.37618 0.19548,1.122 c 0.21082,1.21018 0.97747,1.87482 2.18192,1.8916 0.953,0.0133 1.86828,-0.92663 2.71031,-2.78326 0.96334,-2.12412 1.48609,-2.22273 2.53682,-0.47851 1.46297,2.42854 3.66402,2.28114 5.02574,-0.33656 1.27,-2.44134 1.27272,-2.44426 2.23676,-2.38473 0.51237,0.0317 1.21649,-0.10157 1.56472,-0.29602 0.71642,-0.40007 1.17522,-0.0646 0.98335,0.71909 -0.17333,0.70787 0.45725,2.22043 1.0859,2.60469 0.94476,0.5775 1.77525,-0.16767 2.44494,-2.19378 0.81364,-2.46163 0.8254,-2.47664 2.08837,-2.66486 1.43851,-0.21439 1.43703,-0.21524 1.54157,0.88771 0.12227,1.28985 1.90454,2.98852 3.02904,2.88698 1.2621,-0.11399 2.2042,-1.14127 2.8182,-3.073 0.59954,-1.88617 0.95476,-2.21009 1.48693,-1.35587 2.08804,3.35169 5.67667,2.93669 6.58213,-0.76116 0.28954,-1.18248 0.37019,-1.26048 1.41668,-1.37092 1.64078,-0.17314 3.16384,0.38332 4.63953,1.69508 1.50146,1.3347 1.87009,2.33493 1.19089,3.23134 -0.53831,0.71048 -8.03044,2.47004 -22.37648,5.25524 -5.40993,1.0503 -15.41513,3.23791 -22.23377,4.86135 -12.80453,3.04862 -16.82431,3.86838 -21.3909,4.36233 -1.88831,0.20425 -2.33901,0.32939 -1.54649,0.42942 3.96989,0.50101 9.31943,-0.0663 16.81993,-1.7837 2.15556,-0.49358 3.98596,-0.75675 4.06758,-0.58487 0.29539,0.62212 5.5507,22.32471 5.42507,22.40368 -0.14264,0.0896 -11.56242,-1.98041 -14.15878,-2.56657 -3.86812,-0.87327 -10.51905,-2.8265 -13.44635,-3.94896 z m 33.54141,-0.60112 c -2.88177,-11.18281 -4.14805,-16.42931 -4.05605,-16.80504 0.0405,-0.16562 1.32848,-0.58551 2.86205,-0.93307 2.29275,-0.51963 2.83031,-0.54635 3.02456,-0.15035 0.12993,0.26489 1.41544,5.09667 2.8567,10.73728 1.44124,5.64063 3.01757,11.75262 3.50294,13.58223 0.48538,1.8296 0.78516,3.388 0.66619,3.46311 -0.23014,0.14528 -2.99605,-0.32189 -5.2588,-0.88824 l -1.36481,-0.34163 z m 5.30568,6.90965 c 0.13953,-0.20897 0.20676,-0.54716 0.14928,-0.75156 -0.1505,-0.53592 -1.00547,-0.0563 -0.94676,0.53116 0.0591,0.59133 0.47336,0.70582 0.79753,0.22002 z m -1.6202,-6.6814 c 0.2857,-0.42793 0.15564,-0.76507 -0.35103,-0.9101 -0.19754,-0.0565 -0.42336,0.15933 -0.50181,0.4797 -0.16216,0.66225 0.48127,0.98697 0.85284,0.4304 z m -1.69706,-6.78087 c 0.32206,-0.48239 -0.1924,-1.22853 -0.64913,-0.94145 -0.37187,0.23373 -0.31122,1.16553 0.0832,1.27841 0.15747,0.0451 0.41216,-0.10659 0.56596,-0.33696 z m -1.56413,-6.18195 c 0.0792,-0.32361 -0.037,-0.63389 -0.26144,-0.69815 -0.2245,-0.0642 -0.46748,0.14323 -0.54671,0.46683 -0.0792,0.32362 0.037,0.63391 0.26145,0.69817 0.22448,0.0642 0.46747,-0.14323 0.5467,-0.46685 z m 12.74339,8.94562 c -2.0855,-8.22481 -3.85734,-15.21518 -3.9374,-15.53418 -0.12461,-0.49644 0.19604,-0.6569 2.22586,-1.11393 3.58302,-0.80672 3.47722,-0.83373 3.98125,1.01599 0.66627,2.44518 7.54953,28.69803 7.95486,30.34 0.19588,0.7935 0.28569,1.48701 0.19958,1.54115 -0.25268,0.15881 -4.16685,-0.49638 -5.45208,-0.91261 l -1.18023,-0.3822 z m 6.9135,13.19855 c 0.10741,-0.43865 0.005,-0.63617 -0.34237,-0.66198 -0.27249,-0.0203 -0.54272,0.15624 -0.60048,0.39213 -0.0577,0.2359 0.0963,0.53379 0.34237,0.66199 0.3139,0.16357 0.49307,0.0466 0.60048,-0.39214 z m -1.81872,-6.33171 c 0.48228,-0.30312 0.40476,-0.92951 -0.13411,-1.08375 -0.37659,-0.10784 -0.56888,0.007 -0.59031,0.35062 -0.0352,0.56354 0.35925,0.96266 0.72442,0.73313 z m -1.52455,-7.09161 c 0.0785,-0.32037 -0.019,-0.62877 -0.21654,-0.6853 -0.50669,-0.14503 -0.77399,0.0783 -0.72156,0.6031 0.0683,0.68244 0.77595,0.74445 0.9381,0.0822 z m -1.66428,-5.71155 c 0.30423,-0.31163 -0.0297,-1.10715 -0.41204,-0.98166 -0.50323,0.16521 -0.62298,0.93405 -0.16585,1.06488 0.2135,0.0611 0.47355,0.0236 0.57789,-0.0832 z m -1.57885,-6.56185 c 0.28569,-0.42792 0.15563,-0.76506 -0.35104,-0.91009 -0.19754,-0.0566 -0.42336,0.15932 -0.50181,0.47969 -0.16215,0.66226 0.48126,0.98698 0.85285,0.4304 z m -68.291119,2.93426 c -0.691696,-0.97759 -0.656118,-1.7314 0.155393,-3.29173 1.963278,-3.77492 5.389709,-5.65642 10.272374,-5.6407 2.192776,0.007 11.678072,2.0535 11.961552,2.58068 0.13508,0.25122 -0.67892,0.18638 -2.49888,-0.19908 -8.661356,-1.83443 -14.186995,-0.53354 -17.210809,4.05195 -0.735373,1.11515 -0.387893,0.90939 0.926682,-0.5487 3.209961,-3.56046 8.580175,-4.694 15.248997,-3.21877 l 2.87127,0.63516 -0.66624,0.4782 c -0.36642,0.26302 -0.86442,0.42147 -1.10665,0.35214 -0.86881,-0.24867 -3.89982,-0.14734 -5.46808,0.18279 -3.802298,0.80042 -7.002464,3.204 -8.729303,6.55645 -0.526192,1.02152 -1.044896,2.01479 -1.152694,2.20725 -0.138057,0.24659 -0.796766,-0.24312 -2.229892,-1.65772 -1.118663,-1.10423 -2.186836,-2.22379 -2.37372,-2.48792 z m 87.404609,27.4108 c -0.30002,-0.18611 -0.78584,-1.28988 -1.13587,-2.58038 -2.48901,-9.17669 -8.51545,-31.59801 -8.84011,-32.88949 l -0.39992,-1.59094 5.25256,-1.10249 c 2.88892,-0.60638 6.03199,-1.4005 6.98459,-1.76474 1.54963,-0.59251 1.78923,-0.60457 2.27552,-0.11461 1.09014,1.09843 2.21842,3.20189 3.69074,6.88073 1.66046,4.14892 2.37478,5.49504 3.86799,7.28913 2.08162,2.50108 4.63618,4.16524 8.57244,5.58453 2.61582,0.94317 2.64987,0.96667 3.2059,2.21161 2.31885,5.19185 3.12326,6.09116 5.96332,6.66669 1.38049,0.2798 2.99676,0.22679 6.56379,-0.21512 5.47185,-0.67788 6.82947,-0.53635 9.57027,0.99773 1.73936,0.97355 3.4158,1.49244 5.36841,1.66163 0.50478,0.0437 0.53796,0.3053 0.31325,2.47028 -0.31052,2.99173 -1.8904,9.62211 -2.91991,12.25401 -1.08866,2.78317 -1.56213,3.09446 -5.00191,3.28859 -5.21198,0.29415 -11.0721,-0.36688 -18.48792,-2.08546 -5.22337,-1.21047 -24.09911,-6.49996 -24.84315,-6.9617 z M 94.987289,159.2793 c 1.603569,-0.4205 4.641897,-0.0387 9.814861,1.23336 3.87915,0.95389 5.07362,1.33391 4.86486,1.54776 -0.17388,0.17811 -1.09676,0.049 -2.48341,-0.34741 -3.3354,-0.95347 -9.172855,-2.04751 -10.801733,-2.02436 -1.920886,0.0273 -2.458211,-0.13043 -1.394483,-0.40973 z m 19.839461,3.14182 c -0.5422,-0.85764 -0.36179,-2.18793 0.50884,-3.75218 0.60939,-1.09489 1.24247,-1.70253 2.7606,-2.64976 2.26536,-1.41344 3.6524,-1.97628 4.37081,-1.77359 0.41097,0.11644 0.26972,0.30643 -0.77196,1.03993 -0.70137,0.49387 -1.47168,1.19414 -1.71178,1.55614 -0.72903,1.09913 -1.12947,3.31357 -0.85116,4.70696 0.30373,1.5206 0.0303,1.82292 -1.77675,1.96448 -1.21968,0.0955 -1.98749,-0.23603 -2.5286,-1.09198 z m 7.71617,-0.67599 c -0.72798,-1.35382 0.77852,-4.87578 2.51248,-5.87386 1.35157,-0.77796 2.86691,-0.83485 3.2502,-0.12202 0.26487,0.49258 0.1994,0.62044 -0.59395,1.1598 -1.27424,0.8663 -1.76818,1.54375 -2.09309,2.87065 -0.66305,2.70785 -2.16153,3.66541 -3.07564,1.96543 z m -2.65982,-3.2646 c 0.13087,-0.53452 1.41041,-2.19583 2.02259,-2.6261 0.64553,-0.4537 2.29017,-0.92572 2.41521,-0.69317 0.14361,0.26706 -2.77715,3.47979 -3.30732,3.63794 -0.69207,0.20643 -1.22245,0.0569 -1.13044,-0.31884 z m 12.16122,-0.13535 c -0.54452,-1.36301 -0.14652,-2.48816 1.3382,-3.78297 1.5349,-1.33858 2.57109,-1.75678 3.61355,-1.45842 1.14238,0.32697 1.13656,0.59797 -0.0323,1.50515 -0.58032,0.45041 -1.12069,1.08376 -1.20083,1.40744 -0.4424,1.78896 -2.05947,3.62487 -2.96369,3.36606 -0.21149,-0.0606 -0.55122,-0.52729 -0.75494,-1.03726 z m -2.86096,-2.36095 c 0.0647,-0.93788 -0.27217,-1.45454 -1.10326,-1.69243 -0.42635,-0.12202 -0.74868,-0.33007 -0.71629,-0.46234 0.1049,-0.42849 1.55327,-1.12589 2.69005,-1.29532 1.06021,-0.15799 3.32474,0.27648 3.24022,0.62168 -0.0222,0.0909 -0.43179,0.49949 -0.91014,0.90823 -0.47833,0.40875 -1.271,1.23354 -1.76147,1.83289 -0.9073,1.10867 -1.51204,1.14536 -1.43911,0.0873 z m 62.326,17.52998 c -3.97214,-2.13376 -5.71331,-4.34983 -8.87826,-11.29982 -1.70157,-3.73653 -3.01391,-5.74132 -4.23613,-6.47131 -0.41546,-0.24814 -0.61849,-0.59806 -0.53791,-0.92715 0.20126,-0.82192 -0.68356,-2.54158 -1.85429,-3.60381 -0.58457,-0.53041 -1.04334,-1.04411 -1.01947,-1.14157 0.0772,-0.31523 2.47348,0.9352 3.52672,1.84033 1.35461,1.1641 1.63403,1.58831 4.87355,7.39946 5.54737,9.95103 8.59997,13.09216 14.27803,14.6922 4.46759,1.25892 8.2191,0.68613 12.29143,-1.87671 2.11447,-1.33071 2.95132,-2.0901 4.71101,-4.27501 1.17691,-1.46128 3.12488,-4.26132 4.32884,-6.22232 1.20396,-1.96101 2.44418,-3.7448 2.75606,-3.964 1.12547,-0.79102 2.4245,0.2189 2.40481,1.86961 -0.006,0.53415 -0.43464,1.26432 -1.43691,2.44979 -0.7853,0.92886 -2.50515,3.27383 -3.82186,5.21104 -2.65284,3.90298 -5.86162,7.2163 -8.16148,8.42741 -2.44257,1.28624 -5.356,1.75073 -8.76609,1.39757 -2.01693,-0.20888 -8.14463,-2.26293 -10.45805,-3.50571 z m -52.55811,-17.56042 c -0.31063,-0.67491 -0.5301,-1.36872 -0.4877,-1.54185 0.11683,-0.47714 2.80712,-1.95615 3.88556,-2.13614 0.72608,-0.12115 1.12962,-0.0284 1.70558,0.39241 0.79272,0.5791 0.86365,0.82766 0.33221,1.16405 -0.17716,0.11217 -0.8093,0.97205 -1.40477,1.91092 -1.61923,2.55298 -2.92145,2.62102 -4.03087,0.21059 z m 54.54249,14.58612 c -3.43851,-2.51109 -5.42368,-5.10951 -9.74131,-12.75058 -2.09423,-3.70623 -3.78122,-6.34549 -4.41196,-6.9024 -0.85122,-0.75162 -1.63276,-1.07789 -4.6949,-1.96003 -3.01324,-0.86833 -3.6823,-1.14488 -3.72175,-1.53957 -0.0264,-0.26471 -0.36506,-0.57197 -0.75246,-0.68286 -0.9562,-0.27368 -0.62287,-0.72143 1.12992,-1.51779 l 1.43411,-0.65158 -0.92063,-0.0663 c -1.41208,-0.10169 -1.04414,-0.33231 1.15362,-0.72295 1.1003,-0.19558 2.96725,-0.76103 4.14879,-1.25657 3.99882,-1.67708 5.33792,-1.67013 5.0492,0.0262 -0.18964,1.1144 -0.003,2.06627 1.4508,7.41409 1.9036,7.00036 2.60592,9.16069 3.01635,9.27816 0.11855,0.0339 0.42144,-0.44036 0.67311,-1.05397 0.25168,-0.61361 0.5592,-1.08658 0.68343,-1.05103 0.12423,0.0355 0.83414,0.78747 1.57758,1.67092 2.93074,3.4827 8.24607,6.64896 12.83367,7.64479 5.61898,1.21974 10.23189,0.0483 13.88235,-3.52543 0.80003,-0.78322 1.43442,-1.3416 1.40975,-1.24083 -0.0246,0.10066 -0.64156,1.05523 -1.37084,2.12108 -3.31448,4.844 -7.72092,8.24174 -11.77332,9.0782 -1.23831,0.25561 -2.89011,0.42402 -3.67065,0.37427 -2.06876,-0.13187 -5.69216,-1.44969 -7.38486,-2.68584 z M 148.99689,155.292 c -0.32755,-1.68174 1.13215,-5.27867 2.61927,-6.45425 0.58821,-0.46499 0.7442,-0.46329 1.28313,0.014 0.80719,0.71487 0.79696,2.00021 -0.0204,2.57474 -0.41872,0.2943 -0.87072,1.18023 -1.41656,2.77651 -0.44089,1.28938 -0.8194,2.38361 -0.84113,2.43163 -0.0216,0.0482 -0.35993,-0.0487 -0.75152,-0.21511 -0.44635,-0.18959 -0.77196,-0.61025 -0.87272,-1.12755 z m -12.71853,-3.50881 c -0.56575,-0.3833 0.12069,-0.72024 0.97136,-0.47676 0.44941,0.12862 1.18953,0.06 1.64469,-0.15259 0.45516,-0.21255 1.20351,-0.27149 1.663,-0.131 l 0.83543,0.25549 -0.79452,0.30166 c -0.43699,0.16591 -1.10184,0.51552 -1.47746,0.77694 -0.6533,0.45467 -1.60937,0.2617 -2.84251,-0.57372 z m 8.76806,-0.30804 c -0.24797,-0.64706 -0.33568,-1.34896 -0.19493,-1.55979 0.3351,-0.50194 2.32007,-0.9559 3.70026,-0.84625 1.00093,0.0795 1.06264,0.12777 0.73396,0.57364 -0.19737,0.26774 -0.54775,1.02978 -0.7786,1.69343 -0.29318,0.84269 -0.65639,1.31712 -1.20437,1.57302 -1.0149,0.47394 -1.68939,0.0452 -2.25632,-1.43405 z m 11.43715,2.24372 c -0.46473,-0.86427 -0.51641,-1.32488 -0.26184,-2.33448 0.17481,-0.69166 0.53449,-1.44114 0.80014,-1.66529 0.26563,-0.22415 0.50621,-0.76626 0.5346,-1.2047 0.07,-1.08056 0.66166,-1.2076 1.78188,-0.38259 1.67282,1.23195 2.08079,1.91627 1.63085,2.73562 -0.21894,0.39873 -0.42455,0.99788 -0.4569,1.33145 -0.0934,0.96352 -1.07173,2.60412 -1.65679,2.77844 -0.95029,0.28314 -1.77959,-0.15684 -2.37194,-1.25845 z m 68.26706,19.90145 c -0.0398,-0.14185 0.1606,-0.4619 0.44541,-0.71123 0.28481,-0.24933 0.48223,-0.30793 0.43872,-0.13023 -0.0435,0.1777 -0.0562,0.55148 -0.0284,0.83059 0.0518,0.5181 -0.71056,0.52779 -0.85573,0.0114 z m -0.5991,-1.12246 c -0.0426,-0.15144 0.25168,-0.59314 0.65384,-0.98159 0.66142,-0.6389 0.71659,-0.64598 0.5783,-0.0742 -0.2926,1.20829 -1.0153,1.82798 -1.23214,1.05585 z m 0.37842,-2.1193 c 1.02088,-0.8841 1.16336,-0.43776 0.21976,0.68843 -0.45442,0.54234 -0.73523,0.67937 -0.8718,0.42538 -0.13657,-0.25398 0.0734,-0.61275 0.65204,-1.11381 z M 154.374,150.65214 c 0.23385,-0.955 -0.39077,-2.20311 -1.4033,-2.80412 -0.87896,-0.5217 -0.81738,-0.73703 0.30899,-1.08032 1.12873,-0.34401 1.8634,-0.1418 2.88821,0.79498 0.89102,0.81447 0.88963,1.13495 -0.0105,2.36631 -0.34025,0.46554 -0.74044,1.05699 -0.88933,1.31435 -0.45171,0.7808 -1.12175,0.33782 -0.89426,-0.5912 z m 68.79763,17.96215 c -0.39828,-2.54717 0.16395,-3.17506 1.59129,-1.77717 1.05902,1.03719 1.00017,2.08721 -0.17038,3.04032 -0.89745,0.7307 -1.14334,0.51211 -1.42091,-1.26315 z m -59.74125,-17.61161 c -1.24696,-1.63159 -3.92101,-4.23256 -4.53165,-4.40779 -0.18517,-0.0532 -0.27323,-0.35572 -0.19569,-0.6724 0.34928,-1.42644 3.75819,-1.3985 6.16739,0.0506 1.71043,1.02876 3.5342,3.11071 3.71168,4.23708 0.13888,0.88143 -0.41131,1.83061 -1.43372,2.4732 -1.11682,0.70197 -2.30891,0.1631 -3.71801,-1.68065 z m 21.82658,2.54834 c -2.53032,-10.71183 -2.48416,-10.46883 -1.99475,-10.5022 0.30504,-0.0208 3.16554,4.04807 3.94271,5.60821 1.11023,2.2287 1.13044,5.72727 0.0488,8.43541 l -0.54014,1.35231 -0.34874,-0.8401 c -0.19181,-0.46205 -0.69033,-2.28618 -1.10784,-4.05363 z m -17.12767,-7.27519 c 0.13729,-0.56065 0.37083,-0.98467 0.51899,-0.94227 0.14818,0.0424 0.15708,0.53582 0.0198,1.09647 -0.13728,0.56065 -0.37082,0.98467 -0.519,0.94227 -0.14816,-0.0424 -0.15706,-0.53582 -0.0198,-1.09647 z m -0.67375,-0.40711 c 0.14292,-0.20772 0.18981,-0.12044 0.11967,0.22253 -0.0635,0.31039 -0.16934,0.46416 -0.2351,0.34178 -0.0658,-0.12237 -0.0139,-0.37635 0.11541,-0.56432 z m -2.90315,-0.82269 c -0.33185,-0.29391 -0.58132,-0.61073 -0.55438,-0.70409 0.0272,-0.0933 0.73444,-0.4293 1.57221,-0.74661 2.65362,-1.00504 3.72144,-0.0994 1.54932,1.31406 -1.42784,0.9291 -1.65852,0.94138 -2.56715,0.13664 z"
       id="path4549"
       inkscape:connector-curvature="0" />
    <path
       style="opacity:1;fill:#ff0000;fill-opacity:1;fill-rule:nonzero;stroke:none;stroke-width:0.10000001;stroke-linecap:butt;stroke-linejoin:miter;stroke-miterlimit:4;stroke-dasharray:none;stroke-dashoffset:0;stroke-opacity:1;paint-order:stroke fill markers"
       d="m 197.58515,202.84945 c 13.88154,3.30257 22.31087,3.48762 23.8983,0.52461 0.84451,-1.5763 3.49446,-12.36781 3.48971,-14.21128 -0.003,-1.32039 -0.10619,-1.38041 -5.03879,-2.9424 -4.76924,-1.51025 -5.29864,-1.56921 -10.01814,-1.1164 -3.18145,0.30525 -5.81697,0.23933 -7.29022,-0.18233 -2.15226,-0.61602 -2.44058,-0.89332 -4.28769,-4.12383 -1.89333,-3.31137 -2.1173,-3.51963 -5.10179,-4.74393 -6.09455,-2.50011 -8.47413,-5.01516 -11.53955,-12.1964 -1.15282,-2.70066 -2.57044,-5.52768 -3.15026,-6.28225 l -1.05422,-1.37196 -3.98322,1.13685 c -2.19079,0.62526 -5.20602,1.37379 -6.70054,1.66341 -1.4945,0.28959 -2.7704,0.74341 -2.8353,1.00847 -0.18974,0.7749 8.80566,33.75566 9.63509,35.32613 0.72596,1.37453 1.03954,1.50643 8.36292,3.51745 4.18478,1.14911 11.21094,2.94639 15.6137,3.99386 z"
       id="path4551"
       inkscape:connector-curvature="0" />
    <path
       style="opacity:1;fill:#ff0000;fill-opacity:1;fill-rule:nonzero;stroke:none;stroke-width:0.10000001;stroke-linecap:butt;stroke-linejoin:miter;stroke-miterlimit:4;stroke-dasharray:none;stroke-dashoffset:0;stroke-opacity:1;paint-order:stroke fill markers"
       d="m 128.27782,188.22226 c 3.34503,0.58709 6.22705,0.97622 6.40449,0.86469 0.17744,-0.11148 -0.60962,-4.07943 -1.74901,-8.81757 -2.9629,-12.3211 -3.18192,-13.06279 -3.82643,-12.95786 -0.31913,0.0519 -3.40162,0.62732 -6.84998,1.2786 -6.16867,1.16508 -13.60504,1.63223 -13.41166,0.84253 0.0542,-0.22164 1.19203,-0.51821 2.52835,-0.65902 1.33633,-0.14082 12.96916,-2.54584 25.85072,-5.34451 38.60879,-8.38819 38.68469,-8.40675 38.95829,-9.52413 0.34305,-1.40096 -2.33771,-3.83446 -4.40045,-3.99459 -1.3552,-0.10522 -1.74217,0.17507 -2.85097,2.06504 -1.59386,2.71675 -3.22914,3.06764 -5.26622,1.12999 -0.73235,-0.69661 -1.37927,-1.28021 -1.43757,-1.2969 -0.0583,-0.0167 -0.58966,0.9145 -1.18081,2.06933 -1.3232,2.58495 -2.74809,3.11494 -4.49731,1.67281 -0.66343,-0.54696 -1.17455,-1.13784 -1.13584,-1.31305 0.0386,-0.17524 -0.0342,-0.67658 -0.16212,-1.11416 -0.45229,-1.54771 -2.3473,-0.43903 -3.29191,1.92593 -0.47425,1.18737 -1.25052,2.35335 -1.72504,2.59107 -0.72224,0.36184 -1.00418,0.10476 -1.73124,-1.57881 -0.79783,-1.8474 -0.98102,-1.9903 -2.25166,-1.75629 -0.92566,0.17049 -1.7253,0.8582 -2.41747,2.07908 -0.56887,1.00338 -1.63415,2.04015 -2.36732,2.30392 -1.24699,0.44863 -1.4321,0.37341 -2.86795,-1.16547 -1.43916,-1.54241 -1.56704,-1.59409 -2.0495,-0.82835 -2.64031,4.19052 -4.06597,4.80768 -5.47312,2.36922 -0.76016,-1.31725 -0.90465,-1.37933 -2.38422,-1.0242 -1.55474,0.37315 -2.44348,1.45437 -2.99191,3.63982 -0.15958,0.63392 -0.87321,1.33249 -1.64702,1.6109 -1.25897,0.45294 -1.44059,0.40193 -2.31485,-0.65019 -1.24814,-1.50195 -1.39277,-1.50643 -1.74837,-0.0542 -0.34189,1.39628 -2.23426,2.35423 -3.77783,1.91244 -0.56257,-0.16101 -1.58611,-0.87825 -2.27458,-1.59386 l -1.25171,-1.30108 -2.13222,1.54474 c -3.3104,2.39831 -7.16441,6.76007 -8.9289,10.10519 -2.186118,4.14445 -3.020052,4.56742 -1.697631,0.861 0.578341,-1.62096 2.021481,-4.19625 3.226011,-5.75689 1.19873,-1.55311 2.10325,-2.96571 2.01002,-3.13909 -0.34683,-0.64499 -4.73123,0.24143 -6.973413,1.4099 -2.255496,1.17538 -4.611185,3.65473 -5.881629,6.19033 -0.57958,1.15673 -0.47273,1.3521 1.504661,2.75117 1.170693,0.82829 3.971223,2.51571 6.223391,3.74983 5.24337,2.87314 19.50733,7.36953 28.24194,8.90261 z"
       id="path4553"
       inkscape:connector-curvature="0" />
    <path
       style="opacity:1;fill:#ff0000;fill-opacity:1;fill-rule:nonzero;stroke:none;stroke-width:0.10000001;stroke-linecap:butt;stroke-linejoin:miter;stroke-miterlimit:4;stroke-dasharray:none;stroke-dashoffset:0;stroke-opacity:1;paint-order:stroke fill markers"
       d="m 91.968699,171.11221 c 2.035361,-3.8271 5.821816,-6.42283 10.068061,-6.90198 3.23109,-0.36461 3.78818,-1.31731 0.94174,-1.61055 -5.43208,-0.55957 -9.59517,0.52295 -12.402599,3.22506 -2.019035,1.9433 -2.394469,1.99119 -1.249653,0.15939 0.824434,-1.31915 3.702819,-3.18698 6.441977,-4.18033 1.861747,-0.67515 1.307992,-1.41641 -0.948652,-1.2699 -3.648525,0.23687 -7.48741,3.14256 -8.24626,6.24165 -0.316832,1.29396 -0.08152,1.8936 1.44092,3.67173 1.000776,1.16887 2.08483,2.20113 2.409003,2.29391 0.324173,0.0928 1.019618,-0.64025 1.545463,-1.62898 z"
       id="path4555"
       inkscape:connector-curvature="0" />
    <path
       style="opacity:1;fill:#ff0000;fill-opacity:1;fill-rule:nonzero;stroke:none;stroke-width:0.10000001;stroke-linecap:butt;stroke-linejoin:miter;stroke-miterlimit:4;stroke-dasharray:none;stroke-dashoffset:0;stroke-opacity:1;paint-order:stroke fill markers"
       d="m 146.63794,191.63363 c 1.66418,0.38574 3.00383,0.45192 3.07727,0.15199 0.12412,-0.5069 -5.81828,-23.94762 -6.65404,-26.24795 -0.3861,-1.06264 -0.49182,-1.08399 -2.87178,-0.5799 -1.35901,0.28784 -2.53232,0.77414 -2.60737,1.08068 -0.12946,0.52865 3.29946,14.79146 5.21523,21.69313 l 0.8935,3.21892 z m -0.77076,-2.754 c 0.0645,-0.26306 0.36227,-0.495 0.6619,-0.51542 0.29961,-0.0204 0.45232,0.34048 0.33931,0.80199 -0.113,0.46152 -0.41086,0.69347 -0.6619,0.51543 -0.25104,-0.17799 -0.40372,-0.53892 -0.33931,-0.802 z m -1.49795,-7.01728 c 0.59869,-0.37631 0.8006,0.50601 0.24584,1.07428 -0.41906,0.42926 -0.52885,0.39826 -0.56135,-0.15832 -0.0222,-0.38068 0.11971,-0.7928 0.31543,-0.9158 z m -2.11625,-6.40859 c 0.10174,-0.41535 0.39449,-0.69522 0.6506,-0.62191 0.25612,0.0733 0.38247,0.47313 0.28076,0.88848 -0.10174,0.41538 -0.39448,0.69524 -0.6506,0.62194 -0.25612,-0.0733 -0.38246,-0.47313 -0.28076,-0.88851 z m -1.49235,-6.11587 c 0.0638,-0.26057 0.32557,-0.41379 0.58168,-0.34048 0.25612,0.0733 0.37919,0.48649 0.27349,0.9182 -0.10571,0.4317 -0.36747,0.58493 -0.5817,0.34048 -0.2142,-0.24444 -0.33727,-0.65764 -0.27347,-0.9182 z"
       id="path4557"
       inkscape:connector-curvature="0" />
    <path
       style="opacity:1;fill:#d35f5f;fill-opacity:1;fill-rule:nonzero;stroke:none;stroke-width:0.10000001;stroke-linecap:butt;stroke-linejoin:miter;stroke-miterlimit:4;stroke-dasharray:none;stroke-dashoffset:0;stroke-opacity:1;paint-order:stroke fill markers"
       d="m 164.48495,194.55472 c 0.15128,-0.61785 -7.74554,-30.86849 -8.37461,-32.0809 -0.41693,-0.80354 -0.77762,-0.8565 -2.84779,-0.41802 -1.3037,0.27613 -2.41362,0.67862 -2.46646,0.89443 -0.0529,0.21579 1.58961,7.05312 3.64989,15.19405 l 3.74597,14.8017 3.08804,1.04315 c 1.73583,0.58635 3.13921,0.83407 3.20496,0.56559 z m -4.17085,-2.92741 c 0.16463,-0.27142 0.49848,-0.43648 0.74179,-0.36684 0.24332,0.0697 0.45786,0.39166 0.47675,0.71562 0.0188,0.32392 -0.31492,0.48902 -0.7418,0.36684 -0.42686,-0.12218 -0.6414,-0.44421 -0.47674,-0.71562 z m -1.8716,-6.99216 c 0.0638,-0.26057 0.43034,-0.38379 0.81452,-0.27382 0.72014,0.2061 0.77971,0.85886 0.11643,1.27577 -0.47054,0.29575 -1.0864,-0.36713 -0.93095,-1.00195 z m -1.38361,-6.55993 c 0.10174,-0.41537 0.39446,-0.69524 0.65058,-0.62193 0.25613,0.0733 0.38247,0.47313 0.28077,0.8885 -0.10174,0.41536 -0.39448,0.69523 -0.65061,0.62192 -0.25612,-0.0733 -0.38245,-0.47313 -0.28074,-0.88849 z m -1.56128,-5.83445 c 0.10175,-0.41535 0.39448,-0.69523 0.6506,-0.62192 0.25613,0.0733 0.38246,0.47314 0.28076,0.88849 -0.10174,0.41538 -0.39448,0.69524 -0.65061,0.62194 -0.25611,-0.0733 -0.38246,-0.47313 -0.28075,-0.88851 z m -1.83475,-6.75263 c 0.0638,-0.26057 0.43034,-0.3838 0.81454,-0.27384 0.72012,0.20611 0.77969,0.85888 0.11641,1.27577 -0.47053,0.29575 -1.08639,-0.36713 -0.93095,-1.00193 z"
       id="path4559"
       inkscape:connector-curvature="0" />
    <path
       style="opacity:1;fill:#d35f5f;fill-opacity:1;fill-rule:nonzero;stroke:none;stroke-width:0.10000001;stroke-linecap:butt;stroke-linejoin:miter;stroke-miterlimit:4;stroke-dasharray:none;stroke-dashoffset:0;stroke-opacity:1;paint-order:stroke fill markers"
       d="m 203.96407,172.72807 c 1.44506,-0.30504 3.8607,-1.38124 5.36808,-2.39154 2.89205,-1.93835 5.91032,-4.83686 5.61284,-5.3901 -0.0971,-0.18065 -1.34558,0.19576 -2.77432,0.83645 -1.42873,0.64068 -3.75932,1.20242 -5.17907,1.24829 -5.25225,0.1697 -12.32293,-2.88998 -16.49819,-7.13926 -2.18444,-2.22317 -2.9563,-2.49835 -3.28157,-1.16996 -0.38434,1.5696 -1.18124,0.25622 -2.49583,-4.11338 -0.75597,-2.51283 -1.73415,-6.42941 -2.17371,-8.70352 -0.43957,-2.27411 -1.03472,-4.20215 -1.32254,-4.28453 -0.28783,-0.0824 -2.28828,0.43604 -4.44543,1.15204 -2.15716,0.71601 -4.18346,1.23075 -4.50288,1.14385 -0.43865,-0.11965 -0.45664,-0.013 -0.0733,0.43475 0.38039,0.44428 0.13588,0.72643 -0.97623,1.12655 l -1.48371,0.5338 1.3534,1.12819 c 0.74435,0.62051 2.89561,1.56961 4.78056,2.10911 l 3.42717,0.98093 2.5176,4.08781 c 1.38469,2.24831 3.66175,5.93047 5.06017,8.18259 3.58861,5.77941 6.14275,8.04894 10.76999,9.56985 3.13454,1.03028 4.08483,1.12922 6.31696,0.65807 z"
       id="path4561"
       inkscape:connector-curvature="0" />
    <path
       style="opacity:1;fill:#d35f5f;fill-opacity:1;fill-rule:nonzero;stroke:none;stroke-width:0.10000001;stroke-linecap:butt;stroke-linejoin:miter;stroke-miterlimit:4;stroke-dasharray:none;stroke-dashoffset:0;stroke-opacity:1;paint-order:stroke fill markers"
       d="m 187.56508,155.19954 c 0.62385,-2.61719 -0.15893,-6.04449 -2.01498,-8.82272 -0.93261,-1.39597 -1.8274,-2.45534 -1.98843,-2.35413 -0.44139,0.27744 2.45613,12.06627 3.06991,12.49009 0.35488,0.24508 0.6666,-0.19344 0.9335,-1.31324 z"
       id="path4563"
       inkscape:connector-curvature="0" />
    <path
       style="opacity:1;fill:#d35f5f;fill-opacity:1;fill-rule:nonzero;stroke:none;stroke-width:0.10000001;stroke-linecap:butt;stroke-linejoin:miter;stroke-miterlimit:4;stroke-dasharray:none;stroke-dashoffset:0;stroke-opacity:1;paint-order:stroke fill markers"
       d="m 163.51071,194.24616 c 0.61292,-0.20935 0.57881,-1.01542 -0.17848,-4.21852 -1.6729,-7.07593 -6.44938,-24.89853 -7.07684,-26.406 -0.66085,-1.5877 -2.00749,-1.92687 -4.11445,-1.03625 -1.04329,0.44101 -1.08342,0.56452 -0.76769,2.36277 0.26747,1.52337 6.64817,27.24764 6.82688,27.5231 0.31753,0.48942 4.7434,1.96862 5.31058,1.7749 z m -3.06226,-2.53999 c 0.2261,-0.2316 0.60827,-0.36466 0.84928,-0.29568 0.24101,0.069 0.38273,0.35199 0.31492,0.6289 -0.0678,0.27691 -0.44999,0.40996 -0.84929,0.29567 -0.3993,-0.11428 -0.541,-0.39728 -0.31491,-0.62889 z m -2.00595,-7.07102 c 0.0638,-0.26057 0.43034,-0.38379 0.81452,-0.27382 0.72014,0.2061 0.77971,0.85886 0.11643,1.27577 -0.47054,0.29575 -1.0864,-0.36713 -0.93095,-1.00195 z m -1.38361,-6.55993 c 0.10174,-0.41537 0.39446,-0.69524 0.65058,-0.62193 0.25613,0.0733 0.38247,0.47313 0.28077,0.8885 -0.10174,0.41536 -0.39448,0.69523 -0.65061,0.62192 -0.25612,-0.0733 -0.38245,-0.47313 -0.28074,-0.88849 z m -1.56128,-5.83445 c 0.10175,-0.41535 0.39448,-0.69523 0.6506,-0.62192 0.25613,0.0733 0.38246,0.47314 0.28076,0.88849 -0.10174,0.41538 -0.39448,0.69524 -0.65061,0.62194 -0.25611,-0.0733 -0.38246,-0.47313 -0.28075,-0.88851 z m -1.83475,-6.75263 c 0.0638,-0.26057 0.43034,-0.3838 0.81454,-0.27384 0.72012,0.20611 0.77969,0.85888 0.11641,1.27577 -0.47053,0.29575 -1.08639,-0.36713 -0.93095,-1.00193 z"
       id="path4565"
       inkscape:connector-curvature="0" />
    <path
       style="opacity:1;fill:#d35f5f;fill-opacity:1;fill-rule:nonzero;stroke:none;stroke-width:0.10000001;stroke-linecap:butt;stroke-linejoin:miter;stroke-miterlimit:4;stroke-dasharray:none;stroke-dashoffset:0;stroke-opacity:1;paint-order:stroke fill markers"
       d="m 163.76498,194.32288 c 0.25974,-0.26606 0.014,-2.48731 -0.54611,-4.9361 -1.40573,-6.14605 -6.36203,-24.62966 -6.95892,-25.95199 -0.64177,-1.42182 -2.24448,-1.83893 -3.90792,-1.01699 l -1.33833,0.66126 0.66854,3.26137 c 0.61995,3.02431 6.2391,25.67319 6.48117,26.12335 0.0594,0.11057 1.23788,0.68296 2.61871,1.27197 1.69507,0.72305 2.66401,0.91378 2.98285,0.58717 z m -3.08369,-2.55006 c 0.0678,-0.27691 0.21573,-0.47702 0.32864,-0.4447 0.11294,0.0323 0.27939,0.3224 0.36987,0.64462 0.0905,0.32222 -0.0574,0.52233 -0.32863,0.44471 -0.27124,-0.0777 -0.43769,-0.36772 -0.36988,-0.64463 z m -2.24607,-7.10796 c 0.0678,-0.27691 0.32048,-0.44703 0.56149,-0.37805 0.241,0.069 0.51221,0.38905 0.60272,0.71127 0.0905,0.32222 -0.16218,0.49234 -0.56149,0.37805 -0.3993,-0.11429 -0.67052,-0.43436 -0.60272,-0.71127 z m -1.38361,-6.55992 c 0.0299,-0.12213 0.2982,-0.30208 0.59623,-0.39991 0.29803,-0.0978 0.48312,0.0621 0.41132,0.3553 -0.0718,0.29326 -0.34012,0.47321 -0.59625,0.3999 -0.25612,-0.0733 -0.44119,-0.23324 -0.4113,-0.35529 z m -1.3828,-5.54579 c -0.0905,-0.32222 0.0574,-0.52233 0.32863,-0.44469 0.27124,0.0777 0.43769,0.36772 0.36989,0.64463 -0.0678,0.27691 -0.21574,0.47701 -0.32864,0.4447 -0.11295,-0.0323 -0.27939,-0.32242 -0.36988,-0.64464 z m -2.01323,-7.04131 c 0.0678,-0.27691 0.32047,-0.44704 0.56149,-0.37806 0.24101,0.069 0.51223,0.38905 0.60271,0.71127 0.0905,0.32223 -0.16218,0.49235 -0.56148,0.37806 -0.3993,-0.11428 -0.67052,-0.43436 -0.60272,-0.71127 z"
       id="path4567"
       inkscape:connector-curvature="0" />
    <path
       style="opacity:1;fill:#d35f5f;fill-opacity:1;fill-rule:nonzero;stroke:none;stroke-width:0.10000001;stroke-linecap:butt;stroke-linejoin:miter;stroke-miterlimit:4;stroke-dasharray:none;stroke-dashoffset:0;stroke-opacity:1;paint-order:stroke fill markers"
       d="m 148.74445,191.61144 c 0.91277,-0.31087 0.97422,0.0214 -2.52945,-13.67679 -2.87682,-11.24737 -3.34822,-12.81098 -3.91082,-12.972 -0.26313,-0.0753 -1.43507,0.0868 -2.60436,0.36007 l -2.12595,0.49699 0.99887,4.43331 c 0.54938,2.43831 1.93158,8.03381 3.07156,12.43445 l 2.07268,8.00115 2.11515,0.59716 c 1.16337,0.32827 2.47387,0.47498 2.91231,0.32567 z m -2.80742,-2.71181 c 0.10174,-0.41535 0.39447,-0.69523 0.6506,-0.62192 0.25613,0.0733 0.38247,0.47314 0.28076,0.88849 -0.10174,0.41538 -0.39448,0.69523 -0.6506,0.62192 -0.25613,-0.0733 -0.38246,-0.47311 -0.28076,-0.88849 z m -1.90366,-6.4712 c 0.10174,-0.41535 0.39447,-0.69522 0.6506,-0.62191 0.25611,0.0733 0.38245,0.47313 0.28075,0.88848 -0.10174,0.41538 -0.39448,0.69524 -0.65059,0.62194 -0.25613,-0.0733 -0.38247,-0.47313 -0.28076,-0.88851 z m -1.78039,-6.97467 c 0.10174,-0.41535 0.39449,-0.69522 0.6506,-0.62191 0.25612,0.0733 0.38247,0.47313 0.28076,0.88848 -0.10174,0.41538 -0.39448,0.69524 -0.6506,0.62194 -0.25612,-0.0733 -0.38246,-0.47313 -0.28076,-0.88851 z m -1.49235,-6.11587 c 0.0638,-0.26057 0.32557,-0.41379 0.58168,-0.34048 0.25612,0.0733 0.37919,0.48649 0.27349,0.9182 -0.10571,0.4317 -0.36747,0.58493 -0.5817,0.34048 -0.2142,-0.24444 -0.33727,-0.65764 -0.27347,-0.9182 z"
       id="path4569"
       inkscape:connector-curvature="0" />
    <path
       style="opacity:1;fill:#d35f5f;fill-opacity:1;fill-rule:nonzero;stroke:none;stroke-width:0.10000001;stroke-linecap:butt;stroke-linejoin:miter;stroke-miterlimit:4;stroke-dasharray:none;stroke-dashoffset:0;stroke-opacity:1;paint-order:stroke fill markers"
       d="m 203.21645,176.79889 c 6.78309,0.29361 9.40368,-1.4819 16.73058,-11.33537 4.02153,-5.4083 4.56784,-6.76613 3.00979,-7.48073 -0.82005,-0.3761 -1.38538,0.21433 -4.2514,4.44013 -4.1123,6.06338 -6.03073,8.18098 -9.12877,10.07651 -3.84277,2.35117 -7.45568,2.81906 -11.9142,1.54295 -5.86523,-1.67873 -8.48264,-4.37139 -14.61597,-15.0361 -2.87554,-5.00002 -5.18854,-7.99066 -5.85574,-7.57131 -0.38618,0.24274 1.34514,4.50255 1.8938,4.65961 0.23037,0.0659 2.06077,3.12233 4.06755,6.79197 4.36344,7.97907 5.836,9.43038 12.03518,11.86151 5.21583,2.04551 4.66693,1.9053 8.02918,2.05083 z"
       id="path4571"
       inkscape:connector-curvature="0" />
    <path
       style="opacity:1;fill:#c8b7b7;fill-opacity:1;fill-rule:nonzero;stroke:none;stroke-width:0.10000001;stroke-linecap:butt;stroke-linejoin:miter;stroke-miterlimit:4;stroke-dasharray:none;stroke-dashoffset:0;stroke-opacity:1;paint-order:stroke fill markers"
       d="m 167.09224,152.32565 c 1.50452,-0.94566 1.35746,-2.62037 -0.39221,-4.46644 -1.69963,-1.79325 -4.87029,-3.02506 -6.62785,-2.57492 -1.13993,0.29195 -1.57589,1.14626 -0.71123,1.39375 0.30525,0.0873 1.74403,1.46894 3.1973,3.07015 2.98279,3.28646 3.205,3.41279 4.53399,2.57746 z"
       id="path4573"
       inkscape:connector-curvature="0" />
    <path
       style="opacity:1;fill:#c8b7b7;fill-opacity:1;fill-rule:nonzero;stroke:none;stroke-width:0.10000001;stroke-linecap:butt;stroke-linejoin:miter;stroke-miterlimit:4;stroke-dasharray:none;stroke-dashoffset:0;stroke-opacity:1;paint-order:stroke fill markers"
       d="m 159.42417,154.21593 c 0.41843,-0.48542 0.90095,-1.73692 1.07227,-2.78114 0.25221,-1.53724 0.0918,-2.05929 -0.84239,-2.74302 -0.63463,-0.46444 -1.29043,-0.75862 -1.45732,-0.65372 -0.16688,0.10488 -0.70928,1.24315 -1.2053,2.52944 -0.75097,1.94737 -0.78579,2.49371 -0.2081,3.26509 0.97109,1.29663 1.75545,1.41049 2.64084,0.38335 z"
       id="path4575"
       inkscape:connector-curvature="0" />
    <path
       style="opacity:1;fill:#c8b7b7;fill-opacity:1;fill-rule:nonzero;stroke:none;stroke-width:0.10000001;stroke-linecap:butt;stroke-linejoin:miter;stroke-miterlimit:4;stroke-dasharray:none;stroke-dashoffset:0;stroke-opacity:1;paint-order:stroke fill markers"
       d="m 155.94917,149.87689 c 0.82361,-1.24461 0.42147,-2.44159 -0.94815,-2.82222 -1.77775,-0.4941 -2.49551,0.10089 -1.34791,1.11722 0.56947,0.50437 0.95099,1.26171 0.84783,1.68301 -0.28437,1.16133 0.68456,1.17604 1.44823,0.022 z"
       id="path4577"
       inkscape:connector-curvature="0" />
    <path
       style="opacity:1;fill:#c8b7b7;fill-opacity:1;fill-rule:nonzero;stroke:none;stroke-width:0.10000001;stroke-linecap:butt;stroke-linejoin:miter;stroke-miterlimit:4;stroke-dasharray:none;stroke-dashoffset:0;stroke-opacity:1;paint-order:stroke fill markers"
       d="m 148.95109,154.20432 c 0.10175,-0.41537 -0.018,-0.8133 -0.26615,-0.88431 -0.24807,-0.0711 -0.41365,0.24526 -0.36793,0.70283 0.0457,0.45755 0.16549,0.85549 0.26615,0.8843 0.10069,0.0288 0.26623,-0.28746 0.36793,-0.70282 z"
       id="path4579"
       inkscape:connector-curvature="0" />
    <path
       style="opacity:1;fill:#c8b7b7;fill-opacity:1;fill-rule:nonzero;stroke:none;stroke-width:0.10000001;stroke-linecap:butt;stroke-linejoin:miter;stroke-miterlimit:4;stroke-dasharray:none;stroke-dashoffset:0;stroke-opacity:1;paint-order:stroke fill markers"
       d="m 147.51636,152.58147 c 0.1639,-0.17533 0.62959,-1.02424 1.03487,-1.88649 l 0.73683,-1.56771 -1.95982,0.29206 c -2.48656,0.37059 -2.4599,0.34855 -2.14756,1.77403 0.2543,1.16063 1.72898,2.03704 2.33568,1.38811 z"
       id="path4581"
       inkscape:connector-curvature="0" />
    <path
       style="opacity:1;fill:#c8b7b7;fill-opacity:1;fill-rule:nonzero;stroke:none;stroke-width:0.10000001;stroke-linecap:butt;stroke-linejoin:miter;stroke-miterlimit:4;stroke-dasharray:none;stroke-dashoffset:0;stroke-opacity:1;paint-order:stroke fill markers"
       d="m 150.83188,155.41609 c 0.30699,-0.57885 0.70251,-1.62937 0.8789,-2.33449 0.17595,-0.70525 0.62095,-1.47074 0.98789,-1.70137 0.84807,-0.53305 0.71339,-2.09481 -0.20329,-2.35718 -0.85016,-0.24334 -1.71916,0.74239 -2.74436,3.11296 -1.18564,2.74157 -0.20763,5.70953 1.08086,3.28008 z"
       id="path4583"
       inkscape:connector-curvature="0" />
    <path
       style="opacity:1;fill:#c8b7b7;fill-opacity:1;fill-rule:nonzero;stroke:none;stroke-width:0.10000001;stroke-linecap:butt;stroke-linejoin:miter;stroke-miterlimit:4;stroke-dasharray:none;stroke-dashoffset:0;stroke-opacity:1;paint-order:stroke fill markers"
       d="m 141.60113,157.08413 c 0.31793,-0.27941 1.12823,-1.23903 1.80067,-2.13251 1.10497,-1.46815 1.15939,-1.67386 0.56551,-2.13731 -0.75628,-0.59019 -3.56855,0.1257 -4.60655,1.17264 -0.5387,0.54333 -0.55981,1.01123 -0.0901,1.99456 0.69969,1.46459 1.49202,1.83947 2.33044,1.10263 z"
       id="path4585"
       inkscape:connector-curvature="0" />
    <path
       style="opacity:1;fill:#c8b7b7;fill-opacity:1;fill-rule:nonzero;stroke:none;stroke-width:0.10000001;stroke-linecap:butt;stroke-linejoin:miter;stroke-miterlimit:4;stroke-dasharray:none;stroke-dashoffset:0;stroke-opacity:1;paint-order:stroke fill markers"
       d="m 134.4596,158.11259 c 0.46994,-0.62023 0.94453,-1.49566 1.05466,-1.94543 0.11013,-0.44975 0.65001,-1.13386 1.19972,-1.52021 1.36876,-0.96203 0.81955,-1.70277 -0.90548,-1.22126 -2.10006,0.58623 -4.00154,2.80408 -3.6764,4.2881 0.35031,1.59871 1.29562,1.76069 2.3275,0.3988 z"
       id="path4587"
       inkscape:connector-curvature="0" />
    <path
       style="opacity:1;fill:#c8b7b7;fill-opacity:1;fill-rule:nonzero;stroke:none;stroke-width:0.10000001;stroke-linecap:butt;stroke-linejoin:miter;stroke-miterlimit:4;stroke-dasharray:none;stroke-dashoffset:0;stroke-opacity:1;paint-order:stroke fill markers"
       d="m 129.06368,156.05479 c 0.10174,-0.41538 -0.018,-0.81331 -0.26614,-0.88432 -0.24809,-0.0711 -0.41367,0.24526 -0.36795,0.70283 0.0457,0.45755 0.16548,0.8555 0.26615,0.8843 0.10069,0.0288 0.26623,-0.28746 0.36794,-0.70281 z"
       id="path4589"
       inkscape:connector-curvature="0" />
    <path
       style="opacity:1;fill:#c8b7b7;fill-opacity:1;fill-rule:nonzero;stroke:none;stroke-width:0.10000001;stroke-linecap:butt;stroke-linejoin:miter;stroke-miterlimit:4;stroke-dasharray:none;stroke-dashoffset:0;stroke-opacity:1;paint-order:stroke fill markers"
       d="m 124.27283,162.08736 c 0.1713,-0.17546 0.68835,-1.17907 1.14901,-2.23023 0.46065,-1.05116 1.27521,-2.339 1.81013,-2.86184 1.3009,-1.27161 0.94437,-1.72398 -0.99234,-1.25915 -1.79927,0.43186 -3.56187,2.87773 -3.5869,4.9774 -0.0149,1.24566 0.94808,2.06221 1.6201,1.37382 z"
       id="path4591"
       inkscape:connector-curvature="0" />
    <path
       style="opacity:1;fill:#c8b7b7;fill-opacity:1;fill-rule:nonzero;stroke:none;stroke-width:0.10000001;stroke-linecap:butt;stroke-linejoin:miter;stroke-miterlimit:4;stroke-dasharray:none;stroke-dashoffset:0;stroke-opacity:1;paint-order:stroke fill markers"
       d="m 117.89021,163.35172 c 0.4468,-0.0738 0.90924,-0.23348 1.02767,-0.35479 0.11839,-0.12133 0.16985,-0.96287 0.11427,-1.87013 -0.16491,-2.69184 0.51379,-4.30503 2.45845,-5.8434 0.81453,-0.64436 0.70885,-1.04272 -0.21397,-0.80638 -1.12221,0.28741 -4.5906,2.53265 -5.28351,3.42023 -0.36079,0.46217 -0.862,1.42911 -1.11379,2.14874 -0.41094,1.17454 -0.41247,1.39262 -0.0154,2.13123 0.50635,0.94165 1.67964,1.39703 3.02622,1.1745 z"
       id="path4593"
       inkscape:connector-curvature="0" />
    <path
       style="opacity:1;fill:#c8b7b7;fill-opacity:1;fill-rule:nonzero;stroke:none;stroke-width:0.10000001;stroke-linecap:butt;stroke-linejoin:miter;stroke-miterlimit:4;stroke-dasharray:none;stroke-dashoffset:0;stroke-opacity:1;paint-order:stroke fill markers"
       d="m 121.11108,158.53599 c 0.71242,-0.37005 3.2046,-3.18884 2.89715,-3.27683 -0.87695,-0.251 -2.98007,1.3086 -3.86409,2.86545 -0.36746,0.64714 0.11658,0.85308 0.96694,0.41138 z"
       id="path4595"
       inkscape:connector-curvature="0" />
    <path
       style="opacity:1;fill:#c8b7b7;fill-opacity:1;fill-rule:nonzero;stroke:none;stroke-width:0.10000001;stroke-linecap:butt;stroke-linejoin:miter;stroke-miterlimit:4;stroke-dasharray:none;stroke-dashoffset:0;stroke-opacity:1;paint-order:stroke fill markers"
       d="m 130.92981,155.4228 c 0.63358,-0.67016 1.43286,-1.491 1.77617,-1.82408 l 0.62419,-0.60561 -1.34107,-0.22797 c -1.41803,-0.24104 -2.69782,-0.0563 -3.7572,0.54255 -0.74104,0.41885 -0.72944,0.79758 0.0312,1.01526 0.54918,0.15719 0.98858,0.87304 1.05256,1.71482 0.0605,0.79567 0.40453,0.6646 1.61423,-0.61497 z"
       id="path4597"
       inkscape:connector-curvature="0" />
    <path
       style="opacity:1;fill:#c8b7b7;fill-opacity:1;fill-rule:nonzero;stroke:none;stroke-width:0.10000001;stroke-linecap:butt;stroke-linejoin:miter;stroke-miterlimit:4;stroke-dasharray:none;stroke-dashoffset:0;stroke-opacity:1;paint-order:stroke fill markers"
       d="m 139.3794,152.06206 c 1.91224,-0.86555 1.58625,-1.27289 -0.63277,-0.79067 -0.72335,0.15721 -1.55107,0.2194 -1.83937,0.13825 -0.77654,-0.21874 -0.73729,0.23691 0.0568,0.65817 1.05813,0.56138 1.16299,0.56113 2.41541,-0.006 z"
       id="path4601"
       inkscape:connector-curvature="0" />
    <path
       style="opacity:1;fill:#c8b7b7;fill-opacity:1;fill-rule:nonzero;stroke:none;stroke-width:0.10000001;stroke-linecap:butt;stroke-linejoin:miter;stroke-miterlimit:4;stroke-dasharray:none;stroke-dashoffset:0;stroke-opacity:1;paint-order:stroke fill markers"
       d="m 166.84985,144.93591 c 2.43163,-1.52839 1.09082,-2.26073 -1.83805,-1.00391 -0.94389,0.40504 -0.98175,0.53555 -0.32428,1.11787 0.76763,0.67984 0.91145,0.67225 2.16232,-0.11397 z"
       id="path4603"
       inkscape:connector-curvature="0" />
    <path
       style="opacity:1;fill:#ff8080;fill-opacity:1;fill-rule:nonzero;stroke:none;stroke-width:0.10000001;stroke-linecap:butt;stroke-linejoin:miter;stroke-miterlimit:4;stroke-dasharray:none;stroke-dashoffset:0;stroke-opacity:1;paint-order:stroke fill markers"
       d="m 164.09088,194.50681 c 0.26254,-0.0898 0.2097,-0.71312 -0.2159,-2.54823 -0.92037,-3.96822 -1.96953,-8.11245 -3.88925,-15.36277 -2.94301,-11.11511 -3.87692,-14.25826 -4.32865,-14.56866 -0.50167,-0.34469 -4.27126,0.35896 -4.60557,0.85971 -0.23237,0.34807 0.67724,4.28644 4.63106,20.05149 2.25703,8.99946 2.49949,9.78337 3.1291,10.11741 0.98733,0.52383 4.87021,1.59106 5.27921,1.45105 z m -3.45187,-2.71335 c 0.0957,-0.15771 0.31363,-0.24679 0.48429,-0.19794 0.17067,0.0489 0.31928,0.24284 0.33026,0.43108 0.0119,0.20362 -0.18432,0.28381 -0.48428,0.19796 -0.29996,-0.0858 -0.43377,-0.26051 -0.33027,-0.4311 z m -2.02593,-7.04494 c 0.02,-0.31382 0.17797,-0.41715 0.49797,-0.32557 0.53373,0.15276 0.73729,0.61316 0.41642,0.94185 -0.32354,0.33141 -0.94785,-0.0894 -0.91439,-0.61628 z m -1.41138,-6.63212 c 0.0472,-0.19278 0.25888,-0.37071 0.47039,-0.39542 0.38546,-0.045 0.40604,0.49594 0.0279,0.73361 -0.33003,0.20742 -0.58887,0.0318 -0.49829,-0.33819 z m -1.47863,-5.65752 c 0.11143,-0.45508 0.5466,-0.24162 0.52147,0.25587 -0.0139,0.27675 -0.12937,0.3668 -0.30787,0.24022 -0.15701,-0.11137 -0.25315,-0.33458 -0.21361,-0.49603 z m -1.88735,-6.84821 c 0.0198,-0.31082 0.17747,-0.4173 0.48682,-0.32875 0.46223,0.13229 0.69279,0.80931 0.34917,1.02528 -0.33736,0.21205 -0.86571,-0.22821 -0.83599,-0.69653 z"
       id="path4607"
       inkscape:connector-curvature="0" />
    <path
       style="opacity:1;fill:#ff00ff;fill-opacity:1;fill-rule:nonzero;stroke:none;stroke-width:0.10000001;stroke-linecap:butt;stroke-linejoin:miter;stroke-miterlimit:4;stroke-dasharray:none;stroke-dashoffset:0;stroke-opacity:1;paint-order:stroke fill markers"
       d="m 148.49856,191.61695 c 0.85357,-0.23875 0.87256,-0.29301 0.59267,-1.6925 -0.12053,-0.60261 -0.1365,-1.14758 -0.0355,-1.21106 0.10101,-0.0634 0.0552,-0.15215 -0.10163,-0.19705 -0.15689,-0.0449 -0.19281,-0.17635 -0.0798,-0.2921 0.113,-0.11575 0.0966,-0.24162 -0.0366,-0.2797 -0.1331,-0.0382 -0.23843,-0.37116 -0.23402,-0.74012 0.004,-0.36895 -0.1028,-0.70255 -0.2383,-0.74132 -0.13545,-0.0387 -0.16594,-0.121 -0.0678,-0.18268 0.0982,-0.0617 0.0356,-0.40088 -0.1389,-0.75367 -0.17458,-0.3528 -0.23897,-0.72181 -0.14307,-0.82002 0.0958,-0.0983 0.0461,-0.21526 -0.11092,-0.26023 -0.15689,-0.0449 -0.20493,-0.13215 -0.10676,-0.19383 0.0982,-0.0618 0.0356,-0.40087 -0.1389,-0.75367 -0.17457,-0.3528 -0.23895,-0.72182 -0.14306,-0.82003 0.0958,-0.0983 0.0803,-0.20549 -0.0348,-0.23842 -0.18988,-0.0543 -0.43916,-1.03663 -0.38826,-1.52993 0.0114,-0.11068 -0.13075,-0.5074 -0.31592,-0.88163 -0.18516,-0.37422 -0.31416,-0.77227 -0.28666,-0.88457 0.0275,-0.11227 0.0665,-0.2624 0.0871,-0.33341 0.0206,-0.0711 -0.11206,-0.43025 -0.29405,-0.79806 -0.182,-0.3678 -0.25246,-0.74912 -0.15659,-0.84733 0.0959,-0.0983 0.0859,-0.20386 -0.0219,-0.23476 -0.10796,-0.0308 -0.29871,-0.44898 -0.42388,-0.92908 -0.12518,-0.48007 -0.1493,-0.85046 -0.0536,-0.82307 0.0957,0.0274 0.0377,-0.14067 -0.12977,-0.37371 -0.16708,-0.23293 -0.29521,-0.59806 -0.28474,-0.81142 0.0105,-0.21334 -0.10681,-0.65904 -0.26062,-0.99043 -0.15383,-0.33139 -0.20123,-0.68288 -0.10535,-0.78111 0.0958,-0.0983 0.0828,-0.2048 -0.0293,-0.23685 -0.19108,-0.0547 -0.80469,-2.20314 -0.70952,-2.48434 0.024,-0.0712 -0.11302,-0.42107 -0.30468,-0.7775 -0.19167,-0.35644 -0.2594,-0.73931 -0.15052,-0.85084 0.10891,-0.11148 0.1009,-0.23055 -0.0176,-0.26446 -0.11855,-0.0339 -0.38185,-0.59395 -0.58515,-1.24448 -0.20328,-0.65054 -0.5514,-1.23472 -0.77361,-1.29821 -0.22223,-0.0635 -1.14055,0.032 -2.04075,0.21221 -0.90019,0.18021 -1.61973,0.2583 -1.59899,0.17352 0.0208,-0.0847 -0.20969,-0.0159 -0.51214,0.15297 -0.53795,0.3004 -0.541,0.34382 -0.14019,2.00164 0.22532,0.93201 0.33395,1.74217 0.24139,1.80036 -0.0926,0.0582 -0.0403,0.14242 0.11695,0.18743 0.15689,0.0449 0.1928,0.17634 0.0798,0.29209 -0.113,0.11574 -0.1114,0.23736 0.003,0.27029 0.22452,0.0642 0.54879,1.50504 0.40481,1.79868 -0.0477,0.0975 0.024,0.20881 0.15965,0.24762 0.13555,0.0388 0.15401,0.16526 0.041,0.281 -0.11299,0.11575 -0.1171,0.23573 -0.009,0.26663 0.27973,0.08 0.66804,1.6965 0.44171,1.83876 -0.10364,0.0651 -0.0487,0.15849 0.12184,0.20728 0.17066,0.0488 0.22997,0.13932 0.1318,0.201 -0.0982,0.0618 -0.0357,0.40084 0.13889,0.75367 0.17457,0.3528 0.23895,0.72181 0.14308,0.82003 -0.0958,0.0983 -0.0859,0.20387 0.0219,0.23475 0.10795,0.0309 0.2987,0.44898 0.42388,0.92908 0.12517,0.48009 0.16523,0.85503 0.089,0.83322 -0.0763,-0.0219 0.0142,0.26925 0.20109,0.64682 0.18683,0.37758 0.31718,0.77838 0.28969,0.89067 -0.0955,0.39028 -0.0505,0.61089 0.24874,1.21551 0.16549,0.33444 0.2784,0.69995 0.2509,0.81225 -0.10143,0.41435 -0.0667,0.6095 0.16737,0.9395 0.13178,0.18581 0.23192,0.50878 0.22252,0.71773 -0.009,0.20893 0.0886,0.6347 0.21783,0.94614 0.1292,0.31142 0.21228,0.6467 0.18461,0.74505 -0.0274,0.0984 0.0427,0.38715 0.15618,0.64179 0.11357,0.25464 0.18213,0.54922 0.15233,0.65463 -0.0301,0.10533 0.0948,0.49261 0.27675,0.86042 0.182,0.36782 0.25246,0.74912 0.15657,0.84735 -0.0958,0.0983 -0.0654,0.20975 0.0677,0.24784 0.13313,0.0381 0.23842,0.37219 0.23401,0.74244 -0.009,0.78533 0.29222,0.98442 2.67708,1.76737 1.22453,0.40208 1.96041,0.51388 2.46063,0.37392 z m -2.52315,-2.74154 c 0.0669,-0.27298 0.31415,-0.48205 0.54958,-0.46457 0.3206,0.0238 0.3871,0.19891 0.26497,0.69771 -0.12214,0.49878 -0.26008,0.61539 -0.54958,0.46458 -0.21257,-0.1108 -0.33182,-0.42473 -0.26497,-0.69772 z m -1.79426,-6.73247 c 0.34672,-0.51935 0.87308,-0.1846 0.71632,0.45558 -0.0791,0.3229 -0.23943,0.64726 -0.35644,0.72078 -0.30707,0.193 -0.61095,-0.80029 -0.35988,-1.17636 z m -1.77167,-6.67366 c 0.0958,-0.39139 0.28591,-0.59128 0.50313,-0.52911 0.2172,0.0622 0.29091,0.33755 0.19507,0.72895 -0.0959,0.39141 -0.28591,0.5913 -0.50313,0.52913 -0.21721,-0.0622 -0.2909,-0.33756 -0.19507,-0.72897 z m -1.52311,-5.98436 c 0.0641,-0.26197 0.27372,-0.43136 0.46572,-0.3764 0.21602,0.0618 0.29112,0.33668 0.19699,0.72106 -0.10988,0.44875 -0.23907,0.55323 -0.46572,0.3764 -0.17248,-0.13465 -0.26113,-0.45909 -0.19699,-0.72106 z"
       id="path4609"
       inkscape:connector-curvature="0" />
    <path
       style="opacity:1;fill:#ff00ff;fill-opacity:1;fill-rule:nonzero;stroke:none;stroke-width:0.10000001;stroke-linecap:butt;stroke-linejoin:miter;stroke-miterlimit:4;stroke-dasharray:none;stroke-dashoffset:0;stroke-opacity:1;paint-order:stroke fill markers"
       d="m 193.2622,201.71336 c 16.42639,4.08625 25.925,4.73089 27.98759,1.89941 0.5028,-0.69022 3.66851,-13.18861 3.65236,-14.41972 -0.0165,-1.25805 -0.51552,-1.52409 -5.66968,-3.02259 l -4.76599,-1.38566 -4.1993,0.32849 c -4.70177,0.36781 -6.99477,0.24488 -8.6519,-0.46383 -1.23591,-0.52858 -1.75986,-1.15162 -3.64918,-4.33944 -0.64514,-1.08854 -1.48026,-2.25474 -1.85581,-2.59158 -0.37555,-0.33683 -1.90574,-1.15829 -3.40041,-1.82549 -3.07208,-1.3713 -4.93943,-2.5896 -6.52683,-4.25821 -1.11859,-1.17581 -3.29363,-5.03249 -5.69108,-10.09114 -0.74723,-1.5767 -1.722,-3.41066 -2.16615,-4.07547 l -0.80753,-1.20877 -3.28813,0.92399 c -1.80849,0.5082 -4.75847,1.27306 -6.55553,1.6997 -1.79704,0.42665 -3.35354,0.90482 -3.45888,1.06258 -0.22543,0.33769 0.40316,2.96978 3.16353,13.2467 3.96538,14.76314 5.94246,21.50181 6.64031,22.6328 0.38139,0.61812 0.75599,0.75671 6.83014,2.52657 3.53462,1.02993 9.12024,2.54264 12.41247,3.36162 z"
       id="path4611"
       inkscape:connector-curvature="0" />
    <path
       style="opacity:1;fill:#ff00ff;fill-opacity:1;fill-rule:nonzero;stroke:none;stroke-width:0.10000001;stroke-linecap:butt;stroke-linejoin:miter;stroke-miterlimit:4;stroke-dasharray:none;stroke-dashoffset:0;stroke-opacity:1;paint-order:stroke fill markers"
       d="m 164.25128,194.40379 c 0.22351,-0.33479 -1.74252,-8.53222 -4.75675,-19.83332 -2.6247,-9.8406 -3.4793,-12.57357 -3.97624,-12.71581 -0.62667,-0.17936 -4.18565,0.61111 -4.43534,0.98512 -0.27719,0.41519 -0.14848,1.03266 2.25974,10.84449 2.76876,11.28052 4.63615,18.52417 4.90385,19.02201 0.33205,0.61751 5.71064,2.13802 6.00473,1.69758 z m -3.62095,-2.59598 c 0.25808,-0.42539 0.77802,-0.35936 0.66923,0.085 -0.0536,0.21911 -0.26336,0.35092 -0.46602,0.29292 -0.20269,-0.058 -0.29412,-0.22806 -0.20321,-0.37789 z m -1.79485,-6.55016 c -0.46774,-0.36502 -0.24913,-0.98488 0.29264,-0.82981 0.51146,0.14639 0.71765,0.61091 0.41072,0.92531 -0.24099,0.24686 -0.26964,0.24296 -0.70335,-0.0955 z m -1.62718,-7.16817 c 0.0509,-0.20758 0.2495,-0.33246 0.4415,-0.27751 0.36343,0.10408 0.38886,0.42974 0.0502,0.64262 -0.33868,0.21287 -0.5879,0.0278 -0.49169,-0.36511 z m -1.54955,-5.64339 c -0.0105,-0.17885 0.14688,-0.27769 0.34953,-0.21969 0.20266,0.058 0.32459,0.28473 0.27093,0.50384 -0.1088,0.44435 -0.59086,0.22357 -0.62045,-0.28418 z m -1.74764,-6.31754 c 0.0142,-0.0578 0.006,-0.30252 -0.018,-0.54367 -0.0315,-0.31432 0.0954,-0.39858 0.44654,-0.29808 0.33521,0.0959 0.45138,0.29957 0.36714,0.64359 -0.0685,0.27956 -0.27837,0.45881 -0.47231,0.4033 -0.192,-0.055 -0.3375,-0.14726 -0.32332,-0.20515 z"
       id="path4615"
       inkscape:connector-curvature="0" />
    <path
       style="opacity:1;fill:#ff00ff;fill-opacity:1;fill-rule:nonzero;stroke:none;stroke-width:0.10000001;stroke-linecap:butt;stroke-linejoin:miter;stroke-miterlimit:4;stroke-dasharray:none;stroke-dashoffset:0;stroke-opacity:1;paint-order:stroke fill markers"
       d="m 127.27557,187.94801 c 3.51249,0.65798 6.72759,1.1 7.10343,0.97662 0.41484,-0.13617 -0.30508,-3.73408 -2.68155,-13.40118 -1.66713,-6.7817 -2,-7.86595 -2.45478,-7.99611 -0.1668,-0.0477 -2.61892,0.32702 -5.44915,0.83281 -7.99519,1.42882 -14.46283,1.94965 -14.86742,1.19724 -0.13673,-0.25427 0.37731,-0.45566 1.88199,-0.73733 12.78049,-2.39248 61.36485,-12.99116 63.62456,-13.87969 2.11005,-0.82968 2.20562,-1.47549 0.47945,-3.23949 -0.73579,-0.75192 -1.39165,-1.16932 -2.26995,-1.44465 -1.53345,-0.48071 -2.44062,-0.19678 -3.14302,0.98367 -0.82626,1.38858 -1.87773,2.59789 -2.53315,2.91339 -0.86631,0.41701 -2.28754,-0.0711 -3.57033,-1.22623 -0.60549,-0.54522 -1.13456,-0.96809 -1.17572,-0.93969 -0.0412,0.0283 -0.51072,0.82589 -1.04349,1.77219 -1.61866,2.87506 -3.07667,3.33242 -4.98225,1.56288 -0.54543,-0.50647 -0.85673,-1.05652 -0.90879,-1.60574 -0.19424,-2.04911 -1.86066,-1.35713 -3.24277,1.34656 -1.70079,3.32714 -2.44867,3.53561 -3.58774,1.00009 -0.40098,-0.89252 -0.88994,-1.60083 -1.15809,-1.67757 -1.07648,-0.30811 -1.96457,0.21209 -3.31336,1.94084 -1.49535,1.91659 -1.99877,2.34064 -3.08963,2.60245 -0.71577,0.17179 -0.8341,0.10498 -2.27436,-1.28434 -0.89107,-0.85953 -1.58322,-1.36463 -1.67387,-1.22147 -0.085,0.13423 -0.83088,1.07177 -1.65747,2.08337 -2.13445,2.6122 -2.87993,2.68826 -4.35572,0.44447 -0.62372,-0.94832 -1.25066,-1.1557 -2.38878,-0.7902 -1.22415,0.39316 -1.83501,1.08154 -2.5185,2.8381 -0.50921,1.30865 -0.74572,1.6177 -1.61867,2.11504 -1.22362,0.69715 -1.81901,0.57031 -2.85494,-0.60817 -0.4285,-0.48749 -0.84342,-0.90853 -0.92199,-0.93564 -0.0786,-0.0272 -0.31732,0.37605 -0.53053,0.89591 -0.74054,1.80562 -2.85334,2.70895 -4.40745,1.88444 -0.36823,-0.19539 -1.19768,-0.86515 -1.84321,-1.48842 l -1.1737,-1.13322 -1.5441,1.09588 c -3.52212,2.49973 -6.69302,6.05435 -9.58013,10.73943 -1.0363,1.68167 -1.978952,2.98697 -2.094797,2.90068 -0.259399,-0.19322 0.38427,-2.47851 1.148027,-4.07601 0.31139,-0.65132 1.44975,-2.47603 2.52968,-4.05491 1.07995,-1.57891 1.91712,-2.95703 1.8604,-3.06252 -0.17047,-0.31703 -2.44823,-0.0607 -4.29573,0.48349 -3.216008,0.94724 -6.117079,3.30796 -7.939814,6.46096 -0.940879,1.62756 -0.86273,1.88815 0.945545,3.1527 3.791848,2.65175 8.132909,4.90036 12.856919,6.65973 3.6479,1.35859 17.50348,5.31806 20.71496,5.91958 z"
       id="path4617"
       inkscape:connector-curvature="0" />
    <path
       style="opacity:1;fill:#ff00ff;fill-opacity:1;fill-rule:nonzero;stroke:none;stroke-width:0.10000001;stroke-linecap:butt;stroke-linejoin:miter;stroke-miterlimit:4;stroke-dasharray:none;stroke-dashoffset:0;stroke-opacity:1;paint-order:stroke fill markers"
       d="m 91.283712,171.94271 c 0.298,-0.39599 0.936192,-1.33458 1.41818,-2.08575 1.051173,-1.6382 3.139206,-3.48132 5.016614,-4.42817 0.754195,-0.38037 2.578514,-0.93076 4.054034,-1.2231 1.47554,-0.29235 2.71106,-0.64695 2.7456,-0.78801 0.20563,-0.83975 -4.698373,-1.10551 -7.987758,-0.43288 -2.451891,0.50139 -4.30004,1.44173 -6.154404,3.13141 -1.840124,1.67671 -2.305008,1.45163 -0.884237,-0.42813 0.806888,-1.06755 3.22557,-2.67327 5.458517,-3.6238 1.905413,-0.81112 2.115848,-1.18208 0.77429,-1.36501 -3.41928,-0.46626 -8.142286,2.72356 -8.956588,6.04913 -0.261537,1.0681 -0.227181,1.37554 0.244517,2.18781 0.638076,1.09878 2.847641,3.47409 3.37101,3.62389 0.197112,0.0565 0.602214,-0.2214 0.900225,-0.61739 z"
       id="path4619"
       inkscape:connector-curvature="0" />
    <path
       style="opacity:1;fill:#ff00ff;fill-opacity:1;fill-rule:nonzero;stroke:none;stroke-width:0.10000001;stroke-linecap:butt;stroke-linejoin:miter;stroke-miterlimit:4;stroke-dasharray:none;stroke-dashoffset:0;stroke-opacity:1;paint-order:stroke fill markers"
       d="m 202.40568,172.85827 c 2.80642,-0.15319 6.30409,-1.8672 9.66801,-4.73776 1.9825,-1.69174 3.04569,-2.93866 2.61162,-3.06291 -0.11694,-0.0335 -1.25598,0.31155 -2.53117,0.7667 -4.31407,1.53979 -6.49645,1.61898 -10.69723,0.38813 -4.49851,-1.31806 -7.20105,-2.85598 -10.99118,-6.25459 -1.21116,-1.08607 -2.35484,-1.95683 -2.54148,-1.93503 -0.18666,0.0219 -0.48957,0.37054 -0.67313,0.77499 -0.18358,0.40444 -0.43295,0.70697 -0.55417,0.67228 -0.65468,-0.18739 -2.69431,-6.50646 -3.73433,-11.56958 -0.30703,-1.4947 -0.78135,-3.48128 -1.05405,-4.41463 -0.60282,-2.06328 -0.54752,-2.05296 -4.51173,-0.84092 -3.66239,1.11974 -5.03478,1.43416 -5.16917,1.18422 -0.0587,-0.1092 -0.13354,-0.089 -0.16632,0.0448 -0.0327,0.13377 0.0311,0.41168 0.14175,0.61757 0.25287,0.47026 -0.48105,1.03669 -1.66641,1.28611 l -0.81423,0.17133 0.76113,0.63154 c 1.24481,1.03286 3.10915,1.86922 6.0305,2.70537 l 2.75399,0.78825 4.04911,6.58433 c 4.70233,7.64659 6.47702,10.15644 8.48893,12.00546 2.61099,2.39958 7.5652,4.36003 10.59955,4.19441 z"
       id="path4621"
       inkscape:connector-curvature="0" />
    <path
       style="opacity:1;fill:#b3b3b3;fill-opacity:1;fill-rule:nonzero;stroke:none;stroke-width:0.37795275;stroke-linecap:butt;stroke-linejoin:miter;stroke-miterlimit:4;stroke-dasharray:none;stroke-dashoffset:0;stroke-opacity:1;paint-order:stroke fill markers"
       d=""
       id="path4623"
       inkscape:connector-curvature="0"
       transform="matrix(0.26458333,0,0,0.26458333,0,87)" />
    <path
       style="opacity:1;fill:#b3b3b3;fill-opacity:1;fill-rule:nonzero;stroke:none;stroke-width:0.10000001;stroke-linecap:butt;stroke-linejoin:miter;stroke-miterlimit:4;stroke-dasharray:none;stroke-dashoffset:0;stroke-opacity:1;paint-order:stroke fill markers"
       d="m 202.37159,176.71577 c 5.91546,0.28848 8.6507,-0.8416 12.6921,-5.24382 1.46098,-1.59143 4.98411,-6.14627 6.80698,-8.80037 1.79973,-2.6204 2.1756,-4.35843 1.01444,-4.69078 -0.69533,-0.19901 -1.49143,0.6733 -4.22664,4.6313 -3.16006,4.57278 -4.84011,6.60771 -6.90943,8.36896 -2.8132,2.39437 -6.75168,3.89448 -10.02929,3.82002 -1.78537,-0.0405 -6.76147,-1.54084 -8.34101,-2.51476 -2.88848,-1.78101 -5.32648,-4.76479 -9.0834,-11.11684 -3.75842,-6.35458 -6.44766,-10.06802 -7.02733,-9.70367 -0.32246,0.20268 0.72045,2.76084 1.84043,4.5144 0.62374,0.97659 2.31504,3.81773 3.75845,6.31367 5.25121,9.08032 5.95116,9.77442 12.57784,12.47273 3.86705,1.57461 4.83574,1.84719 6.92687,1.94914 z"
       id="path4625"
       inkscape:connector-curvature="0" />
    <path
       style="opacity:1;fill:#e6e6e6;fill-opacity:1;fill-rule:nonzero;stroke:none;stroke-width:0.10000001;stroke-linecap:butt;stroke-linejoin:miter;stroke-miterlimit:4;stroke-dasharray:none;stroke-dashoffset:0;stroke-opacity:1;paint-order:stroke fill markers"
       d="m 141.04585,206.97335 c 4.11984,1.07504 16.84368,4.49043 28.27523,7.58973 25.31443,6.86319 37.99975,10.14124 40.40238,10.44046 2.38149,0.29661 5.17709,-0.0447 5.97235,-0.72921 0.34111,-0.29358 0.82958,-1.00192 1.08548,-1.57406 1.2777,-2.85662 4.10192,-14.47228 3.78937,-15.5852 -0.0917,-0.32665 -0.84799,-0.3486 -3.99574,-0.11587 -6.80626,0.50317 -10.62292,-0.14812 -27.32534,-4.66296 -10.37441,-2.80431 -18.19538,-4.72937 -23.95797,-5.89704 -4.76845,-0.96623 -22.48003,-4.1404 -30.05975,-5.38715 -3.55504,-0.58475 -8.43345,-1.48588 -10.84092,-2.00252 -5.4809,-1.17623 -15.45426,-4.25093 -18.98779,-5.8538 -8.424325,-3.82139 -14.828797,-8.12207 -18.526329,-12.44062 -1.496161,-1.74742 -1.694252,-1.68401 -2.098659,0.67184 -0.18778,1.09392 -0.345701,2.35661 -0.350904,2.80595 -0.0053,0.44933 -0.280822,1.52106 -0.612367,2.38162 -0.897297,2.32881 -0.920773,4.0754 -0.07204,5.3537 1.744997,2.62821 6.880447,6.65297 12.156807,9.52753 10.059412,5.48034 20.335772,9.00341 45.146212,15.47759 z"
       id="path4627"
       inkscape:connector-curvature="0" />
    <path
       style="opacity:1;fill:#ff00ff;fill-opacity:1;fill-rule:nonzero;stroke:none;stroke-width:0.37795275;stroke-linecap:butt;stroke-linejoin:miter;stroke-miterlimit:4;stroke-dasharray:none;stroke-dashoffset:0;stroke-opacity:1;paint-order:stroke fill markers"
       d="m 404.85041,285.81094 c -2.35303,-0.42371 -6.89101,-1.27156 -10.0844,-1.88411 -4.41238,-0.84637 -8.77715,-1.11637 -18.18249,-1.12475 -6.80697,-0.006 -12.37631,-0.13082 -12.37631,-0.27722 0,-0.14641 0.55922,-0.86146 1.24271,-1.58901 1.1047,-1.1759 1.13864,-1.40917 0.30558,-2.10054 -1.9394,-1.60957 -0.99242,-2.02909 3.7995,-1.6832 8.20801,0.59247 37.9183,6.94126 39.5329,8.44779 1.01832,0.95016 0.11653,0.99507 -4.23749,0.21104 z"
       id="path4645"
       inkscape:connector-curvature="0"
       transform="matrix(0.26458333,0,0,0.26458333,0,87)" />
    <path
       style="opacity:1;fill:#ff00ff;fill-opacity:1;fill-rule:nonzero;stroke:none;stroke-width:0.37795275;stroke-linecap:butt;stroke-linejoin:miter;stroke-miterlimit:4;stroke-dasharray:none;stroke-dashoffset:0;stroke-opacity:1;paint-order:stroke fill markers"
       d="m 402.7113,281.53418 c -15.41597,-3.94073 -32.37906,-6.994 -38.85659,-6.994 -2.46724,0 -3.34268,-0.21226 -3.15101,-0.76397 0.44399,-1.27796 11.37934,-0.71016 20.61643,1.07047 9.52936,1.83697 28.20322,6.53459 31.23862,7.85842 l 2.07048,0.90301 -1.83353,0.0176 c -1.00844,0.01 -5.54642,-0.9315 -10.0844,-2.09153 z"
       id="path4647"
       inkscape:connector-curvature="0"
       transform="matrix(0.26458333,0,0,0.26458333,0,87)" />
    <path
       style="opacity:1;fill:#ff00ff;fill-opacity:1;fill-rule:nonzero;stroke:none;stroke-width:0.37795275;stroke-linecap:butt;stroke-linejoin:miter;stroke-miterlimit:4;stroke-dasharray:none;stroke-dashoffset:0;stroke-opacity:1;paint-order:stroke fill markers"
       d="m 395.40149,291.06988 c -0.77614,-0.49092 -0.76661,-0.70878 0.073,-1.67137 0.53103,-0.60878 0.84096,-1.45066 0.68873,-1.87084 -0.15222,-0.42019 0.0899,-0.76525 0.53814,-0.76681 1.83046,-0.006 10.8993,2.12143 10.8993,2.55728 0,1.82784 -9.84411,3.24141 -12.19921,1.75174 z"
       id="path4649"
       inkscape:connector-curvature="0"
       transform="matrix(0.26458333,0,0,0.26458333,0,87)" />
    <path
       style="opacity:1;fill:#ffffff;fill-opacity:1;fill-rule:nonzero;stroke:none;stroke-width:0.37795275;stroke-linecap:butt;stroke-linejoin:miter;stroke-miterlimit:4;stroke-dasharray:none;stroke-dashoffset:0;stroke-opacity:1;paint-order:stroke fill markers"
       d="m 456.85052,282.1708 c -0.90486,-0.68468 -1.36851,-0.72406 -2.0329,-0.17266 -1.07959,0.89598 -1.9668,-0.28987 -1.98053,-2.6472 -0.007,-1.20592 0.4387,-1.79218 1.78728,-2.35078 2.27006,-0.94029 2.85347,-0.5657 3.36491,2.16049 0.22589,1.2041 0.56152,2.58228 0.74585,3.06263 0.42594,1.10998 -0.37789,1.0876 -1.88461,-0.0525 z"
       id="path4651"
       inkscape:connector-curvature="0"
       transform="matrix(0.26458333,0,0,0.26458333,0,87)" />
    <path
       style="opacity:1;fill:#ffffff;fill-opacity:1;fill-rule:nonzero;stroke:none;stroke-width:0.37795278;stroke-linecap:butt;stroke-linejoin:miter;stroke-miterlimit:4;stroke-dasharray:none;stroke-dashoffset:0;stroke-opacity:1;paint-order:stroke fill markers"
       d=""
       id="path4653"
       inkscape:connector-curvature="0"
       transform="matrix(0.26458333,0,0,0.26458333,0,87)" />
    <path
       style="opacity:1;fill:#ffffff;fill-opacity:1;fill-rule:nonzero;stroke:none;stroke-width:0.37795278;stroke-linecap:butt;stroke-linejoin:miter;stroke-miterlimit:4;stroke-dasharray:none;stroke-dashoffset:0;stroke-opacity:1;paint-order:stroke fill markers"
       d="m 436.86567,287.8427 c -1.01156,-0.40468 -2.45161,-2.34656 -3.20012,-4.31529 -2.31523,-6.0895 3.97186,-16.85633 13.02441,-22.30472 8.46095,-5.09233 15.09886,-7.83552 15.09886,-6.23978 0,0.59947 -2.17105,3.19422 -4.82455,5.76609 -5.23316,5.07218 -8.16556,14.41213 -6.7671,21.55382 0.50885,2.59859 0.10394,4.42587 -1.15781,5.22493 -2.0938,1.32598 -9.18773,1.50951 -12.17369,0.31495 z"
       id="path4655"
       inkscape:connector-curvature="0"
       transform="matrix(0.26458333,0,0,0.26458333,0,87)" />
    <path
       style="opacity:1;fill:#ffffff;fill-opacity:1;fill-rule:nonzero;stroke:none;stroke-width:0.37795278;stroke-linecap:butt;stroke-linejoin:miter;stroke-miterlimit:4;stroke-dasharray:none;stroke-dashoffset:0;stroke-opacity:1;paint-order:stroke fill markers"
       d="m 464.75736,284.21317 c -1.95652,-1.95651 -2.0233,-8.02836 -0.14269,-12.97472 1.22729,-3.22803 8.67033,-11.52672 10.53386,-11.74484 0.34681,-0.0406 0.78796,-0.12627 0.98033,-0.19039 2.35101,-0.78367 6.92759,-0.55862 7.5008,0.36885 0.40532,0.65582 1.32301,0.8302 2.0393,0.3875 0.7163,-0.44269 1.30236,-0.27392 1.30236,0.37506 0,0.64897 -1.94624,2.32962 -4.32498,3.73478 -2.9283,1.72979 -5.59003,5.37438 -8.24236,11.28593 -4.00973,8.93692 -6.87042,11.53404 -9.64662,8.75783 z"
       id="path4657"
       inkscape:connector-curvature="0"
       transform="matrix(0.26458333,0,0,0.26458333,0,87)" />
    <path
       style="opacity:1;fill:#ffffff;fill-opacity:1;fill-rule:nonzero;stroke:none;stroke-width:0.37795278;stroke-linecap:butt;stroke-linejoin:miter;stroke-miterlimit:4;stroke-dasharray:none;stroke-dashoffset:0;stroke-opacity:1;paint-order:stroke fill markers"
       d="m 499.36226,269.45032 c -0.85072,-2.1995 -0.9627,-5.11301 -0.27238,-7.08722 2.66612,-7.62471 18.54207,-15.90964 20.53495,-10.71626 0.4985,1.29907 -0.2915,2.72847 -2.0189,3.65295 -1.56082,0.83532 -3.96961,4.15905 -5.35286,7.38605 -4.24679,9.90735 -10.42188,13.14774 -12.89081,6.76448 z"
       id="path4659"
       inkscape:connector-curvature="0"
       transform="matrix(0.26458333,0,0,0.26458333,0,87)" />
    <path
       style="opacity:1;fill:#ffffff;fill-opacity:1;fill-rule:nonzero;stroke:none;stroke-width:0.37795278;stroke-linecap:butt;stroke-linejoin:miter;stroke-miterlimit:4;stroke-dasharray:none;stroke-dashoffset:0;stroke-opacity:1;paint-order:stroke fill markers"
       d="m 527.02154,263.26713 c -4.68725,-7.43259 -4.30585,-9.0882 2.89511,-12.56755 6.43023,-3.10694 13.37895,-3.97419 15.42766,-1.92549 1.23103,1.23103 -2.97426,9.07251 -7.45967,13.90982 -4.22715,4.55879 -8.22076,4.7732 -10.8631,0.58322 z"
       id="path4661"
       inkscape:connector-curvature="0"
       transform="matrix(0.26458333,0,0,0.26458333,0,87)" />
    <path
       style="opacity:1;fill:#ffffff;fill-opacity:1;fill-rule:nonzero;stroke:none;stroke-width:0.37795278;stroke-linecap:butt;stroke-linejoin:miter;stroke-miterlimit:4;stroke-dasharray:none;stroke-dashoffset:0;stroke-opacity:1;paint-order:stroke fill markers"
       d="m 564.87968,261.31432 c -0.52901,-0.52901 -0.96183,-3.93357 -0.96183,-7.56569 0,-5.14284 1.00593,-8.08681 4.54684,-13.30689 2.50076,-3.68667 5.65049,-6.85021 6.99939,-7.03008 3.09085,-0.41216 4.928,5.92935 2.63241,9.08659 -0.89247,1.22747 -2.87311,5.06479 -4.40142,8.52739 -4.62971,10.48926 -6.4686,12.63547 -8.81539,10.28868 z"
       id="path4663"
       inkscape:connector-curvature="0"
       transform="matrix(0.26458333,0,0,0.26458333,0,87)" />
    <path
       style="opacity:1;fill:#ffffff;fill-opacity:1;fill-rule:nonzero;stroke:none;stroke-width:0.37795278;stroke-linecap:butt;stroke-linejoin:miter;stroke-miterlimit:4;stroke-dasharray:none;stroke-dashoffset:0;stroke-opacity:1;paint-order:stroke fill markers"
       d="m 583.50424,238.3053 c 0,-1.60993 -1.25913,-4.52786 -2.79806,-6.4843 -3.74965,-4.7669 -3.5293,-5.97786 1.08773,-5.97786 6.04941,0 9.86272,3.36546 9.05837,7.99453 -1.08881,6.26619 -7.34804,10.07182 -7.34804,4.46763 z"
       id="path4665"
       inkscape:connector-curvature="0"
       transform="matrix(0.26458333,0,0,0.26458333,0,87)" />
    <path
       style="opacity:1;fill:#ffffff;fill-opacity:1;fill-rule:nonzero;stroke:none;stroke-width:0.37795278;stroke-linecap:butt;stroke-linejoin:miter;stroke-miterlimit:4;stroke-dasharray:none;stroke-dashoffset:0;stroke-opacity:1;paint-order:stroke fill markers"
       d="m 592.5362,253.22634 c -1.73941,-2.65469 -1.92934,-4.46534 -0.87059,-8.29982 0.7448,-2.69742 0.99694,-5.26164 0.56031,-5.69827 -0.43662,-0.43662 -0.12762,-0.79386 0.68667,-0.79386 0.8143,0 1.88233,-1.60087 2.3734,-3.55748 1.25654,-5.00643 4.54115,-5.76167 8.57533,-1.97176 4.19362,3.93971 4.4034,9.53708 0.66601,17.77073 -2.13951,4.71344 -3.43138,5.94587 -6.23265,5.94587 -2.19715,0 -4.3752,-1.28426 -5.75848,-3.39541 z"
       id="path4667"
       inkscape:connector-curvature="0"
       transform="matrix(0.26458333,0,0,0.26458333,0,87)" />
    <path
       style="opacity:1;fill:#ffffff;fill-opacity:1;fill-rule:nonzero;stroke:none;stroke-width:0.37795278;stroke-linecap:butt;stroke-linejoin:miter;stroke-miterlimit:4;stroke-dasharray:none;stroke-dashoffset:0;stroke-opacity:1;paint-order:stroke fill markers"
       d="m 624.95523,248.02034 c -1.44011,-0.83665 -7.55391,-6.61839 -13.58623,-12.8483 -9.63952,-9.95528 -10.72929,-11.59071 -8.99817,-13.50358 2.80786,-3.10264 13.47419,-2.45929 17.23785,1.03973 1.04218,0.9689 2.47369,1.40392 3.18112,0.9667 0.70743,-0.43722 1.28624,-0.27751 1.28624,0.35491 0,0.63241 1.37618,1.7713 3.05817,2.53086 3.48202,1.57242 7.66563,8.42822 8.35546,13.69234 0.31488,2.40289 -0.62061,4.49504 -2.89003,6.4633 -3.83377,3.32501 -4.09041,3.36879 -7.64441,1.30404 z"
       id="path4669"
       inkscape:connector-curvature="0"
       transform="matrix(0.26458333,0,0,0.26458333,0,87)" />
    <path
       style="opacity:1;fill:#ffffff;fill-opacity:1;fill-rule:nonzero;stroke:none;stroke-width:0.37795278;stroke-linecap:butt;stroke-linejoin:miter;stroke-miterlimit:4;stroke-dasharray:none;stroke-dashoffset:0;stroke-opacity:1;paint-order:stroke fill markers"
       d="m 622.6278,219.48822 c -2.24506,-2.70513 -0.78978,-4.16197 5.98409,-5.99051 6.93971,-1.87331 8.44553,0.54585 3.03472,4.87538 -4.78244,3.82674 -6.58355,4.04943 -9.01881,1.11513 z"
       id="path4671"
       inkscape:connector-curvature="0"
       transform="matrix(0.26458333,0,0,0.26458333,0,87)" />
    <path
       style="opacity:1;fill:#ffffff;fill-opacity:1;fill-rule:nonzero;stroke:none;stroke-width:0.37795278;stroke-linecap:butt;stroke-linejoin:miter;stroke-miterlimit:4;stroke-dasharray:none;stroke-dashoffset:0;stroke-opacity:1;paint-order:stroke fill markers"
       d="m 548.96244,244.31009 c -2.5906,-6.20016 -0.93371,-8.07911 8.31002,-9.42379 7.79994,-1.13465 8.25118,-0.0521 3.47456,8.33583 -4.23755,7.4413 -8.94828,7.8762 -11.78458,1.08796 z"
       id="path4673"
       inkscape:connector-curvature="0"
       transform="matrix(0.26458333,0,0,0.26458333,0,87)" />
    <path
       style="opacity:1;fill:#ffffff;fill-opacity:1;fill-rule:nonzero;stroke:none;stroke-width:0.37795278;stroke-linecap:butt;stroke-linejoin:miter;stroke-miterlimit:4;stroke-dasharray:none;stroke-dashoffset:0;stroke-opacity:1;paint-order:stroke fill markers"
       d="m 519.42876,246.54875 c -2.85982,-2.85983 -1.88814,-3.77737 3.76168,-3.55207 3.79969,0.15152 5.23225,0.75964 4.75,2.01638 -0.37978,0.98968 -1.2541,1.4511 -1.94294,1.02538 -0.68884,-0.42572 -1.25243,-0.10733 -1.25243,0.70755 0,1.99892 -3.24036,1.8787 -5.31631,-0.19724 z"
       id="path4675"
       inkscape:connector-curvature="0"
       transform="matrix(0.26458333,0,0,0.26458333,0,87)" />
    <path
       style="opacity:1;fill:#ffffff;fill-opacity:1;fill-rule:nonzero;stroke:none;stroke-width:0.37795278;stroke-linecap:butt;stroke-linejoin:miter;stroke-miterlimit:4;stroke-dasharray:none;stroke-dashoffset:0;stroke-opacity:1;paint-order:stroke fill markers"
       d="m 488.37035,260.28996 c 0,-1.8563 -1.39145,-4.31329 -3.14781,-5.55834 -3.09482,-2.19385 -3.1021,-2.26738 -0.43212,-4.36773 2.75773,-2.16937 16.2007,-3.03947 18.07055,-1.16962 1.00504,1.00504 -11.45073,14.42262 -13.38876,14.42262 -0.60602,0 -1.10186,-1.49712 -1.10186,-3.32693 z"
       id="path4677"
       inkscape:connector-curvature="0"
       transform="matrix(0.26458333,0,0,0.26458333,0,87)" />
    <path
       style="opacity:1;fill:#ffffff;fill-opacity:1;fill-rule:nonzero;stroke:none;stroke-width:0.37795278;stroke-linecap:butt;stroke-linejoin:miter;stroke-miterlimit:4;stroke-dasharray:none;stroke-dashoffset:0;stroke-opacity:1;paint-order:stroke fill markers"
       d="m 454.11503,270.64578 c -1.29071,-2.08842 4.75313,-9.4367 9.31604,-11.32672 6.03674,-2.5005 6.45513,-0.47477 1.06018,5.13313 -5.82934,6.05943 -9.21146,8.07822 -10.37622,6.19359 z"
       id="path4679"
       inkscape:connector-curvature="0"
       transform="matrix(0.26458333,0,0,0.26458333,0,87)" />
    <path
       style="opacity:1;fill:#ffffff;fill-opacity:1;fill-rule:nonzero;stroke:none;stroke-width:0.37795278;stroke-linecap:butt;stroke-linejoin:miter;stroke-miterlimit:4;stroke-dasharray:none;stroke-dashoffset:0;stroke-opacity:1;paint-order:stroke fill markers"
       d="m 759.08222,513.40993 c -16.15877,-4.15237 -47.95168,-12.55318 -70.6509,-18.66847 -22.69923,-6.1153 -77.78595,-20.93087 -122.41493,-32.92349 -94.85776,-25.49 -99.55831,-26.81511 -127.75805,-36.01588 -52.14899,-17.01472 -88.75549,-35.73777 -113.12502,-57.85981 -10.93089,-9.92279 -12.45503,-14.05414 -9.33982,-25.31669 1.27147,-4.59679 3.00504,-13.25796 3.85239,-19.24705 0.84736,-5.98909 2.07912,-10.93729 2.73725,-10.99601 0.65814,-0.0587 6.10399,4.60228 12.1019,10.35778 12.78815,12.2713 28.04515,22.66458 50.35726,34.30406 18.07195,9.42753 27.19817,12.91421 55.32106,21.13548 24.0638,7.03466 33.63203,9.00238 99.78591,20.52111 89.30926,15.55055 107.91872,19.55934 180.65968,38.91711 52.45751,13.95994 65.42709,16.26659 91.46234,16.26659 12.0224,0 21.85891,0.30477 21.85891,0.67724 0,3.38659 -7.858,36.48435 -11.19575,47.15625 -5.54488,17.72892 -7.4529,19.33403 -22.91934,19.2807 -9.08694,-0.0313 -17.2181,-1.54625 -40.73289,-7.58892 z"
       id="path4681"
       inkscape:connector-curvature="0"
       transform="matrix(0.26458333,0,0,0.26458333,0,87)" />
    <path
       style="fill:#000000;stroke-width:1"
       d="m 18.518369,284.59036 c -0.907451,-0.19936 -1.983459,-1.11231 -2.47949,-2.10404 -0.368942,-0.7376 -0.416398,-0.9704 -0.416398,-2.04326 0,-1.05764 0.0503,-1.31276 0.397235,-2.01653 0.727372,-1.47552 1.830128,-2.17995 3.38444,-2.162 1.117128,0.0125 1.591228,0.1781 2.11116,0.73539 l 0.370406,0.39704 v -0.48235 -0.48239 h 0.80815 0.808177 v 4.01084 4.01083 h -0.808177 c -0.776531,0 -0.80815,-0.016 -0.80815,-0.38609 v -0.38608 l -0.449587,0.38536 c -0.247257,0.21194 -0.770782,0.45379 -1.163279,0.53742 -0.80634,0.17186 -0.911178,0.17097 -1.754487,-0.0143 z m 1.974596,-2.04999 c 1.747248,-0.93167 1.356294,-4.04743 -0.551497,-4.3953 -1.594848,-0.29083 -2.942252,1.23109 -2.513505,2.83909 0.40687,1.52597 1.797551,2.23206 3.065002,1.55621 z m 7.251923,2.08315 c -1.163997,-0.34561 -2.162766,-1.30228 -2.64895,-2.53733 -0.282469,-0.71788 -0.340943,-2.10534 -0.122963,-2.91646 0.310788,-1.15538 1.327363,-2.29444 2.421442,-2.7135 0.815921,-0.3125 2.309844,-0.22228 3.021326,0.18244 l 0.628975,0.35779 v -1.5575 c 0,-1.75253 -0.04019,-1.69408 1.096847,-1.60294 l 0.654153,0.0524 v 5.28271 5.28271 h -0.875513 c -0.688434,0 -0.875487,-0.0486 -0.875487,-0.22704 0,-0.29355 -0.03833,-0.28837 -0.708581,0.0958 -0.610291,0.34983 -1.915936,0.50144 -2.591435,0.30087 z m 2.289776,-2.11426 c 0.587189,-0.37331 1.043057,-1.44542 0.966378,-2.27267 -0.196687,-2.12143 -2.653501,-2.90793 -3.896893,-1.2475 -0.702486,0.93813 -0.618302,2.26729 0.19935,3.14937 0.751272,0.81039 1.812907,0.95452 2.731059,0.3708 z m 10.102006,2.11457 c -1.174298,-0.34957 -2.16282,-1.30273 -2.659463,-2.56437 -0.206004,-0.52283 -0.253113,-0.92269 -0.216384,-1.82745 0.04125,-1.00912 0.10593,-1.2608 0.502632,-1.95567 0.78896,-1.38141 1.850009,-1.99546 3.447945,-1.99546 0.749755,0 1.108717,0.0805 1.596205,0.35779 l 0.628975,0.35779 v -1.5546 -1.55461 l 0.742569,-0.0518 c 0.40844,-0.0287 0.802428,-0.0292 0.875513,-8.9e-4 0.08411,0.0321 0.132811,1.99425 0.132811,5.33514 v 5.28465 H 44.31196 c -0.688461,0 -0.875514,-0.0486 -0.875514,-0.22701 0,-0.29226 -0.04019,-0.28747 -0.684441,0.0819 -0.592432,0.33963 -1.973931,0.50602 -2.615548,0.315 z m 2.289775,-2.11457 c 0.587189,-0.37331 1.043084,-1.44542 0.966379,-2.27267 -0.195889,-2.11418 -2.653129,-2.90837 -3.8896,-1.2572 -1.530891,2.04436 0.81129,4.87254 2.923221,3.52987 z m 6.841967,2.09476 c -1.091072,-0.25426 -1.974863,-1.00082 -2.53863,-2.1444 -0.346825,-0.70381 -0.397208,-0.95893 -0.397208,-2.01656 0,-1.05764 0.0503,-1.31276 0.397208,-2.01653 0.724498,-1.46964 1.819003,-2.17147 3.372064,-2.16237 1.11263,0.005 1.601209,0.17578 2.123562,0.73576 l 0.370407,0.39704 v -0.48235 -0.48239 h 0.80815 0.808176 v 4.01084 4.01083 h -0.808176 c -0.786272,0 -0.80815,-0.0107 -0.80815,-0.40478 v -0.40475 l -0.30307,0.31902 c -0.166612,0.17542 -0.45853,0.38516 -0.648537,0.46604 -0.54141,0.23043 -1.753875,0.31953 -2.375796,0.17453 z m 1.934646,-2.06365 c 1.351476,-0.72064 1.513325,-3.03056 0.281378,-4.01626 -0.494062,-0.39529 -1.564719,-0.53472 -2.120369,-0.27607 -0.586124,0.27281 -1.171583,1.09199 -1.275782,1.78519 -0.09635,0.64067 0.147982,1.51556 0.572843,2.052 0.546414,0.68981 1.710784,0.89829 2.541903,0.45514 z m 5.79505,1.99694 c -0.838705,-0.3361 -1.316664,-1.0228 -1.524424,-2.19026 l -0.08304,-0.46615 h 0.824998 c 0.719094,0 0.825024,0.0367 0.825024,0.28595 0,0.50672 0.453127,0.97366 0.930128,0.95843 0.617237,-0.0201 0.842164,-0.28285 0.79399,-0.92872 -0.03859,-0.51997 -0.09129,-0.57117 -1.25095,-1.22378 -1.392597,-0.78351 -1.727046,-1.24782 -1.707005,-2.36955 0.01597,-0.83262 0.34978,-1.51987 0.971702,-1.99419 0.402158,-0.30668 0.593443,-0.34688 1.432174,-0.30077 0.806899,0.0443 1.027594,0.11576 1.326059,0.42914 0.428987,0.45042 0.736501,1.07818 0.736501,1.50354 0,0.27398 -0.08384,0.31021 -0.719175,0.31021 -0.629534,0 -0.737672,-0.0456 -0.867289,-0.36526 -0.199615,-0.49227 -0.635496,-0.62757 -1.046624,-0.32488 -0.675552,0.49737 -0.294259,1.12544 1.104539,1.82013 0.455682,0.2263 1.001165,0.61398 1.212225,0.8615 0.349034,0.40936 0.383714,0.54826 0.383714,1.53738 0,1.31225 -0.221706,1.73512 -1.205065,2.29626 -0.740334,0.42262 -1.36702,0.4698 -2.137536,0.16118 z m -22.63123,-0.0328 c -0.01065,-0.0143 -0.0027,-1.83566 0.01597,-4.04868 l 0.03779,-4.02364 h 0.803865 0.803865 v 3.99739 3.99739 l -0.819834,0.0513 c -0.450865,0.0281 -0.829708,0.0401 -0.841818,0.0262 z m 28.360353,-6.65915 c -0.87924,-0.48693 -1.361271,-1.71406 -1.100653,-2.80168 0.523631,-2.18504 3.236112,-2.53199 4.084771,-0.52248 0.903539,2.13963 -1.097726,4.36893 -2.984118,3.32416 z m 2.04337,-0.60257 c 0.387919,-0.31783 0.755771,-1.0758 0.755771,-1.55726 0,-1.70835 -1.922324,-2.61175 -2.994312,-1.40719 -0.824412,0.92637 -0.57074,2.62012 0.471492,3.14819 0.535209,0.27119 1.310089,0.19071 1.767049,-0.18384 z m -1.98298,-0.30609 c -0.04924,-0.0556 -0.08969,-0.66846 -0.08969,-1.36217 v -1.26125 h 0.800511 c 0.674541,0 0.833541,0.0529 1.010188,0.33638 0.270332,0.4339 0.264823,0.50973 -0.06521,0.88045 l -0.274751,0.30871 0.274751,0.43357 c 0.355662,0.56103 0.347198,0.76522 -0.033,0.76522 -0.211592,0 -0.384406,-0.16349 -0.559961,-0.52974 -0.139731,-0.29137 -0.304906,-0.52975 -0.367426,-0.52975 -0.06255,0 -0.113648,0.23838 -0.113648,0.52975 0,0.41278 -0.05456,0.52974 -0.246724,0.52974 -0.135739,0 -0.287234,-0.0452 -0.336898,-0.10098 z m 1.189788,-1.86668 c 0,-0.12484 -0.136537,-0.2488 -0.303069,-0.27537 -0.233151,-0.0372 -0.30307,0.0262 -0.30307,0.27537 0,0.24919 0.07,0.31263 0.30307,0.27541 0.166612,-0.0265 0.303069,-0.15067 0.303069,-0.27541 z m -29.586391,-0.39304 c -0.02661,-0.46591 -0.01597,-0.86603 0.02129,-0.88915 0.037,-0.0231 0.415892,-0.009 0.841845,0.0335 l 0.774481,0.0755 v 0.81368 0.8137 h -0.795691 -0.795694 z m -13.298381,-4.38325 c -0.304533,-0.54589 -0.553467,-1.03966 -0.552988,-1.09729 4.79e-4,-0.0575 0.166878,-0.21245 0.370406,-0.34406 0.203342,-0.13144 1.624764,-1.09769 3.158902,-2.14686 l 2.789319,-1.90757 1.508667,2.82793 c 0.829762,1.55537 1.624338,3.01524 1.765746,3.24417 l 0.257104,0.4162 H 26.018108 21.64645 Z m 9.68284,-3.4915 c -1.37048,-2.46328 -2.484228,-4.52238 -2.474992,-4.57573 0.02661,-0.13892 6.012843,-4.24722 6.200748,-4.25376 0.08597,-0.002 1.68683,2.83806 3.557387,6.31349 1.870583,3.47541 3.489198,6.47221 3.596884,6.65949 l 0.195623,0.34053 -4.291998,-0.002 -4.292025,-0.002 z m 13.823663,4.14349 c -1.841892,-3.2893 -8.435909,-15.31975 -8.435909,-15.39091 0,-0.0534 1.287999,-0.97589 2.86222,-2.04992 1.574247,-1.07407 2.992448,-2.04514 3.151582,-2.15794 0.280632,-0.19895 0.442321,0.0816 5.443087,9.45091 2.83462,5.31079 5.269422,9.84326 5.410644,10.07219 l 0.256838,0.4162 h -4.248908 -4.248935 z"
       id="path4694"
       inkscape:connector-curvature="0" />
  </g>
</svg>
